<?xml version="1.0" standalone="no"?>
<!DOCTYPE svg PUBLIC "-//W3C//DTD SVG 1.1//EN" "http://www.w3.org/Graphics/SVG/1.1/DTD/svg11.dtd">
<svg xmlns="http://www.w3.org/2000/svg">
<defs >
<font id="ShantellSans" horiz-adv-x="950" ><font-face
    font-family="Shantell Sans SemiBold"
    units-per-em="1000"
    panose-1="0 0 0 0 0 0 0 0 0 0"
    ascent="1020"
    descent="-320"
    alphabetic="0" />
<glyph unicode=" " glyph-name="space" horiz-adv-x="343" />
<glyph unicode="!" glyph-name="exclam" horiz-adv-x="291" d="M149 230Q123 230 109 243T95 284Q96 332 100 370T114 457Q122 496 130 528T147 590T161 653Q166 679 181 697T225 716Q258 716 275 694T282 621Q278 599 272 578T258 531T243 467Q237 438 234 414T228
370T224 333T217 299Q210 263 191 247T149 230ZM109 -12Q62 -12 38 9T22 70Q29 106 53 125T111 144Q163 144 182 115T193 51Q188 24 167 6T109 -12Z" />
<glyph unicode="&quot;" glyph-name="quotedbl" horiz-adv-x="496" d="M383 378Q351 378 336 399T333 455Q351 500 367 548T389 643Q394 676 411 696T460 716Q491 716 506 702T522 666Q520 612 501 547T452 425Q441 402 423 390T383 378ZM140 378Q118 378 104
392T87 427T94 469Q113 505 128 552T146 643Q147 665 156 681T181 706T217 716Q248 716 264 701T281 664Q281 629 272 588T247 504T210 425Q185 378 140 378Z" />
<glyph unicode="#" glyph-name="numbersign" horiz-adv-x="971" d="M189 -121Q159 -120 141 -98T130 -32Q134 14 155 78T208 216T273 366T339 514T391 645T418 744Q424 780 441 798T487 817Q524 817 541 796T553 734Q548 694 527 634T474 501T408 350T343 197T290
57T262 -57Q258 -86 238 -104T189 -121ZM131 120Q91 120 68 133T35 166T26 208Q28 232 47 248T95 265Q213 265 340 267T593 271T835 273Q868 273 883 260T898 219Q899 200 889 182T857 153T799 140Q723 139 635 136T458 130T284 123T131 120ZM528 -172Q493 -171
476 -152T465 -92Q474 -24 496 48T550 192T614 336T677 472T728 595T755 698Q760 730 776 747T825 765Q861 765 878 745T887 672Q882 629 861 575T811 457T748 324T685 181T633 35T602 -109Q596 -139 575 -156T528 -172ZM888 422Q709 422 554 419T249 422Q206 424
184 435T154 464T145 499Q145 525 161 541T211 557Q232 557 254 556T308 554T386 551T504 548T674 545T913 544Q970 544 971 494Q972 466 950 444T888 422Z" />
<glyph unicode="$" glyph-name="dollar" horiz-adv-x="700" d="M225 -9Q157 -9 114 7T53 50T39 105Q42 124 53 135T91 147Q110 147 125 140T163 126T233 118Q295 118 341 123T424 139T493 168Q492 194 469 212T409 244T329 271T243 300T168 337T118 389T110 464Q119
507 151 541T230 603T333 651T446 684T553 703T641 710Q672 710 688 701T710 675T712 640Q707 617 687 600T635 580Q515 571 430 552T298 506T245 448Q241 432 262 420T319 396T399 372T486 342T562 300T612 241T619 158Q608 102 557 65T421 10T225 -9ZM279 -144Q241
-144 225 -127T210 -89Q212 -35 219 12T238 103T265 193T302 294Q310 318 325 329T360 341Q383 341 393 321T395 262Q382 214 370 158T349 42T337 -76Q332 -110 319 -127T279 -144ZM371 292Q339 292 331 313T334 376Q349 434 363 495T386 619T396 741Q396 760 406
776T434 803T473 813Q497 813 512 800T529 766Q529 693 514 619T474 473T422 336Q413 317 401 305T371 292Z" />
<glyph unicode="%" glyph-name="percent" horiz-adv-x="959" d="M197 -21Q172 -21 159 -4T146 38T167 87Q236 171 309 251T460 406T614 549T768 676Q796 698 816 707T857 716Q878 716 888 702T898 666T882 618T837 569Q724 485 628 400T445 223T272 24Q253 1 235
-10T197 -21ZM279 369Q216 369 174 393T115 460T109 557Q118 601 147 637T217 695T303 717Q329 717 342 700T351 658Q347 642 334 628T301 603Q271 591 258 575T241 542Q236 519 248 504T290 489Q317 489 334 503T356 541Q360 562 350 577T319 593Q291 593 273
605T261 648Q267 677 286 693T333 710Q391 710 428 686T480 621T484 525Q475 480 446 445T373 389T279 369ZM669 -12Q602 -12 562 14T506 83T501 180Q509 220 537 251T606 301T688 320Q716 320 729 308T738 273Q733 251 724 236T699 218Q665 213 649 197T629 159Q624
136 638 122T679 107Q708 107 727 123T752 166Q758 196 742 216T693 236Q667 236 654 249T647 295Q653 323 672 337T720 352Q781 352 820 325T875 252T879 147Q870 100 840 64T766 8T669 -12Z" />
<glyph unicode="&amp;" glyph-name="ampersand" horiz-adv-x="668" d="M477 -146Q450 -146 437 -131T429 -90Q433 -73 440 -63T455 -44T472 -24T483 5Q487 25 481 45T451 92T382 154T261 243Q199 286 163 323T109 394T90 461T94 526Q104 575 138 617T233 684T379
710Q450 710 495 699T577 665Q600 652 607 634T611 596Q607 572 589 557T541 541Q526 541 512 547T479 561T435 576T369 582Q306 582 268 561T222 504Q219 486 222 469T241 432T288 387T373 326Q458 268 508 221T582 135T609 59T606 -13Q601 -35 591 -58T565 -102T527
-134T477 -146ZM204 -15Q149 -15 106 11T43 84T35 191Q47 248 81 287T159 354Q182 367 203 368T240 353Q249 344 246 324T230 290Q199 262 185 240T164 188Q159 165 166 147T187 118T221 107Q269 107 319 139T428 237T566 404Q582 425 595 434T627 444Q654 444
669 424T679 371Q677 362 669 347T645 310Q566 213 505 150T394 51T298 0T204 -15Z" />
<glyph unicode="&apos;" glyph-name="quotesingle" horiz-adv-x="272" d="M150 378Q129 378 115 392T98 427T104 469Q123 506 139 553T157 646Q158 666 167 682T193 707T230 716Q259 716 274 701T290 666Q291 630 282 589T256 505T219 425Q194 378 150 378Z" />
<glyph unicode="(" glyph-name="parenleft" horiz-adv-x="468" d="M272 -262Q258 -262 245 -259T205 -245Q144 -217 102 -156T46 -2T57 218Q79 325 128 424T244 612T388 776Q410 798 429 804T464 811Q486 811 500 801T521 776T525 743Q523 730 515 717T488 687Q424
623 363 546T254 378T186 188Q160 55 193 -30T310 -148Q336 -157 344 -172T349 -205Q345 -223 335 -236T308 -255T272 -262Z" />
<glyph unicode=")" glyph-name="parenright" horiz-adv-x="451" d="M6 -259Q-10 -259 -26 -253T-53 -233T-59 -199Q-57 -183 -48 -170T-18 -143Q60 -93 117 -32T212 103T267 261Q288 365 280 445T240 584T162 680Q138 699 130 717T125 756Q130 779 149 795T193
811Q214 811 229 805T264 784Q308 750 341 697T393 573T413 418T396 238Q376 136 334 48T232 -110T96 -229Q69 -246 48 -252T6 -259Z" />
<glyph unicode="*" glyph-name="asterisk" horiz-adv-x="502" d="M129 328Q107 328 94 343T84 378Q85 385 89 394T107 416Q138 448 184 480T280 543T373 604T439 662Q452 677 465 684T495 691Q516 691 527 677T534 643Q532 631 526 620T510 596Q486 569 444 541T353
481T258 417T177 348Q167 336 155 332T129 328ZM266 236Q244 236 234 247T224 278Q224 323 232 375T252 476T271 564Q279 605 279 630T277 670T272 696T273 722Q277 740 288 750T321 760Q346 760 362 738T381 673T371 564Q364 529 354 483T335 389T326 296Q326
267 310 252T266 236ZM446 370Q434 370 426 374T396 392Q366 414 330 435T257 478T187 518T130 553Q109 567 105 584T103 615Q107 633 119 643T148 654Q162 654 171 650T196 636Q229 616 277 590T378 531T483 463Q504 449 498 419Q494 399 480 385T446 370Z" />
<glyph unicode="+" glyph-name="plus" horiz-adv-x="700" d="M124 235Q92 233 80 252T72 297Q77 322 94 340T161 369Q225 381 293 389T429 402T557 407Q600 407 621 388T636 337Q633 317 619 305T572 291Q477 290 408 283T288 266T199 249T124 235ZM299 31Q275
31 261 50T251 110Q259 175 271 233T298 345T326 450T347 549Q351 575 365 592T408 609Q443 609 460 584T466 502Q457 457 444 401T417 288T390 182T372 101Q364 65 344 48T299 31Z" />
<glyph unicode="," glyph-name="comma" horiz-adv-x="287" d="M-11 -175Q-32 -175 -42 -165T-49 -136Q-46 -123 -39 -109T-18 -72Q3 -38 15 -6T34 55T45 106Q53 141 72 161T121 181Q166 181 187 158T200 92Q193 60 178 23T142 -51T94 -116Q74 -141 46 -158T-11 -175Z" />
<glyph unicode="-" glyph-name="hyphen" horiz-adv-x="507" d="M158 190Q119 190 94 201T58 229T50 264Q53 278 62 288T91 302Q159 317 220 322T343 327Q391 327 417 314T452 282T458 248Q454 228 439 216T399 204Q324 204 278 201T204 194T158 190Z" />
<glyph unicode="." glyph-name="period" horiz-adv-x="301" d="M117 -14Q62 -14 37 13T21 89Q28 124 53 145T112 166Q152 166 175 149T206 107T207 55Q203 27 180 7T117 -14Z" />
<glyph unicode="/" glyph-name="slash" horiz-adv-x="405" d="M5 -211Q-33 -211 -47 -185T-48 -117Q-7 0 44 119T153 353T275 572T403 762Q429 797 453 812T502 828Q527 828 542 811T555 763T526 697Q426 561 347 426T206 151T90 -141Q79 -176 57 -193T5 -211Z" />
<glyph unicode="0" glyph-name="zero" horiz-adv-x="704" d="M287 -11Q211 -11 154 25T73 135T71 320Q85 395 120 452T197 550T278 610T342 631Q369 631 378 619T381 575Q379 560 369 546T342 520Q305 497 276 465T228 392T198 304Q188 251 194 209T225 143T296
118Q344 118 394 149T484 241T542 389Q553 443 549 487T524 556T465 582Q426 582 395 571T335 541T281 497Q269 487 257 479T230 471Q199 471 182 492T171 543Q176 565 200 593T265 649T361 693T480 711Q564 711 612 668T675 550T669 373Q649 273 609 200T516 81T404
12T287 -11Z" />
<glyph unicode="1" glyph-name="one" horiz-adv-x="414" d="M285 60Q278 24 261 7T215 -11Q181 -11 166 9T157 69Q174 153 193 241T235 417T286 583L312 554Q281 533 253 520T201 500T157 494Q119 494 103 516T93 569Q97 589 112 603T157 620Q196 626 232 644T305
688Q321 700 337 706T372 712Q398 712 415 699T436 662T429 611Q408 556 387 487T347 344T313 196T285 60Z" />
<glyph unicode="2" glyph-name="two" horiz-adv-x="700" d="M120 -20Q69 -20 50 8T40 82Q45 106 56 120T81 141Q191 204 270 254T400 346T478 425T513 499Q521 537 504 559T441 582Q396 582 358 570T289 541T235 513T195 501Q168 501 154 522T144 572Q148 590
157 603T189 630Q255 671 324 692T459 713Q542 713 586 684T643 605T643 491Q635 449 611 404T537 310T407 206T203 88L183 125Q198 119 214 117T249 115Q280 115 323 119T416 127T523 131Q585 131 604 109T617 55Q612 32 592 16T537 0Q456 0 392 -3T278 -10T189
-17T120 -20Z" />
<glyph unicode="3" glyph-name="three" horiz-adv-x="700" d="M518 -12Q432 -12 383 6T315 51T301 107Q306 130 321 144T362 159Q378 159 388 153T411 139T448 125T518 119Q589 119 641 131T723 165T760 216Q767 248 748 265T683 290T561 298Q523 298 509 320T500
371Q504 388 516 400T552 417Q611 430 656 446T730 485T764 538Q768 558 761 568T738 583T701 587Q639 587 597 578T526 557T475 536T435 526Q418 526 406 533T389 554T387 586Q392 607 419 629T490 670T589 700T703 712Q781 712 828 691T892 631T900 540Q894 513
880 486T837 434T766 392T659 363L662 393Q732 393 779 378T853 336T887 274T887 197Q877 148 847 109T769 43T657 2T518 -12Z" />
<glyph unicode="4" glyph-name="four" horiz-adv-x="700" d="M405 -11Q364 -11 352 29T356 157Q370 228 395 296T445 429T482 553Q487 575 487 593T482 631L522 592Q450 558 384 505T263 385T165 244L135 301Q159 291 169 288T196 285Q245 285 291 293T387 311T492
328T613 336Q637 336 653 325T677 296T680 255Q675 233 659 219T612 204Q539 204 478 197T361 180T252 164T139 156Q103 156 80 169T47 204T41 248Q47 278 62 311T115 394Q168 466 229 525T350 627T462 692T545 715Q581 715 600 696T623 643T618 567Q608 511 591
461T554 361T517 260T487 148Q479 109 480 88T476 45Q471 19 453 4T405 -11Z" />
<glyph unicode="5" glyph-name="five" horiz-adv-x="621" d="M192 -12Q121 -12 80 4T23 47T15 109Q19 133 34 146T76 159Q93 159 102 153T120 138T148 123T201 116Q240 116 278 124T349 149T404 189T432 243Q436 264 426 278T389 303T317 323Q239 338 194 353T127
388T103 433T107 496Q113 525 127 561T165 645Q180 674 196 687T238 700Q292 700 332 702T406 708T473 713T547 716Q602 716 623 691T637 633Q631 611 614 599T572 586Q522 586 482 584T404 579T321 574T218 573L295 613Q269 574 257 547T240 500Q239 490 240 483T252
468T290 455T364 438Q436 425 479 405T544 358T569 299T566 229Q551 156 501 102T371 18T192 -12Z" />
<glyph unicode="6" glyph-name="six" horiz-adv-x="700" d="M574 -10Q495 -10 439 10T348 66T303 150T303 256Q318 329 367 399T498 538T689 677Q723 698 739 704T772 710Q791 710 804 701T823 676T826 643Q822 626 812 613T772 581Q681 525 610 469T493 356T436
242Q426 195 443 168T496 130T584 118Q630 118 668 129T732 162T765 216Q769 236 761 255T727 286T654 299Q614 299 587 294T540 281T505 269T473 264Q448 264 442 274T438 302Q442 322 474 347T564 392T697 412Q771 412 818 385T885 310T892 201Q880 141 840 93T734
18T574 -10Z" />
<glyph unicode="7" glyph-name="seven" horiz-adv-x="686" d="M549 -10Q527 -10 512 -1T491 25T491 69Q501 121 530 175T598 280T673 379T736 464T768 528Q774 557 758 571T689 585Q632 585 588 577T512 560T456 542T414 534Q397 534 384 543T364 569T362 607Q365
621 375 634T404 654Q451 671 504 683T611 703T710 710Q792 710 837 685T897 617T902 523Q892 477 865 433T800 345T725 255T659 162T620 62Q612 20 595 5T549 -10ZM468 233Q431 233 413 256T399 308Q403 332 417 345T455 358Q510 358 564 365T683 379T829 386Q876
386 898 363T915 305Q910 285 894 273T851 261Q772 261 715 257T615 247T538 237T468 233Z" />
<glyph unicode="8" glyph-name="eight" horiz-adv-x="700" d="M527 -12Q438 -12 387 12T318 77T310 160Q316 188 329 213T373 266T459 327T604 409Q677 446 721 475T791 532T830 591Q843 616 856 629T890 642Q925 642 937 618T943 554Q937 523 913 487T838 412T705
329Q622 288 571 259T494 210T456 173T442 140Q438 122 436 101T445 51L395 148Q429 130 462 124T537 117Q587 117 632 126T708 157T746 212Q749 231 742 248T703 283T604 321Q528 345 479 371T405 425T372 483T371 544Q390 629 471 670T710 711Q745 711 766 699T796
669T800 631Q796 609 779 597T738 585Q653 587 602 581T528 561T500 529Q498 516 507 504T539 479T598 451T685 417Q754 392 795 365T856 309T881 252T878 192Q867 134 829 88T717 15T527 -12Z" />
<glyph unicode="9" glyph-name="nine" horiz-adv-x="700" d="M773 -9Q739 -9 721 11T702 65Q705 124 723 208T763 400L842 431Q799 372 753 333T654 275T541 256Q470 256 424 283T359 357T352 461Q361 510 389 554T463 634T566 689T694 710Q773 710 813 682T844
606Q839 585 826 570T791 555Q780 555 773 559T756 568T731 577T690 581Q631 581 587 563T517 515T485 452Q477 418 494 399T556 379Q611 379 663 400T755 470T811 602Q817 631 833 646T870 662Q906 662 924 645T942 592T917 499Q901 425 890 371T872 282Q858 211
852 168T843 97T836 49Q831 19 815 5T773 -9Z" />
<glyph unicode=":" glyph-name="colon" horiz-adv-x="300" d="M171 335Q125 335 103 362T91 436Q99 474 126 494T191 515Q229 515 250 500T277 461T279 412Q273 382 246 359T171 335ZM107 -12Q58 -12 35 14T21 86Q28 125 57 146T120 167Q159 167 180 152T208 113T210
64Q204 34 178 11T107 -12Z" />
<glyph unicode=";" glyph-name="semicolon" horiz-adv-x="299" d="M168 348Q123 348 103 370T89 428Q98 469 132 492T211 515Q257 515 273 486T282 424Q277 394 247 371T168 348ZM4 -175Q-18 -175 -28 -165T-34 -136Q-31 -123 -24 -109T-3 -72Q18 -38 30 -6T49
55T60 106Q67 141 86 161T136 181Q180 181 201 158T215 92Q208 60 193 23T156 -51T109 -116Q88 -141 60 -158T4 -175Z" />
<glyph unicode="&lt;" glyph-name="less" horiz-adv-x="700" d="M542 81Q520 81 503 83T458 90Q396 101 340 118T237 157T153 206T94 260Q69 291 76 326Q79 341 88 355T121 386Q158 411 208 436T312 483T420 524T516 554Q544 562 560 564T591 567Q632 567 649
547T660 498Q657 481 649 471T626 453T584 439Q518 422 450 400T318 350T201 289L215 345Q248 310 300 283T420 236T564 205Q598 200 613 187T622 144Q616 113 592 97T542 81Z" />
<glyph unicode="=" glyph-name="equal" horiz-adv-x="700" d="M127 130Q81 124 62 142T49 189Q53 210 72 228T144 258Q242 280 336 292T518 304Q565 304 588 288T606 241Q602 218 585 204T526 190Q458 190 406 185T315 173T243 157T183 142T127 130ZM179 384Q135
381 119 400T108 447Q113 471 135 487T210 512Q267 521 321 526T425 533T518 536Q605 536 641 518T670 466Q665 443 646 429T584 414Q495 414 433 411T327 403T247 393T179 384Z" />
<glyph unicode="&gt;" glyph-name="greater" horiz-adv-x="700" d="M138 81Q99 81 83 102T72 152Q77 176 93 189T147 213Q214 230 282 252T414 303T531 362L517 306Q493 332 457 354T376 394T278 425T168 447Q134 452 119 465T108 508Q114 536 137 551T190 566Q211
566 227 565T272 558Q334 547 391 530T495 491T579 442T638 386Q650 369 654 354T655 321Q652 307 643 294T610 264Q573 238 523 213T418 165T310 124T214 94Q185 86 169 84T138 81Z" />
<glyph unicode="?" glyph-name="question" horiz-adv-x="509" d="M257 225Q225 225 203 241T172 285T168 342Q172 358 179 372T201 402T242 434T309 472Q345 489 362 501T387 524T396 545Q400 567 382 579T312 591Q265 591 234 583T182 566T139 557Q113 557 98
573T89 620Q93 641 106 655T141 680Q180 698 233 709T331 720Q410 720 456 696T520 632T528 540Q521 507 505 483T461 438T392 395Q352 375 332 363T305 343T295 326Q294 318 297 312T305 299T313 285T314 267Q311 251 296 238T257 225ZM200 -12Q157 -12 135 10T119
74Q126 108 151 126T208 144Q262 144 280 118T292 57Q287 27 264 8T200 -12Z" />
<glyph unicode="@" glyph-name="at" horiz-adv-x="894" d="M426 -145Q333 -145 257 -117T128 -34T54 96T52 265Q64 329 98 389T183 501T295 592T424 653T558 676Q635 676 689 648T779 574T832 474T853 364T847 264Q835 202 808 165T747 112T677 96Q651 96 633
103T601 124T576 157Q560 183 548 196T510 217L572 223Q556 202 538 180T497 138T448 108T388 96Q335 96 305 130T287 229Q296 271 322 308T383 373T457 418T527 434Q565 434 584 417T597 370Q595 357 586 345T564 325T541 315Q503 308 474 292T426 254T403 211Q400
199 401 186T411 155L338 232Q356 219 369 216T393 212Q409 212 422 223T457 261Q486 299 512 315T571 331Q595 331 614 320T646 277Q655 252 661 241T673 227T685 224Q695 224 702 232T714 253T721 277Q729 317 724 363T699 452T642 520T548 547Q488 547 427 522T314
454T225 359T177 249Q163 183 179 133T232 50T322 0T434 -17Q494 -17 534 -9T601 9T647 27T686 35Q710 35 722 19T728 -26Q723 -49 704 -68T656 -102Q628 -115 596 -125T523 -140T426 -145Z" />
<glyph unicode="A" glyph-name="A" horiz-adv-x="753" d="M592 -10Q564 -10 547 6T518 62Q506 97 501 150T495 262T499 374Q505 438 507 479T509 541T501 572T483 581Q458 581 423 544T345 436T260 267T177 49Q167 19 152 6T114 -8Q74 -8 59 19T56 112Q68 173
88 229T132 338T175 442T208 545Q213 569 225 580T257 592Q275 592 291 583T319 551L264 534Q320 618 379 664T500 710Q568 710 600 675T638 566T633 373Q626 297 630 243T640 151T652 86T653 38Q648 14 633 2T592 -10ZM92 174Q52 174 37 190T28 231Q31 249 45
261T86 282Q199 317 340 336T650 355Q701 355 716 340T726 298Q720 266 689 246T611 225Q523 225 454 220T330 207T234 192T157 179T92 174Z" />
<glyph unicode="B" glyph-name="B" horiz-adv-x="611" d="M231 -15Q178 -15 143 13T90 90T69 201T80 331Q88 371 96 403T114 466T137 529T168 605Q178 627 194 636T228 646Q247 646 260 634T277 600T273 554Q257 511 247 478T229 413T212 340Q201 285 198 243T199
173T214 130T242 115Q267 115 294 122T345 142T387 171T407 204Q410 219 397 233T355 257T287 273T194 277Q166 276 152 292T142 336Q146 351 162 363T209 381Q236 387 271 397T343 421T410 449T462 479T485 508Q489 524 478 536T441 557T372 570T267 574Q232 574
199 573T149 572Q131 572 118 587T110 627Q119 667 163 689T291 712Q373 712 439 701T552 664T618 600T627 505Q621 476 592 444T501 382T341 326V366Q404 359 445 342T508 300T536 249T538 194Q528 144 495 105T415 39T321 -1T231 -15Z" />
<glyph unicode="C" glyph-name="C" horiz-adv-x="615" d="M304 -10Q206 -10 147 32T67 147T65 312Q81 392 122 464T222 591T351 679T497 711Q553 711 584 696T627 651T630 581Q626 556 613 535T579 501T533 487Q519 487 512 494T504 512T505 536Q507 547 506 555T496
568T466 573Q419 573 375 550T295 487T233 398T197 298Q179 210 212 165T318 119Q358 119 386 127T433 146T466 169T492 189T517 197Q541 197 549 182T552 140Q546 114 528 88T479 39T404 4T304 -10Z" />
<glyph unicode="D" glyph-name="D" horiz-adv-x="695" d="M193 -10Q149 -10 121 17T82 87T82 181Q101 279 122 368T169 550Q177 581 194 594T245 607Q271 607 286 589T298 543Q291 495 277 442T246 329T217 200Q211 165 212 139T224 86L140 107Q222 114 291 142T413
213T500 310T546 423Q555 469 546 503T504 557T411 577Q362 577 326 571T262 555T212 540T168 533Q139 533 122 544T97 573T94 611Q97 628 109 643T143 664Q170 672 204 680T275 694T350 705T426 709Q526 709 587 670T672 564T680 414Q665 338 629 273T542 157T432
68T312 10T193 -10Z" />
<glyph unicode="E" glyph-name="E" horiz-adv-x="651" d="M326 -7Q249 -7 196 16T112 82T74 179T78 297Q86 335 100 376T133 460T176 541Q196 578 225 600T286 622Q299 622 310 615T326 595T322 562Q303 531 281 489T240 397T210 293Q199 243 210 205T252 144T330
122Q376 122 409 128T467 142T509 156T538 162Q564 162 575 147T582 104Q576 73 545 48T459 8T326 -7ZM184 259Q160 254 149 262T137 285T138 318Q143 343 165 362T218 387Q248 393 282 398T354 408T430 416T510 421Q548 421 561 407T570 365Q563 332 533 316T466
297Q422 295 383 291T308 281T242 271T184 259ZM219 548Q172 548 152 568T138 616Q140 631 150 643T182 662Q254 680 332 690T482 705T602 710Q648 710 670 687T686 631Q682 611 667 598T622 584Q545 584 481 579T366 566T279 554T219 548Z" />
<glyph unicode="F" glyph-name="F" horiz-adv-x="580" d="M178 -12Q156 -12 134 3T96 58Q86 83 81 116T79 193T94 298Q103 341 114 379T138 454T164 523Q183 570 209 592T267 614Q296 614 302 597T303 557Q296 536 286 507T265 442T242 363T220 270Q211 223 211
190T216 135T226 97T235 67T236 36Q233 16 218 2T178 -12ZM191 230Q159 223 142 229T119 250T117 280Q121 299 133 315T163 343T202 360Q241 367 287 373T383 384T480 388Q518 388 530 373T537 330Q530 296 499 280T423 260Q378 257 335 252T256 242T191 230ZM179
540Q146 540 127 550T102 578T99 613Q103 632 116 645T153 664Q206 677 269 687T398 703T523 709Q554 709 576 699T610 670T617 629Q613 606 596 593T543 580Q445 580 371 570T249 550T179 540Z" />
<glyph unicode="G" glyph-name="G" horiz-adv-x="781" d="M616 -110Q585 -110 569 -94T540 -46Q534 -26 529 4T524 80T531 191L569 176Q514 106 461 66T356 8T251 -10Q195 -10 152 8T83 60T48 145T51 259Q66 332 104 398T196 521T315 620T448 685T583 708Q629
708 653 694T685 656T688 604Q682 576 667 553T630 517T584 503Q568 503 563 509T558 525T558 544T551 559T526 565Q487 565 443 547T358 495T281 421T221 335T187 247Q174 183 195 151T266 119Q314 119 361 136T453 191T543 287Q565 313 587 322T640 332Q662 332
671 323T676 292Q663 224 658 175T656 88T668 15Q674 -7 676 -20T679 -42T677 -62Q672 -85 656 -97T616 -110ZM398 257Q369 257 353 275T343 321Q347 341 363 354T419 378Q486 396 556 406T705 416Q745 416 763 407T786 384T787 351Q782 326 761 308T701 290Q637
290 589 285T505 274T443 262T398 257Z" />
<glyph unicode="H" glyph-name="H" horiz-adv-x="723" d="M539 -10Q502 -10 485 19T468 109T489 268Q505 349 520 417T549 539T571 635Q577 669 594 686T642 704Q674 704 689 673T692 578Q680 521 666 458T639 337T617 233Q610 196 608 167T604 110T599 47Q595
20 580 5T539 -10ZM127 -12Q91 -12 72 15T67 101Q78 149 88 202T110 313T131 427T152 537T171 637Q178 675 196 692T247 709Q281 709 297 681T302 592Q287 515 272 439T243 293T216 159T193 43Q187 18 170 3T127 -12ZM163 265Q117 265 94 275T63 302T59 337Q62
352 70 363T100 378Q184 396 266 405T429 416T591 419Q630 419 655 409T690 381T697 343Q693 322 678 309T641 296Q529 296 449 292T315 281T224 270T163 265Z" />
<glyph unicode="I" glyph-name="I" horiz-adv-x="558" d="M168 557Q127 557 113 576T104 622Q109 646 128 662T181 683Q237 691 298 696T419 705T530 708Q578 708 595 692T607 645Q600 609 563 592T471 574Q416 574 376 573T304 569T250 564T207 559T168 557ZM259
88Q222 88 203 109T191 165Q206 237 224 306T258 438T285 552Q292 585 306 601T348 617Q381 617 401 593T413 535Q406 498 390 440T355 306T318 141Q308 88 259 88ZM87 -11Q28 -11 7 9T-9 61Q-5 81 9 94T52 111Q95 115 130 118T198 122T263 124T331 125T410 125Q447
125 466 117T490 94T492 65Q487 36 457 18T369 0Q305 0 250 -2T152 -8T87 -11Z" />
<glyph unicode="J" glyph-name="J" horiz-adv-x="622" d="M244 -12Q169 -12 120 16T50 90T39 193Q44 217 55 239T82 279T121 307T171 318Q195 318 205 304T211 271Q208 256 199 245T179 222T166 192Q159 160 179 139T261 118Q336 118 371 147T418 240Q426 275
427 322T427 421T420 522T407 612Q404 637 416 656T452 676Q496 675 517 660T546 603Q553 564 557 513T562 408T560 303T548 214Q525 96 447 42T244 -12ZM252 569Q232 569 211 574T171 592T144 623T140 669Q145 689 158 701T191 713Q211 713 227 710T259 704T296
700Q338 700 376 703T458 709T562 712Q589 712 615 706T656 683T664 633Q654 585 593 585Q528 585 465 581T347 573T252 569Z" />
<glyph unicode="K" glyph-name="K" horiz-adv-x="664" d="M547 -11Q515 -11 475 2T393 38T313 92T245 158T202 230T194 302Q204 349 232 397T306 492T407 585T529 670Q562 691 585 700T626 710Q652 710 668 692T676 637Q671 612 652 593T592 551Q540 522 494 488T413
421T355 359T329 311Q325 290 340 263T388 208T465 157T564 117Q600 106 611 89T617 44Q612 17 596 3T547 -11ZM106 -12Q71 -12 55 7T38 70T53 187Q69 265 88 333T124 456T147 543Q154 575 155 594T156 629T160 660Q166 685 180 698T223 711Q253 711 267 696T286
656T289 604T281 552Q272 509 255 453T220 333T189 206Q181 169 178 145T174 105T172 74T167 41Q162 16 146 2T106 -12Z" />
<glyph unicode="L" glyph-name="L" horiz-adv-x="544" d="M249 -9Q168 -9 119 21T54 110T54 257Q70 332 95 397T146 523T182 641Q188 672 205 691T256 710Q282 710 296 696T314 658T312 606Q303 558 285 509T246 413T209 321T184 240Q172 183 189 152T262 121Q306
121 335 129T385 147T422 165T457 174Q482 174 492 157T497 114Q493 91 477 71T433 34Q395 12 348 2T249 -9Z" />
<glyph unicode="M" glyph-name="M" horiz-adv-x="1004" d="M95 -12Q76 -12 63 -4T44 26T39 83T54 175Q64 227 74 269T94 347T112 418Q119 454 120 480T122 526T121 561T123 591Q128 615 142 629T185 644Q211 644 227 626T250 577T251 509L221 502Q254 567 289
613T359 684T425 709Q450 709 465 692T488 640T497 554T497 432Q496 372 495 324T496 236T508 157L462 173Q488 217 514 268T567 373T620 477T672 566Q701 609 729 641T787 692T850 711Q877 711 896 699T926 659T939 584T935 466Q927 394 923 325T921 195T933 82Q939
55 932 35T908 3T866 -9Q835 -9 817 9T787 66Q778 97 777 139T777 230T784 326T794 416Q798 453 800 482T800 536T790 587L828 568Q791 530 759 476T693 355T620 209T530 45Q513 16 495 3T452 -10Q427 -10 414 0T392 34Q371 84 366 159T367 335Q372 403 372 453T361
548L378 547Q300 455 253 333T171 56Q161 19 142 4T95 -12Z" />
<glyph unicode="N" glyph-name="N" horiz-adv-x="782" d="M79 -15Q50 -15 35 5T26 55Q30 75 38 95T59 144T84 220T113 342Q122 385 129 431T141 520T151 594T157 638Q163 668 184 689T238 710Q280 710 311 687T365 625T405 536T437 432T464 326T491 229T522 153T563
112L487 81Q503 96 518 113T545 158T567 231Q579 291 586 345T601 451T621 551T656 650Q671 683 687 697T727 711Q758 711 772 695T787 656T781 612Q762 564 751 521T733 435T719 345T700 242Q685 168 665 110T611 19T522 -14Q485 -14 459 6T414 63T381 145T355
243T329 349T297 453T252 544L277 549Q274 504 270 469T261 403T250 342Q227 250 205 174T158 40Q147 15 129 0T79 -15Z" />
<glyph unicode="O" glyph-name="O" horiz-adv-x="735" d="M320 -10Q248 -10 194 15T105 84T60 186T62 310Q74 371 102 421T167 511T240 576T307 616T353 629Q371 629 382 624T400 602Q413 576 400 555T360 518Q317 492 283 459T226 385T191 290Q181 239 194 200T242
138T333 116Q385 116 432 139T515 203T561 300Q570 351 567 400T549 490T507 555T440 580Q425 580 416 569T403 539Q399 518 386 507T355 495Q335 495 319 506T296 540T295 596Q301 626 322 652T377 694T455 711Q527 711 579 675T661 577T699 439T692 283Q679 217
644 163T559 71T448 11T320 -10Z" />
<glyph unicode="P" glyph-name="P" horiz-adv-x="619" d="M96 -10Q64 -10 47 15T41 100Q54 166 62 216T76 307T88 388T103 470Q117 541 153 595T251 678T404 708Q463 708 508 688T583 633T622 550T621 446Q610 390 580 346T506 270T409 223T296 207Q245 207 210
221T158 257T146 305Q151 328 166 340T200 352Q214 352 224 347T252 337T303 332Q350 332 390 348T458 394T493 462Q500 495 489 521T451 562T388 577Q321 577 283 546T233 463Q225 421 219 381T207 295T191 194T168 68Q161 34 146 12T96 -10Z" />
<glyph unicode="Q" glyph-name="Q" horiz-adv-x="752" d="M346 -9Q252 -9 192 20T101 100T63 211T69 336Q80 395 103 447T157 540T220 610T281 655T332 671Q358 671 374 659T398 630T403 595Q400 578 388 566T342 536Q305 515 275 479T225 400T195 313Q185 262
194 218T239 146T344 119Q391 119 430 135T501 179T553 243T580 317Q589 363 587 408T570 491T530 550T467 572Q431 572 396 549T330 481Q314 458 300 449T268 440Q250 440 237 449T219 475T217 512Q224 546 250 581T315 645T397 691T478 709Q546 709 596 677T677
588T717 458T710 302Q697 235 665 178T585 80T476 15T346 -9ZM534 -109Q512 -109 497 -101T462 -65Q444 -39 429 -1T400 79T373 160T345 227Q331 256 332 279T348 315T391 328Q421 328 436 313T471 264Q478 250 486 223T506 161T533 90T569 22Q589 -11 589 -41T574
-90T534 -109Z" />
<glyph unicode="R" glyph-name="R" horiz-adv-x="722" d="M88 -13Q51 -13 33 20T27 118Q37 163 60 219T124 346Q133 390 134 426T133 499T124 581Q120 618 135 639T188 660Q226 660 248 623T268 499L241 498Q290 567 344 614T456 686T568 710Q620 710 653 693T704
648T725 585T722 513Q713 468 686 428T614 352T505 285T357 226Q398 194 459 164T590 111Q632 99 646 83T655 46Q649 15 625 2T558 -12Q532 -12 492 0T405 35T313 85T232 145T178 207Q170 223 174 244T192 283T227 306Q324 330 391 359T501 420T566 479T592 528Q596
550 587 566T550 582Q526 582 493 569T421 527T344 457T269 358T204 228T156 66Q150 36 141 19T119 -5T88 -13Z" />
<glyph unicode="S" glyph-name="S" horiz-adv-x="568" d="M217 -9Q105 -9 57 24T18 103Q22 123 34 135T67 147Q82 147 94 143T121 133T160 123T219 118Q254 118 281 121T330 132T371 150Q369 172 345 190T286 226T213 264T144 310T97 372T90 455Q100 503 136 542T224
613T333 666T443 699T533 710Q561 710 576 701T595 675T595 640Q591 619 576 604T531 584Q442 567 375 543T268 492T223 438Q219 417 240 399T296 363T370 323T443 275T495 213T504 132Q496 92 473 65T413 22T327 -1T217 -9Z" />
<glyph unicode="T" glyph-name="T" horiz-adv-x="621" d="M273 -13Q245 -13 227 8T207 87Q206 123 210 167T226 268T257 403T307 587Q314 614 332 631T374 648Q420 648 431 620T426 526Q398 420 382 345T358 219T348 136T344 82T339 42Q333 12 317 0T273 -13ZM536
573Q482 573 437 573T350 574T269 577T185 581Q145 584 125 594T99 622T98 665Q101 683 114 695T154 708Q204 708 245 707T323 705T397 702T475 700Q512 700 538 703T588 708T642 711Q671 711 681 696T688 660Q682 628 658 609T602 582T536 573Z" />
<glyph unicode="U" glyph-name="U" horiz-adv-x="679" d="M317 -13Q217 -13 158 30T82 152T85 340Q93 381 105 420T122 487Q130 528 133 554T138 597T140 628T145 660Q151 689 168 701T215 714Q242 714 259 697T281 641T272 534Q266 505 257 470T237 400T221 334Q205
251 213 204T250 139T324 120Q392 120 433 161T494 301Q505 359 512 403T526 492T545 590Q556 645 583 678T652 712Q679 712 693 698T702 654Q698 638 692 621T679 579T663 516Q652 462 644 403T624 284Q606 190 567 124T466 22T317 -13Z" />
<glyph unicode="V" glyph-name="V" horiz-adv-x="694" d="M304 -12Q281 -12 266 -4T240 23T215 77Q193 137 182 193T167 301T160 398T151 482T131 551Q118 580 110 602T106 651Q110 674 127 692T174 710Q197 710 213 698T246 653Q264 615 273 568T287 468T296
363T309 263T334 180L291 142Q356 286 433 407T604 639Q633 673 650 688T681 708T706 713Q736 713 747 690T753 636Q749 616 744 603T729 575T700 538Q652 477 611 422T532 312T460 195T389 62Q370 22 352 5T304 -12Z" />
<glyph unicode="W" glyph-name="W" horiz-adv-x="982" d="M692 -12Q670 -12 654 -6T623 16T595 60Q581 88 574 126T564 207T558 295T553 381T543 457T523 514L563 502Q524 467 488 418T419 309T355 185T295 52Q281 23 262 8T216 -8Q202 -8 189 -3T164 20T144 70Q133
115 126 169T115 283T110 404T112 527T123 644Q126 672 145 692T200 712Q241 712 254 685T262 614Q256 567 253 516T249 412T254 307T267 201L237 194Q271 277 308 350T386 483T469 586Q501 618 529 634T591 651Q623 651 642 627T674 539Q681 502 681 454T681 354T689
254T715 169L673 168Q697 208 718 258T758 363T797 471T835 571T873 649Q894 684 914 698T960 712Q984 712 998 702T1016 675T1015 636T997 587Q974 544 953 490T909 376T863 256T816 142T764 42Q744 10 727 -1T692 -12Z" />
<glyph unicode="X" glyph-name="X" horiz-adv-x="658" d="M57 -8Q37 -8 23 3T4 35T8 83T43 140Q86 189 132 240T225 342T319 441T409 532T491 610T562 669Q589 692 606 700T641 708Q662 708 677 696T698 663T693 618T654 569Q611 533 560 487T453 388T343 277T235
160T136 42Q114 13 97 3T57 -8ZM511 -10Q489 -10 472 4T438 58Q423 101 390 150T315 251T234 358T164 465T125 567Q116 615 121 647T144 695T190 711Q219 711 234 695T256 641Q269 572 297 515T363 408T439 314T510 229T558 146Q579 95 577 61T556 8T511 -10Z"
/>
<glyph unicode="Y" glyph-name="Y" horiz-adv-x="615" d="M169 -15Q140 -15 126 -1T112 41T129 107Q156 173 199 250T300 405T425 555T565 682Q589 700 604 706T634 713Q652 713 663 706T679 683T680 648Q677 633 671 620T652 592T615 559Q553 510 498 450T395
325T310 190T243 50Q228 12 211 -1T169 -15ZM292 269Q275 269 264 277T248 300Q225 357 207 393T173 455T142 506T110 567Q100 591 96 611T97 656Q102 683 117 697T154 711Q173 711 188 703T212 668Q226 629 239 602T266 551T293 504T320 449T348 372Q353 358 351
341T341 307T321 280T292 269Z" />
<glyph unicode="Z" glyph-name="Z" horiz-adv-x="636" d="M140 -9Q86 -9 59 9T24 55T22 116Q28 146 43 174T89 234T176 306T320 401Q380 439 417 466T476 515T505 554T517 591L535 555Q526 563 517 568T491 576T444 579Q387 579 342 574T262 562T199 556Q176 556
160 564T135 588T131 626Q136 649 153 664T198 684Q269 695 338 702T484 710Q550 710 588 691T640 638T645 562Q639 527 625 499T582 443T506 380T386 299Q316 254 273 224T206 171T171 128T156 82L129 144Q141 132 157 127T202 121Q247 121 301 126T411 132Q471
132 507 123T559 94T569 46Q564 21 546 7T500 -7Q479 -7 462 -5T422 -2T365 0Q304 0 247 -4T140 -9Z" />
<glyph unicode="[" glyph-name="bracketleft" horiz-adv-x="505" d="M100 -268Q83 -268 69 -259T50 -235Q35 -199 34 -151T39 -48T57 61T81 164T102 246Q110 278 119 326T138 432T159 547T184 657T211 749Q220 774 242 789T291 805Q325 805 365 808T446 815T521
818Q556 818 572 804T582 764Q579 747 568 729T538 697T497 684Q488 684 481 685T464 686Q435 686 397 682T321 675T261 671L339 726Q325 688 313 637T289 530T269 418T251 316T234 238Q225 203 211 152T185 42T168 -70T178 -164L109 -142Q144 -134 179 -133T253
-131Q279 -131 303 -129T347 -127Q370 -127 381 -141T388 -178Q380 -218 350 -238T268 -259Q243 -259 222 -259T180 -260Q155 -261 136 -264T100 -268Z" />
<glyph unicode="\" glyph-name="backslash" horiz-adv-x="405" d="M252 -226Q231 -226 216 -212T194 -172Q168 -65 150 50T123 281T116 508T130 716Q144 826 215 826Q244 826 260 802T270 730Q251 577 251 436T272 157T328 -120Q337 -151 327 -175T297 -213T252 -226Z" />
<glyph unicode="]" glyph-name="bracketright" horiz-adv-x="489" d="M18 -268Q-7 -268 -27 -258T-57 -231T-64 -191Q-60 -168 -41 -152T5 -134Q25 -134 56 -131T122 -124T188 -113T241 -100L184 -154Q219 -63 236 42T264 261T293 498T345 747L398 661Q369 665
339 669T272 676T193 679Q170 679 154 691T130 723T127 767Q132 789 149 801T196 813Q232 812 275 809T359 805Q375 805 390 807T419 810Q451 810 468 790T476 737Q441 608 423 484T393 244T364 21T312 -178Q305 -196 291 -209T257 -230Q236 -237 204 -243T137
-255T71 -264T18 -268Z" />
<glyph unicode="^" glyph-name="asciicircum" horiz-adv-x="610" d="M535 429Q511 429 491 438T452 467T409 521T355 609L405 608Q335 546 293 510T227 456T191 433T163 428Q144 428 130 437T108 460T102 487Q105 498 111 509T134 536T184 578T273 645Q307 669
328 683T367 704T405 710Q429 710 446 699T479 656Q507 605 530 575T570 529T595 500T601 471Q596 450 579 440T535 429Z" />
<glyph unicode="_" glyph-name="underscore" horiz-adv-x="700" d="M79 -199Q39 -199 14 -188T-23 -161T-31 -127Q-27 -113 -18 -101T12 -87Q129 -75 237 -71T456 -67Q505 -67 531 -80T566 -112T572 -145Q568 -165 553 -177T513 -189Q411 -189 339 -190T218 -194T135
-197T79 -199Z" />
<glyph unicode="`" glyph-name="grave" horiz-adv-x="354" d="M317 477Q299 477 281 484T244 504Q221 522 198 551T157 615T128 687Q118 726 125 753T152 795T198 810Q228 810 248 795T276 744Q284 706 297 678T326 629T360 587Q385 560 384 535T365 493T317 477Z" />
<glyph unicode="a" glyph-name="a" horiz-adv-x="661" d="M152 -10Q102 -10 70 13T25 75T22 163Q31 213 57 263T122 359T205 438T299 493T395 513Q428 513 446 493T457 436Q454 421 444 413T418 401Q351 390 294 351T197 257T145 141Q141 120 141 103T147 58L102
149Q122 130 138 123T180 116Q235 116 295 187T403 394Q411 416 429 428T468 441Q499 441 517 418T538 364Q542 311 546 268T562 185T601 103Q610 89 610 71T600 35T573 5T532 -7Q515 -7 504 0T486 19Q472 44 461 70T443 128T432 201T430 298L478 301Q445 212 405
152T322 57T235 6T152 -10Z" />
<glyph unicode="b" glyph-name="b" horiz-adv-x="613" d="M168 -10Q139 -10 110 -5T58 10T24 38T17 79Q22 105 40 117T87 129Q103 129 124 125T166 120Q208 120 252 131T337 165T405 223T444 306Q447 327 446 344T433 372T398 383Q350 383 308 350T229 260T163
126Q154 106 142 96T113 86Q91 86 78 105T65 158Q66 211 70 263T79 362T92 440Q103 491 113 528T132 595T148 649T159 701Q162 726 176 743T219 760Q245 760 262 750T285 718T286 663Q281 642 274 620T259 571T242 514T225 443Q217 404 211 367T199 282L173 319Q201
378 241 422T329 489T422 513Q476 513 515 488T571 412T573 285Q559 216 519 162T423 69T300 10T168 -10Z" />
<glyph unicode="c" glyph-name="c" horiz-adv-x="523" d="M245 -9Q163 -9 112 22T41 109T35 232Q48 294 82 345T165 434T274 492T395 513Q425 513 449 503T485 473T491 421Q485 390 468 375T432 359Q417 359 411 365T398 377T377 383Q326 383 281 359T206 296T166
214Q161 184 167 161T195 125T254 112Q295 112 319 122T359 146T385 169T413 180Q436 180 447 167T452 120Q443 82 414 53T342 7T245 -9Z" />
<glyph unicode="d" glyph-name="d" horiz-adv-x="672" d="M235 -9Q181 -9 141 16T77 83T45 179T49 291Q64 364 103 414T198 489T321 514Q374 514 412 500T467 458T477 392Q473 373 462 362T439 350Q427 350 420 355T403 366T377 378T332 383Q273 383 234 356T185
279Q177 239 182 203T204 145T250 122Q299 122 351 189T450 384T535 697Q543 734 558 747T594 760Q643 760 660 727T663 631Q647 562 630 512T597 414T569 306Q556 244 556 204T561 140T575 99T588 71T591 41Q589 24 581 12T557 -8T519 -15Q492 -15 472 4T440 57T427
134T436 225L507 244Q468 153 422 98T328 17T235 -9Z" />
<glyph unicode="e" glyph-name="e" horiz-adv-x="587" d="M253 -10Q184 -10 139 8T68 59T37 134T40 226Q51 278 80 329T154 421T254 488T373 513Q430 513 467 494T520 437T526 345Q517 303 492 273T430 223T349 194T258 184Q189 184 164 203T142 244Q144 258 152
264T175 271Q186 271 201 268T244 265Q282 265 316 275T375 305T404 348Q408 372 398 384T357 396Q323 396 292 381T234 340T188 279T161 205Q156 177 162 154T189 116T252 101Q307 101 344 112T408 140T453 167T488 179Q513 179 521 161T526 119Q520 95 498 72T438
31T353 1T253 -10Z" />
<glyph unicode="f" glyph-name="f" horiz-adv-x="390" d="M108 -11Q78 -11 60 19T52 105Q61 149 66 184T73 250T78 310T84 372T97 442Q112 519 144 578T221 677T315 739T415 760Q445 760 466 746T481 697Q477 677 464 664T428 644Q372 629 337 608T278 558T242
489T217 392Q210 360 208 327T203 257T195 175T179 74Q169 24 152 7T108 -11ZM173 362Q150 362 135 374T124 408Q129 434 149 455T200 485Q240 497 275 502T342 507Q360 507 375 500T399 478T403 444Q400 426 387 413T351 399Q308 397 279 391T230 379T197 367T173
362Z" />
<glyph unicode="g" glyph-name="g" horiz-adv-x="636" d="M290 -258Q205 -258 153 -241T76 -197T45 -140T43 -85Q50 -51 73 -30T129 -8Q155 -8 163 -21T167 -51Q163 -75 173 -94T213 -123T291 -134Q345 -134 374 -107T414 -29Q422 15 424 50T425 118T422 184T424
258L475 248Q454 198 424 163T359 106T288 75T217 65Q150 65 107 89T46 159T41 264Q52 319 82 364T155 444T249 497T351 516Q404 516 431 498T467 453T469 396Q464 374 451 359T427 344Q413 344 406 351T393 368T377 385T345 392Q318 392 289 380T235 349T193 307T170
258Q164 226 177 209T228 191Q278 191 322 214T399 287T448 412Q453 440 464 452T499 465Q527 465 544 454T568 425T573 387Q565 326 565 276T564 178T559 74T539 -54Q519 -156 456 -207T290 -258Z" />
<glyph unicode="h" glyph-name="h" horiz-adv-x="661" d="M95 -8Q70 -8 54 7T33 51T36 119Q56 219 81 298T129 443T166 563Q174 598 177 623T182 669T189 710Q194 729 210 744T256 760Q279 760 296 741T317 678T304 565Q291 517 270 462T225 337T184 177L162 223Q226
328 279 393T379 487T466 517Q517 517 540 487T566 402T561 267Q556 207 556 171T561 115T571 77Q575 68 576 57T574 35Q571 15 552 2T505 -11Q470 -11 450 13T423 78T421 170Q427 228 430 265T433 324T430 364Q409 361 368 321T275 209T164 36Q149 10 133 1T95
-8Z" />
<glyph unicode="i" glyph-name="i" horiz-adv-x="299" d="M115 -10Q91 -10 74 2T49 36T46 80Q60 150 69 198T83 281T94 348T106 414Q111 440 127 461T165 495T207 509Q236 509 251 488T260 427Q256 406 248 368T228 284T206 191T186 106T173 44Q168 18 154 4T115
-10ZM227 579Q181 579 157 605T140 671Q147 704 174 723T237 742Q270 742 290 728T317 694T321 651Q316 626 294 603T227 579Z" />
<glyph unicode="j" glyph-name="j" horiz-adv-x="276" d="M-16 -260Q-56 -260 -81 -248T-116 -215T-122 -170Q-117 -145 -103 -133T-71 -120Q-63 -120 -58 -121T-47 -125T-35 -129T-21 -131Q3 -131 20 -109T45 -46Q64 51 71 122T78 245T79 341T88 424Q98 472 123
492T173 513Q198 513 210 500T222 443Q221 353 215 266T199 95T171 -69Q151 -174 102 -217T-16 -260ZM200 579Q154 579 130 605T113 671Q120 704 147 723T210 742Q243 742 263 728T290 694T294 651Q289 626 267 603T200 579Z" />
<glyph unicode="k" glyph-name="k" horiz-adv-x="626" d="M471 -7Q434 -7 391 8T306 50T232 108T182 173T170 237Q178 275 210 314T288 389T384 453T479 498T553 514Q586 514 602 496T611 443Q607 421 590 407T531 380Q489 366 451 347T382 308T333 269T312 239Q310
228 324 210T375 171T472 132Q517 121 529 97T536 47Q531 22 515 8T471 -7ZM96 -10Q75 -10 58 1T34 43T39 129Q47 169 67 234T112 379T159 543Q170 582 175 607T184 648T189 678T195 707Q201 733 216 746T258 760Q289 760 304 740T317 673T294 545Q279 493 265
451T238 372T214 304T194 241T178 177Q169 136 167 108T158 48Q152 21 136 6T96 -10Z" />
<glyph unicode="l" glyph-name="l" horiz-adv-x="345" d="M190 -11Q166 -11 142 -5T97 20T66 75T54 170T73 317Q89 396 105 460T140 582T178 694Q192 730 209 745T251 760Q283 760 296 735T299 655Q293 626 283 593T259 517T231 422T202 297Q191 240 188 206T187
152T197 127T215 120Q229 120 238 123T255 128T270 130Q295 130 300 114T301 74Q296 49 280 30T240 0T190 -11Z" />
<glyph unicode="m" glyph-name="m" horiz-adv-x="916" d="M99 -9Q66 -9 52 14T37 73T44 153Q51 185 60 218T78 284T93 350Q99 375 99 395T104 434Q107 451 121 462T155 474Q184 474 198 459T217 420T216 370L189 361Q213 409 241 443T303 495T371 513Q409 513
429 491T456 428T463 330Q462 278 462 244T462 189L430 197Q471 295 520 366T620 475T715 513Q794 513 819 452T830 267Q824 203 825 166T831 108T839 73T838 40Q834 20 816 6T768 -9Q736 -9 717 9T691 68T689 180Q694 238 695 273T696 330T690 366T678 396L709
385Q662 352 625 301T555 185T485 42Q473 17 454 4T411 -9Q377 -9 359 11T335 72T333 170Q337 219 338 255T338 317T330 363T313 397L342 375Q308 346 282 308T234 225T196 133T165 39Q158 13 142 2T99 -9Z" />
<glyph unicode="n" glyph-name="n" horiz-adv-x="650" d="M513 -10Q472 -10 448 24T421 127T438 297Q445 329 447 350T449 384T442 406T426 423Q449 423 464 416T485 392T484 349Q473 370 464 378T440 386Q420 386 389 362T321 293T247 189T176 61Q157 19 140
5T96 -9Q52 -9 40 36T41 151Q51 202 63 240T87 310T111 377T131 454Q136 480 152 494T194 508Q219 508 235 486T242 419Q238 389 229 364T209 310T185 242T159 144L135 175Q191 287 251 362T371 475T478 513Q521 513 545 494T577 441T574 359Q559 284 552 232T548
147T566 96Q577 84 581 71T581 39Q577 18 559 4T513 -10Z" />
<glyph unicode="o" glyph-name="o" horiz-adv-x="635" d="M292 -12Q204 -12 145 26T61 129T51 274Q62 327 90 370T158 445T238 494T315 511Q330 511 343 507T365 492T370 465Q363 435 346 412T287 373Q259 362 237 345T199 305T179 253Q166 188 198 149T296 109Q356
109 401 149T459 256Q471 315 447 349T372 384Q346 384 327 372T284 340Q266 325 254 315T232 300T206 295Q190 295 178 310T171 358Q177 385 197 411T248 459T311 494T376 507Q459 507 511 473T583 379T587 242Q572 165 530 108T426 20T292 -12Z" />
<glyph unicode="p" glyph-name="p" horiz-adv-x="587" d="M273 -8Q217 -8 177 10T118 59T105 123Q108 139 121 151T149 164Q163 164 174 158T197 142T228 127T277 120Q325 120 359 141T404 215Q412 253 404 283T374 336T322 371T253 383Q235 383 216 380T174 376Q157
376 143 385T122 409T119 441Q127 481 162 497T263 514Q334 514 391 491T485 426T536 324T536 194Q527 148 504 111T445 48T366 7T273 -8ZM38 -261Q20 -261 7 -252T-13 -226T-14 -182Q-11 -163 -5 -148T9 -116T24 -76T39 -19Q50 37 53 89T57 194T60 298T71 406Q73
422 81 433T100 450T127 456Q151 456 170 444T198 413T203 368Q191 310 189 258T186 156T183 57T170 -46Q161 -89 150 -127T123 -196T86 -243T38 -261Z" />
<glyph unicode="q" glyph-name="q" horiz-adv-x="613" d="M393 -260Q373 -260 360 -249T341 -220T337 -186Q343 -149 348 -120T357 -64T366 -11T377 46T392 113L416 96Q381 62 344 39T266 3T183 -10Q118 -10 80 18T30 97T31 208Q42 265 76 319T160 417T266 487T379
513Q430 513 463 493T512 441T519 375Q516 354 496 338T451 322Q441 322 433 328T419 348Q410 367 399 375T366 384Q334 384 301 366T237 317T186 251T158 183Q152 151 165 135T208 118Q259 118 307 145T398 221T471 336Q479 351 490 359T518 368Q553 368 569 349T580
300Q572 261 557 232T532 182Q522 140 516 106T503 39T491 -32T476 -120L460 -111Q495 -93 517 -81T557 -62T591 -55Q611 -55 621 -71T628 -112Q624 -132 612 -149T581 -182Q554 -201 529 -215T479 -240T433 -255T393 -260Z" />
<glyph unicode="r" glyph-name="r" horiz-adv-x="516" d="M118 -12Q99 -12 84 1T63 37T61 88Q75 155 83 213T94 317T90 397Q85 422 85 435T87 461Q91 480 106 491T142 503Q169 503 186 490T210 444T216 356T201 215L148 209Q177 286 216 343T298 437T383 493T463
511Q505 511 516 489T520 431Q516 414 501 399T456 377Q395 362 353 335T282 269T233 185T196 83Q183 46 173 26T151 -3T118 -12Z" />
<glyph unicode="s" glyph-name="s" horiz-adv-x="516" d="M188 -10Q111 -10 69 6T12 49T3 101Q6 121 20 133T58 146Q72 146 83 141T107 128T141 115T196 109Q244 109 278 121T332 160Q326 175 303 184T247 202T182 221T121 249T81 291T75 355Q83 398 112 428T184
478T275 505T370 514Q410 514 432 503T463 472T467 431Q463 410 449 399T415 387Q403 387 395 388T376 390T349 391Q297 391 257 378T191 338Q196 322 218 313T272 295T338 277T400 250T442 208T449 142Q441 102 418 74T360 27T282 -1T188 -10Z" />
<glyph unicode="t" glyph-name="t" horiz-adv-x="470" d="M253 -13Q167 -13 121 25T62 130T67 288Q78 339 90 379T116 457T141 536Q152 582 154 610T164 664Q169 686 183 699T228 712Q271 712 284 676T278 558Q269 525 259 496T238 436T218 371T199 293Q186 228
190 190T214 135T270 118Q294 118 309 123T335 132T361 137Q385 137 394 119T399 76Q391 33 353 10T253 -13ZM199 351Q160 336 143 351T132 397Q138 423 152 444T214 481Q242 490 273 497T336 509T395 513Q421 513 440 503T468 475T473 437Q470 421 458 410T427
397Q379 394 341 389T270 374T199 351Z" />
<glyph unicode="u" glyph-name="u" horiz-adv-x="617" d="M280 -10Q214 -10 168 17T96 89T62 191T67 307Q76 352 92 392T133 473Q140 488 153 496T186 505Q219 505 235 483T246 428Q243 415 237 403T223 375T208 341T195 295Q187 257 188 225T200 168T232 130T285
116Q323 116 354 141T409 217T448 341Q453 367 455 384T459 416T464 448Q470 475 483 490T527 506Q552 506 567 489T587 433T578 332Q555 217 512 141T410 28T280 -10Z" />
<glyph unicode="v" glyph-name="v" horiz-adv-x="594" d="M245 -10Q217 -10 199 4T165 51Q155 74 146 110T129 189T114 266Q104 317 95 349T79 402T68 439T68 473Q71 490 85 500T123 511Q156 511 176 494T209 448T227 382Q234 344 240 301T255 217T275 141L234
146Q267 197 297 242T357 329T419 408T489 484Q505 499 518 506T549 513Q568 513 581 501T601 471T604 432Q602 421 597 411T581 390Q539 345 505 306T440 226T377 139T307 33Q292 10 279 0T245 -10Z" />
<glyph unicode="w" glyph-name="w" horiz-adv-x="893" d="M188 -15Q143 -15 119 23T90 148Q87 203 85 252T78 344T61 417Q50 447 57 469T81 503T122 515Q149 515 165 502T192 454Q204 417 206 372T208 279T213 191T234 119L186 117Q207 141 224 169T257 230T291
298T331 372Q371 441 404 476T478 512Q510 512 531 495T565 444T588 359Q595 321 598 286T606 220T620 166T646 127L606 118Q629 145 647 183T680 265T712 349T746 424Q759 447 777 467T817 501T863 514Q881 514 895 505T915 481T919 447Q916 432 906 419T881 391Q862
372 846 346T817 288T791 223T765 159Q736 88 711 52T662 1T617 -13Q584 -13 562 6T519 76Q504 115 496 158T483 244T471 321T451 374L473 372Q450 348 431 315T391 241T348 156T296 66Q278 38 261 20T225 -6T188 -15Z" />
<glyph unicode="x" glyph-name="x" horiz-adv-x="555" d="M37 -15Q19 -15 7 -4T-6 31T13 86Q28 115 55 151T119 227T201 309T298 391T404 465Q433 484 453 494T489 508T518 512Q540 512 556 497T568 451Q563 430 549 416T515 389Q440 350 371 293T239 170T122
35Q99 8 80 -3T37 -15ZM420 -14Q398 -14 382 -3T350 39Q330 81 302 127T241 218T175 304T112 374Q90 394 80 414T74 460Q78 477 86 489T106 507T137 513Q157 513 172 504T212 470Q230 453 255 422T308 352T364 273T414 196T451 132Q473 90 477 68T478 31Q475 10
460 -2T420 -14Z" />
<glyph unicode="y" glyph-name="y" horiz-adv-x="599" d="M220 -261Q141 -261 92 -244T23 -200T8 -142Q13 -118 28 -105T68 -92Q83 -92 94 -97T120 -111T159 -124T227 -130Q266 -130 293 -115T336 -72T360 -5Q367 29 370 58T375 117T381 182T394 264L439 231Q408
178 378 144T318 91T264 65T217 58Q153 58 113 87T60 180T68 343Q82 415 98 451T133 500T174 513Q200 513 214 503T232 474T229 429Q218 386 208 344T193 266T196 210T231 189Q270 189 306 225T374 322T429 457Q438 487 451 499T491 512Q507 512 521 505T543 485T553
451T545 400Q530 350 523 309T512 232T508 157T501 74T485 -28Q472 -94 447 -138T387 -210T310 -249T220 -261Z" />
<glyph unicode="z" glyph-name="z" horiz-adv-x="616" d="M167 -10Q103 -10 71 9T31 58T29 121Q36 155 55 172T100 199Q201 232 268 265T374 332T425 400L447 350Q436 363 423 370T391 381T340 385Q288 385 251 379T187 365T136 358Q121 358 111 369T95 398T93
437Q98 457 109 469T145 487Q196 498 253 505T361 512Q422 512 460 499T519 464T544 416T545 364Q540 339 517 309T446 246T325 181T145 120L185 146Q183 129 190 123T214 116Q250 116 288 119T365 126T448 130Q493 130 511 106T523 48Q520 27 505 14T461 0Q422
0 371 -2T267 -7T167 -10Z" />
<glyph unicode="{" glyph-name="braceleft" horiz-adv-x="537" d="M340 -264Q303 -264 266 -247T198 -202T154 -136T147 -56Q154 -22 168 0T197 40T215 82Q220 106 207 122T159 149T66 169Q40 173 30 193T26 245Q29 262 41 276T79 297Q133 313 171 331T231 367T256
403Q262 429 260 454T254 505T248 558T252 615Q259 648 280 677T331 731T398 773T471 800T543 810Q581 810 600 788T614 736Q609 711 591 697T543 677Q491 669 456 655T403 623T379 580Q375 558 378 538T386 496T392 446T386 381Q379 349 351 317T271 258T140 216L152
269Q220 260 262 243T326 202T352 150T351 92Q345 61 331 38T303 -7T284 -52Q280 -71 293 -87T334 -116T404 -136Q427 -139 437 -153T442 -193Q436 -224 408 -244T340 -264Z" />
<glyph unicode="|" glyph-name="bar" horiz-adv-x="319" d="M97 -162Q72 -162 59 -145T46 -92Q49 -16 56 47T74 171T99 305Q113 377 127 438T156 552T182 655T203 756Q207 782 221 799T263 816Q298 816 315 791T321 709Q310 657 295 597T262 467T227 313Q211 233
202 177T189 81T182 12T177 -41T168 -93Q161 -129 142 -145T97 -162Z" />
<glyph unicode="}" glyph-name="braceright" horiz-adv-x="537" d="M48 -263Q16 -263 -6 -252T-38 -222T-44 -179Q-39 -154 -21 -142T30 -129Q60 -129 86 -125T133 -111T167 -86T185 -51Q190 -29 185 -9T173 32T162 77T164 132Q172 172 203 209T290 274T428 315L418
260Q335 270 289 299T226 366T217 442Q224 476 239 500T271 546T291 590Q296 613 286 631T249 662T172 685Q143 691 131 710T124 759Q129 788 151 801T209 814Q262 814 306 798T381 752T425 684T430 600Q423 564 406 539T372 490T349 437Q345 415 358 400T406 373T499
352Q523 347 530 326T533 281Q530 263 519 246T488 224Q428 212 387 198T323 165T295 120Q291 98 295 76T305 30T315 -23T312 -87Q304 -128 281 -160T222 -216T142 -251T48 -263Z" />
<glyph unicode="~" glyph-name="asciitilde" horiz-adv-x="700" d="M462 119Q425 119 399 132T353 165T317 205T283 238T243 252Q222 252 209 242T186 215T167 184T147 158T117 147Q93 147 79 160T61 194T60 238Q68 280 89 315T147 372T233 394Q268 394 294 384T339
359T373 327T401 294T430 269T464 259Q486 259 501 270T527 297T548 330T572 358T604 369Q633 369 645 350T649 289Q633 210 583 165T462 119Z" />
<glyph unicode="&#xa0;" glyph-name="uni00A0" horiz-adv-x="343" />
<glyph unicode="&#xa1;" glyph-name="exclamdown" horiz-adv-x="291" d="M62 -244Q27 -244 11 -222T4 -150Q8 -130 12 -112T23 -74T34 -30T47 25Q52 54 55 78T62 122T67 159T72 193Q80 230 98 246T141 262Q166 262 180 249T195 208Q195 160 190 122T176 35Q168
-7 159 -42T141 -111T125 -182Q120 -208 106 -226T62 -244ZM180 348Q126 348 108 377T96 441Q102 468 123 486T181 504Q228 504 252 483T268 422Q261 386 236 367T180 348Z" />
<glyph unicode="&#xa2;" glyph-name="cent" horiz-adv-x="584" d="M246 -9Q164 -9 112 21T39 106T33 231Q45 291 79 342T164 431T273 491T395 513Q445 513 482 500T538 462T549 399Q544 371 527 352T483 332Q467 332 460 341T445 364T424 386T381 396Q339 396
302 381T233 338T182 279T154 210Q148 182 156 160T188 126T258 114Q303 114 332 122T381 141T414 164T440 184T468 192Q514 192 503 136Q494 93 458 60T367 9T246 -9ZM91 -171Q61 -171 53 -150T58 -95Q94 -7 140 82T239 257H358Q302 170 255 78T165 -113Q152 -142
134 -157T91 -171ZM239 257Q295 351 354 436T470 590Q519 649 557 649Q576 649 586 634T593 595T562 540Q504 469 453 399T358 257H239Z" />
<glyph unicode="&#xa3;" glyph-name="sterling" horiz-adv-x="700" d="M411 -17Q368 -17 335 -6T275 23T225 58T180 88T134 100Q124 100 120 100T114 98Q114 98 120 98T134 99Q156 99 180 118T224 168T250 229Q258 270 248 304T218 370T180 432T150 496T147 567Q154
606 185 638T271 691T400 711Q464 711 504 699T566 665T593 621T594 575Q586 530 559 503T490 476Q464 476 455 488T448 516Q450 527 455 534T463 552Q466 568 446 578T384 588Q355 588 333 583T296 567T277 539Q274 521 286 501T317 454T352 393T376 314T372 211Q364
168 339 129T277 58T199 9T115 -10Q74 -10 47 7T9 53T3 112Q12 152 47 177T139 203Q181 203 213 194T271 172T322 146T371 123T425 114Q453 114 473 121T510 139T542 157T574 165Q600 165 611 147T617 99Q612 72 585 45T514 1T411 -17ZM147 260Q119 260 100 277T87
330Q91 350 107 361T151 377Q187 381 233 385T329 392T428 396T520 398Q579 398 604 384T623 344Q618 318 593 298T532 278Q521 278 504 279T457 281Q423 281 380 278T292 271T208 264T147 260Z" />
<glyph unicode="&#xa4;" glyph-name="currency" horiz-adv-x="700" d="M335 138Q276 138 231 161T166 230T156 339Q165 389 189 424T245 482T305 515T351 526Q377 526 386 514T390 471Q387 459 379 447T357 426Q326 408 307 385T282 330Q275 298 291 280T345 261Q372
261 398 275T445 315T472 380Q478 411 467 432T417 454Q383 454 364 448T332 435T309 422T282 416Q259 416 247 428T239 463Q245 489 267 516T331 562T430 581Q499 581 540 554T597 479T602 371Q588 290 548 239T452 163T335 138ZM95 43Q76 43 64 55T53 89T73 142Q92
174 129 218T219 308L292 213Q261 185 233 155T178 93Q156 66 136 55T95 43ZM527 55Q512 55 495 65T462 110Q449 137 430 168T387 229L491 316Q515 285 534 254T566 201Q588 159 592 137T593 100Q585 55 527 55ZM275 415Q255 440 235 462T198 502Q178 522 167 539T161
582Q166 606 182 622T221 638Q242 638 257 629T297 595Q312 581 334 555T381 498L275 415ZM526 421L453 516Q475 534 500 552T551 584Q580 604 601 614T638 629T665 633Q695 633 705 615T709 566Q705 545 695 533T661 507Q627 488 593 467T526 421Z" />
<glyph unicode="&#xa5;" glyph-name="yen" horiz-adv-x="700" d="M315 -17Q278 -17 258 16T235 112T250 259Q261 314 284 369T351 480T463 589T635 694Q656 704 667 707T690 710Q721 710 737 691T748 645Q744 627 732 610T700 584Q594 530 529 477T430 370T384
255Q372 195 372 161T376 108T386 76T386 44Q381 16 362 0T315 -17ZM107 79Q74 79 58 97T47 140Q52 162 67 175T114 190Q189 196 252 203T375 217T501 223Q554 223 581 216T618 194T623 161Q618 136 597 122T546 108Q523 108 505 110T452 112Q413 112 370 107T280
95T191 84T107 79ZM113 249Q83 249 66 267T53 312Q56 329 70 342T113 359Q173 371 241 379T383 393T536 398Q588 398 620 390T665 366T675 331Q671 310 652 295T602 279Q587 279 574 280T546 283T508 287T454 288Q390 288 338 282T243 269T168 255T113 249ZM376
364Q362 364 350 370T327 392Q308 423 282 447T227 493T175 538T135 591Q124 611 122 624T123 653Q128 679 148 698T196 718Q213 718 224 709T245 680Q261 648 286 623T340 575T396 527T443 470Q452 457 450 439T437 404T409 375T376 364Z" />
<glyph unicode="&#xa6;" glyph-name="brokenbar" horiz-adv-x="331" d="M98 -162Q62 -162 47 -140T41 -68Q45 -48 49 -29T60 14T72 69Q77 96 80 117T85 155T89 188T94 219Q102 256 119 272T163 288Q189 288 203 276T217 234Q216 177 207 123T185 14T162 -99Q157
-126 142 -144T98 -162ZM198 365Q171 365 157 378T142 419Q144 479 154 533T177 640T202 751Q206 779 221 797T266 815Q299 815 315 792T323 721Q319 702 313 683T301 641T288 587Q282 559 279 538T274 499T270 466T265 435Q257 399 240 382T198 365Z" />
<glyph unicode="&#xa7;" glyph-name="section" horiz-adv-x="586" d="M299 30L211 103Q280 106 325 121T398 164Q395 184 370 200T309 232T233 268T160 311T110 370T102 449Q112 498 148 539T235 612T344 665T455 698T548 710Q588 710 600 689T607 640Q603 619
587 604T546 584Q455 568 386 543T277 490T231 434Q227 415 248 399T306 366T382 330T457 288T510 233T520 160Q508 99 450 67T299 30ZM138 -260Q74 -260 36 -245T-18 -207T-28 -156Q-24 -136 -12 -125T24 -114Q40 -114 52 -118T84 -127T141 -132Q182 -132 214
-129T273 -118T325 -99Q322 -77 299 -59T240 -24T167 14T98 59T52 120T45 201Q57 260 108 293T244 341L313 276Q242 264 207 242T166 191Q161 168 182 149T240 111T318 72T394 26T448 -32T458 -111Q449 -151 423 -179T353 -225T256 -251T138 -260Z" />
<glyph unicode="&#xa8;" glyph-name="dieresis" horiz-adv-x="594" d="M491 573Q453 573 432 602T419 674Q425 705 450 725T507 746Q537 746 556 731T583 692T585 644Q581 620 558 597T491 573ZM248 568Q221 568 202 581T174 617T170 666Q177 698 200 719T254
740Q288 740 308 725T336 686T338 637Q333 611 311 590T248 568Z" />
<glyph unicode="&#xa9;" glyph-name="copyright" horiz-adv-x="951" d="M425 -52Q335 -52 265 -24T149 58T88 187T91 355Q106 426 137 479T209 569T293 628T374 661T436 672Q453 672 459 666T464 644Q460 627 444 612T395 580Q333 547 293 511T230 432T196 334Q185
279 192 228T229 136T308 73T431 49Q529 49 606 85T734 190T804 354Q822 444 807 510T740 614T591 651Q518 651 467 634T377 592T297 540Q283 530 267 524T236 518Q212 518 205 535T201 573Q206 596 237 626T320 686T441 733T593 752Q695 752 763 721T870 634T917
504T911 345Q890 241 843 166T730 43T586 -28T425 -52ZM460 137Q397 137 358 163T304 235T300 338Q309 383 337 423T406 493T496 541T595 559Q635 559 657 544T686 506T688 457Q683 436 672 420T643 394T602 384Q593 384 589 390T586 410Q587 424 582 433T556 442Q518
442 488 425T439 382T413 325Q406 291 424 271T483 250Q509 250 526 257T557 275T582 293T607 301Q628 301 636 286T641 251Q634 219 611 193T550 152T460 137Z" />
<glyph unicode="&#xaa;" glyph-name="ordfeminine" horiz-adv-x="626" d="M220 261Q171 261 138 282T91 339T86 416Q94 459 116 501T170 581T241 647T321 692T401 709Q433 709 450 689T462 630Q459 616 450 608T429 598Q372 588 325 556T247 478T206 382Q203 368
203 356T206 326L164 414Q181 399 195 394T231 388Q279 388 326 441T409 601Q417 622 432 633T465 645Q498 645 519 627T544 583Q548 542 554 509T572 445T609 380Q617 368 615 349T601 310T573 278T536 265Q521 265 512 270T496 286Q478 314 467 343T448 409T438
501L482 502Q444 411 399 359T309 284T220 261Z" />
<glyph unicode="&#xab;" glyph-name="guillemotleft" horiz-adv-x="664" d="M518 18Q503 18 491 22T461 34Q428 51 398 79T346 143T317 219Q312 243 316 264T335 302Q356 326 382 350T436 398T490 439T536 468Q557 480 571 485T597 490Q626 490 640 472T648 425Q645
409 636 396T606 371Q572 352 537 326T472 270T417 213L432 270Q438 238 458 208T507 156T568 124Q584 119 591 107T595 74Q590 45 566 32T518 18ZM222 15Q207 15 194 19T166 31Q137 49 110 77T62 142T33 219Q29 243 33 264T52 302Q78 333 113 363T183 420T243
460Q264 472 278 477T304 482Q333 482 347 464T355 417Q352 401 343 388T313 363Q280 345 247 320T185 267T133 213L147 270Q154 237 173 207T219 155T274 121Q288 116 295 104T299 69Q293 40 270 28T222 15Z" />
<glyph unicode="&#xac;" glyph-name="logicalnot" horiz-adv-x="700" d="M169 334Q126 331 110 350T99 397Q104 421 126 437T200 462Q258 471 312 476T416 483T509 486Q582 486 611 468T634 416Q629 393 610 379T548 364Q466 364 409 361T309 353T234 343T169
334ZM534 155Q510 155 496 174T486 234Q491 276 500 311T520 379T536 443Q540 469 554 486T596 503Q631 503 648 478T654 396Q649 370 640 337T621 274T609 225Q601 189 580 172T534 155Z" />
<glyph unicode="&#xad;" glyph-name="uni00AD" horiz-adv-x="507" d="M413 190Q374 190 349 201T313 229T305 264Q308 278 317 288T346 302Q414 317 475 322T598 327Q646 327 672 314T707 282T713 248Q709 228 694 216T654 204Q579 204 533 201T459 194T413 190Z" />
<glyph unicode="&#xae;" glyph-name="registered" horiz-adv-x="857" d="M403 136Q292 136 215 180T105 304T94 493Q108 564 139 617T209 706T290 765T368 798T428 808Q444 808 450 803T454 782Q451 766 436 752T391 723Q330 691 291 654T230 572T196 473Q184
411 201 357T268 269T407 235Q498 235 571 269T693 367T759 518Q775 598 762 659T701 755T566 789Q499 789 452 774T369 735T296 687Q281 677 266 672T237 666Q215 666 207 683T202 720Q207 742 236 770T313 825T426 870T568 888Q662 888 726 858T825 776T869 654T863
507Q843 411 799 341T692 226T555 158T403 136ZM319 303Q285 303 268 326T258 385Q261 407 274 436T310 497Q318 530 318 552T316 606Q315 627 327 643T366 660Q391 660 405 647T420 607L395 610Q421 644 454 670T524 710T597 725Q643 725 668 706T701 656T703
594Q691 534 644 499T518 441Q532 431 552 424T596 413Q618 411 626 400T631 372Q628 356 614 342T579 319T534 310Q520 310 500 316T457 336T412 368T372 411Q363 422 365 438T375 468T397 486Q462 505 502 526T563 566T585 595Q587 603 584 608T570 613Q550 613
522 598T464 552T409 471T370 354Q364 324 353 314T319 303Z" />
<glyph unicode="&#xaf;" glyph-name="overscore" horiz-adv-x="484" d="M196 603Q153 603 135 626T121 676Q124 692 137 706T186 725Q229 731 266 734T340 738T417 740Q462 740 486 727T518 695T524 661Q519 639 504 627T465 614Q381 614 329 612T246 606T196 603Z" />
<glyph unicode="&#xb0;" glyph-name="degree" horiz-adv-x="590" d="M319 260Q244 260 191 292T114 380T103 506Q111 549 136 586T196 650T271 693T347 709Q369 709 385 698T396 662Q391 631 374 608T315 572Q295 564 277 551T245 522T228 487Q220 441 247 413T328
385Q376 385 412 413T457 487Q465 527 443 551T377 575Q359 575 345 566T311 541Q290 523 277 515T243 507Q229 507 218 513T202 533T203 576Q207 599 225 621T269 661T325 691T383 702Q497 702 549 640T583 475Q572 413 533 365T439 288T319 260Z" />
<glyph unicode="&#xb1;" glyph-name="plusminus" horiz-adv-x="700" d="M106 19Q61 14 41 31T28 78Q32 99 51 117T123 147Q221 169 315 181T496 193Q544 193 567 177T585 130Q580 107 563 94T505 80Q436 80 384 75T293 62T222 47T162 31T106 19ZM136 297Q104 295
92 314T84 359Q90 384 107 402T173 431Q237 443 306 451T442 464T569 469Q612 469 633 450T649 399Q644 379 630 367T584 353Q488 352 420 345T301 328T211 311T136 297ZM342 213Q317 213 303 232T294 292Q300 339 309 380T327 458T344 531Q348 557 362 574T404
591Q440 591 457 566T463 484Q457 454 447 416T428 341T414 283Q407 247 387 230T342 213Z" />
<glyph unicode="&#xb2;" glyph-name="uni00B2" horiz-adv-x="500" d="M181 392Q148 392 135 410T126 459Q130 482 140 494T162 512Q231 552 276 581T349 632T388 672T405 708Q411 733 382 733Q348 733 319 719T266 690T227 676Q204 676 192 693T184 735Q186 751
194 762T219 784Q265 813 308 829T392 845Q471 845 498 804T514 701Q509 670 487 638T417 569T281 486L265 514Q277 510 289 509T312 508Q336 508 371 511T448 515Q497 515 513 498T524 452Q521 433 504 419T461 404Q352 404 283 398T181 392Z" />
<glyph unicode="&#xb3;" glyph-name="uni00B3" horiz-adv-x="500" d="M289 406Q231 406 198 418T154 450T148 497Q150 510 164 525T202 540Q214 540 221 535T243 525T292 519Q325 519 355 524T404 539T427 562Q429 575 419 582T383 591T317 594Q293 594 283 605T275
632Q278 647 287 657T313 670Q364 679 392 693T424 727Q427 740 419 744T396 748Q353 748 326 742T280 728T245 721Q222 721 212 734T205 768Q209 792 234 811T302 841T407 853Q479 853 508 819T528 733Q523 709 507 685T457 643T372 617L381 667Q444 667 477 650T519
602T522 534Q513 491 481 463T398 420T289 406Z" />
<glyph unicode="&#xb4;" glyph-name="acute" horiz-adv-x="284" d="M173 572Q144 572 132 584T123 616Q127 632 137 644T168 671Q195 691 209 709T238 756Q255 788 274 799T318 810Q352 810 366 791T374 738Q365 693 333 656T258 595T173 572Z" />
<glyph unicode="&#xb5;" glyph-name="uni00B5" horiz-adv-x="700" d="M49 -199Q33 -199 19 -191T0 -160T3 -90Q17 -23 33 43T63 171Q54 205 54 241T61 319Q81 417 111 463T177 509Q215 509 232 484T238 402Q228 356 218 307T196 208Q208 171 231 146T283 121Q321
121 353 147T408 220T444 325Q449 354 452 374T457 412T465 450Q471 477 484 492T527 508Q560 508 577 486T589 422Q574 340 572 282T581 184T613 109Q624 94 623 75T610 37T581 6T538 -7Q522 -7 512 0T495 19Q482 39 473 61T458 113Q428 52 378 21T269 -10Q235
-10 207 1T156 31Q145 -19 136 -60T121 -130Q113 -166 93 -182T49 -199Z" />
<glyph unicode="&#xb6;" glyph-name="paragraph" horiz-adv-x="842" d="M338 -266Q313 -266 294 -252T271 -215Q263 -163 278 -99T322 47T384 232T443 466Q451 504 452 526T450 559T438 574T417 578Q389 578 355 561T288 515T233 452T203 384Q198 360 219 336T294
292T437 258Q455 256 466 245T480 218T477 185Q467 159 443 146T391 136Q278 154 202 189T92 277T72 398Q83 452 119 507T209 608T325 682T450 710Q496 710 526 697T571 652T587 570T571 442Q547 320 516 225T458 56T416 -75T407 -180Q409 -198 403 -218T380 -252T338
-266ZM571 -255Q542 -255 524 -238T509 -189Q515 -124 532 -63T574 66T625 216T674 403T712 644Q715 665 722 681T745 708T787 718Q816 718 833 697T845 630Q830 502 808 402T759 223T710 78T668 -50T644 -177Q643 -197 635 -215T612 -244T571 -255Z" />
<glyph unicode="&#xb7;" glyph-name="middot" horiz-adv-x="325" d="M167 178Q112 178 87 205T71 281Q78 316 103 337T162 358Q202 358 225 341T256 299T257 247Q253 219 230 199T167 178Z" />
<glyph unicode="&#xb8;" glyph-name="cedilla" horiz-adv-x="594" d="M165 -236Q119 -236 96 -217T79 -163Q84 -140 99 -126T145 -107Q193 -101 214 -86T241 -44Q245 -26 242 -17T233 -3T224 8T222 25Q223 36 235 45T270 54Q323 54 348 13T359 -97Q346 -161 295
-198T165 -236Z" />
<glyph unicode="&#xb9;" glyph-name="uni00B9" horiz-adv-x="500" d="M361 463Q329 463 315 485T307 539Q315 588 330 636T362 729L385 723Q354 697 317 684T248 671Q217 671 207 689T200 730Q202 746 215 758T253 773Q287 777 322 790T386 824Q398 834 411 839T440
844Q474 844 484 818T482 756Q469 715 458 682T439 620T424 563T411 505Q406 483 394 473T361 463ZM223 392Q184 392 165 401T139 426T137 459Q141 480 159 492T215 505Q234 505 262 506T324 508T388 511T447 512Q488 512 508 496T523 450Q519 429 501 414T448
399Q393 399 350 398T276 394T223 392Z" />
<glyph unicode="&#xba;" glyph-name="ordmasculine" horiz-adv-x="542" d="M297 260Q228 260 180 292T111 381T104 507Q113 551 136 588T192 652T261 695T334 711Q356 711 371 700T383 664Q379 644 371 625T348 593T307 574Q278 562 256 539T228 487Q218 440 238
413T300 385Q339 385 368 410T408 481Q416 524 401 549T353 575Q334 575 320 567T286 542Q266 525 254 518T222 510Q205 510 192 522T183 561Q188 586 206 611T250 657T305 690T360 702Q429 702 472 673T531 592T535 471Q522 407 488 359T404 286T297 260Z" />
<glyph unicode="&#xbb;" glyph-name="guillemotright" horiz-adv-x="664" d="M54 15Q30 15 18 34T12 85Q16 102 25 115T53 139Q88 159 122 185T188 241T243 298L228 240Q223 271 204 298T155 348T92 384Q77 391 69 403T63 436Q69 463 89 475T139 487Q156 487 169
483T198 473Q232 458 263 429T317 364T345 289Q349 266 344 248T325 211Q304 186 278 160T224 110T170 67T122 36Q100 23 84 19T54 15ZM350 23Q326 23 314 42T308 93Q311 110 320 123T349 147Q382 166 415 191T477 244T529 298L515 241Q510 272 491 300T446 350T390
387Q375 395 367 406T362 440Q368 467 388 478T438 490Q455 490 467 486T496 475Q525 460 554 431T604 365T631 289Q635 266 630 248T611 211Q584 179 549 146T480 87T417 44Q396 31 380 27T350 23Z" />
<glyph unicode="&#xbc;" glyph-name="onequarter" horiz-adv-x="1316" d="M322 334Q290 334 276 356T267 411Q276 460 290 508T323 601L345 595Q315 569 277 556T208 542Q178 542 167 561T160 602Q163 618 176 630T213 645Q247 648 283 662T347 696Q359 705 372
710T400 716Q435 716 445 690T443 628Q429 587 418 554T399 491T384 434T371 377Q367 355 355 345T322 334ZM183 263Q144 263 125 273T99 298T97 331Q101 352 120 364T175 377Q194 377 223 378T284 380T349 383T407 384Q449 384 469 368T483 322Q480 300 462 286T408
271Q353 271 310 269T236 265T183 263ZM368 -28Q347 -28 334 -12T322 29T343 76Q405 146 474 216T616 354T764 482T910 597T1050 693Q1074 708 1092 714T1128 721Q1146 721 1157 710T1169 680T1157 639T1110 596Q980 511 863 418T638 223T429 7Q413 -10 398 -19T368
-28ZM1081 -7Q1048 -7 1038 17T1039 97Q1054 171 1074 230T1104 331Q1106 344 1106 354T1104 375L1134 340Q1069 321 1018 276T931 171L909 213Q922 207 929 205T948 203Q989 203 1033 209T1125 223T1229 230Q1252 230 1264 209T1272 161Q1269 143 1258 131T1224
118Q1157 118 1100 111T990 97T883 90Q850 90 834 110T822 156Q826 180 837 207T880 274Q915 317 955 349T1035 401T1107 432T1160 443Q1201 443 1216 419T1224 361Q1214 311 1200 269T1173 185T1150 92Q1147 70 1147 58T1145 31Q1142 14 1125 4T1081 -7Z" />
<glyph unicode="&#xbd;" glyph-name="onehalf" horiz-adv-x="1316" d="M322 334Q290 334 276 356T267 411Q276 460 290 508T323 601L345 595Q315 569 277 556T208 542Q178 542 167 561T160 602Q163 618 176 630T213 645Q247 648 283 662T347 696Q359 705 372 710T400
716Q435 716 445 690T443 628Q429 587 418 554T399 491T384 434T371 377Q367 355 355 345T322 334ZM183 263Q144 263 125 273T99 298T97 331Q101 352 120 364T175 377Q194 377 223 378T284 380T349 383T407 384Q449 384 469 368T483 322Q480 300 462 286T408 271Q353
271 310 269T236 265T183 263ZM368 -28Q347 -28 334 -12T322 29T343 76Q405 146 474 216T616 354T764 482T910 597T1050 693Q1074 708 1092 714T1128 721Q1146 721 1157 710T1169 680T1157 639T1110 596Q980 511 863 418T638 223T429 7Q413 -10 398 -19T368 -28ZM884
-12Q851 -12 838 6T829 55Q833 78 843 90T865 108Q934 148 979 177T1052 228T1091 268T1108 304Q1114 329 1085 329Q1051 329 1022 315T969 286T930 272Q907 272 895 289T887 331Q889 347 897 358T922 380Q968 409 1011 425T1095 441Q1174 441 1201 400T1217 297Q1212
266 1190 234T1120 165T984 82L968 110Q980 106 992 105T1015 104Q1039 104 1074 107T1151 111Q1200 111 1216 94T1227 48Q1224 29 1207 15T1164 0Q1055 0 986 -6T884 -12Z" />
<glyph unicode="&#xbe;" glyph-name="threequarters" horiz-adv-x="1316" d="M248 263Q190 263 157 275T113 308T107 354Q110 367 123 382T161 397Q174 397 181 392T202 381T251 376Q284 376 314 381T364 396T386 419Q388 432 378 439T343 448T276 451Q252 451
242 462T234 489Q237 504 246 514T272 527Q323 536 351 550T383 584Q386 597 378 601T355 605Q312 605 285 599T239 585T204 578Q181 578 171 592T164 626Q169 649 193 668T261 698T366 710Q438 710 468 676T487 590Q483 566 466 542T417 500T331 474L340 524Q403
524 436 507T479 459T481 391Q472 348 440 320T358 277T248 263ZM368 -28Q347 -28 334 -12T322 29T343 76Q405 146 474 216T616 354T764 482T910 597T1050 693Q1074 708 1092 714T1128 721Q1146 721 1157 710T1169 680T1157 639T1110 596Q980 511 863 418T638 223T429
7Q413 -10 398 -19T368 -28ZM1081 -7Q1048 -7 1038 17T1039 97Q1054 171 1074 230T1104 331Q1106 344 1106 354T1104 375L1134 340Q1069 321 1018 276T931 171L909 213Q922 207 929 205T948 203Q989 203 1033 209T1125 223T1229 230Q1252 230 1264 209T1272 161Q1269
143 1258 131T1224 118Q1157 118 1100 111T990 97T883 90Q850 90 834 110T822 156Q826 180 837 207T880 274Q915 317 955 349T1035 401T1107 432T1160 443Q1201 443 1216 419T1224 361Q1214 311 1200 269T1173 185T1150 92Q1147 70 1147 58T1145 31Q1142 14 1125
4T1081 -7Z" />
<glyph unicode="&#xbf;" glyph-name="questiondown" horiz-adv-x="392" d="M149 -251Q65 -251 15 -224T-54 -151T-62 -50Q-54 -15 -39 11T4 60T75 105Q117 125 137 138T165 160T174 176Q176 184 173 190T164 203T156 218T155 238Q159 255 174 266T212 277Q244
277 266 260T297 214T300 154Q297 139 291 126T270 98T230 67T163 29Q125 10 106 -4T79 -30T69 -57Q63 -86 82 -104T153 -122Q200 -122 230 -113T281 -95T325 -85Q350 -85 364 -101T372 -148Q368 -171 351 -189T312 -218Q289 -229 261 -236T204 -247T149 -251ZM261
358Q227 358 208 371T182 406T180 450Q185 478 207 496T269 514Q311 514 334 491T349 426Q342 393 318 376T261 358Z" />
<glyph unicode="&#xc0;" glyph-name="Agrave" horiz-adv-x="753" d="M592 -10Q564 -10 547 6T518 62Q506 97 501 150T495 262T499 374Q505 438 507 479T509 541T501 572T483 581Q458 581 423 544T345 436T260 267T177 49Q167 19 152 6T114 -8Q74 -8 59 19T56 112Q68
173 88 229T132 338T175 442T208 545Q213 569 225 580T257 592Q275 592 291 583T319 551L264 534Q320 618 379 664T500 710Q568 710 600 675T638 566T633 373Q626 297 630 243T640 151T652 86T653 38Q648 14 633 2T592 -10ZM92 174Q52 174 37 190T28 231Q31 249
45 261T86 282Q199 317 340 336T650 355Q701 355 716 340T726 298Q720 266 689 246T611 225Q523 225 454 220T330 207T234 192T157 179T92 174ZM520 774Q492 774 468 787T426 824T399 876T393 932Q395 967 411 984T460 1001Q487 1001 500 986T519 937Q524 910 534
893T556 864T575 841T579 812Q575 791 559 783T520 774Z" />
<glyph unicode="&#xc1;" glyph-name="Aacute" horiz-adv-x="753" d="M592 -10Q564 -10 547 6T518 62Q506 97 501 150T495 262T499 374Q505 438 507 479T509 541T501 572T483 581Q458 581 423 544T345 436T260 267T177 49Q167 19 152 6T114 -8Q74 -8 59 19T56 112Q68
173 88 229T132 338T175 442T208 545Q213 569 225 580T257 592Q275 592 291 583T319 551L264 534Q320 618 379 664T500 710Q568 710 600 675T638 566T633 373Q626 297 630 243T640 151T652 86T653 38Q648 14 633 2T592 -10ZM92 174Q52 174 37 190T28 231Q31 249
45 261T86 282Q199 317 340 336T650 355Q701 355 716 340T726 298Q720 266 689 246T611 225Q523 225 454 220T330 207T234 192T157 179T92 174ZM507 769Q478 769 466 781T457 813Q461 829 471 841T502 868Q529 888 543 906T572 953Q589 985 608 996T652 1007Q686
1007 700 988T708 935Q699 890 667 853T592 792T507 769Z" />
<glyph unicode="&#xc2;" glyph-name="Acircumflex" horiz-adv-x="753" d="M592 -10Q564 -10 547 6T518 62Q506 97 501 150T495 262T499 374Q505 438 507 479T509 541T501 572T483 581Q458 581 423 544T345 436T260 267T177 49Q167 19 152 6T114 -8Q74 -8 59 19T56
112Q68 173 88 229T132 338T175 442T208 545Q213 569 225 580T257 592Q275 592 291 583T319 551L264 534Q320 618 379 664T500 710Q568 710 600 675T638 566T633 373Q626 297 630 243T640 151T652 86T653 38Q648 14 633 2T592 -10ZM92 174Q52 174 37 190T28 231Q31
249 45 261T86 282Q199 317 340 336T650 355Q701 355 716 340T726 298Q720 266 689 246T611 225Q523 225 454 220T330 207T234 192T157 179T92 174ZM386 762Q370 762 358 769T340 789T334 816Q335 826 341 836T369 864T438 915Q472 938 492 952T529 973T565 979Q594
979 610 968T642 930Q658 899 674 882T703 853T722 832T725 805Q722 786 704 776T664 765Q637 765 615 774T572 809T524 882H574Q523 838 491 814T440 778T409 765T386 762Z" />
<glyph unicode="&#xc3;" glyph-name="Atilde" horiz-adv-x="753" d="M592 -10Q564 -10 547 6T518 62Q506 97 501 150T495 262T499 374Q505 438 507 479T509 541T501 572T483 581Q458 581 423 544T345 436T260 267T177 49Q167 19 152 6T114 -8Q74 -8 59 19T56 112Q68
173 88 229T132 338T175 442T208 545Q213 569 225 580T257 592Q275 592 291 583T319 551L264 534Q320 618 379 664T500 710Q568 710 600 675T638 566T633 373Q626 297 630 243T640 151T652 86T653 38Q648 14 633 2T592 -10ZM92 174Q52 174 37 190T28 231Q31 249
45 261T86 282Q199 317 340 336T650 355Q701 355 716 340T726 298Q720 266 689 246T611 225Q523 225 454 220T330 207T234 192T157 179T92 174ZM375 781Q346 781 333 805T326 860Q332 888 348 914T392 956T461 972Q496 972 517 961T554 937T582 912T611 901Q626
901 636 907T654 924T669 944T687 960T713 967Q739 967 750 950T754 896Q743 843 705 811T613 779Q584 779 566 788T534 810T506 832T473 842Q454 842 444 833T425 812T406 790T375 781Z" />
<glyph unicode="&#xc4;" glyph-name="Adieresis" horiz-adv-x="753" d="M592 -10Q564 -10 547 6T518 62Q506 97 501 150T495 262T499 374Q505 438 507 479T509 541T501 572T483 581Q458 581 423 544T345 436T260 267T177 49Q167 19 152 6T114 -8Q74 -8 59 19T56
112Q68 173 88 229T132 338T175 442T208 545Q213 569 225 580T257 592Q275 592 291 583T319 551L264 534Q320 618 379 664T500 710Q568 710 600 675T638 566T633 373Q626 297 630 243T640 151T652 86T653 38Q648 14 633 2T592 -10ZM92 174Q52 174 37 190T28 231Q31
249 45 261T86 282Q199 317 340 336T650 355Q701 355 716 340T726 298Q720 266 689 246T611 225Q523 225 454 220T330 207T234 192T157 179T92 174ZM647 770Q609 770 588 799T575 871Q581 902 606 922T663 943Q693 943 712 928T739 889T741 841Q737 817 714 794T647
770ZM404 765Q377 765 358 778T330 814T326 863Q333 895 356 916T410 937Q444 937 464 922T492 883T494 834Q489 808 467 787T404 765Z" />
<glyph unicode="&#xc5;" glyph-name="Aring" horiz-adv-x="753" d="M592 -10Q564 -10 547 6T518 62Q506 97 501 150T495 262T499 374Q505 438 507 479T509 541T501 572T483 581Q458 581 423 544T345 436T260 267T177 49Q167 19 152 6T114 -8Q74 -8 59 19T56 112Q68
173 88 229T132 338T175 442T208 545Q213 569 225 580T257 592Q275 592 291 583T319 551L264 534Q320 618 379 664T500 710Q568 710 600 675T638 566T633 373Q626 297 630 243T640 151T652 86T653 38Q648 14 633 2T592 -10ZM92 174Q52 174 37 190T28 231Q31 249
45 261T86 282Q199 317 340 336T650 355Q701 355 716 340T726 298Q720 266 689 246T611 225Q523 225 454 220T330 207T234 192T157 179T92 174ZM499 632Q437 632 397 659T340 731T333 829Q340 861 356 888T397 936T452 968T514 980Q546 980 561 963T572 921Q568
905 556 892T523 869Q492 856 479 840T461 806Q456 780 470 765T510 750Q538 750 556 765T580 806Q584 829 573 843T537 858Q519 858 508 851T489 837T470 830Q437 830 426 841T421 878Q429 919 461 946T545 973Q608 973 647 948T701 882T706 791Q696 741 667 706T594
651T499 632Z" />
<glyph unicode="&#xc6;" glyph-name="AE" horiz-adv-x="1083" d="M108 -8Q90 -8 76 6T55 46T57 112Q68 170 90 224T137 331T184 434T215 534Q219 552 230 562T262 573Q280 573 294 563T324 531L260 518Q320 613 379 662T497 711Q552 711 584 691T629 630T642 525T633
369Q626 291 633 237T669 153T756 124Q802 124 836 131T896 147T941 163T973 170Q999 170 1009 155T1015 116Q1008 81 977 53T889 9T754 -7Q664 -7 609 20T527 96T494 213T497 362Q505 431 508 474T510 540T501 572T482 581Q458 581 422 544T342 435T254 265T168
44Q160 17 146 4T108 -8ZM100 172Q76 172 58 179T30 201T24 235Q27 250 39 259T91 278Q152 293 227 309T384 341T548 371T705 396T840 413T937 420Q980 420 994 407T1003 364Q995 326 963 311T890 292Q778 285 677 271T487 240T325 207T195 181T100 172ZM620 548Q572
548 551 568T535 618Q538 634 547 645T584 663Q639 676 698 685T815 699T922 707T1008 710Q1069 710 1096 688T1116 631Q1112 611 1100 598T1062 584Q977 584 906 579T779 566T683 554T620 548Z" />
<glyph unicode="&#xc7;" glyph-name="Ccedilla" horiz-adv-x="615" d="M304 -10Q206 -10 147 32T67 147T65 312Q81 392 122 464T222 591T351 679T497 711Q553 711 584 696T627 651T630 581Q626 556 613 535T579 501T533 487Q519 487 512 494T504 512T505 536Q507
547 506 555T496 568T466 573Q419 573 375 550T295 487T233 398T197 298Q179 210 212 165T318 119Q358 119 386 127T433 146T466 169T492 189T517 197Q541 197 549 182T552 140Q546 114 528 88T479 39T404 4T304 -10ZM184 -236Q138 -236 115 -217T98 -163Q103 -140
118 -126T164 -107Q212 -101 233 -86T260 -44Q264 -26 261 -17T252 -3T243 8T241 25Q242 36 254 45T289 54Q342 54 367 13T378 -97Q365 -161 314 -198T184 -236Z" />
<glyph unicode="&#xc8;" glyph-name="Egrave" horiz-adv-x="651" d="M326 -7Q249 -7 196 16T112 82T74 179T78 297Q86 335 100 376T133 460T176 541Q196 578 225 600T286 622Q299 622 310 615T326 595T322 562Q303 531 281 489T240 397T210 293Q199 243 210 205T252
144T330 122Q376 122 409 128T467 142T509 156T538 162Q564 162 575 147T582 104Q576 73 545 48T459 8T326 -7ZM184 259Q160 254 149 262T137 285T138 318Q143 343 165 362T218 387Q248 393 282 398T354 408T430 416T510 421Q548 421 561 407T570 365Q563 332 533
316T466 297Q422 295 383 291T308 281T242 271T184 259ZM219 548Q172 548 152 568T138 616Q140 631 150 643T182 662Q254 680 332 690T482 705T602 710Q648 710 670 687T686 631Q682 611 667 598T622 584Q545 584 481 579T366 566T279 554T219 548ZM483 774Q455
774 431 787T389 824T362 876T356 932Q358 967 374 984T423 1001Q450 1001 463 986T482 937Q487 910 497 893T519 864T538 841T542 812Q538 791 522 783T483 774Z" />
<glyph unicode="&#xc9;" glyph-name="Eacute" horiz-adv-x="651" d="M326 -7Q249 -7 196 16T112 82T74 179T78 297Q86 335 100 376T133 460T176 541Q196 578 225 600T286 622Q299 622 310 615T326 595T322 562Q303 531 281 489T240 397T210 293Q199 243 210 205T252
144T330 122Q376 122 409 128T467 142T509 156T538 162Q564 162 575 147T582 104Q576 73 545 48T459 8T326 -7ZM184 259Q160 254 149 262T137 285T138 318Q143 343 165 362T218 387Q248 393 282 398T354 408T430 416T510 421Q548 421 561 407T570 365Q563 332 533
316T466 297Q422 295 383 291T308 281T242 271T184 259ZM219 548Q172 548 152 568T138 616Q140 631 150 643T182 662Q254 680 332 690T482 705T602 710Q648 710 670 687T686 631Q682 611 667 598T622 584Q545 584 481 579T366 566T279 554T219 548ZM471 769Q442
769 430 781T421 813Q425 829 435 841T466 868Q493 888 507 906T536 953Q553 985 572 996T616 1007Q650 1007 664 988T672 935Q663 890 631 853T556 792T471 769Z" />
<glyph unicode="&#xca;" glyph-name="Ecircumflex" horiz-adv-x="651" d="M326 -7Q249 -7 196 16T112 82T74 179T78 297Q86 335 100 376T133 460T176 541Q196 578 225 600T286 622Q299 622 310 615T326 595T322 562Q303 531 281 489T240 397T210 293Q199 243 210
205T252 144T330 122Q376 122 409 128T467 142T509 156T538 162Q564 162 575 147T582 104Q576 73 545 48T459 8T326 -7ZM184 259Q160 254 149 262T137 285T138 318Q143 343 165 362T218 387Q248 393 282 398T354 408T430 416T510 421Q548 421 561 407T570 365Q563
332 533 316T466 297Q422 295 383 291T308 281T242 271T184 259ZM219 548Q172 548 152 568T138 616Q140 631 150 643T182 662Q254 680 332 690T482 705T602 710Q648 710 670 687T686 631Q682 611 667 598T622 584Q545 584 481 579T366 566T279 554T219 548ZM349
762Q333 762 321 769T303 789T297 816Q298 826 304 836T332 864T401 915Q435 938 455 952T492 973T528 979Q557 979 573 968T605 930Q621 899 637 882T666 853T685 832T688 805Q685 786 667 776T627 765Q600 765 578 774T535 809T487 882H537Q486 838 454 814T403
778T372 765T349 762Z" />
<glyph unicode="&#xcb;" glyph-name="Edieresis" horiz-adv-x="651" d="M326 -7Q249 -7 196 16T112 82T74 179T78 297Q86 335 100 376T133 460T176 541Q196 578 225 600T286 622Q299 622 310 615T326 595T322 562Q303 531 281 489T240 397T210 293Q199 243 210
205T252 144T330 122Q376 122 409 128T467 142T509 156T538 162Q564 162 575 147T582 104Q576 73 545 48T459 8T326 -7ZM184 259Q160 254 149 262T137 285T138 318Q143 343 165 362T218 387Q248 393 282 398T354 408T430 416T510 421Q548 421 561 407T570 365Q563
332 533 316T466 297Q422 295 383 291T308 281T242 271T184 259ZM219 548Q172 548 152 568T138 616Q140 631 150 643T182 662Q254 680 332 690T482 705T602 710Q648 710 670 687T686 631Q682 611 667 598T622 584Q545 584 481 579T366 566T279 554T219 548ZM611
770Q573 770 552 799T539 871Q545 902 570 922T627 943Q657 943 676 928T703 889T705 841Q701 817 678 794T611 770ZM368 765Q341 765 322 778T294 814T290 863Q297 895 320 916T374 937Q408 937 428 922T456 883T458 834Q453 808 431 787T368 765Z" />
<glyph unicode="&#xcc;" glyph-name="Igrave" horiz-adv-x="558" d="M168 557Q127 557 113 576T104 622Q109 646 128 662T181 683Q237 691 298 696T419 705T530 708Q578 708 595 692T607 645Q600 609 563 592T471 574Q416 574 376 573T304 569T250 564T207 559T168
557ZM259 88Q222 88 203 109T191 165Q206 237 224 306T258 438T285 552Q292 585 306 601T348 617Q381 617 401 593T413 535Q406 498 390 440T355 306T318 141Q308 88 259 88ZM87 -11Q28 -11 7 9T-9 61Q-5 81 9 94T52 111Q95 115 130 118T198 122T263 124T331 125T410
125Q447 125 466 117T490 94T492 65Q487 36 457 18T369 0Q305 0 250 -2T152 -8T87 -11ZM392 774Q364 774 340 787T298 824T271 876T265 932Q267 967 283 984T332 1001Q359 1001 372 986T391 937Q396 910 406 893T428 864T447 841T451 812Q447 791 431 783T392 774Z"
/>
<glyph unicode="&#xcd;" glyph-name="Iacute" horiz-adv-x="558" d="M168 557Q127 557 113 576T104 622Q109 646 128 662T181 683Q237 691 298 696T419 705T530 708Q578 708 595 692T607 645Q600 609 563 592T471 574Q416 574 376 573T304 569T250 564T207 559T168
557ZM259 88Q222 88 203 109T191 165Q206 237 224 306T258 438T285 552Q292 585 306 601T348 617Q381 617 401 593T413 535Q406 498 390 440T355 306T318 141Q308 88 259 88ZM87 -11Q28 -11 7 9T-9 61Q-5 81 9 94T52 111Q95 115 130 118T198 122T263 124T331 125T410
125Q447 125 466 117T490 94T492 65Q487 36 457 18T369 0Q305 0 250 -2T152 -8T87 -11ZM379 769Q350 769 338 781T329 813Q333 829 343 841T374 868Q401 888 415 906T444 953Q461 985 480 996T524 1007Q558 1007 572 988T580 935Q571 890 539 853T464 792T379 769Z"
/>
<glyph unicode="&#xce;" glyph-name="Icircumflex" horiz-adv-x="558" d="M168 557Q127 557 113 576T104 622Q109 646 128 662T181 683Q237 691 298 696T419 705T530 708Q578 708 595 692T607 645Q600 609 563 592T471 574Q416 574 376 573T304 569T250 564T207
559T168 557ZM259 88Q222 88 203 109T191 165Q206 237 224 306T258 438T285 552Q292 585 306 601T348 617Q381 617 401 593T413 535Q406 498 390 440T355 306T318 141Q308 88 259 88ZM87 -11Q28 -11 7 9T-9 61Q-5 81 9 94T52 111Q95 115 130 118T198 122T263 124T331
125T410 125Q447 125 466 117T490 94T492 65Q487 36 457 18T369 0Q305 0 250 -2T152 -8T87 -11ZM257 762Q241 762 229 769T211 789T205 816Q206 826 212 836T240 864T309 915Q343 938 363 952T400 973T436 979Q465 979 481 968T513 930Q529 899 545 882T574 853T593
832T596 805Q593 786 575 776T535 765Q508 765 486 774T443 809T395 882H445Q394 838 362 814T311 778T280 765T257 762Z" />
<glyph unicode="&#xcf;" glyph-name="Idieresis" horiz-adv-x="558" d="M168 557Q127 557 113 576T104 622Q109 646 128 662T181 683Q237 691 298 696T419 705T530 708Q578 708 595 692T607 645Q600 609 563 592T471 574Q416 574 376 573T304 569T250 564T207
559T168 557ZM259 88Q222 88 203 109T191 165Q206 237 224 306T258 438T285 552Q292 585 306 601T348 617Q381 617 401 593T413 535Q406 498 390 440T355 306T318 141Q308 88 259 88ZM87 -11Q28 -11 7 9T-9 61Q-5 81 9 94T52 111Q95 115 130 118T198 122T263 124T331
125T410 125Q447 125 466 117T490 94T492 65Q487 36 457 18T369 0Q305 0 250 -2T152 -8T87 -11ZM519 770Q481 770 460 799T447 871Q453 902 478 922T535 943Q565 943 584 928T611 889T613 841Q609 817 586 794T519 770ZM276 765Q249 765 230 778T202 814T198 863Q205
895 228 916T282 937Q316 937 336 922T364 883T366 834Q361 808 339 787T276 765Z" />
<glyph unicode="&#xd0;" glyph-name="Eth" horiz-adv-x="705" d="M129 285Q85 285 66 307T52 354Q55 367 64 377T93 392Q155 405 207 408T313 412Q358 412 382 401T416 374T423 345Q419 326 404 315T364 304Q291 304 245 300T172 290T129 285ZM221 -10Q175 -10
147 17T109 87T109 181Q128 279 149 368T196 550Q204 581 221 594T272 607Q297 607 312 589T325 543Q318 495 304 442T273 329T244 200Q237 165 238 139T251 86L167 107Q249 114 318 142T440 213T527 310T573 423Q582 469 573 503T530 557T439 577Q389 577 353
571T289 555T239 540T195 533Q166 533 148 544T124 573T121 611Q124 628 136 643T170 664Q198 672 231 680T302 694T378 705T454 709Q553 709 614 670T699 564T707 414Q692 338 656 273T569 157T459 68T338 10T221 -10Z" />
<glyph unicode="&#xd1;" glyph-name="Ntilde" horiz-adv-x="782" d="M79 -15Q50 -15 35 5T26 55Q30 75 38 95T59 144T84 220T113 342Q122 385 129 431T141 520T151 594T157 638Q163 668 184 689T238 710Q280 710 311 687T365 625T405 536T437 432T464 326T491
229T522 153T563 112L487 81Q503 96 518 113T545 158T567 231Q579 291 586 345T601 451T621 551T656 650Q671 683 687 697T727 711Q758 711 772 695T787 656T781 612Q762 564 751 521T733 435T719 345T700 242Q685 168 665 110T611 19T522 -14Q485 -14 459 6T414
63T381 145T355 243T329 349T297 453T252 544L277 549Q274 504 270 469T261 403T250 342Q227 250 205 174T158 40Q147 15 129 0T79 -15ZM347 781Q318 781 305 805T298 860Q304 888 320 914T364 956T433 972Q468 972 489 961T526 937T554 912T583 901Q598 901 608
907T626 924T641 944T659 960T685 967Q711 967 722 950T726 896Q715 843 677 811T585 779Q556 779 538 788T506 810T478 832T445 842Q426 842 416 833T397 812T378 790T347 781Z" />
<glyph unicode="&#xd2;" glyph-name="Ograve" horiz-adv-x="735" d="M320 -10Q248 -10 194 15T105 84T60 186T62 310Q74 371 102 421T167 511T240 576T307 616T353 629Q371 629 382 624T400 602Q413 576 400 555T360 518Q317 492 283 459T226 385T191 290Q181
239 194 200T242 138T333 116Q385 116 432 139T515 203T561 300Q570 351 567 400T549 490T507 555T440 580Q425 580 416 569T403 539Q399 518 386 507T355 495Q335 495 319 506T296 540T295 596Q301 626 322 652T377 694T455 711Q527 711 579 675T661 577T699 439T692
283Q679 217 644 163T559 71T448 11T320 -10ZM466 774Q438 774 414 787T372 824T345 876T339 932Q341 967 357 984T406 1001Q433 1001 446 986T465 937Q470 910 480 893T502 864T521 841T525 812Q521 791 505 783T466 774Z" />
<glyph unicode="&#xd3;" glyph-name="Oacute" horiz-adv-x="735" d="M320 -10Q248 -10 194 15T105 84T60 186T62 310Q74 371 102 421T167 511T240 576T307 616T353 629Q371 629 382 624T400 602Q413 576 400 555T360 518Q317 492 283 459T226 385T191 290Q181
239 194 200T242 138T333 116Q385 116 432 139T515 203T561 300Q570 351 567 400T549 490T507 555T440 580Q425 580 416 569T403 539Q399 518 386 507T355 495Q335 495 319 506T296 540T295 596Q301 626 322 652T377 694T455 711Q527 711 579 675T661 577T699 439T692
283Q679 217 644 163T559 71T448 11T320 -10ZM453 769Q424 769 412 781T403 813Q407 829 417 841T448 868Q475 888 489 906T518 953Q535 985 554 996T598 1007Q632 1007 646 988T654 935Q645 890 613 853T538 792T453 769Z" />
<glyph unicode="&#xd4;" glyph-name="Ocircumflex" horiz-adv-x="735" d="M320 -10Q248 -10 194 15T105 84T60 186T62 310Q74 371 102 421T167 511T240 576T307 616T353 629Q371 629 382 624T400 602Q413 576 400 555T360 518Q317 492 283 459T226 385T191 290Q181
239 194 200T242 138T333 116Q385 116 432 139T515 203T561 300Q570 351 567 400T549 490T507 555T440 580Q425 580 416 569T403 539Q399 518 386 507T355 495Q335 495 319 506T296 540T295 596Q301 626 322 652T377 694T455 711Q527 711 579 675T661 577T699 439T692
283Q679 217 644 163T559 71T448 11T320 -10ZM332 762Q316 762 304 769T286 789T280 816Q281 826 287 836T315 864T384 915Q418 938 438 952T475 973T511 979Q540 979 556 968T588 930Q604 899 620 882T649 853T668 832T671 805Q668 786 650 776T610 765Q583 765
561 774T518 809T470 882H520Q469 838 437 814T386 778T355 765T332 762Z" />
<glyph unicode="&#xd5;" glyph-name="Otilde" horiz-adv-x="735" d="M320 -10Q248 -10 194 15T105 84T60 186T62 310Q74 371 102 421T167 511T240 576T307 616T353 629Q371 629 382 624T400 602Q413 576 400 555T360 518Q317 492 283 459T226 385T191 290Q181
239 194 200T242 138T333 116Q385 116 432 139T515 203T561 300Q570 351 567 400T549 490T507 555T440 580Q425 580 416 569T403 539Q399 518 386 507T355 495Q335 495 319 506T296 540T295 596Q301 626 322 652T377 694T455 711Q527 711 579 675T661 577T699 439T692
283Q679 217 644 163T559 71T448 11T320 -10ZM321 781Q292 781 279 805T272 860Q278 888 294 914T338 956T407 972Q442 972 463 961T500 937T528 912T557 901Q572 901 582 907T600 924T615 944T633 960T659 967Q685 967 696 950T700 896Q689 843 651 811T559 779Q530
779 512 788T480 810T452 832T419 842Q400 842 390 833T371 812T352 790T321 781Z" />
<glyph unicode="&#xd6;" glyph-name="Odieresis" horiz-adv-x="735" d="M320 -10Q248 -10 194 15T105 84T60 186T62 310Q74 371 102 421T167 511T240 576T307 616T353 629Q371 629 382 624T400 602Q413 576 400 555T360 518Q317 492 283 459T226 385T191 290Q181
239 194 200T242 138T333 116Q385 116 432 139T515 203T561 300Q570 351 567 400T549 490T507 555T440 580Q425 580 416 569T403 539Q399 518 386 507T355 495Q335 495 319 506T296 540T295 596Q301 626 322 652T377 694T455 711Q527 711 579 675T661 577T699 439T692
283Q679 217 644 163T559 71T448 11T320 -10ZM593 770Q555 770 534 799T521 871Q527 902 552 922T609 943Q639 943 658 928T685 889T687 841Q683 817 660 794T593 770ZM350 765Q323 765 304 778T276 814T272 863Q279 895 302 916T356 937Q390 937 410 922T438 883T440
834Q435 808 413 787T350 765Z" />
<glyph unicode="&#xd7;" glyph-name="multiply" horiz-adv-x="700" d="M136 72Q106 72 97 94T113 163Q128 193 163 235T248 326T358 422T486 511Q517 531 539 541T578 555T607 559Q633 559 642 542T646 496Q642 475 632 462T600 437Q528 398 460 349T332 243T221
123Q199 95 178 84T136 72ZM490 77Q473 77 456 87T422 131Q404 167 379 206T326 285T270 359T216 419Q195 440 184 457T178 499Q183 522 198 537T236 553Q255 553 270 544T310 510Q325 495 348 469T396 409T447 342T492 277T525 224Q546 181 550 159T552 123Q547
101 531 89T490 77Z" />
<glyph unicode="&#xd8;" glyph-name="Oslash" horiz-adv-x="750" d="M55 -81Q30 -81 16 -65T1 -23T23 27Q97 118 176 205T339 374T505 529T671 666Q699 689 720 697T760 706Q781 706 792 692T801 656T785 609T739 560Q617 468 514 375T316 181T127 -36Q90 -81
55 -81ZM330 -10Q260 -10 206 16T116 89T68 195T69 323Q81 385 108 435T168 524T236 589T297 628T340 642Q369 642 384 629T400 596T391 558T361 525Q330 505 304 482T256 432T221 373T199 302Q188 246 201 204T249 139T338 115Q393 115 442 137T526 200T572 300Q582
347 578 396T557 487T510 554T439 580Q413 580 398 575T370 565T338 559Q316 559 304 574T298 619Q305 654 342 681T443 709Q504 709 551 686T632 620T683 524T705 409T696 284Q682 216 648 162T565 70T455 11T330 -10Z" />
<glyph unicode="&#xd9;" glyph-name="Ugrave" horiz-adv-x="679" d="M317 -13Q217 -13 158 30T82 152T85 340Q93 381 105 420T122 487Q130 528 133 554T138 597T140 628T145 660Q151 689 168 701T215 714Q242 714 259 697T281 641T272 534Q266 505 257 470T237
400T221 334Q205 251 213 204T250 139T324 120Q392 120 433 161T494 301Q505 359 512 403T526 492T545 590Q556 645 583 678T652 712Q679 712 693 698T702 654Q698 638 692 621T679 579T663 516Q652 462 644 403T624 284Q606 190 567 124T466 22T317 -13ZM454 774Q426
774 402 787T360 824T333 876T327 932Q329 967 345 984T394 1001Q421 1001 434 986T453 937Q458 910 468 893T490 864T509 841T513 812Q509 791 493 783T454 774Z" />
<glyph unicode="&#xda;" glyph-name="Uacute" horiz-adv-x="679" d="M317 -13Q217 -13 158 30T82 152T85 340Q93 381 105 420T122 487Q130 528 133 554T138 597T140 628T145 660Q151 689 168 701T215 714Q242 714 259 697T281 641T272 534Q266 505 257 470T237
400T221 334Q205 251 213 204T250 139T324 120Q392 120 433 161T494 301Q505 359 512 403T526 492T545 590Q556 645 583 678T652 712Q679 712 693 698T702 654Q698 638 692 621T679 579T663 516Q652 462 644 403T624 284Q606 190 567 124T466 22T317 -13ZM441 769Q412
769 400 781T391 813Q395 829 405 841T436 868Q463 888 477 906T506 953Q523 985 542 996T586 1007Q620 1007 634 988T642 935Q633 890 601 853T526 792T441 769Z" />
<glyph unicode="&#xdb;" glyph-name="Ucircumflex" horiz-adv-x="679" d="M317 -13Q217 -13 158 30T82 152T85 340Q93 381 105 420T122 487Q130 528 133 554T138 597T140 628T145 660Q151 689 168 701T215 714Q242 714 259 697T281 641T272 534Q266 505 257 470T237
400T221 334Q205 251 213 204T250 139T324 120Q392 120 433 161T494 301Q505 359 512 403T526 492T545 590Q556 645 583 678T652 712Q679 712 693 698T702 654Q698 638 692 621T679 579T663 516Q652 462 644 403T624 284Q606 190 567 124T466 22T317 -13ZM320 762Q304
762 292 769T274 789T268 816Q269 826 275 836T303 864T372 915Q406 938 426 952T463 973T499 979Q528 979 544 968T576 930Q592 899 608 882T637 853T656 832T659 805Q656 786 638 776T598 765Q571 765 549 774T506 809T458 882H508Q457 838 425 814T374 778T343
765T320 762Z" />
<glyph unicode="&#xdc;" glyph-name="Udieresis" horiz-adv-x="679" d="M317 -13Q217 -13 158 30T82 152T85 340Q93 381 105 420T122 487Q130 528 133 554T138 597T140 628T145 660Q151 689 168 701T215 714Q242 714 259 697T281 641T272 534Q266 505 257 470T237
400T221 334Q205 251 213 204T250 139T324 120Q392 120 433 161T494 301Q505 359 512 403T526 492T545 590Q556 645 583 678T652 712Q679 712 693 698T702 654Q698 638 692 621T679 579T663 516Q652 462 644 403T624 284Q606 190 567 124T466 22T317 -13ZM581 770Q543
770 522 799T509 871Q515 902 540 922T597 943Q627 943 646 928T673 889T675 841Q671 817 648 794T581 770ZM338 765Q311 765 292 778T264 814T260 863Q267 895 290 916T344 937Q378 937 398 922T426 883T428 834Q423 808 401 787T338 765Z" />
<glyph unicode="&#xdd;" glyph-name="Yacute" horiz-adv-x="615" d="M169 -15Q140 -15 126 -1T112 41T129 107Q156 173 199 250T300 405T425 555T565 682Q589 700 604 706T634 713Q652 713 663 706T679 683T680 648Q677 633 671 620T652 592T615 559Q553 510 498
450T395 325T310 190T243 50Q228 12 211 -1T169 -15ZM292 269Q275 269 264 277T248 300Q225 357 207 393T173 455T142 506T110 567Q100 591 96 611T97 656Q102 683 117 697T154 711Q173 711 188 703T212 668Q226 629 239 602T266 551T293 504T320 449T348 372Q353
358 351 341T341 307T321 280T292 269ZM392 769Q363 769 351 781T342 813Q346 829 356 841T387 868Q414 888 428 906T457 953Q474 985 493 996T537 1007Q571 1007 585 988T593 935Q584 890 552 853T477 792T392 769Z" />
<glyph unicode="&#xde;" glyph-name="Thorn" horiz-adv-x="619" d="M283 136Q233 136 197 150T144 188T132 237Q137 260 152 272T186 284Q199 284 209 279T236 268T282 262Q328 262 371 281T443 330T479 392Q485 421 473 439T437 467T384 477Q350 477 325 468T279
435Q270 426 259 422T230 418Q211 418 200 431T190 467T212 514Q244 556 287 577T394 599Q465 599 518 571T595 492T606 372Q597 326 568 284T494 209T396 156T283 136ZM100 -12Q67 -12 52 7T38 70T53 187Q69 265 88 334T123 457T146 544Q152 575 153 594T156 628T160
659Q165 684 180 697T223 711Q252 711 266 696T285 658T288 609T281 559Q272 515 255 458T220 336T189 206Q181 169 178 145T174 105T172 74T167 41Q162 16 144 2T100 -12Z" />
<glyph unicode="&#xdf;" glyph-name="germandbls" horiz-adv-x="677" d="M354 -18Q283 -18 252 10T229 80Q233 101 249 116T291 132Q300 132 308 129T324 121T346 114T381 110Q420 110 451 121T501 153Q498 172 479 184T433 206T377 226T325 253T289 295T285 359Q291
389 311 409T360 443T417 471T470 500T507 537Q508 582 483 606T410 630Q326 630 274 575T201 416Q191 366 185 317T172 210T150 74Q139 24 123 7T79 -11Q49 -11 31 19T23 105Q34 163 41 206T52 286T63 362T79 452Q98 549 149 618T269 723T416 760Q497 760 551
731T626 650T635 533Q627 492 605 465T555 420T498 390T447 369T414 350Q418 336 436 326T482 305T536 283T587 252T622 206T625 140Q613 80 572 46T473 -3T354 -18Z" />
<glyph unicode="&#xe0;" glyph-name="agrave" horiz-adv-x="661" d="M152 -10Q102 -10 70 13T25 75T22 163Q31 213 57 263T122 359T205 438T299 493T395 513Q428 513 446 493T457 436Q454 421 444 413T418 401Q351 390 294 351T197 257T145 141Q141 120 141 103T147
58L102 149Q122 130 138 123T180 116Q235 116 295 187T403 394Q411 416 429 428T468 441Q499 441 517 418T538 364Q542 311 546 268T562 185T601 103Q610 89 610 71T600 35T573 5T532 -7Q515 -7 504 0T486 19Q472 44 461 70T443 128T432 201T430 298L478 301Q445
212 405 152T322 57T235 6T152 -10ZM395 577Q367 577 343 590T301 627T274 679T268 735Q270 770 286 787T335 804Q362 804 375 789T394 740Q399 713 409 696T431 667T450 644T454 615Q450 594 434 586T395 577Z" />
<glyph unicode="&#xe1;" glyph-name="aacute" horiz-adv-x="661" d="M152 -10Q102 -10 70 13T25 75T22 163Q31 213 57 263T122 359T205 438T299 493T395 513Q428 513 446 493T457 436Q454 421 444 413T418 401Q351 390 294 351T197 257T145 141Q141 120 141 103T147
58L102 149Q122 130 138 123T180 116Q235 116 295 187T403 394Q411 416 429 428T468 441Q499 441 517 418T538 364Q542 311 546 268T562 185T601 103Q610 89 610 71T600 35T573 5T532 -7Q515 -7 504 0T486 19Q472 44 461 70T443 128T432 201T430 298L478 301Q445
212 405 152T322 57T235 6T152 -10ZM382 572Q353 572 341 584T332 616Q336 632 346 644T377 671Q404 691 418 709T447 756Q464 788 483 799T527 810Q561 810 575 791T583 738Q574 693 542 656T467 595T382 572Z" />
<glyph unicode="&#xe2;" glyph-name="acircumflex" horiz-adv-x="661" d="M152 -10Q102 -10 70 13T25 75T22 163Q31 213 57 263T122 359T205 438T299 493T395 513Q428 513 446 493T457 436Q454 421 444 413T418 401Q351 390 294 351T197 257T145 141Q141 120 141
103T147 58L102 149Q122 130 138 123T180 116Q235 116 295 187T403 394Q411 416 429 428T468 441Q499 441 517 418T538 364Q542 311 546 268T562 185T601 103Q610 89 610 71T600 35T573 5T532 -7Q515 -7 504 0T486 19Q472 44 461 70T443 128T432 201T430 298L478
301Q445 212 405 152T322 57T235 6T152 -10ZM261 565Q245 565 233 572T215 592T209 619Q210 629 216 639T244 667T313 718Q347 741 367 755T404 776T440 782Q469 782 485 771T517 733Q533 702 549 685T578 656T597 635T600 608Q597 589 579 579T539 568Q512 568
490 577T447 612T399 685H449Q398 641 366 617T315 581T284 568T261 565Z" />
<glyph unicode="&#xe3;" glyph-name="atilde" horiz-adv-x="661" d="M152 -10Q102 -10 70 13T25 75T22 163Q31 213 57 263T122 359T205 438T299 493T395 513Q428 513 446 493T457 436Q454 421 444 413T418 401Q351 390 294 351T197 257T145 141Q141 120 141 103T147
58L102 149Q122 130 138 123T180 116Q235 116 295 187T403 394Q411 416 429 428T468 441Q499 441 517 418T538 364Q542 311 546 268T562 185T601 103Q610 89 610 71T600 35T573 5T532 -7Q515 -7 504 0T486 19Q472 44 461 70T443 128T432 201T430 298L478 301Q445
212 405 152T322 57T235 6T152 -10ZM249 584Q220 584 207 608T200 663Q206 691 222 717T266 759T335 775Q370 775 391 764T428 740T456 715T485 704Q500 704 510 710T528 727T543 747T561 763T587 770Q613 770 624 753T628 699Q617 646 579 614T487 582Q458 582
440 591T408 613T380 635T347 645Q328 645 318 636T299 615T280 593T249 584Z" />
<glyph unicode="&#xe4;" glyph-name="adieresis" horiz-adv-x="661" d="M152 -10Q102 -10 70 13T25 75T22 163Q31 213 57 263T122 359T205 438T299 493T395 513Q428 513 446 493T457 436Q454 421 444 413T418 401Q351 390 294 351T197 257T145 141Q141 120 141
103T147 58L102 149Q122 130 138 123T180 116Q235 116 295 187T403 394Q411 416 429 428T468 441Q499 441 517 418T538 364Q542 311 546 268T562 185T601 103Q610 89 610 71T600 35T573 5T532 -7Q515 -7 504 0T486 19Q472 44 461 70T443 128T432 201T430 298L478
301Q445 212 405 152T322 57T235 6T152 -10ZM522 573Q484 573 463 602T450 674Q456 705 481 725T538 746Q568 746 587 731T614 692T616 644Q612 620 589 597T522 573ZM279 568Q252 568 233 581T205 617T201 666Q208 698 231 719T285 740Q319 740 339 725T367 686T369
637Q364 611 342 590T279 568Z" />
<glyph unicode="&#xe5;" glyph-name="aring" horiz-adv-x="661" d="M152 -10Q102 -10 70 13T25 75T22 163Q31 213 57 263T122 359T205 438T299 493T395 513Q428 513 446 493T457 436Q454 421 444 413T418 401Q351 390 294 351T197 257T145 141Q141 120 141 103T147
58L102 149Q122 130 138 123T180 116Q235 116 295 187T403 394Q411 416 429 428T468 441Q499 441 517 418T538 364Q542 311 546 268T562 185T601 103Q610 89 610 71T600 35T573 5T532 -7Q515 -7 504 0T486 19Q472 44 461 70T443 128T432 201T430 298L478 301Q445
212 405 152T322 57T235 6T152 -10ZM400 555Q338 555 298 582T241 654T234 752Q241 784 257 811T298 859T353 891T415 903Q447 903 462 886T473 844Q469 828 457 815T424 792Q393 779 380 763T362 729Q357 703 371 688T411 673Q439 673 457 688T481 729Q485 752
474 766T438 781Q420 781 409 774T390 760T371 753Q338 753 327 764T322 801Q330 842 362 869T446 896Q509 896 548 871T602 805T607 714Q597 664 568 629T495 574T400 555Z" />
<glyph unicode="&#xe6;" glyph-name="ae" horiz-adv-x="907" d="M559 -10Q480 -10 434 19T373 98T369 208Q380 263 409 317T481 416T579 486T694 513Q777 513 818 470T843 346Q832 289 791 253T690 200T559 183Q502 183 476 202T455 246Q457 259 465 265T488 272Q500
272 516 269T562 265Q603 265 637 275T695 304T722 344Q727 366 718 378T682 391Q635 391 593 363T521 289T480 193Q474 166 480 146T505 115T563 104Q619 104 658 115T726 142T775 169T814 181Q835 181 844 168T848 131Q843 105 820 81T757 36T668 3T559 -10ZM168
-10Q114 -10 77 10T25 68T20 156Q31 214 72 249T175 299T306 315Q362 315 388 297T411 257Q408 242 400 235T377 227Q365 227 349 230T303 234Q234 234 192 213T142 155Q137 133 147 121T185 109Q231 109 273 137T345 211T385 306Q391 334 387 353T365 384T317
395Q276 395 247 388T198 373T162 357T129 349Q105 349 95 364T89 404Q94 430 126 455T209 497T324 513Q397 513 439 484T495 405T497 296Q486 241 457 187T384 88T285 17T168 -10Z" />
<glyph unicode="&#xe7;" glyph-name="ccedilla" horiz-adv-x="523" d="M245 -9Q163 -9 112 22T41 109T35 232Q48 294 82 345T165 434T274 492T395 513Q425 513 449 503T485 473T491 421Q485 390 468 375T432 359Q417 359 411 365T398 377T377 383Q326 383 281
359T206 296T166 214Q161 184 167 161T195 125T254 112Q295 112 319 122T359 146T385 169T413 180Q436 180 447 167T452 120Q443 82 414 53T342 7T245 -9ZM141 -236Q95 -236 72 -217T55 -163Q60 -140 75 -126T121 -107Q169 -101 190 -86T217 -44Q221 -26 218 -17T209
-3T200 8T198 25Q199 36 211 45T246 54Q299 54 324 13T335 -97Q322 -161 271 -198T141 -236Z" />
<glyph unicode="&#xe8;" glyph-name="egrave" horiz-adv-x="587" d="M253 -10Q184 -10 139 8T68 59T37 134T40 226Q51 278 80 329T154 421T254 488T373 513Q430 513 467 494T520 437T526 345Q517 303 492 273T430 223T349 194T258 184Q189 184 164 203T142 244Q144
258 152 264T175 271Q186 271 201 268T244 265Q282 265 316 275T375 305T404 348Q408 372 398 384T357 396Q323 396 292 381T234 340T188 279T161 205Q156 177 162 154T189 116T252 101Q307 101 344 112T408 140T453 167T488 179Q513 179 521 161T526 119Q520 95
498 72T438 31T353 1T253 -10ZM370 577Q342 577 318 590T276 627T249 679T243 735Q245 770 261 787T310 804Q337 804 350 789T369 740Q374 713 384 696T406 667T425 644T429 615Q425 594 409 586T370 577Z" />
<glyph unicode="&#xe9;" glyph-name="eacute" horiz-adv-x="587" d="M253 -10Q184 -10 139 8T68 59T37 134T40 226Q51 278 80 329T154 421T254 488T373 513Q430 513 467 494T520 437T526 345Q517 303 492 273T430 223T349 194T258 184Q189 184 164 203T142 244Q144
258 152 264T175 271Q186 271 201 268T244 265Q282 265 316 275T375 305T404 348Q408 372 398 384T357 396Q323 396 292 381T234 340T188 279T161 205Q156 177 162 154T189 116T252 101Q307 101 344 112T408 140T453 167T488 179Q513 179 521 161T526 119Q520 95
498 72T438 31T353 1T253 -10ZM357 572Q328 572 316 584T307 616Q311 632 321 644T352 671Q379 691 393 709T422 756Q439 788 458 799T502 810Q536 810 550 791T558 738Q549 693 517 656T442 595T357 572Z" />
<glyph unicode="&#xea;" glyph-name="ecircumflex" horiz-adv-x="587" d="M253 -10Q184 -10 139 8T68 59T37 134T40 226Q51 278 80 329T154 421T254 488T373 513Q430 513 467 494T520 437T526 345Q517 303 492 273T430 223T349 194T258 184Q189 184 164 203T142
244Q144 258 152 264T175 271Q186 271 201 268T244 265Q282 265 316 275T375 305T404 348Q408 372 398 384T357 396Q323 396 292 381T234 340T188 279T161 205Q156 177 162 154T189 116T252 101Q307 101 344 112T408 140T453 167T488 179Q513 179 521 161T526 119Q520
95 498 72T438 31T353 1T253 -10ZM236 565Q220 565 208 572T190 592T184 619Q185 629 191 639T219 667T288 718Q322 741 342 755T379 776T415 782Q444 782 460 771T492 733Q508 702 524 685T553 656T572 635T575 608Q572 589 554 579T514 568Q487 568 465 577T422
612T374 685H424Q373 641 341 617T290 581T259 568T236 565Z" />
<glyph unicode="&#xeb;" glyph-name="edieresis" horiz-adv-x="587" d="M253 -10Q184 -10 139 8T68 59T37 134T40 226Q51 278 80 329T154 421T254 488T373 513Q430 513 467 494T520 437T526 345Q517 303 492 273T430 223T349 194T258 184Q189 184 164 203T142
244Q144 258 152 264T175 271Q186 271 201 268T244 265Q282 265 316 275T375 305T404 348Q408 372 398 384T357 396Q323 396 292 381T234 340T188 279T161 205Q156 177 162 154T189 116T252 101Q307 101 344 112T408 140T453 167T488 179Q513 179 521 161T526 119Q520
95 498 72T438 31T353 1T253 -10ZM497 573Q459 573 438 602T425 674Q431 705 456 725T513 746Q543 746 562 731T589 692T591 644Q587 620 564 597T497 573ZM254 568Q227 568 208 581T180 617T176 666Q183 698 206 719T260 740Q294 740 314 725T342 686T344 637Q339
611 317 590T254 568Z" />
<glyph unicode="&#xec;" glyph-name="igrave" horiz-adv-x="299" d="M115 -10Q91 -10 74 2T49 36T46 80Q60 150 69 198T83 281T94 348T106 414Q111 440 127 461T165 495T207 509Q236 509 251 488T260 427Q256 406 248 368T228 284T206 191T186 106T173 44Q168
18 154 4T115 -10ZM218 577Q190 577 166 590T124 627T97 679T91 735Q93 770 109 787T158 804Q185 804 198 789T217 740Q222 713 232 696T254 667T273 644T277 615Q273 594 257 586T218 577Z" />
<glyph unicode="&#xed;" glyph-name="iacute" horiz-adv-x="299" d="M115 -10Q91 -10 74 2T49 36T46 80Q60 150 69 198T83 281T94 348T106 414Q111 440 127 461T165 495T207 509Q236 509 251 488T260 427Q256 406 248 368T228 284T206 191T186 106T173 44Q168
18 154 4T115 -10ZM206 572Q177 572 165 584T156 616Q160 632 170 644T201 671Q228 691 242 709T271 756Q288 788 307 799T351 810Q385 810 399 791T407 738Q398 693 366 656T291 595T206 572Z" />
<glyph unicode="&#xee;" glyph-name="icircumflex" horiz-adv-x="299" d="M115 -10Q91 -10 74 2T49 36T46 80Q60 150 69 198T83 281T94 348T106 414Q111 440 127 461T165 495T207 509Q236 509 251 488T260 427Q256 406 248 368T228 284T206 191T186 106T173 44Q168
18 154 4T115 -10ZM84 565Q68 565 56 572T38 592T32 619Q33 629 39 639T67 667T136 718Q170 741 190 755T227 776T263 782Q292 782 308 771T340 733Q356 702 372 685T401 656T420 635T423 608Q420 589 402 579T362 568Q335 568 313 577T270 612T222 685H272Q221
641 189 617T138 581T107 568T84 565Z" />
<glyph unicode="&#xef;" glyph-name="idieresis" horiz-adv-x="299" d="M115 -10Q91 -10 74 2T49 36T46 80Q60 150 69 198T83 281T94 348T106 414Q111 440 127 461T165 495T207 509Q236 509 251 488T260 427Q256 406 248 368T228 284T206 191T186 106T173 44Q168
18 154 4T115 -10ZM346 573Q308 573 287 602T274 674Q280 705 305 725T362 746Q392 746 411 731T438 692T440 644Q436 620 413 597T346 573ZM103 568Q76 568 57 581T29 617T25 666Q32 698 55 719T109 740Q143 740 163 725T191 686T193 637Q188 611 166 590T103
568Z" />
<glyph unicode="&#xf0;" glyph-name="eth" horiz-adv-x="616" d="M268 -10Q204 -10 158 10T83 65T45 145T45 239Q57 296 88 338T168 404T279 428Q339 428 378 409T434 362T446 312Q443 295 432 285T396 274Q386 274 378 280T359 293T331 307T284 313Q250 313 228
301T192 268T175 227Q168 190 179 165T215 127T274 114Q311 114 341 126T393 167T425 246Q436 299 418 364T358 498T258 630Q230 661 224 676T221 708Q226 733 244 746T286 759Q298 759 310 755T337 740T374 704Q446 623 490 539T550 375T553 225Q538 150 501 98T406
18T268 -10ZM203 496Q163 481 144 492T129 531Q135 558 156 578T232 616Q310 642 389 657T543 673Q580 673 599 656T614 612Q610 594 599 584T565 572Q488 568 430 559T318 534T203 496Z" />
<glyph unicode="&#xf1;" glyph-name="ntilde" horiz-adv-x="650" d="M513 -10Q472 -10 448 24T421 127T438 297Q445 329 447 350T449 384T442 406T426 423Q449 423 464 416T485 392T484 349Q473 370 464 378T440 386Q420 386 389 362T321 293T247 189T176 61Q157
19 140 5T96 -9Q52 -9 40 36T41 151Q51 202 63 240T87 310T111 377T131 454Q136 480 152 494T194 508Q219 508 235 486T242 419Q238 389 229 364T209 310T185 242T159 144L135 175Q191 287 251 362T371 475T478 513Q521 513 545 494T577 441T574 359Q559 284 552
232T548 147T566 96Q577 84 581 71T581 39Q577 18 559 4T513 -10ZM248 584Q219 584 206 608T199 663Q205 691 221 717T265 759T334 775Q369 775 390 764T427 740T455 715T484 704Q499 704 509 710T527 727T542 747T560 763T586 770Q612 770 623 753T627 699Q616
646 578 614T486 582Q457 582 439 591T407 613T379 635T346 645Q327 645 317 636T298 615T279 593T248 584Z" />
<glyph unicode="&#xf2;" glyph-name="ograve" horiz-adv-x="635" d="M292 -12Q204 -12 145 26T61 129T51 274Q62 327 90 370T158 445T238 494T315 511Q330 511 343 507T365 492T370 465Q363 435 346 412T287 373Q259 362 237 345T199 305T179 253Q166 188 198
149T296 109Q356 109 401 149T459 256Q471 315 447 349T372 384Q346 384 327 372T284 340Q266 325 254 315T232 300T206 295Q190 295 178 310T171 358Q177 385 197 411T248 459T311 494T376 507Q459 507 511 473T583 379T587 242Q572 165 530 108T426 20T292 -12ZM400
577Q372 577 348 590T306 627T279 679T273 735Q275 770 291 787T340 804Q367 804 380 789T399 740Q404 713 414 696T436 667T455 644T459 615Q455 594 439 586T400 577Z" />
<glyph unicode="&#xf3;" glyph-name="oacute" horiz-adv-x="635" d="M292 -12Q204 -12 145 26T61 129T51 274Q62 327 90 370T158 445T238 494T315 511Q330 511 343 507T365 492T370 465Q363 435 346 412T287 373Q259 362 237 345T199 305T179 253Q166 188 198
149T296 109Q356 109 401 149T459 256Q471 315 447 349T372 384Q346 384 327 372T284 340Q266 325 254 315T232 300T206 295Q190 295 178 310T171 358Q177 385 197 411T248 459T311 494T376 507Q459 507 511 473T583 379T587 242Q572 165 530 108T426 20T292 -12ZM388
572Q359 572 347 584T338 616Q342 632 352 644T383 671Q410 691 424 709T453 756Q470 788 489 799T533 810Q567 810 581 791T589 738Q580 693 548 656T473 595T388 572Z" />
<glyph unicode="&#xf4;" glyph-name="ocircumflex" horiz-adv-x="635" d="M292 -12Q204 -12 145 26T61 129T51 274Q62 327 90 370T158 445T238 494T315 511Q330 511 343 507T365 492T370 465Q363 435 346 412T287 373Q259 362 237 345T199 305T179 253Q166 188
198 149T296 109Q356 109 401 149T459 256Q471 315 447 349T372 384Q346 384 327 372T284 340Q266 325 254 315T232 300T206 295Q190 295 178 310T171 358Q177 385 197 411T248 459T311 494T376 507Q459 507 511 473T583 379T587 242Q572 165 530 108T426 20T292
-12ZM267 565Q251 565 239 572T221 592T215 619Q216 629 222 639T250 667T319 718Q353 741 373 755T410 776T446 782Q475 782 491 771T523 733Q539 702 555 685T584 656T603 635T606 608Q603 589 585 579T545 568Q518 568 496 577T453 612T405 685H455Q404 641
372 617T321 581T290 568T267 565Z" />
<glyph unicode="&#xf5;" glyph-name="otilde" horiz-adv-x="635" d="M292 -12Q204 -12 145 26T61 129T51 274Q62 327 90 370T158 445T238 494T315 511Q330 511 343 507T365 492T370 465Q363 435 346 412T287 373Q259 362 237 345T199 305T179 253Q166 188 198
149T296 109Q356 109 401 149T459 256Q471 315 447 349T372 384Q346 384 327 372T284 340Q266 325 254 315T232 300T206 295Q190 295 178 310T171 358Q177 385 197 411T248 459T311 494T376 507Q459 507 511 473T583 379T587 242Q572 165 530 108T426 20T292 -12ZM255
584Q226 584 213 608T206 663Q212 691 228 717T272 759T341 775Q376 775 397 764T434 740T462 715T491 704Q506 704 516 710T534 727T549 747T567 763T593 770Q619 770 630 753T634 699Q623 646 585 614T493 582Q464 582 446 591T414 613T386 635T353 645Q334 645
324 636T305 615T286 593T255 584Z" />
<glyph unicode="&#xf6;" glyph-name="odieresis" horiz-adv-x="635" d="M292 -12Q204 -12 145 26T61 129T51 274Q62 327 90 370T158 445T238 494T315 511Q330 511 343 507T365 492T370 465Q363 435 346 412T287 373Q259 362 237 345T199 305T179 253Q166 188 198
149T296 109Q356 109 401 149T459 256Q471 315 447 349T372 384Q346 384 327 372T284 340Q266 325 254 315T232 300T206 295Q190 295 178 310T171 358Q177 385 197 411T248 459T311 494T376 507Q459 507 511 473T583 379T587 242Q572 165 530 108T426 20T292 -12ZM528
573Q490 573 469 602T456 674Q462 705 487 725T544 746Q574 746 593 731T620 692T622 644Q618 620 595 597T528 573ZM285 568Q258 568 239 581T211 617T207 666Q214 698 237 719T291 740Q325 740 345 725T373 686T375 637Q370 611 348 590T285 568Z" />
<glyph unicode="&#xf7;" glyph-name="divide" horiz-adv-x="700" d="M132 242Q99 240 87 259T80 304Q85 329 102 347T168 376Q232 389 301 397T437 409T564 414Q607 414 628 395T644 344Q639 324 625 312T579 298Q483 297 415 290T296 273T206 256T132 242ZM344
25Q288 25 264 52T248 127Q255 162 279 183T339 204Q380 204 402 187T432 145T434 94Q429 65 406 45T344 25ZM416 470Q361 470 336 497T321 573Q327 608 352 629T412 650Q452 650 474 633T504 591T507 539Q501 511 478 491T416 470Z" />
<glyph unicode="&#xf8;" glyph-name="oslash" horiz-adv-x="647" d="M298 -12Q210 -12 150 26T63 129T53 274Q63 325 92 368T160 443T240 493T314 511Q329 511 342 507T364 492T369 465Q362 435 345 414T286 376Q260 363 238 345T202 304T182 257Q168 190 201
150T302 109Q360 109 404 148T460 252Q473 317 447 355T366 394Q340 394 320 382T275 350Q257 335 246 325T223 310T197 305Q184 305 175 317T170 358Q175 385 196 411T248 459T312 494T378 507Q461 507 513 473T584 378T588 238Q574 164 532 108T429 20T298 -12ZM244
145Q230 145 224 152T219 173Q223 192 234 212T268 258T328 319T419 404T549 522Q580 550 602 560T644 570Q676 570 686 550T681 497T622 428Q536 355 476 306T377 225T312 176T272 152T244 145ZM33 -108Q8 -108 -5 -92T-18 -50T3 0Q36 40 63 68T113 112T157 128Q185
128 200 114T208 65Q205 53 191 36T154 -6T105 -63Q87 -85 69 -96T33 -108Z" />
<glyph unicode="&#xf9;" glyph-name="ugrave" horiz-adv-x="617" d="M280 -10Q214 -10 168 17T96 89T62 191T67 307Q76 352 92 392T133 473Q140 488 153 496T186 505Q219 505 235 483T246 428Q243 415 237 403T223 375T208 341T195 295Q187 257 188 225T200 168T232
130T285 116Q323 116 354 141T409 217T448 341Q453 367 455 384T459 416T464 448Q470 475 483 490T527 506Q552 506 567 489T587 433T578 332Q555 217 512 141T410 28T280 -10ZM387 577Q359 577 335 590T293 627T266 679T260 735Q262 770 278 787T327 804Q354 804
367 789T386 740Q391 713 401 696T423 667T442 644T446 615Q442 594 426 586T387 577Z" />
<glyph unicode="&#xfa;" glyph-name="uacute" horiz-adv-x="617" d="M280 -10Q214 -10 168 17T96 89T62 191T67 307Q76 352 92 392T133 473Q140 488 153 496T186 505Q219 505 235 483T246 428Q243 415 237 403T223 375T208 341T195 295Q187 257 188 225T200 168T232
130T285 116Q323 116 354 141T409 217T448 341Q453 367 455 384T459 416T464 448Q470 475 483 490T527 506Q552 506 567 489T587 433T578 332Q555 217 512 141T410 28T280 -10ZM374 572Q345 572 333 584T324 616Q328 632 338 644T369 671Q396 691 410 709T439 756Q456
788 475 799T519 810Q553 810 567 791T575 738Q566 693 534 656T459 595T374 572Z" />
<glyph unicode="&#xfb;" glyph-name="ucircumflex" horiz-adv-x="617" d="M280 -10Q214 -10 168 17T96 89T62 191T67 307Q76 352 92 392T133 473Q140 488 153 496T186 505Q219 505 235 483T246 428Q243 415 237 403T223 375T208 341T195 295Q187 257 188 225T200
168T232 130T285 116Q323 116 354 141T409 217T448 341Q453 367 455 384T459 416T464 448Q470 475 483 490T527 506Q552 506 567 489T587 433T578 332Q555 217 512 141T410 28T280 -10ZM253 565Q237 565 225 572T207 592T201 619Q202 629 208 639T236 667T305 718Q339
741 359 755T396 776T432 782Q461 782 477 771T509 733Q525 702 541 685T570 656T589 635T592 608Q589 589 571 579T531 568Q504 568 482 577T439 612T391 685H441Q390 641 358 617T307 581T276 568T253 565Z" />
<glyph unicode="&#xfc;" glyph-name="udieresis" horiz-adv-x="617" d="M280 -10Q214 -10 168 17T96 89T62 191T67 307Q76 352 92 392T133 473Q140 488 153 496T186 505Q219 505 235 483T246 428Q243 415 237 403T223 375T208 341T195 295Q187 257 188 225T200
168T232 130T285 116Q323 116 354 141T409 217T448 341Q453 367 455 384T459 416T464 448Q470 475 483 490T527 506Q552 506 567 489T587 433T578 332Q555 217 512 141T410 28T280 -10ZM514 573Q476 573 455 602T442 674Q448 705 473 725T530 746Q560 746 579 731T606
692T608 644Q604 620 581 597T514 573ZM271 568Q244 568 225 581T197 617T193 666Q200 698 223 719T277 740Q311 740 331 725T359 686T361 637Q356 611 334 590T271 568Z" />
<glyph unicode="&#xfd;" glyph-name="yacute" horiz-adv-x="599" d="M220 -261Q141 -261 92 -244T23 -200T8 -142Q13 -118 28 -105T68 -92Q83 -92 94 -97T120 -111T159 -124T227 -130Q266 -130 293 -115T336 -72T360 -5Q367 29 370 58T375 117T381 182T394 264L439
231Q408 178 378 144T318 91T264 65T217 58Q153 58 113 87T60 180T68 343Q82 415 98 451T133 500T174 513Q200 513 214 503T232 474T229 429Q218 386 208 344T193 266T196 210T231 189Q270 189 306 225T374 322T429 457Q438 487 451 499T491 512Q507 512 521 505T543
485T553 451T545 400Q530 350 523 309T512 232T508 157T501 74T485 -28Q472 -94 447 -138T387 -210T310 -249T220 -261ZM341 572Q312 572 300 584T291 616Q295 632 305 644T336 671Q363 691 377 709T406 756Q423 788 442 799T486 810Q520 810 534 791T542 738Q533
693 501 656T426 595T341 572Z" />
<glyph unicode="&#xfe;" glyph-name="thorn" horiz-adv-x="621" d="M299 -10Q241 -10 200 9T139 58T126 120Q130 140 141 151T173 162Q187 162 197 156T220 140T251 125T301 118Q353 118 390 140T437 215Q447 265 432 302T380 361T295 382Q267 382 253 378T220
374Q205 374 193 383T176 408T174 443Q181 480 215 496T319 513Q383 513 436 491T524 428T572 328T571 192Q559 134 522 88T428 16T299 -10ZM61 -260Q43 -260 27 -249T1 -212T-10 -140T4 -26Q28 97 53 194T100 371T136 519Q145 561 148 588T152 635T154 669T160
703Q164 730 180 745T220 760Q245 760 263 740T287 672T275 539Q262 477 242 402T197 233T149 19Q138 -36 135 -69T132 -123T133 -162T129 -206Q122 -236 104 -248T61 -260Z" />
<glyph unicode="&#xff;" glyph-name="ydieresis" horiz-adv-x="599" d="M220 -261Q141 -261 92 -244T23 -200T8 -142Q13 -118 28 -105T68 -92Q83 -92 94 -97T120 -111T159 -124T227 -130Q266 -130 293 -115T336 -72T360 -5Q367 29 370 58T375 117T381 182T394
264L439 231Q408 178 378 144T318 91T264 65T217 58Q153 58 113 87T60 180T68 343Q82 415 98 451T133 500T174 513Q200 513 214 503T232 474T229 429Q218 386 208 344T193 266T196 210T231 189Q270 189 306 225T374 322T429 457Q438 487 451 499T491 512Q507 512
521 505T543 485T553 451T545 400Q530 350 523 309T512 232T508 157T501 74T485 -28Q472 -94 447 -138T387 -210T310 -249T220 -261ZM481 573Q443 573 422 602T409 674Q415 705 440 725T497 746Q527 746 546 731T573 692T575 644Q571 620 548 597T481 573ZM238
568Q211 568 192 581T164 617T160 666Q167 698 190 719T244 740Q278 740 298 725T326 686T328 637Q323 611 301 590T238 568Z" />
<glyph unicode="&#x2013;" glyph-name="endash" horiz-adv-x="700" d="M158 190Q118 190 93 201T56 228T48 262Q52 276 61 288T91 302Q208 314 316 318T535 322Q584 322 610 309T645 277T651 244Q647 224 632 212T592 200Q490 200 418 199T297 195T214 192T158 190Z" />
<glyph unicode="&#x2014;" glyph-name="emdash" horiz-adv-x="1000" d="M158 190Q118 190 93 201T56 228T48 262Q52 276 61 288T91 302Q286 313 468 317T836 322Q885 322 911 309T946 277T952 244Q948 224 933 212T893 200Q720 200 598 199T392 195T253 192T158 190Z" />
<glyph unicode="&#x2018;" glyph-name="quoteleft" horiz-adv-x="247" d="M139 441Q118 441 106 456T90 495T92 548Q104 597 135 656T209 763Q235 792 255 801T300 811Q322 811 334 799T350 768T352 731Q350 719 344 709T321 682Q277 638 251 595T208 509Q195
474 179 458T139 441Z" />
<glyph unicode="&#x2019;" glyph-name="quoteright" horiz-adv-x="255" d="M125 425Q97 425 87 444T87 492Q104 523 124 559T164 640T200 745Q210 780 226 796T270 813Q294 813 313 802T343 770T349 723Q343 691 328 654T291 580T246 512T201 462Q177 442 160
434T125 425Z" />
<glyph unicode="&#x201a;" glyph-name="quotesinglbase" horiz-adv-x="280" d="M-44 -220Q-72 -220 -82 -201T-82 -153Q-65 -122 -45 -86T-5 -5T31 100Q41 135 57 151T101 168Q125 168 144 157T174 125T180 78Q174 46 159 9T122 -65T77 -133T32 -183Q8 -203 -9
-211T-44 -220Z" />
<glyph unicode="&#x201c;" glyph-name="quotedblleft" horiz-adv-x="525" d="M149 431Q128 431 116 447T101 491T103 549Q113 598 144 657T221 765Q247 794 266 802T308 811Q331 811 345 798T365 767T367 729Q364 717 358 705T334 675Q290 632 264 590T222 505Q206
467 189 449T149 431ZM401 379Q380 379 368 395T352 439T355 497Q362 535 384 582T439 666Q464 695 484 703T527 712Q552 712 567 701T589 671T591 636Q588 622 580 609T552 575Q521 543 504 514T473 454Q458 415 441 397T401 379Z" />
<glyph unicode="&#x201d;" glyph-name="quotedblright" horiz-adv-x="529" d="M136 425Q113 425 104 440T98 481Q102 504 116 529T148 584T184 650T213 730Q224 772 244 792T296 813Q331 813 351 788T365 725Q359 692 344 656T308 584T264 518T217 465Q195 444
177 435T136 425ZM406 394Q383 394 372 408T364 446Q368 466 378 485T403 526T432 578T458 647Q471 692 489 706T533 721Q569 721 587 699T598 635Q590 592 565 542T494 442Q472 417 451 406T406 394Z" />
<glyph unicode="&#x201e;" glyph-name="quotedblbase" horiz-adv-x="513" d="M-31 -191Q-54 -191 -63 -176T-69 -135Q-65 -112 -51 -87T-19 -32T17 34T46 114Q57 156 77 176T129 197Q164 197 184 172T198 109Q192 76 177 40T141 -32T97 -98T50 -151Q28 -172 10
-181T-31 -191ZM239 -222Q216 -222 205 -208T197 -170Q201 -150 211 -131T236 -90T265 -38T291 31Q304 76 322 90T366 105Q402 105 420 83T431 19Q423 -24 398 -74T327 -174Q305 -199 284 -210T239 -222Z" />
<glyph unicode="&#x2022;" glyph-name="bullet" horiz-adv-x="500" d="M228 118Q185 118 155 136T112 187T108 264Q115 298 132 324T169 365T207 380Q223 380 229 373Q243 385 260 391T302 398Q362 398 384 359T393 253Q380 188 335 153T228 118Z" />
<glyph unicode="&#x2039;" glyph-name="guilsinglleft" horiz-adv-x="366" d="M222 15Q207 15 194 19T166 31Q137 49 110 77T62 142T33 219Q29 243 33 264T52 302Q78 333 113 363T182 420T243 460Q264 472 278 477T304 482Q333 482 347 464T355 417Q352 401 343
389T313 364Q280 346 247 321T185 268T133 214L146 270Q153 237 172 208T218 156T273 122Q288 116 295 105T299 73Q293 43 270 29T222 15Z" />
<glyph unicode="&#x203a;" glyph-name="guilsinglright" horiz-adv-x="378" d="M57 15Q33 15 21 34T15 85Q19 102 28 114T57 139Q92 159 126 185T191 240T246 297L232 240Q227 271 208 298T159 348T96 384Q80 391 72 402T68 433Q74 461 95 474T142 487Q159 487
172 483T201 473Q235 458 266 429T320 364T348 289Q352 266 347 248T328 211Q307 186 281 160T227 110T173 67T125 36Q103 23 87 19T57 15Z" />
</font>
</defs>
</svg>
