<?xml version="1.0" standalone="no"?>
<!DOCTYPE svg PUBLIC "-//W3C//DTD SVG 1.1//EN" "http://www.w3.org/Graphics/SVG/1.1/DTD/svg11.dtd">
<svg xmlns="http://www.w3.org/2000/svg">
<defs >
<font id="ShantellSans" horiz-adv-x="950" ><font-face
    font-family="Shantell Sans"
    units-per-em="1000"
    panose-1="0 0 0 0 0 0 0 0 0 0"
    ascent="1020"
    descent="-320"
    alphabetic="0" />
<glyph unicode=" " glyph-name="space" horiz-adv-x="344" />
<glyph unicode="!" glyph-name="exclam" horiz-adv-x="300" d="M160 233Q129 233 110 247T83 293Q75 338 72 374T68 459Q68 492 69 522T73 582T74 646Q73 676 86 696T133 717Q173 717 197 692T221 611Q221 592 220 573T217 530T215 477Q215 451 216 427T218 383T221
345T222 311Q222 271 205 252T160 233ZM167 -12Q115 -12 85 10T54 73Q54 114 76 134T135 155Q193 155 219 124T246 54Q246 24 226 6T167 -12Z" />
<glyph unicode="&quot;" glyph-name="quotedbl" horiz-adv-x="522" d="M377 363Q340 363 318 387T302 450Q311 495 317 542T321 632Q320 670 335 692T386 715Q421 715 442 699T468 659Q478 607 472 541T446 416Q437 390 420 377T377 363ZM122 363Q98 363 79 379T51
419T48 465Q59 499 65 545T66 632Q63 657 69 675T92 704T131 715Q168 715 189 698T216 656Q223 622 223 581T215 498T193 416Q173 363 122 363Z" />
<glyph unicode="#" glyph-name="numbersign" horiz-adv-x="991" d="M229 -129Q193 -128 168 -103T143 -27Q143 17 158 79T196 213T246 361T296 506T335 636T350 734Q350 776 367 797T416 818Q459 819 484 794T509 722Q509 681 494 622T456 491T406 343T356 194T317
57T302 -53Q302 -89 283 -109T229 -129ZM150 103Q102 103 74 118T35 157T25 206Q27 234 50 254T106 274Q225 274 354 275T611 278T857 280Q897 280 914 264T931 217Q932 195 921 174T883 140T816 125Q741 123 653 120T475 113T302 106T150 103ZM576 -180Q535 -179
511 -157T487 -88Q488 -21 503 49T542 190T592 330T641 463T678 586T693 692Q693 727 709 747T763 767Q804 767 828 743T852 659Q852 614 838 560T800 444T751 315T702 178T664 36T649 -105Q649 -141 628 -161T576 -180ZM852 410Q669 410 511 406T208 407Q157 409
131 423T96 457T86 497Q86 527 104 546T162 565Q185 565 208 564T262 562T341 558T460 555T634 553T879 552Q944 552 945 492Q946 461 922 436T852 410Z" />
<glyph unicode="$" glyph-name="dollar" horiz-adv-x="700" d="M289 -9Q216 -9 166 8T91 54T65 113Q65 136 76 149T121 163Q141 163 157 157T198 145T267 138Q323 138 362 141T432 150T495 170Q489 194 463 210T398 239T313 263T222 290T140 326T80 377T57 452Q57
497 82 534T149 599T242 649T349 683T453 703T541 710Q578 710 599 699T630 669T639 627Q639 601 621 582T568 560Q453 553 375 538T256 501T216 450Q216 435 239 425T300 405T383 384T474 356T558 316T619 258T642 177Q642 113 602 72T482 11T289 -9ZM364 -141Q320
-141 296 -120T269 -77Q262 -26 260 17T260 101T269 186T285 286Q289 314 304 327T342 341Q368 341 383 318T398 254Q397 208 398 155T403 45T413 -63Q415 -103 404 -122T364 -141ZM362 296Q326 295 314 319T304 390Q307 445 306 504T300 620T286 729Q282 750 290
769T317 800T359 812Q386 812 407 797T434 758Q447 693 447 621T437 479T413 346Q407 324 395 310T362 296Z" />
<glyph unicode="%" glyph-name="percent" horiz-adv-x="977" d="M278 -21Q250 -21 230 -2T205 47T216 103Q266 185 322 264T438 416T558 554T675 671Q702 696 723 705T765 715Q789 715 804 700T823 658T815 603T772 546Q687 469 614 390T476 223T349 31Q335 6
317 -7T278 -21ZM249 358Q188 358 142 381T69 446T43 540Q43 588 66 628T128 692T215 717Q240 717 258 697T276 648Q276 630 266 613T237 585Q215 574 207 561T198 534Q198 517 210 507T243 496Q262 496 273 507T284 537Q284 553 274 564T248 575Q218 575 194 589T170
638Q170 670 191 689T246 709Q306 709 348 688T412 628T435 538Q435 486 411 446T344 382T249 358ZM739 -13Q671 -13 625 10T556 72T533 159Q533 207 557 245T621 306T706 328Q734 328 750 315T766 275Q766 249 761 232T740 213Q712 209 701 196T689 164Q689 147
701 137T734 126Q755 126 767 138T779 171Q779 195 762 210T715 226Q687 226 669 241T651 294Q651 326 672 343T729 360Q792 360 837 337T906 273T930 175Q930 120 907 78T840 12T739 -13Z" />
<glyph unicode="&amp;" glyph-name="ampersand" horiz-adv-x="690" d="M549 -156Q519 -156 502 -140T484 -93Q484 -75 489 -64T501 -42T513 -20T518 13Q518 35 508 56T470 104T390 164T253 245Q183 284 140 317T76 381T47 440T39 499Q39 551 65 599T149 679T301
710Q362 710 408 700T499 668Q522 657 533 638T545 597Q545 567 523 545T470 523Q456 523 442 529T410 542T366 555T304 561Q248 561 218 544T188 496Q188 482 194 469T219 439T275 401T375 345Q472 293 530 251T619 171T658 97T668 18Q668 -8 662 -38T642 -95T605
-139T549 -156ZM252 -12Q197 -12 151 11T76 77T48 178Q48 241 74 285T141 358Q164 373 188 374T233 359Q246 349 248 326T238 287Q215 260 206 241T197 195Q197 175 206 160T231 137T264 129Q311 129 353 158T441 250T541 408Q552 428 562 439T590 450Q620 450
643 428T667 367Q667 358 662 340T641 297Q581 201 531 140T437 46T347 1T252 -12Z" />
<glyph unicode="&apos;" glyph-name="quotesingle" horiz-adv-x="277" d="M128 363Q103 363 84 379T56 419T54 465Q65 501 72 546T71 635Q68 659 75 677T99 705T139 715Q173 715 193 698T219 658Q226 624 226 583T218 498T196 416Q176 363 128 363Z" />
<glyph unicode="(" glyph-name="parenleft" horiz-adv-x="483" d="M379 -263Q363 -263 349 -260T304 -244Q237 -216 181 -162T92 -23T58 184Q58 301 91 407T178 606T296 776Q311 796 327 803T361 811Q382 811 400 799T429 769T441 731Q441 718 434 705T412 674Q361
612 315 536T241 372T212 184Q212 58 264 -24T406 -137Q437 -147 449 -159T461 -192Q461 -213 449 -229T418 -254T379 -263Z" />
<glyph unicode=")" glyph-name="parenright" horiz-adv-x="473" d="M101 -259Q85 -259 69 -254T43 -235T32 -202Q32 -183 40 -170T65 -141Q126 -90 171 -29T242 106T267 264Q267 359 244 434T180 567T82 662Q51 683 37 703T22 747Q22 775 44 793T98 812Q122 812
138 808T176 788Q230 754 275 702T352 582T403 435T422 264Q422 160 392 68T309 -100T183 -227Q159 -244 139 -251T101 -259Z" />
<glyph unicode="*" glyph-name="asterisk" horiz-adv-x="509" d="M117 322Q95 322 78 338T61 377Q61 384 64 394T79 420Q103 451 142 483T223 548T302 610T355 666Q366 683 378 691T406 700Q430 700 442 685T454 648Q454 634 450 622T437 597Q417 570 381 541T304
481T225 416T161 346Q152 333 142 328T117 322ZM272 231Q248 231 235 243T217 276Q208 322 206 375T204 478T205 567Q205 607 200 631T189 670T177 695T172 722Q172 741 183 752T217 763Q244 763 266 742T301 678T314 567Q314 532 313 486T314 390T324 297Q330
266 317 249T272 231ZM426 374Q413 374 403 378T366 398Q331 418 289 437T205 476T124 512T58 545Q32 561 23 580T14 614Q14 636 26 647T57 658Q71 658 81 654T112 638Q148 619 204 595T323 542T446 478Q474 463 474 429Q474 407 462 391T426 374Z" />
<glyph unicode="+" glyph-name="plus" horiz-adv-x="700" d="M124 226Q90 224 72 246T54 299Q54 327 68 347T132 379Q193 392 259 400T392 412T517 416Q568 416 597 394T626 335Q626 312 614 298T564 283Q461 282 391 274T273 256T191 237T124 226ZM343 28Q315
28 294 48T269 113Q264 179 265 235T269 343T275 444T276 546Q275 576 287 594T331 613Q373 613 398 585T423 491Q423 446 421 391T417 281T412 180T410 105Q410 66 392 47T343 28Z" />
<glyph unicode="," glyph-name="comma" horiz-adv-x="304" d="M84 -178Q59 -178 47 -166T34 -133Q34 -120 38 -105T50 -68Q65 -31 69 2T74 64T73 110Q73 148 90 170T143 193Q192 193 220 167T248 96Q248 62 241 26T221 -46T189 -110Q172 -138 143 -158T84 -178Z" />
<glyph unicode="-" glyph-name="hyphen" horiz-adv-x="519" d="M188 183Q143 183 111 196T62 230T45 272Q45 287 51 297T79 313Q142 329 203 333T326 338Q381 338 413 322T459 284T473 244Q473 222 460 209T423 195Q349 195 304 192T232 186T188 183Z" />
<glyph unicode="." glyph-name="period" horiz-adv-x="311" d="M177 -15Q114 -15 81 13T47 95Q47 134 70 157T132 181Q179 181 208 163T250 117T264 60Q264 28 242 7T177 -15Z" />
<glyph unicode="/" glyph-name="slash" horiz-adv-x="430" d="M118 -240Q76 -240 54 -210T37 -137Q53 -19 79 102T141 339T216 556T298 736Q319 776 342 794T392 813Q419 813 440 793T465 738T449 663Q382 534 333 403T250 133T196 -161Q192 -200 172 -220T118 -240Z" />
<glyph unicode="0" glyph-name="zero" horiz-adv-x="700" d="M317 -11Q239 -11 179 19T86 115T52 283Q52 365 76 428T135 536T207 603T268 626Q299 626 312 616T325 580Q325 559 317 542T294 511Q262 483 242 448T213 372T204 283Q204 242 216 210T255 158T320
139Q364 139 404 171T470 265T496 417Q496 457 487 489T456 541T400 560Q364 560 338 550T292 523T252 485Q240 474 226 466T197 458Q165 458 141 483T116 544Q116 567 135 595T191 650T280 694T400 711Q486 711 540 676T621 574T648 417Q648 309 620 229T544 95T437
16T317 -11Z" />
<glyph unicode="1" glyph-name="one" horiz-adv-x="455" d="M349 73Q349 30 333 10T283 -11Q243 -11 221 13T198 83Q198 161 202 243T216 406T236 560L266 534Q245 516 222 504T176 486T132 480Q87 480 65 505T42 562Q42 584 57 600T105 621Q145 626 177 644T238
687Q252 699 268 706T306 714Q337 714 360 698T393 654T395 596Q378 529 369 454T355 306T350 172T349 73Z" />
<glyph unicode="2" glyph-name="two" horiz-adv-x="700" d="M164 -20Q113 -20 89 8T64 74Q64 103 77 126T123 171Q208 224 268 270T368 355T425 431T444 503Q444 529 429 544T378 560Q333 560 298 547T234 516T185 484T145 470Q115 470 94 493T72 548Q72 569 80
583T110 613Q178 661 244 687T378 713Q457 713 505 686T574 612T596 503Q596 464 583 423T534 334T434 230T264 107L227 148Q246 143 263 141T299 138Q329 138 367 141T450 148T547 152Q617 152 643 127T670 64Q670 39 651 20T593 0Q509 0 442 -3T323 -10T232 -17T164
-20Z" />
<glyph unicode="3" glyph-name="three" horiz-adv-x="700" d="M269 -12Q190 -12 145 4T82 49T63 113Q63 143 76 163T117 184Q132 184 142 178T164 162T194 147T245 140Q322 140 380 150T471 182T504 233Q504 255 485 267T420 285T293 290Q256 290 238 316T219
375Q219 393 228 405T259 422Q317 435 358 450T420 485T442 530Q442 544 436 552T416 564T381 567Q319 567 279 556T211 531T165 506T124 495Q110 495 94 504T67 529T55 565Q55 587 80 612T149 660T250 697T372 712Q449 712 499 691T575 630T600 538Q600 511 591
485T559 434T499 392T402 364L397 398Q473 398 523 385T602 349T644 294T656 224Q656 164 627 120T545 46T422 3T269 -12Z" />
<glyph unicode="4" glyph-name="four" horiz-adv-x="700" d="M437 -11Q391 -11 371 29T351 157Q351 232 362 303T385 438T397 556Q397 573 394 587T382 620L430 574Q374 543 325 495T238 386T172 258L124 322Q150 311 160 309T189 306Q237 306 283 312T377 328T479
345T600 352Q624 352 643 339T674 304T685 257Q685 232 672 215T626 198Q548 198 485 191T367 175T256 159T139 152Q106 152 81 167T43 204T29 250Q29 283 38 321T80 415Q119 484 167 540T266 635T359 694T434 715Q475 715 501 695T540 643T553 574Q553 517 546
466T529 364T512 262T505 148Q505 111 510 91T515 49Q515 21 494 5T437 -11Z" />
<glyph unicode="5" glyph-name="five" horiz-adv-x="625" d="M204 -12Q147 -12 110 3T54 46T36 110Q36 139 51 158T96 178Q109 178 117 172T135 158T157 143T194 137Q234 137 273 144T346 165T400 198T420 244Q420 261 411 273T377 295T309 312Q225 328 174 344T96
379T60 427T51 494Q51 524 57 561T80 646Q88 674 101 687T141 700Q197 700 237 702T311 708T379 713T454 716Q514 716 543 686T571 618Q570 594 555 580T513 565Q463 565 424 563T346 558T264 553T162 552L233 596Q217 563 212 542T206 503Q206 495 209 488T223
474T260 461T329 447Q406 433 455 415T532 373T570 318T581 246Q581 171 534 113T403 22T204 -12Z" />
<glyph unicode="6" glyph-name="six" horiz-adv-x="700" d="M356 -10Q274 -10 214 8T115 58T56 137T37 239Q37 311 73 385T176 533T339 676Q370 699 386 704T420 710Q443 710 461 699T490 669T501 631Q501 612 494 599T458 566Q382 511 323 458T229 352T194 243Q194
204 215 181T274 149T359 139Q403 139 437 149T490 179T509 224Q509 242 498 257T462 283T394 293Q358 293 334 290T294 282T263 274T232 270Q204 270 193 282T182 312Q182 332 212 359T298 406T431 426Q503 426 555 398T635 323T663 217Q663 152 626 101T521 20T356
-10Z" />
<glyph unicode="7" glyph-name="seven" horiz-adv-x="700" d="M369 -9Q344 -9 323 0T289 29T276 76Q276 126 294 178T340 280T393 375T438 457T457 517Q457 543 441 554T383 565Q324 565 281 557T207 539T153 520T113 511Q94 511 77 524T48 556T36 597Q36 613
43 626T66 645Q113 664 169 678T279 701T376 710Q462 710 514 688T589 626T612 533Q612 486 594 441T548 350T493 258T447 165T428 66Q428 22 415 7T369 -9ZM220 217Q180 217 155 243T129 303Q129 331 142 346T182 362Q238 362 292 369T411 383T558 390Q611 390
641 363T672 297Q672 274 656 260T609 245Q528 245 470 241T369 231T291 221T220 217Z" />
<glyph unicode="8" glyph-name="eight" horiz-adv-x="700" d="M314 -12Q220 -12 164 13T82 77T58 163Q59 191 68 217T103 272T179 335T312 415Q382 453 421 482T479 535T505 587Q513 614 526 629T564 645Q601 645 622 622T643 561Q643 526 624 490T561 415T440
333Q362 288 316 259T248 211T220 177T213 147Q213 130 216 108T236 54L150 166Q193 144 229 140T311 135Q359 135 399 143T464 169T489 218Q489 233 478 247T433 277T328 312Q239 337 183 361T96 411T56 465T45 529Q47 615 117 663T341 711Q389 711 416 700T455
669T466 625Q466 594 448 579T392 565Q317 567 275 563T215 549T197 527Q197 513 211 502T252 478T317 453T404 422Q484 395 532 372T606 325T640 276T649 216Q649 157 616 105T509 20T314 -12Z" />
<glyph unicode="9" glyph-name="nine" horiz-adv-x="700" d="M577 -9Q538 -9 512 14T478 74Q470 128 469 205T467 381L555 422Q521 362 478 323T384 266T272 248Q199 248 148 272T71 342T44 445Q44 493 64 540T124 625T226 687T369 710Q440 710 479 680T518 598Q518
576 506 557T469 538Q458 538 450 541T430 549T405 557T369 560Q310 560 273 543T218 501T200 450Q200 423 217 407T275 391Q329 391 376 410T451 476T480 601Q480 632 494 648T533 664Q576 664 600 645T630 587T625 490Q623 418 623 369T622 282Q622 214 626 172T634
104T638 58Q638 23 623 7T577 -9Z" />
<glyph unicode=":" glyph-name="colon" horiz-adv-x="310" d="M159 325Q107 325 78 353T48 434Q48 476 75 498T142 521Q185 521 212 505T251 464T264 410Q264 376 238 351T159 325ZM167 -13Q111 -13 80 15T48 95Q48 137 75 160T139 183Q183 183 210 167T251 125T264
71Q264 38 240 13T167 -13Z" />
<glyph unicode=";" glyph-name="semicolon" horiz-adv-x="308" d="M151 341Q100 341 74 363T48 425Q48 471 82 496T166 522Q218 522 241 492T264 426Q264 393 236 367T151 341ZM91 -178Q66 -178 54 -166T41 -133Q41 -120 45 -105T58 -68Q72 -31 76 2T81 64T80
110Q80 148 97 170T150 193Q199 193 227 167T255 96Q255 62 248 26T228 -46T196 -110Q179 -138 150 -158T91 -178Z" />
<glyph unicode="&lt;" glyph-name="less" horiz-adv-x="700" d="M583 84Q557 84 537 86T488 93Q421 104 362 121T251 160T157 208T82 265Q46 299 46 339Q46 355 54 372T85 406Q119 433 165 458T261 506T361 547T452 578Q479 586 496 588T530 591Q577 591 602 567T627
508Q627 487 620 475T597 456T553 441Q486 424 423 402T304 353T202 296L204 359Q247 324 303 298T428 254T575 225Q616 219 637 204T658 153Q658 119 635 102T583 84Z" />
<glyph unicode="=" glyph-name="equal" horiz-adv-x="700" d="M146 118Q102 115 77 135T51 189Q51 212 68 232T140 265Q234 286 325 297T503 309Q559 309 588 292T618 237Q618 212 601 196T536 179Q463 179 410 174T319 160T252 143T198 127T146 118ZM146 378Q104
377 83 399T61 452Q61 479 81 497T156 525Q210 533 259 538T353 545T443 548Q543 548 589 528T636 467Q636 441 617 424T547 407Q453 407 389 404T282 395T207 385T146 378Z" />
<glyph unicode="&gt;" glyph-name="greater" horiz-adv-x="700" d="M173 83Q126 83 102 107T77 164Q77 192 93 207T150 233Q217 250 280 272T399 321T501 378L499 315Q468 342 428 363T341 400T240 429T128 449Q87 455 66 470T45 521Q45 553 66 571T123 590Q148
590 167 588T215 581Q282 570 342 553T454 514T548 466T622 408Q641 390 649 373T658 335Q658 319 650 303T619 269Q584 241 539 216T442 168T342 127T251 96Q224 88 207 86T173 83Z" />
<glyph unicode="?" glyph-name="question" horiz-adv-x="521" d="M266 228Q231 228 204 244T162 287T147 344Q147 361 152 375T169 406T204 437T261 470Q294 486 309 497T329 516T334 534Q334 551 316 560T253 570Q205 570 176 562T127 545T84 536Q54 536 33 554T11
610Q11 634 21 651T54 679Q91 698 145 709T245 720Q327 720 381 699T463 637T491 542Q491 506 478 478T439 428T380 387Q345 369 327 358T303 340T297 327Q297 321 301 316T309 305T317 292T321 275Q321 258 308 243T266 228ZM255 -12Q207 -12 179 10T150 73Q150
114 172 134T231 155Q289 155 315 127T342 62Q342 28 321 8T255 -12Z" />
<glyph unicode="@" glyph-name="at" horiz-adv-x="909" d="M501 -160Q408 -160 325 -133T179 -53T79 75T42 245Q42 312 66 376T134 498T236 600T363 669T504 694Q577 694 635 666T736 591T809 488T852 375T867 272Q867 211 846 171T791 110T718 90Q696 90 674
95T630 113T592 144Q570 171 554 184T509 204L581 212Q569 188 555 167T522 130T479 104T424 94Q371 94 334 127T296 226Q296 268 314 307T363 376T427 425T492 443Q535 443 561 423T587 370Q587 355 580 341T561 318T539 306Q507 298 483 282T445 247T432 209Q432
196 437 184T453 158L347 245Q366 234 380 231T406 227Q420 227 430 237T457 272Q479 305 504 321T565 338Q590 338 612 327T652 289Q667 264 676 254T690 242T701 239Q708 239 711 244T716 257T718 272Q718 312 704 359T661 448T594 518T504 545Q443 545 387 520T287
451T217 355T191 245Q191 181 217 133T287 53T386 5T501 -11Q559 -11 598 -4T663 11T709 27T750 34Q780 34 794 22T809 -19Q809 -49 791 -76T739 -117Q711 -131 678 -140T602 -155T501 -160Z" />
<glyph unicode="A" glyph-name="A" horiz-adv-x="767" d="M658 -11Q627 -11 603 5T555 59Q533 93 516 145T489 257T472 368Q465 432 460 470T449 527T437 552T421 559Q397 559 371 524T317 422T268 261T229 51Q226 20 213 6T172 -8Q128 -8 105 25T82 136Q82 199
90 254T110 361T129 462T139 564Q139 582 150 593T183 604Q203 604 224 594T263 558L204 538Q244 617 302 664T427 711Q497 711 536 676T597 564T632 365Q639 293 653 242T683 155T709 93T719 45Q719 18 704 4T658 -11ZM121 167Q72 167 50 186T28 236Q28 256 41
270T82 294Q188 325 325 344T632 364Q691 364 712 346T734 297Q734 259 703 235T620 211Q545 211 482 207T366 196T269 183T189 172T121 167Z" />
<glyph unicode="B" glyph-name="B" horiz-adv-x="622" d="M253 -16Q207 -16 171 12T110 89T72 200T59 331Q59 371 60 402T65 462T74 522T90 592Q96 616 113 627T149 638Q172 638 190 625T217 591T223 547Q219 505 216 474T212 414T210 343Q210 288 214 248T226
183T245 146T268 134Q289 134 313 140T359 156T395 179T409 203Q409 221 395 233T353 254T286 267T195 270Q167 269 150 287T132 336Q132 351 144 364T179 382Q199 387 230 397T295 421T359 449T408 478T427 506Q427 518 418 526T384 540T316 548T203 551Q168 551
135 550T87 548Q60 548 45 564T30 605Q30 656 68 684T198 712Q280 712 350 702T472 671T555 614T585 525Q585 494 567 459T499 390T357 325L350 373Q410 367 450 351T514 313T548 266T559 216Q559 156 530 113T453 40T354 -2T253 -16Z" />
<glyph unicode="C" glyph-name="C" horiz-adv-x="614" d="M335 -10Q241 -10 177 30T79 141T45 301Q45 382 75 455T157 586T276 677T418 711Q469 711 500 697T545 656T560 592Q560 561 551 534T522 490T474 473Q460 473 450 479T436 495T431 518Q431 528 428 534T417
544T392 548Q349 548 314 527T253 471T213 391T198 301Q198 222 237 180T343 137Q378 137 401 144T438 161T463 182T487 199T518 207Q546 207 558 191T571 147Q571 119 556 91T510 40T435 4T335 -10Z" />
<glyph unicode="D" glyph-name="D" horiz-adv-x="706" d="M224 -10Q181 -10 152 16T108 89T93 195Q93 287 94 370T101 541Q103 573 119 586T176 599Q207 599 229 580T253 532Q255 485 254 432T250 324T248 214Q248 182 254 157T278 102L172 126Q254 138 317 166T422
234T486 322T508 420Q508 462 493 492T443 538T353 554Q306 554 272 548T213 534T166 519T125 513Q90 513 66 527T30 563T18 609Q18 626 27 642T59 665Q84 673 118 680T191 694T270 705T349 709Q450 709 521 672T628 571T665 427Q665 352 639 286T569 165T467 71T348
11T224 -10Z" />
<glyph unicode="E" glyph-name="E" horiz-adv-x="664" d="M361 -7Q287 -7 233 16T142 80T87 176T69 293Q69 327 74 366T90 448T115 532Q127 571 153 592T214 614Q233 614 246 607T267 587T272 554Q266 528 254 488T233 397T223 292Q223 249 239 216T287 163T361
144Q403 144 435 149T492 162T533 175T565 181Q593 181 606 167T620 125Q620 85 590 55T501 9T361 -7ZM193 249Q170 244 157 253T139 280T134 320Q134 348 152 369T199 397Q225 403 255 408T319 417T393 425T479 430Q522 430 539 415T557 373Q557 332 531 310T465
285Q419 283 380 279T308 271T246 261T193 249ZM162 528Q111 528 84 551T57 607Q57 623 66 639T105 662Q170 679 244 689T385 705T499 711Q567 711 594 690T622 631Q622 603 606 584T555 565Q490 565 429 559T316 546T225 534T162 528Z" />
<glyph unicode="F" glyph-name="F" horiz-adv-x="587" d="M241 -12Q218 -12 189 2T134 57Q118 80 106 112T88 189T81 294Q81 337 84 374T91 444T102 507Q112 555 136 578T196 602Q229 602 241 583T253 541Q252 524 249 500T243 443T237 367T234 270Q235 224 241
193T257 141T275 104T290 74T297 41Q297 19 283 4T241 -12ZM198 205Q167 198 147 205T118 229T109 265Q109 285 119 304T147 338T183 357Q221 365 267 372T364 383T465 387Q506 387 521 372T536 328Q536 286 507 264T435 239Q392 236 347 231T263 219T198 205ZM134
515Q94 515 69 528T33 561T21 604Q21 624 33 639T71 661Q123 674 183 684T308 702T432 709Q464 709 491 697T534 663T550 615Q550 588 534 573T479 558Q384 558 315 547T201 526T134 515Z" />
<glyph unicode="G" glyph-name="G" horiz-adv-x="802" d="M703 -114Q668 -114 646 -98T603 -47Q591 -27 581 -1T562 64T547 158L592 138Q550 85 501 53T398 5T288 -10Q231 -10 186 7T110 56T61 134T44 237Q44 310 70 379T141 507T244 612T370 682T506 708Q550
708 576 696T615 663T628 613Q628 580 616 552T581 507T530 490Q516 490 509 494T499 507T493 522T484 535T464 540Q426 540 389 523T319 475T262 407T224 329T209 251Q209 195 233 168T301 141Q349 141 393 156T478 203T548 282Q567 308 589 317T644 327Q669 327
680 319T692 291Q692 221 696 174T711 91T737 22Q748 -1 753 -14T760 -37T762 -58Q762 -85 746 -99T703 -114ZM414 251Q382 251 359 272T335 327Q335 350 348 364T401 389Q462 407 530 417T681 428Q726 428 748 421T778 400T786 366Q786 333 767 307T703 281Q640
281 595 277T516 266T459 256T414 251Z" />
<glyph unicode="H" glyph-name="H" horiz-adv-x="719" d="M587 -10Q546 -10 520 16T482 97T470 237Q470 331 472 403T475 529T477 624Q477 663 493 683T545 704Q588 704 610 670T632 566Q632 511 631 451T628 334T626 233Q627 193 631 165T639 112T645 58Q646
27 630 9T587 -10ZM185 -12Q143 -12 115 18T89 110Q91 155 91 210T90 325T88 441T85 545T84 624Q84 662 101 685T156 709Q197 709 222 680T248 586Q248 511 248 438T249 296T250 167T250 58Q250 23 233 6T185 -12ZM178 251Q124 251 93 263T50 294T37 336Q37 352
43 363T71 381Q147 400 224 409T380 421T536 424Q582 424 613 412T661 379T678 333Q678 310 666 296T630 281Q523 281 448 277T321 266T236 256T178 251Z" />
<glyph unicode="I" glyph-name="I" horiz-adv-x="561" d="M121 538Q71 538 50 561T29 615Q29 644 48 662T103 685Q160 693 218 698T330 706T428 709Q484 709 508 695T532 645Q532 603 496 578T403 553Q354 553 316 552T249 548T197 543T156 540T121 538ZM296 104Q253
104 227 125T201 181Q201 245 205 307T212 425T216 528Q216 565 228 583T275 601Q313 601 341 576T369 515Q369 482 365 430T357 311T352 165Q352 104 296 104ZM160 -11Q90 -11 59 13T28 74Q28 98 42 113T86 131Q131 136 165 139T230 143T289 144T350 145T424 144Q469
144 492 136T524 114T533 81Q533 48 505 24T412 0Q354 0 305 -2T218 -8T160 -11Z" />
<glyph unicode="J" glyph-name="J" horiz-adv-x="635" d="M291 -12Q217 -12 161 9T72 72T40 169Q40 192 48 218T72 267T113 305T172 320Q194 320 205 311T216 283Q216 268 209 255T196 228T189 198Q189 174 211 157T291 139Q361 139 387 167T414 256Q414 289 407
334T388 428T360 525T329 609Q319 635 332 655T370 676Q420 675 449 659T495 597Q508 561 521 514T546 415T563 317T570 234Q570 107 499 48T291 -12ZM203 548Q181 548 156 554T108 573T71 609T57 663Q57 686 69 699T103 713Q126 713 144 710T182 704T222 700Q261
700 296 703T370 709T465 712Q498 712 531 705T585 677T607 618Q607 564 541 564Q476 564 414 560T297 552T203 548Z" />
<glyph unicode="K" glyph-name="K" horiz-adv-x="682" d="M605 -11Q576 -11 534 2T446 38T356 91T276 155T218 226T197 295Q197 344 218 395T274 497T354 592T442 671Q471 694 492 702T534 711Q566 711 586 694T606 642Q606 614 589 592T533 541Q494 515 460 485T399
423T358 366T343 321Q343 306 365 281T425 230T511 181T611 142Q646 132 661 112T677 60Q677 28 661 9T605 -11ZM157 -12Q120 -12 99 7T70 70T61 187Q61 264 66 332T77 453T83 540Q83 571 81 590T76 624T73 655Q73 682 87 696T134 711Q168 711 188 696T219 656T232
604T236 552Q236 509 230 453T219 331T213 199Q213 169 214 148T218 111T222 80T224 49Q224 20 206 4T157 -12Z" />
<glyph unicode="L" glyph-name="L" horiz-adv-x="540" d="M289 -9Q209 -9 155 20T74 107T47 251Q47 326 59 392T84 520T97 635Q97 668 112 689T166 710Q196 710 216 694T246 654T256 604Q256 553 248 501T228 401T209 311T200 238Q200 191 222 167T295 142Q336
142 361 151T403 170T436 189T472 198Q494 198 507 180T521 137Q521 110 511 85T477 41Q442 15 391 3T289 -9Z" />
<glyph unicode="M" glyph-name="M" horiz-adv-x="1027" d="M152 -12Q129 -12 112 -2T84 34T67 102T61 209Q61 252 63 290T68 363T70 431Q70 457 68 479T62 519T56 552T53 581Q53 609 66 626T111 643Q141 643 162 625T196 579T209 519L185 507Q206 567 232 612T290
683T355 709Q380 709 399 696T433 654T462 580T488 468Q501 403 509 354T526 266T553 186L495 213Q510 251 523 296T551 388T580 482T614 566Q634 607 656 640T707 693T773 713Q802 713 826 701T869 660T900 587T920 476Q928 403 937 334T960 203T993 93Q1004 64
1002 41T982 5T935 -9Q900 -9 875 9T830 67Q814 97 804 140T786 231T774 325T765 411Q763 444 759 471T747 522T726 571L776 548Q748 514 728 464T688 349T647 209T591 47Q579 16 563 3T519 -10Q493 -10 476 0T445 35Q415 84 396 153T363 317Q354 381 345 428T317
518L333 516Q272 423 249 310T219 58Q217 20 199 4T152 -12Z" />
<glyph unicode="N" glyph-name="N" horiz-adv-x="792" d="M128 -16Q91 -16 75 2T59 45Q59 66 63 86T72 136T82 215T86 342Q86 385 84 431T78 520T73 594T70 638Q70 668 88 689T143 710Q187 710 224 689T294 630T355 546T409 448T459 347T507 253T554 179T602 135L519
96Q531 105 544 119T565 159T574 229Q574 289 570 343T564 448T563 547T578 646Q588 682 603 697T644 713Q681 713 699 695T722 651T723 605Q713 557 711 515T710 431T714 344T717 242Q717 167 708 109T668 18T578 -16Q540 -16 509 2T452 52T403 126T358 216T311
316T258 418T195 513L222 519Q228 479 231 450T235 395T236 342Q236 248 228 172T204 39Q197 13 179 -1T128 -16Z" />
<glyph unicode="O" glyph-name="O" horiz-adv-x="740" d="M354 -10Q287 -10 231 11T132 72T68 167T45 290Q45 349 63 401T109 494T169 564T229 608T276 624Q298 624 311 618T337 593Q358 565 349 542T316 502Q275 472 249 441T210 373T197 290Q197 242 216 208T272
155T354 136Q405 136 447 157T514 216T540 300Q540 346 527 391T492 474T440 535T378 558Q367 558 361 550T355 526Q355 504 344 493T314 482Q291 482 269 495T233 535T219 601Q219 630 236 655T284 695T361 711Q436 711 497 677T602 584T671 452T695 300Q695 234
669 178T595 79T487 14T354 -10Z" />
<glyph unicode="P" glyph-name="P" horiz-adv-x="627" d="M182 -10Q145 -10 118 19T91 117Q91 183 84 231T69 317T54 390T47 466Q47 539 74 593T164 678T329 708Q383 708 430 693T514 649T571 577T591 480Q591 422 567 371T501 280T403 218T284 195Q239 195 204
210T149 250T129 303Q129 330 144 344T183 358Q196 358 206 354T233 345T278 340Q323 340 359 360T418 413T440 480Q440 505 424 522T383 547T329 555Q264 555 231 532T198 466Q198 426 205 386T222 302T239 204T247 83Q247 42 235 16T182 -10Z" />
<glyph unicode="Q" glyph-name="Q" horiz-adv-x="768" d="M387 -9Q294 -9 230 17T125 88T67 192T49 313Q49 371 64 422T105 516T161 590T222 638T276 656Q294 656 313 646T346 619T360 584Q360 566 351 553T310 523Q275 504 250 470T212 396T199 313Q199 269 217
231T277 168T387 144Q428 144 461 158T517 197T553 252T566 315Q566 356 555 397T522 472T473 527T411 548Q376 548 351 528T306 468Q294 445 282 436T252 427Q230 427 215 434T193 457T185 497Q185 531 205 568T260 637T338 689T426 709Q486 709 538 681T632 600T696
479T719 327Q719 262 697 202T631 94T527 19T387 -9ZM603 -109Q579 -109 561 -100T517 -62Q495 -38 473 -3T430 72T389 149T348 214Q326 246 323 271T335 311T383 326Q419 326 442 311T491 261Q501 248 514 224T543 169T579 107T621 48Q651 9 658 -26T652 -85T603
-109Z" />
<glyph unicode="R" glyph-name="R" horiz-adv-x="739" d="M147 -13Q108 -13 80 21T51 122Q51 163 63 215T102 329Q104 379 97 419T79 498T53 584Q42 624 55 646T112 669Q162 669 190 635T236 512L207 513Q244 575 291 619T393 686T508 710Q555 710 588 697T642
659T674 603T684 533Q684 487 664 443T605 361T508 290T376 233Q434 200 500 174T634 129Q682 117 698 103T715 65Q715 29 690 9T616 -12Q589 -12 545 0T448 35T344 85T250 144T183 206Q172 222 172 245T183 289T213 315Q302 336 363 365T461 424T514 481T531 525Q531
542 523 551T495 561Q479 561 453 551T394 517T330 456T272 364T229 235T213 66Q213 38 206 21T184 -5T147 -13Z" />
<glyph unicode="S" glyph-name="S" horiz-adv-x="572" d="M235 -9Q143 -9 96 27T49 112Q49 135 60 148T94 162Q109 162 120 159T145 150T176 142T220 138Q258 138 285 141T334 149T378 162Q370 181 343 196T278 227T200 261T124 305T66 364T44 447Q44 495 72 535T146
608T244 663T347 698T435 710Q467 710 486 699T513 668T521 627Q521 604 509 587T469 565Q389 550 329 530T235 488T201 444Q201 426 225 410T288 378T369 344T450 300T512 241T537 160Q537 116 517 84T458 32T363 1T235 -9Z" />
<glyph unicode="T" glyph-name="T" horiz-adv-x="623" d="M326 -13Q296 -13 270 7T229 86Q220 125 215 167T210 265T214 396T228 578Q230 607 247 625T292 644Q346 644 366 615T382 520Q376 416 375 344T376 223T382 145T388 93T391 53Q391 16 375 2T326 -13ZM473
552Q420 552 375 552T288 553T205 556T121 562Q79 566 56 577T23 607T13 654Q13 677 26 693T72 709Q117 709 155 708T229 705T298 702T370 700Q405 700 432 702T488 706T552 709Q581 709 595 695T610 656Q610 620 590 597T538 563T473 552Z" />
<glyph unicode="U" glyph-name="U" horiz-adv-x="684" d="M362 -13Q254 -13 189 30T95 152T65 341Q65 382 67 420T70 487Q70 526 68 550T62 589T56 619T54 651Q54 685 72 700T125 715Q156 715 180 700T219 647T234 539Q234 510 232 474T227 401T225 333Q225 257
240 216T284 159T355 143Q415 143 444 179T474 305Q474 361 472 403T469 488T467 582Q467 640 490 676T562 712Q594 712 613 696T632 647Q632 631 629 614T624 575T622 518Q622 465 626 412T630 298Q630 206 602 136T514 27T362 -13Z" />
<glyph unicode="V" glyph-name="V" horiz-adv-x="704" d="M362 -12Q340 -12 321 -4T283 24T244 83Q209 147 187 202T150 305T125 394T100 471T65 538Q47 564 33 587T19 640Q19 667 36 689T92 711Q116 711 138 701T182 661Q210 626 229 581T265 485T296 385T327
292T364 219L322 170Q359 304 409 417T523 631Q545 664 562 681T595 704T626 711Q658 711 676 688T695 634Q695 611 690 593T675 556T647 507Q614 452 586 402T534 301T488 192T444 66Q431 24 412 6T362 -12Z" />
<glyph unicode="W" glyph-name="W" horiz-adv-x="994" d="M758 -12Q735 -12 715 -5T678 17T640 59Q620 87 604 123T575 199T549 281T525 361T499 433T468 487L518 471Q489 437 464 392T416 294T377 180T345 56Q337 24 319 8T266 -8Q253 -8 237 -3T204 21T172 77Q152
125 134 179T100 290T72 407T52 524T39 637Q37 668 54 690T115 712Q161 712 184 682T210 607Q213 560 219 515T233 427T252 339T280 248L247 237Q265 310 288 374T341 492T406 588Q431 618 459 636T526 654Q557 654 580 634T628 560Q643 527 654 481T678 386T707
290T750 208L698 205Q712 244 722 291T740 390T756 490T772 580T792 648Q806 683 825 697T875 712Q904 712 921 701T946 669T953 624T944 571Q932 528 922 476T901 367T880 252T856 141T824 42Q811 10 794 -1T758 -12Z" />
<glyph unicode="X" glyph-name="X" horiz-adv-x="665" d="M111 -7Q89 -7 72 6T47 44T42 98T69 161Q107 216 145 268T222 370T296 463T366 545T428 614T480 667Q503 690 519 698T558 707Q581 707 600 693T628 656T633 606T602 552Q565 514 521 468T431 370T340
264T256 154T186 47Q169 17 154 5T111 -7ZM553 -11Q526 -11 503 5T456 62Q433 103 392 149T300 246T201 350T112 454T53 555Q34 606 35 640T55 693T113 711Q145 712 167 695T204 641Q232 572 271 515T356 411T444 322T526 242T590 163Q624 110 626 71T608 11T553
-11Z" />
<glyph unicode="Y" glyph-name="Y" horiz-adv-x="620" d="M223 -16Q195 -16 177 1T152 48T155 120Q168 184 197 259T268 412T365 560T481 682Q503 700 517 706T547 713Q566 713 579 704T600 678T607 637Q607 620 603 606T589 576T558 541Q505 493 462 435T384
313T327 183T290 51Q281 13 266 -1T223 -16ZM292 255Q274 255 261 263T238 287Q203 344 178 380T132 441T91 490T46 550Q31 571 24 591T16 638Q16 671 32 690T76 710Q97 710 115 702T151 665Q172 626 191 600T227 551T262 506T299 452T343 376Q351 359 351 339T346
299T325 268T292 255Z" />
<glyph unicode="Z" glyph-name="Z" horiz-adv-x="639" d="M175 -10Q126 -10 98 5T57 48T44 107Q44 139 53 170T87 236T161 312T288 406Q339 441 368 465T412 507T430 542T434 576L463 537Q454 544 446 548T423 555T380 558Q324 558 280 552T201 540T136 533Q111
533 90 542T56 571T43 616Q43 643 58 660T101 682Q173 694 243 702T396 710Q463 710 506 693T569 645T590 568Q590 532 581 501T548 438T484 373T384 296Q324 256 289 228T236 179T212 139T204 95L159 161Q175 151 192 147T240 142Q282 142 333 147T439 153Q497
153 535 142T593 109T613 55Q613 26 596 10T551 -7Q530 -7 513 -5T474 -2T419 0Q351 0 290 -5T175 -10Z" />
<glyph unicode="[" glyph-name="bracketleft" horiz-adv-x="501" d="M199 -269Q180 -269 162 -259T133 -232Q111 -196 100 -148T84 -45T79 63T82 165T87 247Q89 278 89 325T87 429T85 542T87 651T95 741Q101 770 123 787T174 805Q212 805 252 808T330 815T403
819Q440 819 458 802T477 757Q477 737 469 716T444 679T398 664Q390 664 383 665T365 666Q338 666 302 662T231 654T173 650L249 714Q242 677 240 627T238 522T240 413T243 314T242 238Q240 205 236 155T230 49T236 -59T264 -149L180 -124Q215 -116 246 -114T314
-111Q341 -111 365 -109T410 -107Q437 -107 453 -123T470 -167Q470 -211 443 -235T362 -259Q339 -259 319 -259T279 -261Q255 -262 236 -265T199 -269Z" />
<glyph unicode="\" glyph-name="backslash" horiz-adv-x="430" d="M359 -252Q334 -252 313 -236T279 -191Q231 -83 191 34T121 269T72 494T48 690Q41 812 123 812Q160 812 185 784T214 703Q223 558 248 421T318 147T428 -132Q444 -167 438 -194T409 -237T359 -252Z" />
<glyph unicode="]" glyph-name="bracketright" horiz-adv-x="501" d="M136 -269Q106 -269 81 -258T40 -227T23 -182Q22 -155 42 -135T90 -114Q110 -114 139 -111T201 -104T261 -93T309 -81L256 -145Q272 -55 269 47T254 262T236 494T238 738L318 635Q291 642 262
647T198 654T117 657Q91 657 69 670T35 707T22 758Q23 784 41 798T92 811Q127 811 169 808T250 805Q266 805 281 807T309 810Q347 810 371 787T393 726Q383 600 389 478T407 242T422 23T410 -173Q406 -194 392 -209T357 -232Q338 -239 309 -245T248 -256T186 -265T136
-269Z" />
<glyph unicode="^" glyph-name="asciicircum" horiz-adv-x="610" d="M486 423Q462 423 440 431T394 460T340 513T271 596L332 595Q276 534 242 499T188 446T156 425T128 420Q109 420 92 430T63 457T51 489Q51 500 55 512T73 540T115 582T191 648Q221 674 239 687T274
705T318 710Q342 710 360 701T401 661Q438 610 467 580T517 532T549 502T560 474Q560 452 540 438T486 423Z" />
<glyph unicode="_" glyph-name="underscore" horiz-adv-x="700" d="M188 -210Q142 -210 110 -197T61 -164T44 -124Q44 -108 50 -96T79 -80Q190 -68 295 -63T508 -58Q562 -58 594 -74T641 -111T655 -151Q655 -173 642 -186T605 -200Q507 -200 438 -201T321 -205T242
-208T188 -210Z" />
<glyph unicode="`" glyph-name="grave" horiz-adv-x="352" d="M269 477Q248 477 224 484T176 507Q149 524 121 550T68 610T27 677Q8 716 15 746T45 793T97 810Q128 810 152 796T191 746Q205 712 221 686T257 638T297 597Q327 570 331 542T320 496T269 477Z" />
<glyph unicode="a" glyph-name="a" horiz-adv-x="683" d="M206 -10Q154 -10 115 9T54 64T32 147Q32 198 49 251T96 352T165 438T250 498T341 520Q378 520 404 496T430 428Q430 412 421 403T398 391Q334 381 285 342T208 248T180 134Q180 117 182 103T193 66L125
168Q149 150 167 144T211 137Q262 137 306 200T369 387Q372 411 390 424T431 438Q470 438 497 417T535 365Q552 319 566 280T601 204T657 128Q670 113 670 91T662 46T636 8T593 -7Q575 -7 564 -1T545 16Q523 42 506 67T475 121T448 185T422 268L475 272Q456 192
426 138T361 51T286 4T206 -10Z" />
<glyph unicode="b" glyph-name="b" horiz-adv-x="624" d="M212 -10Q183 -10 153 -5T98 13T58 44T42 92Q42 122 62 136T114 150Q132 150 154 146T200 141Q236 141 275 151T348 181T404 234T426 310Q426 327 422 340T407 360T377 368Q330 368 294 339T233 260T195
142Q191 121 179 110T148 98Q124 98 103 118T75 174Q66 226 60 278T50 375T46 452Q46 500 49 535T55 597T60 647T60 696Q58 723 70 742T115 761Q144 761 165 750T198 714T210 653Q210 636 208 616T202 572T196 521T193 462Q193 422 193 390T198 314L162 353Q177
398 210 436T287 497T379 520Q435 520 480 498T553 427T581 301Q581 232 550 175T467 77T348 13T212 -10Z" />
<glyph unicode="c" glyph-name="c" horiz-adv-x="530" d="M285 -9Q204 -9 148 20T62 101T33 220Q33 283 59 337T132 432T238 496T366 519Q397 519 420 509T456 478T469 428Q469 392 454 367T412 342Q398 342 392 349T380 362T355 368Q307 368 269 347T209 290T187
215Q187 194 196 177T226 151T286 141Q325 141 347 151T382 173T407 196T438 206Q462 206 473 191T485 145Q485 101 460 66T389 11T285 -9Z" />
<glyph unicode="d" glyph-name="d" horiz-adv-x="690" d="M288 -9Q232 -9 186 14T107 77T55 169T37 279Q37 352 67 406T153 491T281 521Q335 521 374 506T434 462T456 390Q456 369 447 356T423 342Q412 342 404 346T385 355T359 364T317 368Q262 368 230 345T197
279Q197 246 210 216T244 165T282 144Q332 144 371 207T432 391T455 684Q455 721 472 740T519 760Q565 760 591 722T613 612Q610 546 602 497T586 401T578 297Q578 236 585 200T604 144T627 113T646 91T654 61Q654 37 644 20T616 -8T572 -18Q542 -18 517 -1T473
46T443 114T434 194L518 219Q495 135 456 85T372 13T288 -9Z" />
<glyph unicode="e" glyph-name="e" horiz-adv-x="600" d="M291 -10Q226 -10 178 6T100 52T54 122T39 210Q39 264 59 318T118 418T209 491T329 519Q386 519 429 500T496 443T521 349Q521 307 501 276T446 224T364 195T265 185Q211 185 182 204T153 250Q153 264
159 271T182 279Q193 279 208 276T249 273Q282 273 312 282T361 306T380 341Q380 363 369 374T331 385Q300 385 274 369T229 325T199 262T188 190Q188 167 196 150T225 125T280 117Q338 117 377 127T442 152T488 177T527 188Q546 188 555 176T565 139Q565 113 545
86T489 38T403 4T291 -10Z" />
<glyph unicode="f" glyph-name="f" horiz-adv-x="403" d="M168 -8Q127 -8 103 21T79 109Q79 153 77 186T72 247T65 302T59 359T56 427Q56 503 77 564T135 669T219 736T316 760Q348 760 373 743T399 685Q399 662 388 647T355 625Q306 609 276 591T231 546T211 483T205
391Q205 360 209 329T218 262T228 184T233 89Q233 31 217 12T168 -8ZM154 337Q126 337 108 352T90 390Q90 423 107 449T157 487Q197 500 230 506T294 512Q321 512 340 503T369 475T379 431Q379 411 369 396T334 380Q288 376 258 370T209 356T178 343T154 337Z"
/>
<glyph unicode="g" glyph-name="g" horiz-adv-x="649" d="M392 -260Q303 -260 248 -245T162 -207T121 -157T109 -106Q109 -68 131 -41T189 -13Q214 -13 224 -23T235 -51Q235 -68 248 -82T295 -105T382 -114Q430 -114 448 -91T466 -22Q466 16 461 46T449 105T435
165T423 235L481 227Q468 177 442 143T381 89T311 60T241 51Q176 51 130 74T58 141T32 247Q32 305 54 355T113 442T200 501T303 523Q357 523 389 504T434 456T448 395Q448 370 437 354T414 338Q400 338 392 344T375 358T356 372T325 378Q300 378 275 368T230 340T196
301T183 257Q183 232 197 218T241 204Q293 204 333 226T396 293T420 408Q420 438 429 452T463 466Q495 466 515 455T546 425T558 386Q563 327 573 280T593 189T610 92T618 -30Q618 -137 559 -198T392 -260Z" />
<glyph unicode="h" glyph-name="h" horiz-adv-x="669" d="M155 -7Q125 -7 104 9T71 56T59 127Q59 221 66 296T81 433T90 545Q91 584 89 610T83 657T80 700Q80 723 95 741T145 760Q176 760 199 742T233 681T244 564Q242 523 236 472T225 354T219 192L185 254Q224
348 262 408T340 496T421 524Q476 524 507 494T554 406T579 267Q585 214 593 183T610 134T628 101Q633 91 636 79T640 56Q640 26 621 7T567 -12Q528 -12 503 10T464 70T443 156Q436 214 430 250T418 309T402 351Q386 343 357 305T293 199T220 38Q208 11 194 2T155
-7Z" />
<glyph unicode="i" glyph-name="i" horiz-adv-x="306" d="M153 -10Q123 -10 105 3T79 38T70 89Q70 154 69 198T68 276T66 338T65 400Q65 431 75 457T107 498T165 513Q200 513 220 491T241 421Q241 401 241 366T239 289T236 204T233 125T232 67Q232 34 213 12T153
-10ZM165 577Q114 577 83 603T52 668Q52 709 79 731T150 753Q184 753 207 738T242 701T255 657Q255 628 235 603T165 577Z" />
<glyph unicode="j" glyph-name="j" horiz-adv-x="292" d="M79 -260Q43 -260 17 -247T-22 -210T-35 -160Q-35 -132 -23 -117T10 -102Q16 -102 21 -103T32 -106T43 -108T57 -109Q77 -109 88 -90T99 -38Q99 51 91 115T73 230T55 323T47 413Q47 466 68 492T126 518Q154
518 171 502T196 442Q214 350 225 268T242 109T248 -44Q248 -151 202 -205T79 -260ZM137 577Q86 577 55 603T24 668Q24 709 51 731T122 753Q156 753 179 738T214 701T227 657Q227 628 207 603T137 577Z" />
<glyph unicode="k" glyph-name="k" horiz-adv-x="652" d="M532 -7Q495 -7 449 8T357 48T273 105T212 168T188 229Q188 270 212 311T275 390T358 457T445 504T517 521Q555 521 577 502T600 447Q600 419 585 401T525 369Q488 357 457 341T402 309T367 277T354 253Q354
241 371 222T428 182T535 144Q573 135 588 112T603 64Q603 32 586 13T532 -7ZM152 -10Q129 -10 108 1T73 44T59 133Q59 172 66 234T80 375T91 535Q93 573 93 598T91 639T89 668T88 691Q89 723 106 741T155 760Q187 760 208 740T238 672T245 546Q242 501 238 462T229
388T219 320T211 256T208 193Q208 152 210 122T213 59Q213 23 198 7T152 -10Z" />
<glyph unicode="l" glyph-name="l" horiz-adv-x="347" d="M225 -11Q205 -11 182 -5T137 19T96 74T67 169T56 317Q56 393 59 457T70 580T86 695Q92 730 108 745T153 760Q192 760 213 732T234 640Q234 610 231 576T223 502T215 411T211 297Q211 243 214 212T222
164T233 143T248 138Q256 138 261 139T271 141T281 142Q309 142 319 126T330 83Q330 54 317 33T280 1T225 -11Z" />
<glyph unicode="m" glyph-name="m" horiz-adv-x="911" d="M151 -9Q114 -9 94 17T66 85T58 172Q58 203 60 233T64 295T66 355Q66 378 63 398T60 437Q60 459 75 475T118 491Q148 491 166 477T194 439T205 390L176 372Q188 415 208 448T257 500T322 520Q361 520 385
500T424 444T449 356Q459 306 466 269T476 207L448 218Q475 314 511 381T587 484T668 520Q745 520 781 458T832 271Q839 210 848 175T867 121T883 88T890 56Q890 28 871 10T818 -9Q788 -9 765 8T724 64T698 167Q690 222 685 257T674 313T662 351T647 383L678 377Q641
340 615 294T568 189T525 50Q519 20 501 6T457 -9Q423 -9 401 9T367 66T345 161Q338 210 332 245T320 308T306 355T288 394L313 375Q288 342 270 307T241 232T223 148T213 55Q211 25 196 8T151 -9Z" />
<glyph unicode="n" glyph-name="n" horiz-adv-x="665" d="M568 -10Q526 -10 496 23T449 123T432 292Q432 316 431 332T426 360T415 379T396 395Q422 395 439 391T465 374T471 333Q454 355 442 363T416 371Q397 371 373 349T321 286T269 188T221 62Q208 21 192
6T148 -9Q99 -9 77 36T55 151Q55 200 59 236T69 304T79 369T84 443Q84 478 100 495T149 512Q182 512 200 491T219 423Q219 394 215 371T206 322T196 259T193 165L156 208Q190 312 236 380T333 483T434 518Q480 518 510 500T555 447T570 364Q570 294 574 246T588
167T615 120Q629 106 636 92T643 56Q643 30 624 10T568 -10Z" />
<glyph unicode="o" glyph-name="o" horiz-adv-x="650" d="M340 -12Q253 -12 186 23T81 119T42 260Q42 311 64 358T121 442T200 500T284 522Q301 522 316 517T341 500T350 468Q350 432 336 405T276 363Q254 353 236 337T206 300T195 256Q195 199 233 164T335 129Q389
129 423 164T457 257Q457 307 428 337T352 368Q329 368 314 356T278 324Q264 309 253 300T232 287T205 282Q187 282 174 296T160 349Q160 377 175 406T216 459T274 497T338 512Q423 512 483 482T576 395T608 262Q608 184 573 122T477 24T340 -12Z" />
<glyph unicode="p" glyph-name="p" horiz-adv-x="598" d="M332 -10Q275 -10 229 11T155 67T128 142Q128 160 141 174T170 188Q186 188 199 181T227 163T261 146T308 138Q352 138 379 157T406 221Q406 256 389 283T345 330T284 358T220 368Q207 368 195 365T163
362Q144 362 125 372T94 400T82 439Q82 486 118 503T224 521Q294 521 356 500T465 437T539 335T566 198Q566 160 550 123T503 56T430 8T332 -10ZM148 -261Q129 -261 111 -251T80 -220T67 -167Q67 -146 70 -130T75 -96T81 -59T84 -8Q84 48 78 99T62 201T44 302T32
406Q31 422 37 433T55 450T83 456Q112 456 137 443T179 410T195 363Q195 306 202 254T219 154T235 56T243 -46Q243 -86 240 -124T227 -193T199 -242T148 -261Z" />
<glyph unicode="q" glyph-name="q" horiz-adv-x="627" d="M506 -260Q482 -260 464 -247T436 -214T424 -177Q422 -148 421 -123T419 -72T418 -21T417 32T419 92L448 77Q418 49 386 30T319 0T241 -10Q172 -10 126 16T56 89T33 200Q33 257 59 313T131 417T231 491T345
519Q393 519 428 499T483 445T503 375Q503 351 484 332T436 313Q425 313 415 319T396 340Q386 356 375 362T345 369Q321 369 294 352T243 308T203 250T188 191Q188 166 202 153T241 139Q292 139 334 164T409 233T460 337Q465 351 474 359T500 368Q542 368 567 346T592
292Q592 248 581 216T564 166Q564 134 564 105T564 47T566 -18T569 -99L551 -87Q573 -77 589 -70T621 -58T651 -54Q674 -54 689 -71T704 -114Q704 -137 696 -156T672 -190Q652 -207 631 -220T588 -242T546 -255T506 -260Z" />
<glyph unicode="r" glyph-name="r" horiz-adv-x="537" d="M169 -12Q145 -12 127 2T99 42T88 101Q88 170 85 225T74 323T55 400Q45 426 43 438T40 465Q40 485 54 497T99 510Q127 510 149 498T187 458T213 381T227 257L168 248Q187 313 216 363T283 447T361 498T439
516Q480 516 498 495T517 437Q517 412 501 394T446 357Q393 333 357 304T298 239T264 163T247 78Q242 42 232 23T207 -4T169 -12Z" />
<glyph unicode="s" glyph-name="s" horiz-adv-x="527" d="M205 -10Q142 -10 103 6T46 50T28 108Q28 130 41 143T82 157Q95 157 107 153T134 144T165 134T205 129Q261 129 294 140T344 171Q334 185 309 192T250 204T182 218T116 240T67 279T48 344Q48 391 73 424T139
479T229 510T327 519Q368 519 394 506T434 471T447 423Q447 398 435 383T400 368Q386 368 376 369T354 371T323 373Q276 373 242 363T190 335Q198 321 223 314T282 301T354 288T422 267T474 230T494 168Q494 121 472 87T411 32T319 0T205 -10Z" />
<glyph unicode="t" glyph-name="t" horiz-adv-x="486" d="M298 -13Q210 -13 156 25T79 131T55 290Q55 340 60 379T70 455T76 533Q77 575 74 601T71 651Q71 676 87 695T138 714Q184 714 208 679T230 558Q229 529 226 500T218 441T210 375T207 296Q207 237 219 202T256
152T318 137Q341 137 355 141T381 150T407 155Q431 155 443 141T455 97Q455 51 418 19T298 -13ZM190 339Q148 322 126 340T103 394Q103 423 114 446T169 486Q197 496 228 503T292 515T355 519Q393 519 416 509T449 482T459 441Q459 416 444 402T402 386Q357 383
323 378T257 363T190 339Z" />
<glyph unicode="u" glyph-name="u" horiz-adv-x="636" d="M328 -10Q257 -10 206 17T121 90T70 192T53 305Q53 355 60 394T83 470Q90 490 104 501T145 512Q180 512 204 489T228 430Q228 415 225 401T217 372T209 339T205 299Q205 261 213 231T237 179T275 147T327
136Q362 136 385 164T420 240T432 342Q432 364 431 381T428 412T427 443Q427 475 439 493T487 511Q516 511 537 497T568 450T579 364Q579 239 547 157T459 32T328 -10Z" />
<glyph unicode="v" glyph-name="v" horiz-adv-x="608" d="M293 -10Q262 -10 240 6T195 59Q181 81 165 116T132 189T104 259Q86 306 71 336T46 389T31 428T25 467Q25 489 39 503T87 518Q119 518 141 504T181 463T212 400Q226 363 241 323T272 242T304 165L265 173Q289
220 310 261T352 340T398 414T454 487Q468 504 484 512T521 520Q540 520 554 509T575 482T583 446Q583 426 578 407T563 373Q531 328 505 290T456 215T408 135T359 36Q346 11 332 1T293 -10Z" />
<glyph unicode="w" glyph-name="w" horiz-adv-x="905" d="M247 -15Q194 -15 159 27T97 165Q82 222 70 267T47 348T20 411Q1 445 5 470T28 508T77 522Q107 522 126 510T165 460Q182 424 192 381T212 293T235 209T272 141L217 140Q232 164 242 188T262 240T281 299T306
370Q333 442 361 480T436 519Q471 519 496 502T542 451T581 370Q598 328 608 293T627 231T649 183T683 150L636 139Q654 162 665 199T685 277T702 358T723 428Q733 455 749 475T785 508T828 521Q849 521 865 512T890 485T899 440Q899 424 892 409T873 379Q855 354
845 328T827 272T813 213T797 153Q778 86 759 50T719 1T676 -13Q641 -13 612 7T552 79Q528 118 511 160T481 241T454 311T425 359L462 362Q443 338 430 306T404 235T379 155T345 69Q333 41 318 22T285 -6T247 -15Z" />
<glyph unicode="x" glyph-name="x" horiz-adv-x="572" d="M91 -16Q69 -16 55 -4T38 33T50 96Q62 128 83 166T133 245T199 327T278 407T368 478Q390 493 408 502T443 515T473 519Q501 519 520 500T540 445Q540 421 528 405T497 377Q431 338 374 285T269 170T177
42Q157 10 136 -3T91 -16ZM480 -15Q455 -15 434 -3T389 43Q362 82 326 126T248 213T166 296T89 363Q65 383 50 401T35 447Q35 468 42 484T64 509T97 519Q117 519 135 510T183 478Q203 462 235 431T305 361T380 281T448 203T498 139Q529 96 537 74T546 37Q546 12
528 -1T480 -15Z" />
<glyph unicode="y" glyph-name="y" horiz-adv-x="611" d="M320 -261Q234 -261 182 -244T105 -196T81 -126Q81 -98 95 -83T137 -68Q154 -68 167 -73T199 -87T244 -100T315 -106Q350 -106 370 -94T400 -60T410 -5Q410 32 409 61T406 120T404 181T402 253L449 218Q428
172 404 143T355 97T306 74T260 68Q193 68 145 96T70 186T44 343Q44 417 54 454T82 505T126 518Q159 518 178 507T207 476T216 432Q215 398 211 362T206 293T214 241T251 221Q288 221 316 253T361 340T386 458Q390 490 402 503T445 517Q465 517 482 510T512 488T531
452T534 400Q528 350 529 312T534 240T543 172T553 95T557 -5Q557 -70 539 -118T490 -198T415 -245T320 -261Z" />
<glyph unicode="z" glyph-name="z" horiz-adv-x="621" d="M221 -10Q154 -10 117 9T65 57T50 120Q50 165 66 187T108 217Q199 246 254 274T338 332T377 393L414 343Q400 353 387 359T356 367T308 370Q257 370 220 364T159 352T117 345Q100 345 84 358T58 393T48
438Q48 461 57 475T95 496Q150 506 209 512T323 518Q380 518 418 507T479 475T511 429T521 377Q521 353 505 322T450 258T348 192T187 135L231 163Q229 149 233 143T247 136Q284 136 319 140T394 147T478 151Q523 151 548 123T574 54Q574 30 560 15T516 0Q476 0
426 -2T322 -7T221 -10Z" />
<glyph unicode="{" glyph-name="braceleft" horiz-adv-x="545" d="M433 -264Q390 -264 347 -249T269 -206T213 -145T191 -73Q191 -32 201 -6T222 40T233 84Q233 105 220 118T175 141T82 160Q51 165 35 188T19 248Q19 266 29 282T68 308Q119 325 151 341T198 373T214
402Q214 427 206 449T188 493T170 539T162 592Q162 625 176 656T215 716T273 765T346 799T429 811Q468 811 493 785T519 728Q519 697 502 680T453 658Q402 650 373 639T330 613T317 577Q317 557 325 538T343 499T360 453T368 390Q368 354 339 316T258 248T142 205V274Q216
266 264 251T339 213T376 164T387 107Q387 75 378 49T359 1T349 -45Q349 -63 364 -77T407 -100T479 -115Q503 -117 517 -131T532 -173Q532 -211 505 -237T433 -264Z" />
<glyph unicode="|" glyph-name="bar" horiz-adv-x="334" d="M189 -163Q160 -163 141 -144T114 -82Q101 -10 95 49T86 168T84 299Q84 371 87 430T93 541T98 643T99 749Q98 779 110 798T154 817Q196 817 221 789T246 695Q246 643 243 585T235 459T231 315Q231 239
233 185T239 91T247 23T253 -32T255 -85Q255 -125 237 -144T189 -163Z" />
<glyph unicode="}" glyph-name="braceright" horiz-adv-x="545" d="M152 -263Q121 -263 97 -250T58 -215T43 -166Q43 -136 61 -122T119 -108Q148 -108 171 -104T209 -93T233 -73T241 -43Q241 -22 232 -3T211 36T190 79T181 134Q181 175 210 212T293 279T420 322L422
251Q333 259 278 286T197 349T172 422Q172 459 184 486T209 536T222 583Q222 602 211 617T171 644T91 665Q58 672 41 695T23 751Q23 785 46 799T111 814Q165 814 213 798T298 752T355 682T376 596Q376 561 364 536T339 487T326 434Q326 416 339 404T385 382T477
362Q505 357 519 332T533 279Q533 259 525 239T494 215Q435 203 401 191T351 164T335 124Q335 105 344 86T365 45T386 -2T395 -58Q395 -105 379 -142T332 -207T255 -248T152 -263Z" />
<glyph unicode="~" glyph-name="asciitilde" horiz-adv-x="700" d="M467 117Q435 117 409 128T360 155T319 188T282 215T244 226Q224 226 213 217T194 194T179 166T163 143T135 134Q111 134 93 148T66 186T56 234Q56 275 71 311T122 369T217 392Q249 392 275 384T323
363T363 336T398 309T431 288T464 280Q484 280 496 289T518 313T536 341T557 365T589 375Q616 375 630 358T644 300Q644 219 598 168T467 117Z" />
<glyph unicode="&#xa0;" glyph-name="uni00A0" horiz-adv-x="344" />
<glyph unicode="&#xa1;" glyph-name="exclamdown" horiz-adv-x="300" d="M168 -260Q128 -260 104 -235T79 -154Q79 -135 80 -117T82 -79T84 -36T85 15Q85 41 84 65T82 109T80 147T78 181Q78 222 95 240T141 259Q171 259 191 245T217 199Q226 154 229 118T232 33Q232
-6 231 -41T227 -113T226 -189Q228 -219 215 -239T168 -260ZM165 337Q108 337 81 368T54 438Q54 468 74 486T134 504Q185 504 215 482T246 419Q246 379 224 358T165 337Z" />
<glyph unicode="&#xa2;" glyph-name="cent" horiz-adv-x="593" d="M292 -9Q209 -9 151 20T62 100T32 218Q32 281 58 335T131 431T237 496T365 519Q412 519 451 505T513 463T536 394Q536 361 521 338T475 315Q457 315 446 324T425 346T398 368T353 377Q314 377
282 364T225 327T188 274T175 213Q175 190 184 172T218 144T288 134Q334 134 363 141T409 161T439 184T462 204T491 212Q536 212 536 153Q536 103 504 67T417 11T292 -9ZM178 -179Q145 -179 130 -155T124 -95Q144 -8 173 82T239 259H374Q335 172 304 79T249 -115Q241
-147 223 -163T178 -179ZM239 259Q278 356 321 441T405 592Q447 656 490 655Q512 655 526 639T541 595T520 533Q478 466 442 398T374 259H239Z" />
<glyph unicode="&#xa3;" glyph-name="sterling" horiz-adv-x="700" d="M449 -18Q407 -18 374 -8T312 19T260 51T213 77T169 88Q163 88 161 91T159 97Q159 101 161 106T169 111Q189 111 207 129T237 175T249 232Q249 268 232 299T190 358T141 415T99 474T82 541Q82
585 108 624T187 688T319 713Q386 713 430 700T499 665T534 620T544 576Q544 528 520 499T443 469Q414 469 401 482T387 511Q387 521 389 527T392 541Q392 552 375 559T319 567Q294 567 275 563T247 551T237 530Q237 515 253 498T292 456T339 400T377 325T393 223Q393
178 375 136T326 60T254 8T168 -11Q126 -11 96 6T49 50T32 110Q32 151 63 178T152 205Q195 205 229 198T293 180T347 158T398 140T449 133Q474 133 494 139T529 154T560 168T592 175Q621 175 638 155T655 103Q655 73 631 46T561 0T449 -18ZM141 256Q109 256 83
276T56 337Q56 359 71 372T118 389Q154 393 198 396T292 401T390 404T484 406Q547 406 577 390T608 344Q608 314 585 292T524 270Q513 270 495 271T447 273Q419 273 378 271T293 265T208 259T141 256Z" />
<glyph unicode="&#xa4;" glyph-name="currency" horiz-adv-x="700" d="M334 135Q276 135 231 154T159 215T131 321Q130 373 147 413T190 479T244 519T290 533Q324 533 338 518T353 469Q353 455 347 442T328 420Q302 401 289 380T276 331Q276 306 291 292T335 278Q360
278 381 292T415 331T427 393Q426 413 415 427T376 442Q344 442 327 438T301 428T283 418T260 414Q234 414 218 427T202 468Q202 497 221 525T280 571T380 590Q448 590 491 567T555 503T578 402Q580 317 547 257T457 166T334 135ZM128 38Q109 38 96 49T80 85T92
145Q106 183 136 229T211 320L311 215Q284 188 260 158T214 96Q194 64 173 51T128 38ZM561 49Q545 49 523 60T474 109Q455 136 428 168T370 230L475 334Q509 300 538 266T585 208Q615 165 623 142T632 105Q632 49 561 49ZM237 400Q210 426 183 450T134 493Q109
513 95 531T80 577Q80 607 96 628T142 649Q162 649 180 641T227 608Q246 594 277 565T342 502L237 400ZM487 406L388 511Q410 533 437 555T492 596Q514 612 532 621T566 634T593 638Q623 638 637 619T652 565Q652 541 645 528T615 500Q581 480 549 457T487 406Z"
/>
<glyph unicode="&#xa5;" glyph-name="yen" horiz-adv-x="700" d="M371 -18Q328 -18 299 17T255 116T240 265Q240 319 252 374T297 485T391 592T548 695Q569 705 580 708T605 711Q639 711 658 689T678 635Q678 614 667 594T635 564Q542 515 490 469T417 373T395
265Q395 204 402 171T417 119T433 86T440 53Q440 20 422 1T371 -18ZM144 75Q106 75 84 95T62 143Q62 169 76 184T125 201Q202 206 265 212T388 223T519 228Q570 228 599 219T640 195T653 157Q653 131 634 115T580 99Q556 99 536 101T484 103Q445 103 404 99T320
89T233 80T144 75ZM117 253Q83 253 58 273T33 324Q33 344 45 358T90 377Q149 386 216 393T358 404T519 408Q572 408 604 399T652 373T667 335Q667 310 649 294T595 277Q580 277 566 278T535 281T499 284T450 285Q385 285 335 280T245 269T174 258T117 253ZM355
358Q339 358 324 365T295 386Q269 416 238 438T175 482T114 525T61 577Q48 595 44 608T39 638Q39 671 56 695T106 720Q127 720 143 712T172 685Q195 654 225 630T288 585T353 541T411 488Q426 471 428 449T421 406T394 372T355 358Z" />
<glyph unicode="&#xa6;" glyph-name="brokenbar" horiz-adv-x="342" d="M188 -163Q148 -163 124 -138T100 -57Q100 -39 101 -21T103 19T104 68Q104 91 103 111T101 148T98 181T97 210Q97 251 114 269T159 288Q190 288 210 274T236 228Q246 177 247 128T247 25T247
-92Q248 -122 235 -142T188 -163ZM182 366Q151 366 132 380T105 426Q95 479 95 528T96 629T96 745Q95 776 108 796T155 817Q193 817 218 790T243 710Q243 693 242 675T239 635T237 587Q237 564 238 544T240 506T242 473T244 443Q244 404 227 385T182 366Z" />
<glyph unicode="&#xa7;" glyph-name="section" horiz-adv-x="595" d="M358 36L248 118Q314 122 352 135T410 173Q403 190 375 204T307 232T224 264T144 306T84 365T60 447Q60 495 88 536T161 609T259 663T363 698T452 710Q500 710 518 685T537 627Q537 605 523
588T485 565Q405 550 345 530T251 488T217 444Q217 427 241 413T304 384T385 352T466 311T528 255T553 180Q553 116 502 77T358 36ZM248 -260Q185 -260 142 -243T78 -198T57 -139Q57 -116 66 -103T104 -89Q121 -89 135 -94T171 -106T230 -113Q266 -113 292 -111T341
-103T385 -89Q378 -70 351 -55T285 -24T207 10T131 54T73 114T51 196Q51 259 98 298T232 350L320 275Q254 266 224 245T194 202Q194 180 219 163T284 129T368 93T453 49T519 -10T544 -91Q544 -135 524 -166T466 -219T373 -250T248 -260Z" />
<glyph unicode="&#xa8;" glyph-name="dieresis" horiz-adv-x="605" d="M435 568Q393 568 364 599T335 677Q335 712 359 734T419 757Q451 757 473 740T509 697T522 646Q522 617 502 593T435 568ZM190 564Q160 564 136 579T97 617T82 667Q82 705 104 728T162 751Q197
751 221 734T258 690T271 639Q271 610 253 587T190 564Z" />
<glyph unicode="&#xa9;" glyph-name="copyright" horiz-adv-x="958" d="M453 -57Q366 -57 295 -38T173 22T93 125T65 275Q65 352 87 414T144 524T221 604T300 653T364 670Q383 670 392 662T402 639Q402 620 390 602T351 567Q292 532 257 489T205 396T189 286Q189
240 204 199T251 125T330 75T445 57Q551 57 626 96T740 209T780 390Q780 468 755 525T674 612T530 642Q457 642 409 626T325 586T254 535Q240 524 223 517T189 510Q162 510 151 523T139 559Q139 583 166 616T245 682T368 735T527 757Q622 757 693 731T812 659T882
548T905 405Q905 290 869 203T771 59T626 -28T453 -57ZM477 135Q419 135 376 156T310 216T286 304Q286 353 307 399T364 482T446 539T541 561Q580 561 603 551T637 521T648 476Q648 452 638 427T609 385T566 368Q558 368 553 374T546 390Q544 401 539 408T519 415Q489
415 464 401T425 364T410 318Q410 292 431 280T489 267Q513 267 532 273T565 288T590 304T607 311Q623 311 631 296T639 258Q639 217 621 189T567 148T477 135Z" />
<glyph unicode="&#xaa;" glyph-name="ordfeminine" horiz-adv-x="652" d="M206 251Q160 251 124 267T68 313T46 381Q46 426 60 472T100 561T159 637T231 690T307 710Q344 710 369 686T396 616Q396 601 388 593T370 582Q315 571 275 539T214 463T193 367Q193 355
195 346T201 324L135 423Q156 409 172 404T210 399Q255 399 289 446T337 593Q340 616 355 628T390 641Q428 641 456 622T495 577Q510 539 524 509T557 451T608 389Q620 375 621 353T614 309T587 271T544 255Q528 255 517 261T496 278Q473 306 455 332T421 392T388
471L437 472Q413 388 376 340T296 272T206 251Z" />
<glyph unicode="&#xab;" glyph-name="guillemotleft" horiz-adv-x="680" d="M571 15Q557 15 542 19T508 32Q472 47 437 75T375 141T333 218Q324 241 326 261T340 297Q356 321 377 346T422 395T466 438T507 469Q527 482 542 488T572 494Q601 494 619 475T637 422Q637
405 630 391T603 365Q572 345 545 319T495 267T456 217L458 278Q469 250 493 222T548 172T611 139Q630 134 641 121T652 84Q652 49 628 32T571 15ZM267 14Q253 14 238 18T204 31Q171 46 137 75T76 141T35 218Q26 241 28 261T42 300Q65 334 93 366T151 424T205 465Q225
478 240 484T270 490Q299 490 317 471T335 418Q335 401 328 387T301 361Q271 342 245 319T196 271T158 217L161 292Q177 249 199 218T249 166T305 131Q323 122 332 111T342 77Q342 46 321 30T267 14Z" />
<glyph unicode="&#xac;" glyph-name="logicalnot" horiz-adv-x="700" d="M146 328Q104 327 83 349T61 402Q61 429 81 447T156 475Q210 483 259 488T353 495T443 498Q525 498 562 478T600 417Q600 391 582 374T512 357Q426 357 368 354T271 345T202 335T146 328ZM549
150Q520 150 499 170T474 235Q471 278 473 312T478 378T481 444Q480 474 492 493T536 512Q579 512 603 484T628 390Q628 364 625 333T619 272T615 227Q615 188 597 169T549 150Z" />
<glyph unicode="&#xad;" glyph-name="uni00AD" horiz-adv-x="519" d="M188 183Q143 183 111 196T62 230T45 272Q45 287 51 297T79 313Q142 329 203 333T326 338Q381 338 413 322T459 284T473 244Q473 222 460 209T423 195Q349 195 304 192T232 186T188 183Z" />
<glyph unicode="&#xae;" glyph-name="registered" horiz-adv-x="877" d="M405 126Q304 126 224 160T97 265T51 450Q51 529 71 590T124 696T192 769T261 812T314 826Q332 826 343 818T355 786Q355 766 345 754T307 725Q257 694 225 651T177 556T162 451Q162 386
189 337T269 259T399 231Q500 231 571 268T679 377T717 550Q717 625 692 680T613 764T472 793Q425 793 380 780T293 743T213 688Q201 679 189 674T165 669Q149 669 136 683T123 714Q123 740 147 771T217 831T326 879T468 898Q561 898 628 875T740 807T805 702T826
565Q826 455 793 373T702 236T567 154T405 126ZM318 287Q279 287 256 311T231 373Q230 393 237 420T260 476Q263 515 260 542T247 604Q243 627 253 645T292 663Q322 663 342 650T369 612L339 618Q359 649 386 673T448 713T518 728Q566 728 596 712T641 668T656
607Q656 544 617 501T512 440Q528 433 545 428T585 421Q607 420 618 408T629 377Q629 358 616 342T582 315T533 305Q518 305 498 310T454 328T404 360T353 405Q340 418 338 435T342 468T361 487Q419 507 454 527T505 564T521 589Q521 595 518 598T508 602Q489 602
465 588T419 543T381 463T366 342Q366 310 355 299T318 287Z" />
<glyph unicode="&#xaf;" glyph-name="overscore" horiz-adv-x="486" d="M130 594Q81 594 55 621T28 679Q28 697 39 713T91 735Q133 741 166 744T234 748T307 749Q360 749 391 733T436 696T450 655Q450 632 437 619T400 605Q315 605 263 603T180 597T130 594Z" />
<glyph unicode="&#xb0;" glyph-name="degree" horiz-adv-x="603" d="M317 250Q240 250 179 280T83 365T46 488Q45 528 63 568T113 641T185 693T267 713Q292 713 313 700T335 657Q336 622 322 595T262 554Q247 550 232 539T206 513T195 482Q197 443 227 420T310
396Q353 396 381 419T407 480Q407 513 382 532T317 552Q302 552 291 543T264 518Q247 500 233 494T198 487Q188 487 178 492T161 512T153 553Q153 580 166 606T201 654T251 687T305 700Q422 700 488 643T557 487Q558 420 527 366T441 281T317 250Z" />
<glyph unicode="&#xb1;" glyph-name="plusminus" horiz-adv-x="700" d="M146 3Q102 1 77 21T51 74Q51 98 68 118T140 150Q234 172 325 183T503 195Q559 195 588 178T618 122Q618 97 601 81T536 65Q463 65 410 59T319 45T252 29T198 13T146 3ZM124 292Q90 290 72
312T54 365Q54 393 68 413T132 445Q193 458 259 466T392 478T517 482Q568 482 597 460T626 401Q626 378 614 364T564 349Q461 348 391 340T273 322T191 303T124 292ZM351 214Q323 214 302 234T277 299Q274 346 274 385T276 459T276 532Q275 562 287 580T331 599Q373
599 398 571T423 477Q423 448 422 412T420 343T418 291Q418 252 400 233T351 214Z" />
<glyph unicode="&#xb2;" glyph-name="uni00B2" horiz-adv-x="520" d="M121 389Q86 389 70 412T53 467Q52 493 59 504T76 523Q138 563 178 591T240 640T271 677T280 710Q280 727 260 727Q227 727 200 712T151 682T113 667Q88 667 70 687T51 733Q50 751 56 762T77
784Q125 820 171 837T263 854Q337 854 370 817T405 722Q406 690 392 655T338 581T221 497L197 527Q211 524 224 523T250 522Q272 522 303 525T374 528Q428 528 450 508T473 456Q473 436 458 419T414 402Q299 402 226 396T121 389Z" />
<glyph unicode="&#xb3;" glyph-name="uni00B3" horiz-adv-x="520" d="M205 397Q152 397 120 410T74 447T59 498Q59 512 71 529T112 547Q124 547 132 543T157 533T208 528Q246 528 278 532T331 545T351 563Q351 572 339 577T300 584T222 586Q197 586 184 599T171
627Q171 641 178 652T201 665Q259 675 284 688T309 720Q309 730 302 733T280 736Q234 736 205 731T157 719T119 713Q94 713 80 727T66 766Q66 791 88 811T155 845T271 858Q345 858 381 827T418 746Q418 719 407 691T367 641T287 610L285 670Q352 670 388 654T438
610T453 547Q453 496 420 463T332 414T205 397Z" />
<glyph unicode="&#xb4;" glyph-name="acute" horiz-adv-x="288" d="M101 573Q70 573 55 586T39 620Q39 636 47 649T72 678Q94 698 105 718T126 767Q138 801 157 813T203 825Q240 825 259 806T279 747Q279 701 253 662T187 598T101 573Z" />
<glyph unicode="&#xb5;" glyph-name="uni00B5" horiz-adv-x="700" d="M145 -179Q126 -179 109 -168T81 -130T70 -55Q70 5 71 62T74 174Q58 209 50 245T41 318Q41 418 64 466T125 514Q169 514 195 485T221 391Q221 350 220 307T218 221Q236 188 263 166T315 143Q350
143 374 169T410 239T423 333Q423 358 422 376T420 410T419 444Q419 477 431 494T479 512Q516 512 540 490T567 422Q569 345 578 291T605 198T649 128Q663 113 663 91T656 46T629 8T586 -7Q568 -7 557 0T537 16Q520 37 508 58T484 105Q467 47 426 19T327 -10Q296
-10 267 -1T213 22Q213 -15 212 -47T211 -101Q211 -140 193 -159T145 -179Z" />
<glyph unicode="&#xb6;" glyph-name="paragraph" horiz-adv-x="870" d="M440 -265Q415 -265 395 -251T365 -214Q347 -163 349 -98T364 52T388 242T400 484Q400 508 398 522T390 544T377 555T359 558Q334 558 306 542T253 499T213 441T197 376Q197 355 221 333T299
293T447 263Q469 261 484 249T506 217T511 178Q505 148 480 133T423 121Q303 139 218 171T87 254T42 375Q42 433 70 492T147 602T259 682T390 712Q433 712 463 701T514 662T544 587T554 469Q554 344 542 248T516 77T498 -55T511 -162Q520 -186 517 -210T495 -249T440
-265ZM698 -256Q666 -256 641 -237T612 -185Q605 -120 609 -59T622 68T641 215T654 398T647 635Q646 658 651 676T672 706T718 718Q750 718 775 694T804 615Q813 492 810 396T797 223T777 81T763 -44T765 -169Q768 -190 763 -210T742 -243T698 -256Z" />
<glyph unicode="&#xb7;" glyph-name="middot" horiz-adv-x="347" d="M193 171Q130 171 97 199T63 281Q63 320 86 343T148 367Q195 367 224 349T266 303T280 246Q280 214 258 193T193 171Z" />
<glyph unicode="&#xb8;" glyph-name="cedilla" horiz-adv-x="605" d="M263 -234Q219 -234 192 -215T164 -158Q164 -133 177 -117T221 -95Q260 -87 276 -74T293 -36Q293 -20 289 -12T280 2T271 12T266 29Q266 40 277 49T312 59Q371 59 405 18T440 -96Q440 -160
393 -197T263 -234Z" />
<glyph unicode="&#xb9;" glyph-name="uni00B9" horiz-adv-x="520" d="M301 471Q265 471 244 496T222 558Q221 601 224 642T236 723L263 719Q239 691 204 678T138 664Q104 664 88 685T72 731Q71 748 82 762T122 779Q156 784 189 798T243 833Q255 844 268 850T298
856Q337 856 354 825T365 755Q359 708 356 675T350 616T348 567T348 518Q348 493 336 482T301 471ZM162 391Q121 391 100 402T70 431T61 468Q61 492 79 506T137 521Q157 521 187 522T254 524T325 526T388 528Q434 528 456 509T479 457Q481 432 464 415T404 398Q337
398 291 397T214 393T162 391Z" />
<glyph unicode="&#xba;" glyph-name="ordmasculine" horiz-adv-x="544" d="M285 250Q217 250 163 280T78 363T46 488Q46 532 62 572T108 644T176 694T259 713Q284 713 305 700T327 657Q328 634 322 612T301 575T254 554Q231 547 214 526T195 482Q195 442 218 419T278
396Q308 396 328 418T348 480Q348 513 331 532T285 552Q270 552 259 544T231 519Q215 503 203 497T170 491Q152 491 134 505T115 549Q115 576 129 603T166 652T216 687T273 700Q343 700 393 674T470 601T498 487Q498 419 471 365T395 281T285 250Z" />
<glyph unicode="&#xbb;" glyph-name="guillemotright" horiz-adv-x="680" d="M104 14Q76 14 58 33T39 86Q39 104 47 117T72 142Q104 163 131 189T181 241T219 291L218 229Q207 259 183 287T127 336T64 368Q46 374 35 387T24 424Q24 459 48 476T104 493Q119 493
134 488T168 476Q204 461 239 432T301 366T343 289Q351 267 349 248T336 211Q319 187 298 162T254 113T209 70T169 39Q149 26 134 20T104 14ZM406 18Q378 18 360 37T341 90Q341 108 349 121T374 146Q405 167 431 189T479 237T517 291L514 215Q500 259 477 290T426
342T371 376Q353 385 344 397T334 431Q334 463 355 478T408 494Q423 494 438 490T472 477Q506 462 539 433T600 367T641 289Q649 267 648 247T633 208Q612 174 583 142T525 84T471 43Q451 30 436 24T406 18Z" />
<glyph unicode="&#xbc;" glyph-name="onequarter" horiz-adv-x="1388" d="M301 332Q265 332 244 357T222 420Q221 463 224 504T236 585L263 581Q239 553 204 539T138 525Q104 525 88 547T72 592Q71 610 82 623T122 641Q156 645 189 660T243 695Q255 705 268 711T298
717Q337 717 354 687T365 617Q359 570 356 536T350 477T348 428T348 379Q348 354 336 343T301 332ZM162 252Q121 252 100 263T70 292T61 329Q61 353 79 367T137 382Q157 382 187 383T254 386T325 388T388 389Q434 389 456 370T479 318Q481 293 464 277T404 260Q337
260 291 258T214 254T162 252ZM467 -23Q443 -23 425 -5T403 41T415 95Q462 163 517 231T631 366T751 491T868 601T977 687Q998 702 1016 709T1051 716Q1072 716 1087 703T1108 667T1104 621T1063 574Q960 498 866 411T686 226T525 16Q513 -3 498 -13T467 -23ZM1183
-7Q1146 -7 1129 18T1112 100Q1112 179 1123 238T1135 336Q1135 348 1133 358T1125 379L1166 338Q1108 321 1067 280T1003 182L970 228Q986 222 993 220T1013 218Q1055 218 1100 224T1196 237T1303 244Q1326 244 1344 221T1363 166Q1363 146 1354 132T1321 117Q1252
117 1193 111T1079 97T968 90Q933 90 911 111T888 161Q887 187 894 218T927 293Q954 335 987 365T1053 415T1116 444T1163 454Q1215 454 1239 431T1264 374Q1264 322 1258 278T1245 191T1240 94Q1240 72 1244 60T1248 33Q1248 15 1230 4T1183 -7Z" />
<glyph unicode="&#xbd;" glyph-name="onehalf" horiz-adv-x="1388" d="M301 332Q265 332 244 357T222 420Q221 463 224 504T236 585L263 581Q239 553 204 539T138 525Q104 525 88 547T72 592Q71 610 82 623T122 641Q156 645 189 660T243 695Q255 705 268 711T298
717Q337 717 354 687T365 617Q359 570 356 536T350 477T348 428T348 379Q348 354 336 343T301 332ZM162 252Q121 252 100 263T70 292T61 329Q61 353 79 367T137 382Q157 382 187 383T254 386T325 388T388 389Q434 389 456 370T479 318Q481 293 464 277T404 260Q337
260 291 258T214 254T162 252ZM467 -23Q443 -23 425 -5T403 41T415 95Q462 163 517 231T631 366T751 491T868 601T977 687Q998 702 1016 709T1051 716Q1072 716 1087 703T1108 667T1104 621T1063 574Q960 498 866 411T686 226T525 16Q513 -3 498 -13T467 -23ZM989
-13Q954 -13 938 10T921 65Q920 91 927 102T944 121Q1006 161 1046 189T1108 238T1139 275T1148 308Q1148 325 1128 325Q1095 325 1068 310T1019 280T981 265Q956 265 938 285T919 331Q918 349 924 360T945 382Q993 418 1039 435T1131 452Q1205 452 1238 415T1273
320Q1274 288 1260 253T1206 179T1089 95L1065 125Q1079 122 1092 121T1118 120Q1140 120 1171 123T1242 126Q1296 126 1318 106T1341 54Q1341 34 1326 17T1282 0Q1167 0 1094 -6T989 -13Z" />
<glyph unicode="&#xbe;" glyph-name="threequarters" horiz-adv-x="1388" d="M205 251Q152 251 120 264T74 301T59 351Q59 365 71 382T112 400Q124 400 132 396T157 387T208 382Q246 382 278 386T331 398T351 417Q351 426 339 431T300 437T222 439Q197 439 184
452T171 481Q171 495 178 506T201 519Q259 529 284 542T309 573Q309 583 302 586T280 590Q234 590 205 584T157 572T119 566Q94 566 80 581T66 619Q66 644 88 665T155 698T271 711Q345 711 381 681T418 600Q418 572 407 544T367 494T287 464L285 523Q352 524 388
508T438 464T453 401Q453 350 420 317T332 267T205 251ZM467 -23Q443 -23 425 -5T403 41T415 95Q462 163 517 231T631 366T751 491T868 601T977 687Q998 702 1016 709T1051 716Q1072 716 1087 703T1108 667T1104 621T1063 574Q960 498 866 411T686 226T525 16Q513
-3 498 -13T467 -23ZM1183 -7Q1146 -7 1129 18T1112 100Q1112 179 1123 238T1135 336Q1135 348 1133 358T1125 379L1166 338Q1108 321 1067 280T1003 182L970 228Q986 222 993 220T1013 218Q1055 218 1100 224T1196 237T1303 244Q1326 244 1344 221T1363 166Q1363
146 1354 132T1321 117Q1252 117 1193 111T1079 97T968 90Q933 90 911 111T888 161Q887 187 894 218T927 293Q954 335 987 365T1053 415T1116 444T1163 454Q1215 454 1239 431T1264 374Q1264 322 1258 278T1245 191T1240 94Q1240 72 1244 60T1248 33Q1248 15 1230
4T1183 -7Z" />
<glyph unicode="&#xbf;" glyph-name="questiondown" horiz-adv-x="422" d="M247 -261Q166 -261 111 -236T28 -166T0 -58Q0 -18 13 14T53 72T114 118Q149 138 166 149T189 168T195 181Q195 187 191 192T183 203T175 216T171 233Q171 250 185 265T226 280Q262 280
288 264T330 222T345 164Q345 148 341 133T324 104T291 74T235 40Q201 22 184 7T162 -23T157 -53Q157 -79 176 -95T239 -112Q287 -112 316 -105T367 -90T411 -82Q439 -82 459 -100T479 -154Q479 -178 466 -195T431 -225Q407 -237 376 -245T311 -257T247 -261ZM261
353Q222 353 198 366T162 401T150 446Q150 480 171 500T237 520Q286 520 314 498T342 435Q342 395 320 374T261 353Z" />
<glyph unicode="&#xc0;" glyph-name="Agrave" horiz-adv-x="767" d="M658 -11Q627 -11 603 5T555 59Q533 93 516 145T489 257T472 368Q465 432 460 470T449 527T437 552T421 559Q397 559 371 524T317 422T268 261T229 51Q226 20 213 6T172 -8Q128 -8 105 25T82
136Q82 199 90 254T110 361T129 462T139 564Q139 582 150 593T183 604Q203 604 224 594T263 558L204 538Q244 617 302 664T427 711Q497 711 536 676T597 564T632 365Q639 293 653 242T683 155T709 93T719 45Q719 18 704 4T658 -11ZM121 167Q72 167 50 186T28 236Q28
256 41 270T82 294Q188 325 325 344T632 364Q691 364 712 346T734 297Q734 259 703 235T620 211Q545 211 482 207T366 196T269 183T189 172T121 167ZM412 772Q384 772 354 786T300 823T260 873T244 928Q244 964 263 985T326 1007Q353 1007 372 994T403 947Q413
920 426 905T453 879T474 857T483 827Q483 802 466 787T412 772Z" />
<glyph unicode="&#xc1;" glyph-name="Aacute" horiz-adv-x="767" d="M658 -11Q627 -11 603 5T555 59Q533 93 516 145T489 257T472 368Q465 432 460 470T449 527T437 552T421 559Q397 559 371 524T317 422T268 261T229 51Q226 20 213 6T172 -8Q128 -8 105 25T82
136Q82 199 90 254T110 361T129 462T139 564Q139 582 150 593T183 604Q203 604 224 594T263 558L204 538Q244 617 302 664T427 711Q497 711 536 676T597 564T632 365Q639 293 653 242T683 155T709 93T719 45Q719 18 704 4T658 -11ZM121 167Q72 167 50 186T28 236Q28
256 41 270T82 294Q188 325 325 344T632 364Q691 364 712 346T734 297Q734 259 703 235T620 211Q545 211 482 207T366 196T269 183T189 172T121 167ZM407 764Q376 764 361 777T345 811Q345 827 353 840T378 869Q400 889 411 909T432 958Q444 992 463 1004T509 1016Q546
1016 565 997T585 938Q585 892 559 853T493 789T407 764Z" />
<glyph unicode="&#xc2;" glyph-name="Acircumflex" horiz-adv-x="767" d="M658 -11Q627 -11 603 5T555 59Q533 93 516 145T489 257T472 368Q465 432 460 470T449 527T437 552T421 559Q397 559 371 524T317 422T268 261T229 51Q226 20 213 6T172 -8Q128 -8 105
25T82 136Q82 199 90 254T110 361T129 462T139 564Q139 582 150 593T183 604Q203 604 224 594T263 558L204 538Q244 617 302 664T427 711Q497 711 536 676T597 564T632 365Q639 293 653 242T683 155T709 93T719 45Q719 18 704 4T658 -11ZM121 167Q72 167 50 186T28
236Q28 256 41 270T82 294Q188 325 325 344T632 364Q691 364 712 346T734 297Q734 259 703 235T620 211Q545 211 482 207T366 196T269 183T189 172T121 167ZM296 756Q277 756 260 766T231 790T220 820Q220 831 225 841T248 869T307 921Q337 943 355 956T391 974T433
980Q458 980 477 968T516 931Q538 902 558 886T593 858T617 836T626 806Q626 784 607 772T552 760Q528 760 504 769T452 803T387 873L449 872Q408 831 383 807T342 772T317 759T296 756Z" />
<glyph unicode="&#xc3;" glyph-name="Atilde" horiz-adv-x="767" d="M658 -11Q627 -11 603 5T555 59Q533 93 516 145T489 257T472 368Q465 432 460 470T449 527T437 552T421 559Q397 559 371 524T317 422T268 261T229 51Q226 20 213 6T172 -8Q128 -8 105 25T82
136Q82 199 90 254T110 361T129 462T139 564Q139 582 150 593T183 604Q203 604 224 594T263 558L204 538Q244 617 302 664T427 711Q497 711 536 676T597 564T632 365Q639 293 653 242T683 155T709 93T719 45Q719 18 704 4T658 -11ZM121 167Q72 167 50 186T28 236Q28
256 41 270T82 294Q188 325 325 344T632 364Q691 364 712 346T734 297Q734 259 703 235T620 211Q545 211 482 207T366 196T269 183T189 172T121 167ZM278 769Q245 769 226 794T206 854Q206 883 218 909T259 953T333 970Q364 970 386 961T425 940T455 919T483 909Q499
909 508 914T525 928T538 944T553 957T576 963Q602 963 617 946T632 889Q632 837 596 804T501 770Q477 770 460 777T428 795T400 812T370 820Q351 820 341 813T324 795T307 777T278 769Z" />
<glyph unicode="&#xc4;" glyph-name="Adieresis" horiz-adv-x="767" d="M658 -11Q627 -11 603 5T555 59Q533 93 516 145T489 257T472 368Q465 432 460 470T449 527T437 552T421 559Q397 559 371 524T317 422T268 261T229 51Q226 20 213 6T172 -8Q128 -8 105 25T82
136Q82 199 90 254T110 361T129 462T139 564Q139 582 150 593T183 604Q203 604 224 594T263 558L204 538Q244 617 302 664T427 711Q497 711 536 676T597 564T632 365Q639 293 653 242T683 155T709 93T719 45Q719 18 704 4T658 -11ZM121 167Q72 167 50 186T28 236Q28
256 41 270T82 294Q188 325 325 344T632 364Q691 364 712 346T734 297Q734 259 703 235T620 211Q545 211 482 207T366 196T269 183T189 172T121 167ZM551 759Q509 759 480 790T451 868Q451 903 475 925T535 948Q567 948 589 931T625 888T638 837Q638 808 618 784T551
759ZM306 755Q276 755 252 770T213 808T198 858Q198 896 220 919T278 942Q313 942 337 925T374 881T387 830Q387 801 369 778T306 755Z" />
<glyph unicode="&#xc5;" glyph-name="Aring" horiz-adv-x="767" d="M658 -11Q627 -11 603 5T555 59Q533 93 516 145T489 257T472 368Q465 432 460 470T449 527T437 552T421 559Q397 559 371 524T317 422T268 261T229 51Q226 20 213 6T172 -8Q128 -8 105 25T82
136Q82 199 90 254T110 361T129 462T139 564Q139 582 150 593T183 604Q203 604 224 594T263 558L204 538Q244 617 302 664T427 711Q497 711 536 676T597 564T632 365Q639 293 653 242T683 155T709 93T719 45Q719 18 704 4T658 -11ZM121 167Q72 167 50 186T28 236Q28
256 41 270T82 294Q188 325 325 344T632 364Q691 364 712 346T734 297Q734 259 703 235T620 211Q545 211 482 207T366 196T269 183T189 172T121 167ZM424 626Q363 626 317 649T244 714T218 810Q218 842 232 873T272 929T328 970T390 985Q415 985 433 965T451 916Q451
898 442 883T412 857Q388 844 380 830T371 802Q371 784 384 773T418 762Q438 762 449 775T461 809Q461 824 451 834T423 845Q411 845 404 840T390 829T374 823Q334 823 319 836T304 880Q304 923 335 950T421 977Q481 977 523 957T587 899T610 810Q610 757 586 716T519
651T424 626Z" />
<glyph unicode="&#xc6;" glyph-name="AE" horiz-adv-x="1100" d="M172 -8Q151 -8 130 9T96 58T82 136Q82 195 92 247T115 349T139 445T149 539Q149 558 160 568T193 579Q213 579 231 568T274 533L202 517Q244 612 302 661T427 711Q480 711 515 691T572 629T607
522T632 363Q639 298 655 249T701 173T783 146Q829 146 864 151T925 164T971 177T1005 183Q1038 183 1049 168T1060 127Q1060 86 1029 56T936 10T784 -7Q702 -7 646 19T553 95T499 211T472 362Q466 428 461 467T450 526T437 552T421 559Q397 559 371 524T317 422T268
261T229 51Q226 20 213 6T172 -8ZM125 166Q99 166 75 175T37 201T22 242Q22 257 34 267T90 289Q149 305 221 321T373 354T530 384T680 409T809 426T903 432Q951 432 966 421T981 374Q981 331 954 309T887 284Q771 277 673 263T492 232T343 200T221 175T125 166ZM583
525Q527 525 498 549T468 608Q468 625 475 637T508 657Q560 672 616 682T727 699T828 708T910 711Q981 711 1020 683T1060 614Q1060 593 1051 579T1017 565Q939 565 870 559T744 545T646 531T583 525Z" />
<glyph unicode="&#xc7;" glyph-name="Ccedilla" horiz-adv-x="614" d="M335 -10Q241 -10 177 30T79 141T45 301Q45 382 75 455T157 586T276 677T418 711Q469 711 500 697T545 656T560 592Q560 561 551 534T522 490T474 473Q460 473 450 479T436 495T431 518Q431
528 428 534T417 544T392 548Q349 548 314 527T253 471T213 391T198 301Q198 222 237 180T343 137Q378 137 401 144T438 161T463 182T487 199T518 207Q546 207 558 191T571 147Q571 119 556 91T510 40T435 4T335 -10ZM270 -234Q226 -234 199 -215T171 -158Q171
-133 184 -117T228 -95Q267 -87 283 -74T300 -36Q300 -20 296 -12T287 2T278 12T273 29Q273 40 284 49T319 59Q378 59 412 18T447 -96Q447 -160 400 -197T270 -234Z" />
<glyph unicode="&#xc8;" glyph-name="Egrave" horiz-adv-x="664" d="M361 -7Q287 -7 233 16T142 80T87 176T69 293Q69 327 74 366T90 448T115 532Q127 571 153 592T214 614Q233 614 246 607T267 587T272 554Q266 528 254 488T233 397T223 292Q223 249 239 216T287
163T361 144Q403 144 435 149T492 162T533 175T565 181Q593 181 606 167T620 125Q620 85 590 55T501 9T361 -7ZM193 249Q170 244 157 253T139 280T134 320Q134 348 152 369T199 397Q225 403 255 408T319 417T393 425T479 430Q522 430 539 415T557 373Q557 332 531
310T465 285Q419 283 380 279T308 271T246 261T193 249ZM162 528Q111 528 84 551T57 607Q57 623 66 639T105 662Q170 679 244 689T385 705T499 711Q567 711 594 690T622 631Q622 603 606 584T555 565Q490 565 429 559T316 546T225 534T162 528ZM375 772Q347 772
317 786T263 823T223 873T207 928Q207 964 226 985T289 1007Q316 1007 335 994T366 947Q376 920 389 905T416 879T437 857T446 827Q446 802 429 787T375 772Z" />
<glyph unicode="&#xc9;" glyph-name="Eacute" horiz-adv-x="664" d="M361 -7Q287 -7 233 16T142 80T87 176T69 293Q69 327 74 366T90 448T115 532Q127 571 153 592T214 614Q233 614 246 607T267 587T272 554Q266 528 254 488T233 397T223 292Q223 249 239 216T287
163T361 144Q403 144 435 149T492 162T533 175T565 181Q593 181 606 167T620 125Q620 85 590 55T501 9T361 -7ZM193 249Q170 244 157 253T139 280T134 320Q134 348 152 369T199 397Q225 403 255 408T319 417T393 425T479 430Q522 430 539 415T557 373Q557 332 531
310T465 285Q419 283 380 279T308 271T246 261T193 249ZM162 528Q111 528 84 551T57 607Q57 623 66 639T105 662Q170 679 244 689T385 705T499 711Q567 711 594 690T622 631Q622 603 606 584T555 565Q490 565 429 559T316 546T225 534T162 528ZM370 764Q339 764
324 777T308 811Q308 827 316 840T341 869Q363 889 374 909T395 958Q407 992 426 1004T472 1016Q509 1016 528 997T548 938Q548 892 522 853T456 789T370 764Z" />
<glyph unicode="&#xca;" glyph-name="Ecircumflex" horiz-adv-x="664" d="M361 -7Q287 -7 233 16T142 80T87 176T69 293Q69 327 74 366T90 448T115 532Q127 571 153 592T214 614Q233 614 246 607T267 587T272 554Q266 528 254 488T233 397T223 292Q223 249 239
216T287 163T361 144Q403 144 435 149T492 162T533 175T565 181Q593 181 606 167T620 125Q620 85 590 55T501 9T361 -7ZM193 249Q170 244 157 253T139 280T134 320Q134 348 152 369T199 397Q225 403 255 408T319 417T393 425T479 430Q522 430 539 415T557 373Q557
332 531 310T465 285Q419 283 380 279T308 271T246 261T193 249ZM162 528Q111 528 84 551T57 607Q57 623 66 639T105 662Q170 679 244 689T385 705T499 711Q567 711 594 690T622 631Q622 603 606 584T555 565Q490 565 429 559T316 546T225 534T162 528ZM259 756Q240
756 223 766T194 790T183 820Q183 831 188 841T211 869T270 921Q300 943 318 956T354 974T396 980Q421 980 440 968T479 931Q501 902 521 886T556 858T580 836T589 806Q589 784 570 772T515 760Q491 760 467 769T415 803T350 873L412 872Q371 831 346 807T305 772T280
759T259 756Z" />
<glyph unicode="&#xcb;" glyph-name="Edieresis" horiz-adv-x="664" d="M361 -7Q287 -7 233 16T142 80T87 176T69 293Q69 327 74 366T90 448T115 532Q127 571 153 592T214 614Q233 614 246 607T267 587T272 554Q266 528 254 488T233 397T223 292Q223 249 239 216T287
163T361 144Q403 144 435 149T492 162T533 175T565 181Q593 181 606 167T620 125Q620 85 590 55T501 9T361 -7ZM193 249Q170 244 157 253T139 280T134 320Q134 348 152 369T199 397Q225 403 255 408T319 417T393 425T479 430Q522 430 539 415T557 373Q557 332 531
310T465 285Q419 283 380 279T308 271T246 261T193 249ZM162 528Q111 528 84 551T57 607Q57 623 66 639T105 662Q170 679 244 689T385 705T499 711Q567 711 594 690T622 631Q622 603 606 584T555 565Q490 565 429 559T316 546T225 534T162 528ZM514 759Q472 759
443 790T414 868Q414 903 438 925T498 948Q530 948 552 931T588 888T601 837Q601 808 581 784T514 759ZM269 755Q239 755 215 770T176 808T161 858Q161 896 183 919T241 942Q276 942 300 925T337 881T350 830Q350 801 332 778T269 755Z" />
<glyph unicode="&#xcc;" glyph-name="Igrave" horiz-adv-x="561" d="M121 538Q71 538 50 561T29 615Q29 644 48 662T103 685Q160 693 218 698T330 706T428 709Q484 709 508 695T532 645Q532 603 496 578T403 553Q354 553 316 552T249 548T197 543T156 540T121
538ZM296 104Q253 104 227 125T201 181Q201 245 205 307T212 425T216 528Q216 565 228 583T275 601Q313 601 341 576T369 515Q369 482 365 430T357 311T352 165Q352 104 296 104ZM160 -11Q90 -11 59 13T28 74Q28 98 42 113T86 131Q131 136 165 139T230 143T289
144T350 145T424 144Q469 144 492 136T524 114T533 81Q533 48 505 24T412 0Q354 0 305 -2T218 -8T160 -11ZM282 772Q254 772 224 786T170 823T130 873T114 928Q114 964 133 985T196 1007Q223 1007 242 994T273 947Q283 920 296 905T323 879T344 857T353 827Q353
802 336 787T282 772Z" />
<glyph unicode="&#xcd;" glyph-name="Iacute" horiz-adv-x="561" d="M121 538Q71 538 50 561T29 615Q29 644 48 662T103 685Q160 693 218 698T330 706T428 709Q484 709 508 695T532 645Q532 603 496 578T403 553Q354 553 316 552T249 548T197 543T156 540T121
538ZM296 104Q253 104 227 125T201 181Q201 245 205 307T212 425T216 528Q216 565 228 583T275 601Q313 601 341 576T369 515Q369 482 365 430T357 311T352 165Q352 104 296 104ZM160 -11Q90 -11 59 13T28 74Q28 98 42 113T86 131Q131 136 165 139T230 143T289
144T350 145T424 144Q469 144 492 136T524 114T533 81Q533 48 505 24T412 0Q354 0 305 -2T218 -8T160 -11ZM277 764Q246 764 231 777T215 811Q215 827 223 840T248 869Q270 889 281 909T302 958Q314 992 333 1004T379 1016Q416 1016 435 997T455 938Q455 892 429
853T363 789T277 764Z" />
<glyph unicode="&#xce;" glyph-name="Icircumflex" horiz-adv-x="561" d="M121 538Q71 538 50 561T29 615Q29 644 48 662T103 685Q160 693 218 698T330 706T428 709Q484 709 508 695T532 645Q532 603 496 578T403 553Q354 553 316 552T249 548T197 543T156 540T121
538ZM296 104Q253 104 227 125T201 181Q201 245 205 307T212 425T216 528Q216 565 228 583T275 601Q313 601 341 576T369 515Q369 482 365 430T357 311T352 165Q352 104 296 104ZM160 -11Q90 -11 59 13T28 74Q28 98 42 113T86 131Q131 136 165 139T230 143T289
144T350 145T424 144Q469 144 492 136T524 114T533 81Q533 48 505 24T412 0Q354 0 305 -2T218 -8T160 -11ZM166 756Q147 756 130 766T101 790T90 820Q90 831 95 841T118 869T177 921Q207 943 225 956T261 974T303 980Q328 980 347 968T386 931Q408 902 428 886T463
858T487 836T496 806Q496 784 477 772T422 760Q398 760 374 769T322 803T257 873L319 872Q278 831 253 807T212 772T187 759T166 756Z" />
<glyph unicode="&#xcf;" glyph-name="Idieresis" horiz-adv-x="561" d="M121 538Q71 538 50 561T29 615Q29 644 48 662T103 685Q160 693 218 698T330 706T428 709Q484 709 508 695T532 645Q532 603 496 578T403 553Q354 553 316 552T249 548T197 543T156 540T121
538ZM296 104Q253 104 227 125T201 181Q201 245 205 307T212 425T216 528Q216 565 228 583T275 601Q313 601 341 576T369 515Q369 482 365 430T357 311T352 165Q352 104 296 104ZM160 -11Q90 -11 59 13T28 74Q28 98 42 113T86 131Q131 136 165 139T230 143T289
144T350 145T424 144Q469 144 492 136T524 114T533 81Q533 48 505 24T412 0Q354 0 305 -2T218 -8T160 -11ZM421 759Q379 759 350 790T321 868Q321 903 345 925T405 948Q437 948 459 931T495 888T508 837Q508 808 488 784T421 759ZM176 755Q146 755 122 770T83 808T68
858Q68 896 90 919T148 942Q183 942 207 925T244 881T257 830Q257 801 239 778T176 755Z" />
<glyph unicode="&#xd0;" glyph-name="Eth" horiz-adv-x="726" d="M136 276Q89 276 63 302T37 358Q37 373 43 383T71 399Q127 414 175 417T275 421Q325 421 355 408T398 376T412 342Q412 322 399 310T361 297Q291 297 247 292T178 282T136 276ZM258 -10Q215 -10
186 16T142 89T127 195Q127 287 128 370T135 541Q137 573 153 586T210 599Q241 599 263 580T287 532Q289 485 288 432T284 324T282 214Q282 182 288 157T312 102L206 126Q288 138 351 166T456 234T520 322T542 420Q542 462 527 492T477 538T387 554Q340 554 306
548T247 534T200 519T159 513Q124 513 100 527T64 563T52 609Q52 626 61 642T93 665Q118 673 152 680T225 694T304 705T383 709Q484 709 555 672T662 571T699 427Q699 352 673 286T603 165T501 71T382 11T258 -10Z" />
<glyph unicode="&#xd1;" glyph-name="Ntilde" horiz-adv-x="792" d="M128 -16Q91 -16 75 2T59 45Q59 66 63 86T72 136T82 215T86 342Q86 385 84 431T78 520T73 594T70 638Q70 668 88 689T143 710Q187 710 224 689T294 630T355 546T409 448T459 347T507 253T554
179T602 135L519 96Q531 105 544 119T565 159T574 229Q574 289 570 343T564 448T563 547T578 646Q588 682 603 697T644 713Q681 713 699 695T722 651T723 605Q713 557 711 515T710 431T714 344T717 242Q717 167 708 109T668 18T578 -16Q540 -16 509 2T452 52T403
126T358 216T311 316T258 418T195 513L222 519Q228 479 231 450T235 395T236 342Q236 248 228 172T204 39Q197 13 179 -1T128 -16ZM246 769Q213 769 194 794T174 854Q174 883 186 909T227 953T301 970Q332 970 354 961T393 940T423 919T451 909Q467 909 476 914T493
928T506 944T521 957T544 963Q570 963 585 946T600 889Q600 837 564 804T469 770Q445 770 428 777T396 795T368 812T338 820Q319 820 309 813T292 795T275 777T246 769Z" />
<glyph unicode="&#xd2;" glyph-name="Ograve" horiz-adv-x="740" d="M354 -10Q287 -10 231 11T132 72T68 167T45 290Q45 349 63 401T109 494T169 564T229 608T276 624Q298 624 311 618T337 593Q358 565 349 542T316 502Q275 472 249 441T210 373T197 290Q197 242
216 208T272 155T354 136Q405 136 447 157T514 216T540 300Q540 346 527 391T492 474T440 535T378 558Q367 558 361 550T355 526Q355 504 344 493T314 482Q291 482 269 495T233 535T219 601Q219 630 236 655T284 695T361 711Q436 711 497 677T602 584T671 452T695
300Q695 234 669 178T595 79T487 14T354 -10ZM353 772Q325 772 295 786T241 823T201 873T185 928Q185 964 204 985T267 1007Q294 1007 313 994T344 947Q354 920 367 905T394 879T415 857T424 827Q424 802 407 787T353 772Z" />
<glyph unicode="&#xd3;" glyph-name="Oacute" horiz-adv-x="740" d="M354 -10Q287 -10 231 11T132 72T68 167T45 290Q45 349 63 401T109 494T169 564T229 608T276 624Q298 624 311 618T337 593Q358 565 349 542T316 502Q275 472 249 441T210 373T197 290Q197 242
216 208T272 155T354 136Q405 136 447 157T514 216T540 300Q540 346 527 391T492 474T440 535T378 558Q367 558 361 550T355 526Q355 504 344 493T314 482Q291 482 269 495T233 535T219 601Q219 630 236 655T284 695T361 711Q436 711 497 677T602 584T671 452T695
300Q695 234 669 178T595 79T487 14T354 -10ZM348 764Q317 764 302 777T286 811Q286 827 294 840T319 869Q341 889 352 909T373 958Q385 992 404 1004T450 1016Q487 1016 506 997T526 938Q526 892 500 853T434 789T348 764Z" />
<glyph unicode="&#xd4;" glyph-name="Ocircumflex" horiz-adv-x="740" d="M354 -10Q287 -10 231 11T132 72T68 167T45 290Q45 349 63 401T109 494T169 564T229 608T276 624Q298 624 311 618T337 593Q358 565 349 542T316 502Q275 472 249 441T210 373T197 290Q197
242 216 208T272 155T354 136Q405 136 447 157T514 216T540 300Q540 346 527 391T492 474T440 535T378 558Q367 558 361 550T355 526Q355 504 344 493T314 482Q291 482 269 495T233 535T219 601Q219 630 236 655T284 695T361 711Q436 711 497 677T602 584T671 452T695
300Q695 234 669 178T595 79T487 14T354 -10ZM237 756Q218 756 201 766T172 790T161 820Q161 831 166 841T189 869T248 921Q278 943 296 956T332 974T374 980Q399 980 418 968T457 931Q479 902 499 886T534 858T558 836T567 806Q567 784 548 772T493 760Q469 760
445 769T393 803T328 873L390 872Q349 831 324 807T283 772T258 759T237 756Z" />
<glyph unicode="&#xd5;" glyph-name="Otilde" horiz-adv-x="740" d="M354 -10Q287 -10 231 11T132 72T68 167T45 290Q45 349 63 401T109 494T169 564T229 608T276 624Q298 624 311 618T337 593Q358 565 349 542T316 502Q275 472 249 441T210 373T197 290Q197 242
216 208T272 155T354 136Q405 136 447 157T514 216T540 300Q540 346 527 391T492 474T440 535T378 558Q367 558 361 550T355 526Q355 504 344 493T314 482Q291 482 269 495T233 535T219 601Q219 630 236 655T284 695T361 711Q436 711 497 677T602 584T671 452T695
300Q695 234 669 178T595 79T487 14T354 -10ZM219 769Q186 769 167 794T147 854Q147 883 159 909T200 953T274 970Q305 970 327 961T366 940T396 919T424 909Q440 909 449 914T466 928T479 944T494 957T517 963Q543 963 558 946T573 889Q573 837 537 804T442 770Q418
770 401 777T369 795T341 812T311 820Q292 820 282 813T265 795T248 777T219 769Z" />
<glyph unicode="&#xd6;" glyph-name="Odieresis" horiz-adv-x="740" d="M354 -10Q287 -10 231 11T132 72T68 167T45 290Q45 349 63 401T109 494T169 564T229 608T276 624Q298 624 311 618T337 593Q358 565 349 542T316 502Q275 472 249 441T210 373T197 290Q197
242 216 208T272 155T354 136Q405 136 447 157T514 216T540 300Q540 346 527 391T492 474T440 535T378 558Q367 558 361 550T355 526Q355 504 344 493T314 482Q291 482 269 495T233 535T219 601Q219 630 236 655T284 695T361 711Q436 711 497 677T602 584T671 452T695
300Q695 234 669 178T595 79T487 14T354 -10ZM492 759Q450 759 421 790T392 868Q392 903 416 925T476 948Q508 948 530 931T566 888T579 837Q579 808 559 784T492 759ZM247 755Q217 755 193 770T154 808T139 858Q139 896 161 919T219 942Q254 942 278 925T315 881T328
830Q328 801 310 778T247 755Z" />
<glyph unicode="&#xd7;" glyph-name="multiply" horiz-adv-x="700" d="M177 76Q147 76 134 102T140 183Q153 217 180 259T246 345T333 433T438 514Q460 529 478 538T512 551T539 556Q570 556 584 537T599 483Q599 459 591 445T562 418Q502 383 448 339T346 243T263
134Q242 102 222 89T177 76ZM511 79Q495 79 474 90T425 139Q402 170 371 206T305 277T235 343T173 399Q148 419 134 437T119 483Q119 513 135 534T181 555Q200 555 218 547T266 514Q283 500 311 475T371 418T434 353T492 290T535 238Q566 195 574 172T582 135Q582
109 564 94T511 79Z" />
<glyph unicode="&#xd8;" glyph-name="Oslash" horiz-adv-x="758" d="M135 -88Q107 -88 87 -69T62 -21T74 36Q129 126 190 213T317 381T448 533T576 661Q602 686 623 696T666 706Q689 706 704 690T723 649T716 594T673 536Q578 452 499 364T348 177T207 -37Q177
-88 135 -88ZM363 -10Q298 -10 242 12T144 74T78 169T54 290Q54 352 73 404T122 498T184 568T242 612T280 627Q311 627 329 613T352 579T352 539T328 506Q295 480 272 456T234 407T212 353T204 290Q204 244 224 211T280 160T363 142Q415 142 458 162T528 219T554
300Q554 342 540 387T502 472T446 535T377 559Q354 559 342 554T319 544T289 539Q263 539 246 556T229 608Q229 650 266 680T372 711Q429 711 479 688T571 624T642 531T688 419T704 300Q704 237 677 181T603 82T494 15T363 -10Z" />
<glyph unicode="&#xd9;" glyph-name="Ugrave" horiz-adv-x="684" d="M362 -13Q254 -13 189 30T95 152T65 341Q65 382 67 420T70 487Q70 526 68 550T62 589T56 619T54 651Q54 685 72 700T125 715Q156 715 180 700T219 647T234 539Q234 510 232 474T227 401T225
333Q225 257 240 216T284 159T355 143Q415 143 444 179T474 305Q474 361 472 403T469 488T467 582Q467 640 490 676T562 712Q594 712 613 696T632 647Q632 631 629 614T624 575T622 518Q622 465 626 412T630 298Q630 206 602 136T514 27T362 -13ZM344 772Q316 772
286 786T232 823T192 873T176 928Q176 964 195 985T258 1007Q285 1007 304 994T335 947Q345 920 358 905T385 879T406 857T415 827Q415 802 398 787T344 772Z" />
<glyph unicode="&#xda;" glyph-name="Uacute" horiz-adv-x="684" d="M362 -13Q254 -13 189 30T95 152T65 341Q65 382 67 420T70 487Q70 526 68 550T62 589T56 619T54 651Q54 685 72 700T125 715Q156 715 180 700T219 647T234 539Q234 510 232 474T227 401T225
333Q225 257 240 216T284 159T355 143Q415 143 444 179T474 305Q474 361 472 403T469 488T467 582Q467 640 490 676T562 712Q594 712 613 696T632 647Q632 631 629 614T624 575T622 518Q622 465 626 412T630 298Q630 206 602 136T514 27T362 -13ZM339 764Q308 764
293 777T277 811Q277 827 285 840T310 869Q332 889 343 909T364 958Q376 992 395 1004T441 1016Q478 1016 497 997T517 938Q517 892 491 853T425 789T339 764Z" />
<glyph unicode="&#xdb;" glyph-name="Ucircumflex" horiz-adv-x="684" d="M362 -13Q254 -13 189 30T95 152T65 341Q65 382 67 420T70 487Q70 526 68 550T62 589T56 619T54 651Q54 685 72 700T125 715Q156 715 180 700T219 647T234 539Q234 510 232 474T227 401T225
333Q225 257 240 216T284 159T355 143Q415 143 444 179T474 305Q474 361 472 403T469 488T467 582Q467 640 490 676T562 712Q594 712 613 696T632 647Q632 631 629 614T624 575T622 518Q622 465 626 412T630 298Q630 206 602 136T514 27T362 -13ZM228 756Q209 756
192 766T163 790T152 820Q152 831 157 841T180 869T239 921Q269 943 287 956T323 974T365 980Q390 980 409 968T448 931Q470 902 490 886T525 858T549 836T558 806Q558 784 539 772T484 760Q460 760 436 769T384 803T319 873L381 872Q340 831 315 807T274 772T249
759T228 756Z" />
<glyph unicode="&#xdc;" glyph-name="Udieresis" horiz-adv-x="684" d="M362 -13Q254 -13 189 30T95 152T65 341Q65 382 67 420T70 487Q70 526 68 550T62 589T56 619T54 651Q54 685 72 700T125 715Q156 715 180 700T219 647T234 539Q234 510 232 474T227 401T225
333Q225 257 240 216T284 159T355 143Q415 143 444 179T474 305Q474 361 472 403T469 488T467 582Q467 640 490 676T562 712Q594 712 613 696T632 647Q632 631 629 614T624 575T622 518Q622 465 626 412T630 298Q630 206 602 136T514 27T362 -13ZM483 759Q441 759
412 790T383 868Q383 903 407 925T467 948Q499 948 521 931T557 888T570 837Q570 808 550 784T483 759ZM238 755Q208 755 184 770T145 808T130 858Q130 896 152 919T210 942Q245 942 269 925T306 881T319 830Q319 801 301 778T238 755Z" />
<glyph unicode="&#xdd;" glyph-name="Yacute" horiz-adv-x="620" d="M223 -16Q195 -16 177 1T152 48T155 120Q168 184 197 259T268 412T365 560T481 682Q503 700 517 706T547 713Q566 713 579 704T600 678T607 637Q607 620 603 606T589 576T558 541Q505 493 462
435T384 313T327 183T290 51Q281 13 266 -1T223 -16ZM292 255Q274 255 261 263T238 287Q203 344 178 380T132 441T91 490T46 550Q31 571 24 591T16 638Q16 671 32 690T76 710Q97 710 115 702T151 665Q172 626 191 600T227 551T262 506T299 452T343 376Q351 359
351 339T346 299T325 268T292 255ZM287 764Q256 764 241 777T225 811Q225 827 233 840T258 869Q280 889 291 909T312 958Q324 992 343 1004T389 1016Q426 1016 445 997T465 938Q465 892 439 853T373 789T287 764Z" />
<glyph unicode="&#xde;" glyph-name="Thorn" horiz-adv-x="634" d="M293 127Q247 127 212 144T156 188T135 245Q135 272 151 286T190 300Q203 300 214 295T241 285T286 280Q329 280 365 297T425 341T448 396Q448 418 434 432T397 454T348 461Q318 461 297 453T260
424Q251 415 241 411T211 406Q189 406 173 422T153 463T167 519Q194 566 236 590T347 614Q417 614 474 589T566 514T600 396Q600 347 576 299T510 212T412 150T293 127ZM157 -12Q120 -12 99 7T70 70T61 187Q61 263 66 330T76 450T82 536Q82 567 80 587T75 622T73
653Q73 680 87 695T134 711Q168 711 188 696T218 658T231 607T235 556Q235 512 230 455T219 332T213 199Q213 169 214 148T218 111T222 80T224 49Q224 20 206 4T157 -12Z" />
<glyph unicode="&#xdf;" glyph-name="germandbls" horiz-adv-x="687" d="M417 -17Q347 -17 311 13T274 90Q274 114 289 131T333 149Q343 149 352 147T371 141T395 135T426 132Q458 132 480 140T515 161Q508 178 488 188T439 207T382 226T326 253T284 294T268 358Q268
388 283 408T321 444T369 472T416 499T448 532Q438 569 411 589T341 609Q261 609 223 560T185 413Q185 366 191 320T205 219T212 89Q212 30 197 10T150 -11Q116 -11 88 24T59 125Q59 179 56 218T48 291T39 360T35 443Q35 540 73 611T176 721T321 760Q409 760 470
731T564 652T596 537Q596 498 580 471T540 426T491 397T446 377T419 359Q425 349 445 341T493 325T550 304T605 274T647 229T663 163Q663 101 628 61T536 2T417 -17Z" />
<glyph unicode="&#xe0;" glyph-name="agrave" horiz-adv-x="683" d="M206 -10Q154 -10 115 9T54 64T32 147Q32 198 49 251T96 352T165 438T250 498T341 520Q378 520 404 496T430 428Q430 412 421 403T398 391Q334 381 285 342T208 248T180 134Q180 117 182 103T193
66L125 168Q149 150 167 144T211 137Q262 137 306 200T369 387Q372 411 390 424T431 438Q470 438 497 417T535 365Q552 319 566 280T601 204T657 128Q670 113 670 91T662 46T636 8T593 -7Q575 -7 564 -1T545 16Q523 42 506 67T475 121T448 185T422 268L475 272Q456
192 426 138T361 51T286 4T206 -10ZM326 581Q298 581 268 595T214 632T174 682T158 737Q158 773 177 794T240 816Q267 816 286 803T317 756Q327 729 340 714T367 688T388 666T397 636Q397 611 380 596T326 581Z" />
<glyph unicode="&#xe1;" glyph-name="aacute" horiz-adv-x="683" d="M206 -10Q154 -10 115 9T54 64T32 147Q32 198 49 251T96 352T165 438T250 498T341 520Q378 520 404 496T430 428Q430 412 421 403T398 391Q334 381 285 342T208 248T180 134Q180 117 182 103T193
66L125 168Q149 150 167 144T211 137Q262 137 306 200T369 387Q372 411 390 424T431 438Q470 438 497 417T535 365Q552 319 566 280T601 204T657 128Q670 113 670 91T662 46T636 8T593 -7Q575 -7 564 -1T545 16Q523 42 506 67T475 121T448 185T422 268L475 272Q456
192 426 138T361 51T286 4T206 -10ZM321 573Q290 573 275 586T259 620Q259 636 267 649T292 678Q314 698 325 718T346 767Q358 801 377 813T423 825Q460 825 479 806T499 747Q499 701 473 662T407 598T321 573Z" />
<glyph unicode="&#xe2;" glyph-name="acircumflex" horiz-adv-x="683" d="M206 -10Q154 -10 115 9T54 64T32 147Q32 198 49 251T96 352T165 438T250 498T341 520Q378 520 404 496T430 428Q430 412 421 403T398 391Q334 381 285 342T208 248T180 134Q180 117 182
103T193 66L125 168Q149 150 167 144T211 137Q262 137 306 200T369 387Q372 411 390 424T431 438Q470 438 497 417T535 365Q552 319 566 280T601 204T657 128Q670 113 670 91T662 46T636 8T593 -7Q575 -7 564 -1T545 16Q523 42 506 67T475 121T448 185T422 268L475
272Q456 192 426 138T361 51T286 4T206 -10ZM210 565Q191 565 174 575T145 599T134 629Q134 640 139 650T162 678T221 730Q251 752 269 765T305 783T347 789Q372 789 391 777T430 740Q452 711 472 695T507 667T531 645T540 615Q540 593 521 581T466 569Q442 569
418 578T366 612T301 682L363 681Q322 640 297 616T256 581T231 568T210 565Z" />
<glyph unicode="&#xe3;" glyph-name="atilde" horiz-adv-x="683" d="M206 -10Q154 -10 115 9T54 64T32 147Q32 198 49 251T96 352T165 438T250 498T341 520Q378 520 404 496T430 428Q430 412 421 403T398 391Q334 381 285 342T208 248T180 134Q180 117 182 103T193
66L125 168Q149 150 167 144T211 137Q262 137 306 200T369 387Q372 411 390 424T431 438Q470 438 497 417T535 365Q552 319 566 280T601 204T657 128Q670 113 670 91T662 46T636 8T593 -7Q575 -7 564 -1T545 16Q523 42 506 67T475 121T448 185T422 268L475 272Q456
192 426 138T361 51T286 4T206 -10ZM192 578Q159 578 140 603T120 663Q120 692 132 718T173 762T247 779Q278 779 300 770T339 749T369 728T397 718Q413 718 422 723T439 737T452 753T467 766T490 772Q516 772 531 755T546 698Q546 646 510 613T415 579Q391 579
374 586T342 604T314 621T284 629Q265 629 255 622T238 604T221 586T192 578Z" />
<glyph unicode="&#xe4;" glyph-name="adieresis" horiz-adv-x="683" d="M206 -10Q154 -10 115 9T54 64T32 147Q32 198 49 251T96 352T165 438T250 498T341 520Q378 520 404 496T430 428Q430 412 421 403T398 391Q334 381 285 342T208 248T180 134Q180 117 182
103T193 66L125 168Q149 150 167 144T211 137Q262 137 306 200T369 387Q372 411 390 424T431 438Q470 438 497 417T535 365Q552 319 566 280T601 204T657 128Q670 113 670 91T662 46T636 8T593 -7Q575 -7 564 -1T545 16Q523 42 506 67T475 121T448 185T422 268L475
272Q456 192 426 138T361 51T286 4T206 -10ZM465 568Q423 568 394 599T365 677Q365 712 389 734T449 757Q481 757 503 740T539 697T552 646Q552 617 532 593T465 568ZM220 564Q190 564 166 579T127 617T112 667Q112 705 134 728T192 751Q227 751 251 734T288 690T301
639Q301 610 283 587T220 564Z" />
<glyph unicode="&#xe5;" glyph-name="aring" horiz-adv-x="683" d="M206 -10Q154 -10 115 9T54 64T32 147Q32 198 49 251T96 352T165 438T250 498T341 520Q378 520 404 496T430 428Q430 412 421 403T398 391Q334 381 285 342T208 248T180 134Q180 117 182 103T193
66L125 168Q149 150 167 144T211 137Q262 137 306 200T369 387Q372 411 390 424T431 438Q470 438 497 417T535 365Q552 319 566 280T601 204T657 128Q670 113 670 91T662 46T636 8T593 -7Q575 -7 564 -1T545 16Q523 42 506 67T475 121T448 185T422 268L475 272Q456
192 426 138T361 51T286 4T206 -10ZM337 556Q277 556 231 579T158 644T131 740Q131 772 146 803T186 859T241 900T304 915Q329 915 346 895T364 846Q364 828 355 813T325 787Q302 774 294 760T285 732Q285 714 298 703T332 692Q352 692 363 705T375 739Q375 754
365 764T337 775Q324 775 317 770T303 759T287 753Q248 753 233 766T217 810Q217 853 248 880T335 907Q395 907 437 887T501 829T524 740Q524 687 499 646T433 581T337 556Z" />
<glyph unicode="&#xe6;" glyph-name="ae" horiz-adv-x="917" d="M587 -10Q516 -10 469 15T399 84T375 184Q375 242 395 301T453 410T544 489T664 519Q742 519 791 478T840 358Q840 298 805 260T712 204T584 185Q529 185 499 205T469 251Q469 265 475 272T498 279Q509
279 525 276T568 273Q604 273 634 282T681 306T699 341Q699 358 690 368T660 378Q616 378 582 351T527 281T507 190Q507 167 515 152T543 129T596 120Q655 120 694 130T760 153T806 177T845 188Q865 188 874 176T884 140Q884 114 864 87T805 39T712 4T587 -10ZM213
-10Q161 -10 122 7T60 59T37 143Q37 204 72 242T165 299T294 318Q349 318 379 300T409 258Q409 241 402 233T380 225Q369 225 353 228T310 231Q247 231 213 213T178 163Q178 145 187 136T219 126Q263 126 297 154T351 225T371 314Q371 337 364 352T340 376T295
384Q253 384 226 378T180 363T146 349T111 342Q86 342 72 358T57 401Q57 431 86 458T168 502T295 519Q364 519 410 494T480 426T503 325Q503 267 483 208T424 99T333 20T213 -10Z" />
<glyph unicode="&#xe7;" glyph-name="ccedilla" horiz-adv-x="530" d="M285 -9Q204 -9 148 20T62 101T33 220Q33 283 59 337T132 432T238 496T366 519Q397 519 420 509T456 478T469 428Q469 392 454 367T412 342Q398 342 392 349T380 362T355 368Q307 368 269
347T209 290T187 215Q187 194 196 177T226 151T286 141Q325 141 347 151T382 173T407 196T438 206Q462 206 473 191T485 145Q485 101 460 66T389 11T285 -9ZM237 -234Q193 -234 166 -215T138 -158Q138 -133 151 -117T195 -95Q234 -87 250 -74T267 -36Q267 -20 263
-12T254 2T245 12T240 29Q240 40 251 49T286 59Q345 59 379 18T414 -96Q414 -160 367 -197T237 -234Z" />
<glyph unicode="&#xe8;" glyph-name="egrave" horiz-adv-x="600" d="M291 -10Q226 -10 178 6T100 52T54 122T39 210Q39 264 59 318T118 418T209 491T329 519Q386 519 429 500T496 443T521 349Q521 307 501 276T446 224T364 195T265 185Q211 185 182 204T153 250Q153
264 159 271T182 279Q193 279 208 276T249 273Q282 273 312 282T361 306T380 341Q380 363 369 374T331 385Q300 385 274 369T229 325T199 262T188 190Q188 167 196 150T225 125T280 117Q338 117 377 127T442 152T488 177T527 188Q546 188 555 176T565 139Q565 113
545 86T489 38T403 4T291 -10ZM299 581Q271 581 241 595T187 632T147 682T131 737Q131 773 150 794T213 816Q240 816 259 803T290 756Q300 729 313 714T340 688T361 666T370 636Q370 611 353 596T299 581Z" />
<glyph unicode="&#xe9;" glyph-name="eacute" horiz-adv-x="600" d="M291 -10Q226 -10 178 6T100 52T54 122T39 210Q39 264 59 318T118 418T209 491T329 519Q386 519 429 500T496 443T521 349Q521 307 501 276T446 224T364 195T265 185Q211 185 182 204T153 250Q153
264 159 271T182 279Q193 279 208 276T249 273Q282 273 312 282T361 306T380 341Q380 363 369 374T331 385Q300 385 274 369T229 325T199 262T188 190Q188 167 196 150T225 125T280 117Q338 117 377 127T442 152T488 177T527 188Q546 188 555 176T565 139Q565 113
545 86T489 38T403 4T291 -10ZM294 573Q263 573 248 586T232 620Q232 636 240 649T265 678Q287 698 298 718T319 767Q331 801 350 813T396 825Q433 825 452 806T472 747Q472 701 446 662T380 598T294 573Z" />
<glyph unicode="&#xea;" glyph-name="ecircumflex" horiz-adv-x="600" d="M291 -10Q226 -10 178 6T100 52T54 122T39 210Q39 264 59 318T118 418T209 491T329 519Q386 519 429 500T496 443T521 349Q521 307 501 276T446 224T364 195T265 185Q211 185 182 204T153
250Q153 264 159 271T182 279Q193 279 208 276T249 273Q282 273 312 282T361 306T380 341Q380 363 369 374T331 385Q300 385 274 369T229 325T199 262T188 190Q188 167 196 150T225 125T280 117Q338 117 377 127T442 152T488 177T527 188Q546 188 555 176T565 139Q565
113 545 86T489 38T403 4T291 -10ZM183 565Q164 565 147 575T118 599T107 629Q107 640 112 650T135 678T194 730Q224 752 242 765T278 783T320 789Q345 789 364 777T403 740Q425 711 445 695T480 667T504 645T513 615Q513 593 494 581T439 569Q415 569 391 578T339
612T274 682L336 681Q295 640 270 616T229 581T204 568T183 565Z" />
<glyph unicode="&#xeb;" glyph-name="edieresis" horiz-adv-x="600" d="M291 -10Q226 -10 178 6T100 52T54 122T39 210Q39 264 59 318T118 418T209 491T329 519Q386 519 429 500T496 443T521 349Q521 307 501 276T446 224T364 195T265 185Q211 185 182 204T153
250Q153 264 159 271T182 279Q193 279 208 276T249 273Q282 273 312 282T361 306T380 341Q380 363 369 374T331 385Q300 385 274 369T229 325T199 262T188 190Q188 167 196 150T225 125T280 117Q338 117 377 127T442 152T488 177T527 188Q546 188 555 176T565 139Q565
113 545 86T489 38T403 4T291 -10ZM438 568Q396 568 367 599T338 677Q338 712 362 734T422 757Q454 757 476 740T512 697T525 646Q525 617 505 593T438 568ZM193 564Q163 564 139 579T100 617T85 667Q85 705 107 728T165 751Q200 751 224 734T261 690T274 639Q274
610 256 587T193 564Z" />
<glyph unicode="&#xec;" glyph-name="igrave" horiz-adv-x="306" d="M153 -10Q123 -10 105 3T79 38T70 89Q70 154 69 198T68 276T66 338T65 400Q65 431 75 457T107 498T165 513Q200 513 220 491T241 421Q241 401 241 366T239 289T236 204T233 125T232 67Q232 34
213 12T153 -10ZM150 581Q122 581 92 595T38 632T-2 682T-18 737Q-18 773 1 794T64 816Q91 816 110 803T141 756Q151 729 164 714T191 688T212 666T221 636Q221 611 204 596T150 581Z" />
<glyph unicode="&#xed;" glyph-name="iacute" horiz-adv-x="306" d="M153 -10Q123 -10 105 3T79 38T70 89Q70 154 69 198T68 276T66 338T65 400Q65 431 75 457T107 498T165 513Q200 513 220 491T241 421Q241 401 241 366T239 289T236 204T233 125T232 67Q232 34
213 12T153 -10ZM145 573Q114 573 99 586T83 620Q83 636 91 649T116 678Q138 698 149 718T170 767Q182 801 201 813T247 825Q284 825 303 806T323 747Q323 701 297 662T231 598T145 573Z" />
<glyph unicode="&#xee;" glyph-name="icircumflex" horiz-adv-x="306" d="M153 -10Q123 -10 105 3T79 38T70 89Q70 154 69 198T68 276T66 338T65 400Q65 431 75 457T107 498T165 513Q200 513 220 491T241 421Q241 401 241 366T239 289T236 204T233 125T232 67Q232
34 213 12T153 -10ZM34 565Q15 565 -2 575T-31 599T-42 629Q-42 640 -37 650T-14 678T45 730Q75 752 93 765T129 783T171 789Q196 789 215 777T254 740Q276 711 296 695T331 667T355 645T364 615Q364 593 345 581T290 569Q266 569 242 578T190 612T125 682L187
681Q146 640 121 616T80 581T55 568T34 565Z" />
<glyph unicode="&#xef;" glyph-name="idieresis" horiz-adv-x="306" d="M153 -10Q123 -10 105 3T79 38T70 89Q70 154 69 198T68 276T66 338T65 400Q65 431 75 457T107 498T165 513Q200 513 220 491T241 421Q241 401 241 366T239 289T236 204T233 125T232 67Q232
34 213 12T153 -10ZM289 568Q247 568 218 599T189 677Q189 712 213 734T273 757Q305 757 327 740T363 697T376 646Q376 617 356 593T289 568ZM44 564Q14 564 -10 579T-49 617T-64 667Q-64 705 -42 728T16 751Q51 751 75 734T112 690T125 639Q125 610 107 587T44
564Z" />
<glyph unicode="&#xf0;" glyph-name="eth" horiz-adv-x="625" d="M310 -10Q248 -10 198 7T114 55T61 129T43 220Q43 280 66 327T132 403T236 431Q295 431 337 411T401 362T423 311Q423 293 413 281T374 269Q364 269 356 273T337 284T311 294T273 299Q245 299 228
289T204 262T196 227Q196 199 210 178T249 146T307 134Q338 134 361 144T398 178T412 243Q412 292 382 353T299 479T179 606Q144 639 134 656T123 692Q123 724 142 741T192 758Q206 758 221 754T256 737T304 696Q391 614 450 535T539 381T570 239Q570 164 542 108T457
21T310 -10ZM163 487Q120 471 96 484T71 528Q71 559 91 582T165 624Q235 648 310 663T459 678Q503 678 528 659T554 608Q554 588 544 577T512 564Q437 561 380 552T272 527T163 487Z" />
<glyph unicode="&#xf1;" glyph-name="ntilde" horiz-adv-x="665" d="M568 -10Q526 -10 496 23T449 123T432 292Q432 316 431 332T426 360T415 379T396 395Q422 395 439 391T465 374T471 333Q454 355 442 363T416 371Q397 371 373 349T321 286T269 188T221 62Q208
21 192 6T148 -9Q99 -9 77 36T55 151Q55 200 59 236T69 304T79 369T84 443Q84 478 100 495T149 512Q182 512 200 491T219 423Q219 394 215 371T206 322T196 259T193 165L156 208Q190 312 236 380T333 483T434 518Q480 518 510 500T555 447T570 364Q570 294 574
246T588 167T615 120Q629 106 636 92T643 56Q643 30 624 10T568 -10ZM193 578Q160 578 141 603T121 663Q121 692 133 718T174 762T248 779Q279 779 301 770T340 749T370 728T398 718Q414 718 423 723T440 737T453 753T468 766T491 772Q517 772 532 755T547 698Q547
646 511 613T416 579Q392 579 375 586T343 604T315 621T285 629Q266 629 256 622T239 604T222 586T193 578Z" />
<glyph unicode="&#xf2;" glyph-name="ograve" horiz-adv-x="650" d="M340 -12Q253 -12 186 23T81 119T42 260Q42 311 64 358T121 442T200 500T284 522Q301 522 316 517T341 500T350 468Q350 432 336 405T276 363Q254 353 236 337T206 300T195 256Q195 199 233
164T335 129Q389 129 423 164T457 257Q457 307 428 337T352 368Q329 368 314 356T278 324Q264 309 253 300T232 287T205 282Q187 282 174 296T160 349Q160 377 175 406T216 459T274 497T338 512Q423 512 483 482T576 395T608 262Q608 184 573 122T477 24T340 -12ZM333
581Q305 581 275 595T221 632T181 682T165 737Q165 773 184 794T247 816Q274 816 293 803T324 756Q334 729 347 714T374 688T395 666T404 636Q404 611 387 596T333 581Z" />
<glyph unicode="&#xf3;" glyph-name="oacute" horiz-adv-x="650" d="M340 -12Q253 -12 186 23T81 119T42 260Q42 311 64 358T121 442T200 500T284 522Q301 522 316 517T341 500T350 468Q350 432 336 405T276 363Q254 353 236 337T206 300T195 256Q195 199 233
164T335 129Q389 129 423 164T457 257Q457 307 428 337T352 368Q329 368 314 356T278 324Q264 309 253 300T232 287T205 282Q187 282 174 296T160 349Q160 377 175 406T216 459T274 497T338 512Q423 512 483 482T576 395T608 262Q608 184 573 122T477 24T340 -12ZM328
573Q297 573 282 586T266 620Q266 636 274 649T299 678Q321 698 332 718T353 767Q365 801 384 813T430 825Q467 825 486 806T506 747Q506 701 480 662T414 598T328 573Z" />
<glyph unicode="&#xf4;" glyph-name="ocircumflex" horiz-adv-x="650" d="M340 -12Q253 -12 186 23T81 119T42 260Q42 311 64 358T121 442T200 500T284 522Q301 522 316 517T341 500T350 468Q350 432 336 405T276 363Q254 353 236 337T206 300T195 256Q195 199
233 164T335 129Q389 129 423 164T457 257Q457 307 428 337T352 368Q329 368 314 356T278 324Q264 309 253 300T232 287T205 282Q187 282 174 296T160 349Q160 377 175 406T216 459T274 497T338 512Q423 512 483 482T576 395T608 262Q608 184 573 122T477 24T340
-12ZM217 565Q198 565 181 575T152 599T141 629Q141 640 146 650T169 678T228 730Q258 752 276 765T312 783T354 789Q379 789 398 777T437 740Q459 711 479 695T514 667T538 645T547 615Q547 593 528 581T473 569Q449 569 425 578T373 612T308 682L370 681Q329
640 304 616T263 581T238 568T217 565Z" />
<glyph unicode="&#xf5;" glyph-name="otilde" horiz-adv-x="650" d="M340 -12Q253 -12 186 23T81 119T42 260Q42 311 64 358T121 442T200 500T284 522Q301 522 316 517T341 500T350 468Q350 432 336 405T276 363Q254 353 236 337T206 300T195 256Q195 199 233
164T335 129Q389 129 423 164T457 257Q457 307 428 337T352 368Q329 368 314 356T278 324Q264 309 253 300T232 287T205 282Q187 282 174 296T160 349Q160 377 175 406T216 459T274 497T338 512Q423 512 483 482T576 395T608 262Q608 184 573 122T477 24T340 -12ZM199
578Q166 578 147 603T127 663Q127 692 139 718T180 762T254 779Q285 779 307 770T346 749T376 728T404 718Q420 718 429 723T446 737T459 753T474 766T497 772Q523 772 538 755T553 698Q553 646 517 613T422 579Q398 579 381 586T349 604T321 621T291 629Q272 629
262 622T245 604T228 586T199 578Z" />
<glyph unicode="&#xf6;" glyph-name="odieresis" horiz-adv-x="650" d="M340 -12Q253 -12 186 23T81 119T42 260Q42 311 64 358T121 442T200 500T284 522Q301 522 316 517T341 500T350 468Q350 432 336 405T276 363Q254 353 236 337T206 300T195 256Q195 199 233
164T335 129Q389 129 423 164T457 257Q457 307 428 337T352 368Q329 368 314 356T278 324Q264 309 253 300T232 287T205 282Q187 282 174 296T160 349Q160 377 175 406T216 459T274 497T338 512Q423 512 483 482T576 395T608 262Q608 184 573 122T477 24T340 -12ZM472
568Q430 568 401 599T372 677Q372 712 396 734T456 757Q488 757 510 740T546 697T559 646Q559 617 539 593T472 568ZM227 564Q197 564 173 579T134 617T119 667Q119 705 141 728T199 751Q234 751 258 734T295 690T308 639Q308 610 290 587T227 564Z" />
<glyph unicode="&#xf7;" glyph-name="divide" horiz-adv-x="700" d="M132 235Q98 234 80 256T62 309Q62 336 76 357T140 388Q201 402 267 410T400 422T525 426Q576 426 605 404T634 344Q634 321 622 307T572 292Q469 292 399 284T281 265T199 246T132 235ZM398
18Q336 18 303 46T269 128Q269 167 292 190T354 214Q400 214 429 196T472 150T485 93Q485 61 464 40T398 18ZM371 473Q308 473 275 501T241 583Q241 622 264 645T326 669Q373 669 402 651T444 605T458 548Q458 516 436 495T371 473Z" />
<glyph unicode="&#xf8;" glyph-name="oslash" horiz-adv-x="662" d="M341 -12Q254 -12 187 23T81 119T43 260Q43 310 65 356T122 440T201 498T285 519Q302 519 317 514T341 496T351 464Q351 432 337 408T277 367Q254 358 235 341T205 302T193 256Q193 200 232
167T336 133Q390 133 424 167T459 257Q459 314 429 347T350 380Q325 380 307 373T271 348Q256 333 246 324T224 311T198 306Q180 306 167 320T153 373Q153 398 169 424T212 472T272 507T339 520Q424 520 484 489T577 399T609 262Q609 184 574 122T478 24T341 -12ZM299
179Q284 179 276 186T268 208Q268 228 275 249T299 296T342 354T406 428T494 525Q521 554 542 564T586 575Q624 575 640 552T647 491T596 412Q534 350 490 308T414 241T361 202T326 184T299 179ZM117 -113Q89 -113 69 -94T44 -46T55 11Q78 49 100 78T145 124T191
141Q223 141 244 125T265 67Q265 54 254 35T225 -7T188 -62Q174 -87 156 -100T117 -113Z" />
<glyph unicode="&#xf9;" glyph-name="ugrave" horiz-adv-x="636" d="M328 -10Q257 -10 206 17T121 90T70 192T53 305Q53 355 60 394T83 470Q90 490 104 501T145 512Q180 512 204 489T228 430Q228 415 225 401T217 372T209 339T205 299Q205 261 213 231T237 179T275
147T327 136Q362 136 385 164T420 240T432 342Q432 364 431 381T428 412T427 443Q427 475 439 493T487 511Q516 511 537 497T568 450T579 364Q579 239 547 157T459 32T328 -10ZM324 581Q296 581 266 595T212 632T172 682T156 737Q156 773 175 794T238 816Q265 816
284 803T315 756Q325 729 338 714T365 688T386 666T395 636Q395 611 378 596T324 581Z" />
<glyph unicode="&#xfa;" glyph-name="uacute" horiz-adv-x="636" d="M328 -10Q257 -10 206 17T121 90T70 192T53 305Q53 355 60 394T83 470Q90 490 104 501T145 512Q180 512 204 489T228 430Q228 415 225 401T217 372T209 339T205 299Q205 261 213 231T237 179T275
147T327 136Q362 136 385 164T420 240T432 342Q432 364 431 381T428 412T427 443Q427 475 439 493T487 511Q516 511 537 497T568 450T579 364Q579 239 547 157T459 32T328 -10ZM319 573Q288 573 273 586T257 620Q257 636 265 649T290 678Q312 698 323 718T344 767Q356
801 375 813T421 825Q458 825 477 806T497 747Q497 701 471 662T405 598T319 573Z" />
<glyph unicode="&#xfb;" glyph-name="ucircumflex" horiz-adv-x="636" d="M328 -10Q257 -10 206 17T121 90T70 192T53 305Q53 355 60 394T83 470Q90 490 104 501T145 512Q180 512 204 489T228 430Q228 415 225 401T217 372T209 339T205 299Q205 261 213 231T237
179T275 147T327 136Q362 136 385 164T420 240T432 342Q432 364 431 381T428 412T427 443Q427 475 439 493T487 511Q516 511 537 497T568 450T579 364Q579 239 547 157T459 32T328 -10ZM208 565Q189 565 172 575T143 599T132 629Q132 640 137 650T160 678T219 730Q249
752 267 765T303 783T345 789Q370 789 389 777T428 740Q450 711 470 695T505 667T529 645T538 615Q538 593 519 581T464 569Q440 569 416 578T364 612T299 682L361 681Q320 640 295 616T254 581T229 568T208 565Z" />
<glyph unicode="&#xfc;" glyph-name="udieresis" horiz-adv-x="636" d="M328 -10Q257 -10 206 17T121 90T70 192T53 305Q53 355 60 394T83 470Q90 490 104 501T145 512Q180 512 204 489T228 430Q228 415 225 401T217 372T209 339T205 299Q205 261 213 231T237
179T275 147T327 136Q362 136 385 164T420 240T432 342Q432 364 431 381T428 412T427 443Q427 475 439 493T487 511Q516 511 537 497T568 450T579 364Q579 239 547 157T459 32T328 -10ZM463 568Q421 568 392 599T363 677Q363 712 387 734T447 757Q479 757 501 740T537
697T550 646Q550 617 530 593T463 568ZM218 564Q188 564 164 579T125 617T110 667Q110 705 132 728T190 751Q225 751 249 734T286 690T299 639Q299 610 281 587T218 564Z" />
<glyph unicode="&#xfd;" glyph-name="yacute" horiz-adv-x="611" d="M320 -261Q234 -261 182 -244T105 -196T81 -126Q81 -98 95 -83T137 -68Q154 -68 167 -73T199 -87T244 -100T315 -106Q350 -106 370 -94T400 -60T410 -5Q410 32 409 61T406 120T404 181T402 253L449
218Q428 172 404 143T355 97T306 74T260 68Q193 68 145 96T70 186T44 343Q44 417 54 454T82 505T126 518Q159 518 178 507T207 476T216 432Q215 398 211 362T206 293T214 241T251 221Q288 221 316 253T361 340T386 458Q390 490 402 503T445 517Q465 517 482 510T512
488T531 452T534 400Q528 350 529 312T534 240T543 172T553 95T557 -5Q557 -70 539 -118T490 -198T415 -245T320 -261ZM282 573Q251 573 236 586T220 620Q220 636 228 649T253 678Q275 698 286 718T307 767Q319 801 338 813T384 825Q421 825 440 806T460 747Q460
701 434 662T368 598T282 573Z" />
<glyph unicode="&#xfe;" glyph-name="thorn" horiz-adv-x="631" d="M360 -10Q303 -10 259 10T190 62T164 130Q164 154 174 165T208 177Q222 177 234 171T260 158T292 144T335 138Q382 138 410 157T438 221Q438 264 417 296T360 347T280 366Q256 366 244 363T212
360Q194 360 178 371T152 402T141 443Q141 486 174 502T279 519Q344 519 401 498T503 435T572 334T598 198Q598 141 570 94T489 18T360 -10ZM171 -260Q153 -260 133 -249T96 -212T68 -139T57 -20Q57 99 63 194T74 367T79 511Q79 554 77 581T73 628T68 662T66 697Q66
726 81 743T124 760Q151 760 177 740T219 670T235 531Q235 476 231 409T221 251T216 35Q216 -18 219 -51T226 -106T234 -148T238 -197Q238 -233 220 -246T171 -260Z" />
<glyph unicode="&#xff;" glyph-name="ydieresis" horiz-adv-x="611" d="M320 -261Q234 -261 182 -244T105 -196T81 -126Q81 -98 95 -83T137 -68Q154 -68 167 -73T199 -87T244 -100T315 -106Q350 -106 370 -94T400 -60T410 -5Q410 32 409 61T406 120T404 181T402
253L449 218Q428 172 404 143T355 97T306 74T260 68Q193 68 145 96T70 186T44 343Q44 417 54 454T82 505T126 518Q159 518 178 507T207 476T216 432Q215 398 211 362T206 293T214 241T251 221Q288 221 316 253T361 340T386 458Q390 490 402 503T445 517Q465 517
482 510T512 488T531 452T534 400Q528 350 529 312T534 240T543 172T553 95T557 -5Q557 -70 539 -118T490 -198T415 -245T320 -261ZM426 568Q384 568 355 599T326 677Q326 712 350 734T410 757Q442 757 464 740T500 697T513 646Q513 617 493 593T426 568ZM181 564Q151
564 127 579T88 617T73 667Q73 705 95 728T153 751Q188 751 212 734T249 690T262 639Q262 610 244 587T181 564Z" />
<glyph unicode="&#x2013;" glyph-name="endash" horiz-adv-x="700" d="M188 183Q142 183 110 196T61 229T44 269Q44 285 50 297T79 313Q190 325 295 330T508 335Q562 335 594 319T641 282T655 242Q655 220 642 207T605 193Q507 193 438 192T321 188T242 185T188 183Z" />
<glyph unicode="&#x2014;" glyph-name="emdash" horiz-adv-x="1000" d="M166 183Q127 183 99 194T57 223T43 258Q43 278 56 294T101 313Q290 325 469 330T831 335Q878 335 905 321T944 289T956 256Q956 228 938 211T884 193Q715 193 595 192T394 188T259 185T166 183Z" />
<glyph unicode="&#x2018;" glyph-name="quoteleft" horiz-adv-x="259" d="M101 428Q79 428 62 445T36 492T26 555Q26 601 43 659T94 764Q114 792 133 802T178 812Q203 812 221 797T248 760T258 717Q258 704 254 693T238 666Q204 625 188 584T163 501Q157 465 142
447T101 428Z" />
<glyph unicode="&#x2019;" glyph-name="quoteright" horiz-adv-x="272" d="M93 420Q64 420 50 439T39 485Q44 516 55 550T77 631T94 739Q98 777 113 795T159 813Q186 813 211 802T252 769T268 720Q268 687 259 651T235 578T203 512T167 461Q148 439 131 430T93 420Z" />
<glyph unicode="&#x201a;" glyph-name="quotesinglbase" horiz-adv-x="287" d="M53 -225Q24 -225 10 -206T-1 -160Q4 -129 15 -95T37 -14T54 94Q58 132 73 150T119 168Q146 168 171 157T212 124T228 75Q228 42 219 6T195 -67T163 -133T127 -184Q108 -206 91 -215T53
-225Z" />
<glyph unicode="&#x201c;" glyph-name="quotedblleft" horiz-adv-x="543" d="M111 426Q89 426 72 444T46 492T36 555Q36 601 53 659T104 764Q124 792 142 802T185 812Q212 812 230 798T259 764T270 723Q270 709 266 696T248 665Q215 624 199 584T174 502Q166 464
152 445T111 426ZM387 373Q365 373 348 391T322 438T312 501Q312 537 323 582T358 661Q378 690 397 700T442 710Q469 710 489 698T519 666T530 628Q530 612 524 598T502 563Q478 533 467 506T449 449Q442 411 428 392T387 373Z" />
<glyph unicode="&#x201d;" glyph-name="quotedblright" horiz-adv-x="545" d="M93 420Q68 420 55 435T42 475Q42 501 50 528T71 585T93 651T105 730Q108 770 125 791T178 813Q218 813 244 790T271 727Q271 690 263 652T240 578T208 513T171 461Q152 441 134 431T93
420ZM378 379Q350 379 336 392T322 430Q322 451 329 471T345 516T363 569T376 635Q381 681 397 696T442 712Q483 712 507 690T531 626Q531 583 517 532T465 432Q445 406 425 393T378 379Z" />
<glyph unicode="&#x201e;" glyph-name="quotedblbase" horiz-adv-x="531" d="M61 -186Q36 -186 23 -171T10 -131Q10 -105 18 -78T39 -21T61 45T73 124Q76 164 93 185T146 207Q186 207 212 184T239 121Q239 84 231 46T208 -28T176 -93T139 -145Q120 -165 102 -175T61
-186ZM346 -227Q318 -227 304 -214T290 -176Q290 -155 297 -135T313 -90T331 -37T344 29Q349 75 365 90T410 106Q451 106 475 84T499 20Q499 -23 485 -74T433 -174Q413 -200 393 -213T346 -227Z" />
<glyph unicode="&#x2022;" glyph-name="bullet" horiz-adv-x="500" d="M251 111Q206 111 172 128T118 178T98 257Q98 293 111 321T142 367T180 384Q197 384 205 377Q217 389 235 397T279 405Q340 405 371 366T401 257Q400 188 359 150T251 111Z" />
<glyph unicode="&#x2039;" glyph-name="guilsinglleft" horiz-adv-x="376" d="M267 14Q253 14 238 18T204 31Q171 46 137 75T76 141T35 218Q26 241 28 261T42 297Q64 329 93 362T151 422T205 465Q225 478 240 484T270 490Q299 490 317 471T335 418Q335 401 328
387T301 361Q271 342 244 317T196 265T158 217L160 278Q170 249 194 221T248 171T308 138Q326 132 337 119T348 82Q348 47 324 31T267 14Z" />
<glyph unicode="&#x203a;" glyph-name="guilsinglright" horiz-adv-x="382" d="M108 14Q80 14 62 33T43 86Q43 104 51 117T76 142Q108 163 135 189T185 241T223 291L222 229Q211 259 187 287T131 336T68 368Q50 374 39 387T28 424Q28 459 52 476T108 493Q123 493
138 488T172 476Q208 461 243 432T305 366T347 289Q355 267 353 248T340 211Q323 187 302 162T258 113T213 70T173 39Q153 26 138 20T108 14Z" />
</font>
</defs>
</svg>
