<?xml version="1.0" standalone="no"?>
<!DOCTYPE svg PUBLIC "-//W3C//DTD SVG 1.1//EN" "http://www.w3.org/Graphics/SVG/1.1/DTD/svg11.dtd">
<svg xmlns="http://www.w3.org/2000/svg">
<defs >
<font id="ShantellSans" horiz-adv-x="950" ><font-face
    font-family="Shantell Sans Light"
    units-per-em="1000"
    panose-1="0 0 0 0 0 0 0 0 0 0"
    ascent="1020"
    descent="-320"
    alphabetic="0" />
<glyph unicode=" " glyph-name="space" horiz-adv-x="340" />
<glyph unicode="!" glyph-name="exclam" horiz-adv-x="265" d="M130 220Q118 220 112 230T106 256Q108 315 114 359T129 451Q141 510 151 548T171 615T186 675Q189 689 198 700T221 712Q236 712 245 697T250 653Q243 622 235 595T216 532T194 437Q186 398 183
374T179 332T176 300T170 265Q164 239 152 230T130 220ZM95 -10Q64 -10 46 8T34 61Q38 84 56 98T95 113Q135 113 148 91T155 41Q151 22 137 6T95 -10Z" />
<glyph unicode="&quot;" glyph-name="quotedbl" horiz-adv-x="419" d="M334 425Q318 425 308 436T308 471Q327 515 344 568T366 677Q368 693 379 705T407 717Q421 717 430 710T438 689Q434 626 416 564T373 451Q368 439 357 432T334 425ZM127 425Q117 425 109
431T98 449T105 480Q125 521 142 573T159 677Q159 688 164 697T179 711T200 717Q214 717 223 710T232 690Q233 650 223 607T197 524T163 451Q150 425 127 425Z" />
<glyph unicode="#" glyph-name="numbersign" horiz-adv-x="921" d="M185 -95Q169 -94 158 -83T147 -49Q147 3 167 73T218 222T284 383T351 540T403 677T424 778Q424 793 431 802T453 812Q472 812 482 803T492 770Q492 730 472 668T421 530T354 371T287 208T235
57T215 -67Q215 -78 206 -87T185 -95ZM96 171Q80 171 70 177T55 194T50 213Q51 227 60 233T83 240Q203 240 328 243T578 250T815 253Q827 253 836 247T845 225Q845 216 839 207T822 193T793 187Q712 187 622 185T439 179T260 174T96 171ZM523 -148Q507 -147 496
-136T485 -102Q485 -32 505 45T556 201T623 356T690 500T742 625T762 721Q762 738 769 748T791 759Q809 760 819 750T830 710Q830 672 810 617T759 494T692 350T625 194T573 35T553 -120Q553 -131 544 -140T523 -148ZM863 457Q692 457 537 458T220 466Q201 467
190 472T175 485T170 503Q170 517 179 524T205 532Q222 532 243 532T296 530T375 527T491 525T655 523T879 522Q914 522 915 498Q916 480 902 469T863 457Z" />
<glyph unicode="$" glyph-name="dollar" horiz-adv-x="700" d="M191 -9Q136 -9 101 -2T49 19T37 50Q39 62 48 69T75 77Q90 77 101 73T132 64T196 59Q281 59 348 70T462 104T537 161Q536 189 513 209T451 245T369 275T281 305T203 339T150 385T139 448Q148 491
180 527T259 592T363 643T475 680T582 702T669 710Q683 710 691 706T703 695T704 677Q701 663 689 654T649 641Q523 626 427 594T275 521T211 444Q207 425 228 409T286 379T369 351T459 319T539 279T593 226T604 157Q594 105 536 68T387 11T191 -9ZM259 -153Q244
-153 238 -146T231 -126Q230 -63 238 -4T261 109T294 216T331 317Q336 329 342 336T361 343Q376 343 386 330T387 288Q366 232 346 168T312 33T300 -113Q300 -129 292 -141T259 -153ZM370 281Q354 281 342 294T339 336Q362 399 386 468T426 615T440 777Q440 788
443 797T454 811T481 817Q495 817 502 810T510 790Q511 692 494 611T449 456T394 307Q389 295 385 288T370 281Z" />
<glyph unicode="%" glyph-name="percent" horiz-adv-x="906" d="M120 -21Q104 -21 98 -12T94 11T109 40Q186 130 264 214T426 377T600 535T795 691Q814 706 826 711T853 717Q867 717 873 709T879 689T871 664T849 639Q704 532 586 429T366 221T168 5Q155 -10 143
-15T120 -21ZM282 403Q220 403 183 425T134 486T130 573Q138 614 166 647T233 699T313 719Q329 719 334 712T337 689Q335 679 326 672T296 658Q248 642 227 618T199 561Q190 520 210 493T284 466Q335 466 364 488T401 551Q409 589 391 619T336 649Q319 649 308
656T300 679Q304 699 317 705T342 712Q392 712 423 688T467 625T470 539Q462 497 436 467T370 420T282 403ZM589 -11Q529 -11 491 12T439 74T434 164Q442 201 467 230T531 277T613 295Q629 295 634 288T637 265Q635 255 626 246T596 234Q551 227 530 203T501 145Q492
102 517 77T590 52Q641 52 675 80T720 156Q728 200 708 232T644 265Q623 265 615 274T608 297Q612 315 624 321T651 328Q702 328 736 301T784 232T788 144Q779 98 750 63T680 9T589 -11Z" />
<glyph unicode="&amp;" glyph-name="ampersand" horiz-adv-x="600" d="M505 -117Q488 -117 482 -109T478 -91Q480 -83 482 -78T488 -68T494 -59T498 -48Q501 -34 494 -17T461 27T389 99T266 213Q207 267 171 310T116 389T95 459T98 527Q108 577 140 618T231 685T374
711Q444 711 489 696T569 656Q586 644 589 635T591 616Q588 602 579 593T555 584Q542 584 529 593T497 615T448 636T371 646Q286 646 232 611T166 519Q160 489 164 462T185 406T234 343T315 264Q397 191 448 141T527 57T564 -2T568 -49Q566 -59 561 -71T547 -93T528
-110T505 -117ZM169 -22Q125 -22 91 5T40 77T34 174Q45 229 76 269T151 341Q165 350 178 349T198 337Q203 329 199 318T186 300Q147 270 128 240T100 166Q94 135 101 107T126 60T170 42Q226 42 285 79T415 196T579 397Q593 415 601 421T620 428Q637 428 643 415T647
385Q646 378 642 372T628 351Q549 247 484 176T365 61T262 -2T169 -22Z" />
<glyph unicode="&apos;" glyph-name="quotesingle" horiz-adv-x="259" d="M154 425Q144 425 136 431T125 449T132 480Q152 521 169 573T186 677Q186 688 191 697T206 711T227 717Q241 717 250 710T260 690Q261 650 251 607T225 524T191 451Q178 425 154 425Z" />
<glyph unicode="(" glyph-name="parenleft" horiz-adv-x="421" d="M264 -261Q252 -261 244 -259T219 -249Q157 -222 118 -164T67 -18T80 191Q105 312 156 419T276 619T420 790Q433 804 445 807T466 811Q478 811 485 806T494 793T494 776Q494 770 490 764T474 746Q404
673 338 584T222 393T148 176Q119 28 151 -62T269 -189Q287 -196 293 -206T297 -227Q295 -236 290 -243T278 -256T264 -261Z" />
<glyph unicode=")" glyph-name="parenright" horiz-adv-x="387" d="M-32 -260Q-43 -260 -49 -255T-59 -242T-60 -225Q-59 -217 -53 -209T-32 -191Q39 -142 98 -74T200 77T262 253Q286 373 277 468T236 631T160 735Q143 749 139 758T137 775Q140 789 152 799T176
810Q183 810 190 807T214 791Q250 761 280 710T328 587T348 429T330 239Q310 138 266 49T159 -113T20 -238Q-1 -253 -13 -256T-32 -260Z" />
<glyph unicode="*" glyph-name="asterisk" horiz-adv-x="480" d="M119 348Q103 348 94 359T88 383Q89 389 92 395T100 405Q134 438 183 468T284 528T382 587T452 648Q460 657 467 662T486 668Q502 668 512 658T521 634Q520 629 516 620T500 596Q481 573 438 546T341
488T237 425T151 358Q145 353 136 351T119 348ZM263 251Q248 251 241 259T234 283Q234 327 243 375T263 471T283 554Q291 598 291 625T286 669T278 698T277 724Q279 736 287 743T309 751Q329 751 343 726T360 657T353 556Q346 520 334 476T313 384T304 293Q304
271 290 261T263 251ZM433 375Q426 375 420 378T400 394Q368 422 332 447T258 496T186 540T126 578Q111 587 108 598T108 620Q110 631 117 639T136 647Q147 647 153 645T173 634Q208 612 256 583T358 518T461 437Q472 426 469 409Q466 393 455 384T433 375Z" />
<glyph unicode="+" glyph-name="plus" horiz-adv-x="700" d="M139 264Q115 258 106 267T99 291Q103 309 116 320T170 338Q235 349 306 358T447 374T577 380Q596 380 608 370T617 345Q614 331 605 325T576 317Q503 314 444 309T333 298T234 283T139 264ZM301 42Q289
42 284 55T283 102Q291 161 304 224T333 350T362 466T384 558Q386 572 395 583T419 595Q435 595 445 580T450 536Q441 490 427 431T397 310T367 189T344 87Q339 61 325 52T301 42Z" />
<glyph unicode="," glyph-name="comma" horiz-adv-x="234" d="M-38 -168Q-49 -168 -57 -161T-63 -144Q-61 -134 -53 -120T-29 -84Q-9 -57 5 -30T31 29T49 96Q54 122 65 134T93 147Q121 147 133 133T139 83Q133 53 116 14T76 -64T24 -136Q11 -152 -4 -160T-38 -168Z" />
<glyph unicode="-" glyph-name="hyphen" horiz-adv-x="471" d="M112 212Q92 212 79 216T60 228T55 242Q58 250 66 259T93 271Q161 279 221 287T343 295Q374 295 391 289T415 276T420 261Q418 248 403 240T363 232Q286 232 237 227T159 217T112 212Z" />
<glyph unicode="." glyph-name="period" horiz-adv-x="259" d="M94 -10Q63 -10 45 15T32 71Q37 92 54 105T90 119Q114 119 129 107T149 77T151 41Q148 22 134 6T94 -10Z" />
<glyph unicode="/" glyph-name="slash" horiz-adv-x="330" d="M-39 -148Q-60 -148 -67 -133T-65 -91Q-19 23 32 136T143 361T275 584T434 805Q453 829 466 839T493 850Q505 850 513 840T520 813T501 773Q377 619 289 472T134 181T11 -106Q2 -128 -11 -138T-39 -148Z" />
<glyph unicode="0" glyph-name="zero" horiz-adv-x="700" d="M286 -11Q218 -11 167 23T94 128T94 310Q108 381 141 441T214 547T292 617T353 643Q366 643 371 638T373 614Q371 601 363 591T338 570Q300 545 264 504T199 411T159 300Q145 231 153 176T194 88T289
55Q349 55 407 92T511 200T577 377Q593 454 587 515T551 611T470 646Q431 646 393 633T318 594T247 529Q240 521 229 515T199 508Q186 508 181 515T178 535Q183 555 209 584T276 643T369 691T473 711Q549 711 594 669T651 550T642 367Q623 271 585 200T496 82T392
12T286 -11Z" />
<glyph unicode="1" glyph-name="one" horiz-adv-x="405" d="M236 21Q234 8 225 -2T201 -12Q183 -12 175 -2T171 29Q191 127 212 235T260 451T321 651L347 631Q295 598 261 581T204 558T167 552Q148 552 138 562T130 592Q133 604 141 610T163 619Q198 626 232 643T316
691Q332 701 344 704T366 707Q378 707 385 702T394 687T394 663Q391 647 376 596T337 463T287 270T236 21Z" />
<glyph unicode="2" glyph-name="two" horiz-adv-x="700" d="M149 -20Q104 -20 84 -5T71 44Q73 57 81 68T102 85Q225 154 310 214T450 327T532 428T569 519Q581 579 555 613T460 648Q407 648 367 636T296 608T246 580T214 568Q200 568 193 576T188 596Q190 605
195 613T216 632Q268 666 336 689T473 713Q546 713 585 686T635 613T634 509Q625 462 596 409T508 296T355 170T120 30L113 56Q125 49 138 47T166 44Q206 44 260 49T377 60T510 66Q552 66 563 53T571 26Q568 13 557 7T521 0Q449 0 396 -3T300 -10T221 -17T149 -20Z"
/>
<glyph unicode="3" glyph-name="three" horiz-adv-x="700" d="M267 -12Q200 -12 158 4T96 42T80 86Q83 101 92 108T114 115Q126 115 134 106T154 85T192 64T267 55Q337 55 394 74T488 127T534 207Q543 252 517 277T439 312T320 323Q295 323 284 337T276 367Q278
378 287 387T313 401Q367 414 416 434T499 485T543 562Q550 599 538 617T502 641T453 647Q391 647 350 636T281 610T236 584T203 572Q191 572 185 575T178 585T178 600Q181 617 203 636T264 673T351 701T455 712Q516 712 553 692T604 636T608 552Q602 523 587 494T542
438T463 392T342 359L346 376Q421 377 473 364T555 326T596 267T599 191Q589 143 561 105T489 41T389 2T267 -12Z" />
<glyph unicode="4" glyph-name="four" horiz-adv-x="700" d="M445 -11Q420 -11 417 29T431 157Q443 217 467 278T516 404T556 543Q564 583 565 611T564 662L592 659Q491 617 404 549T249 395T133 214L116 252Q140 241 150 239T174 236Q223 236 270 244T368 263T474
282T596 290Q620 290 635 285T657 271T661 249Q659 237 646 230T608 222Q538 222 479 214T367 196T262 178T154 170Q128 170 111 179T87 204T83 242Q87 261 96 279T125 329Q176 410 241 480T375 603T504 685T603 715Q623 715 631 697T638 642T623 545Q613 492 597
444T562 350T526 254T497 148Q488 105 488 81T484 33Q480 12 470 1T445 -11Z" />
<glyph unicode="5" glyph-name="five" horiz-adv-x="609" d="M184 -12Q127 -12 92 0T43 32T35 78Q37 90 45 97T66 104Q81 104 86 97T99 79T124 61T184 53Q238 53 287 65T375 102T441 160T476 239Q482 272 462 293T402 328T310 354Q241 369 202 382T147 411T128
446T132 495Q137 521 150 556T189 641Q205 673 222 686T264 700Q314 700 351 702T420 708T483 713T552 716Q591 716 604 705T615 678Q612 664 599 658T565 651Q515 651 475 648T397 642T314 636T211 635L277 666Q238 606 220 562T196 489Q193 477 195 469T212 452T261
435T357 412Q420 399 459 381T518 339T542 289T541 231Q527 164 478 109T353 21T184 -12Z" />
<glyph unicode="6" glyph-name="six" horiz-adv-x="700" d="M310 -10Q240 -10 192 8T117 61T82 143T87 250Q102 324 151 396T281 539T472 680Q501 697 513 704T539 711Q546 711 551 707T558 697T559 683Q556 667 546 657T510 630Q410 566 334 502T212 372T151
239Q137 170 155 130T214 73T313 55Q363 55 410 68T492 111T536 193Q542 221 532 249T490 296T394 315Q342 315 307 307T249 287T208 268T175 259Q162 259 159 265T158 285Q162 303 194 325T283 363T411 380Q489 380 534 353T595 281T600 181Q590 126 554 83T456
15T310 -10Z" />
<glyph unicode="7" glyph-name="seven" horiz-adv-x="689" d="M548 -9Q537 -9 529 -3T519 17T520 49Q531 108 563 167T636 283T717 390T786 485T822 562Q830 600 807 621T703 643Q650 643 609 634T536 612T481 590T442 580Q432 580 425 584T414 595T412 612Q414
623 423 632T446 647Q488 666 531 680T619 702T715 710Q790 710 830 688T884 629T889 547Q881 505 851 460T781 365T701 265T629 159T587 49Q580 15 572 3T548 -9ZM513 281Q486 281 472 293T460 322Q461 333 469 339T488 346Q539 346 590 353T702 367T838 374Q868
374 883 362T895 329Q892 320 884 315T860 309Q788 309 737 305T647 295T576 285T513 281Z" />
<glyph unicode="8" glyph-name="eight" horiz-adv-x="700" d="M246 -12Q182 -12 148 8T102 60T98 125Q104 151 115 176T152 232T229 300T364 389Q420 423 461 454T533 521T585 602Q596 624 605 633T627 643Q642 643 647 631T650 601Q643 564 615 520T536 429T407
336Q342 299 298 269T227 214T187 166T169 121Q165 99 164 80T175 41L141 84Q160 68 189 61T259 53Q318 53 373 68T468 115T516 192Q522 223 513 247T471 295T371 343Q293 373 247 400T180 452T154 504T156 557Q173 634 255 672T499 711Q524 711 538 705T559 690T563
669Q561 659 550 652T527 646Q431 648 366 638T264 604T221 545Q218 530 222 516T244 485T301 449T407 403Q479 375 517 346T571 288T587 231T582 175Q572 123 532 81T421 14T246 -12Z" />
<glyph unicode="9" glyph-name="nine" horiz-adv-x="700" d="M516 -9Q496 -9 487 3T478 38Q481 113 505 218T556 459L579 456Q550 401 505 361T405 300T294 278Q231 278 193 303T141 371T138 468Q147 515 174 558T245 635T343 690T462 710Q532 710 567 689T594
629Q591 614 585 608T567 601Q554 601 548 607T534 623T508 638T449 645Q389 645 337 621T249 554T202 458Q190 401 215 372T297 343Q355 343 412 370T513 454T576 604Q582 630 592 643T614 657Q634 657 645 646T654 607T632 525Q616 446 604 378T585 280Q569 200
563 153T553 76T545 21Q542 7 535 -1T516 -9Z" />
<glyph unicode=":" glyph-name="colon" horiz-adv-x="270" d="M166 366Q138 366 123 387T114 443Q119 466 134 480T178 495Q201 495 214 483T232 454T233 417Q229 398 213 382T166 366ZM91 -10Q63 -10 48 12T37 61Q42 87 63 103T107 119Q128 119 140 107T157 77T158
41Q154 22 138 6T91 -10Z" />
<glyph unicode=";" glyph-name="semicolon" horiz-adv-x="270" d="M167 367Q139 367 124 389T114 438Q118 464 138 480T183 496Q214 496 227 470T235 418Q231 399 214 383T167 367ZM3 -168Q-8 -168 -16 -161T-23 -144Q-20 -134 -12 -120T11 -84Q31 -57 46 -30T71
29T89 96Q95 122 106 134T133 147Q161 147 174 133T180 83Q173 53 157 14T116 -64T65 -136Q51 -152 36 -160T3 -168Z" />
<glyph unicode="&lt;" glyph-name="less" horiz-adv-x="700" d="M519 74Q512 74 502 75T464 81Q408 91 353 109T251 151T170 199T122 247Q110 269 114 289Q116 297 120 306T140 325Q168 346 214 369T313 415T419 456T513 484Q542 492 552 493T572 494Q589 494
595 484T599 458Q598 452 594 445T581 433T557 423Q501 409 431 385T291 330T163 261L177 298Q202 263 257 231T387 175T541 137Q557 134 562 127T566 110Q563 93 548 84T519 74Z" />
<glyph unicode="=" glyph-name="equal" horiz-adv-x="700" d="M152 165Q109 152 95 161T84 188Q86 202 99 215T153 239Q247 262 343 274T529 287Q557 287 570 277T581 252Q579 238 570 231T541 224Q488 224 443 221T358 213T284 201T217 185T152 165ZM204 403Q160
395 145 403T134 433Q137 449 153 459T211 475Q275 486 342 491T468 497T570 499Q618 499 633 489T646 464Q643 451 633 444T605 436Q535 436 481 434T380 428T292 418T204 403Z" />
<glyph unicode="&gt;" glyph-name="greater" horiz-adv-x="700" d="M134 74Q118 74 112 85T109 112Q111 122 120 131T151 147Q208 162 278 186T418 241T545 309L531 272Q515 297 479 321T394 368T286 406T167 433Q151 436 145 444T140 462Q143 479 159 487T189
496Q197 496 206 495T244 489Q300 479 357 461T463 419T546 369T591 318Q597 304 597 296T596 280Q595 273 591 266T572 248Q544 227 498 204T397 157T289 115T195 86Q167 78 155 76T134 74Z" />
<glyph unicode="?" glyph-name="question" horiz-adv-x="462" d="M250 216Q227 216 209 233T182 276T178 331Q181 345 186 358T205 387T248 424T324 476Q359 498 377 514T404 545T415 577Q423 613 397 632T300 652Q257 652 227 644T175 627T137 618Q122 618 115
628T109 652Q112 661 118 669T133 682Q169 699 221 709T314 720Q384 720 423 698T475 642T481 567Q476 542 465 521T428 476T349 420Q307 395 286 379T258 350T247 325Q244 309 250 299T264 282T279 266T282 242Q280 231 271 224T250 216ZM199 -10Q169 -10 151
8T138 61Q143 84 161 98T199 113Q240 113 252 91T259 41Q256 22 241 6T199 -10Z" />
<glyph unicode="@" glyph-name="at" horiz-adv-x="848" d="M389 -102Q312 -102 247 -78T137 -8T75 106T74 261Q85 316 115 369T190 467T288 547T400 600T515 620Q590 620 642 599T726 541T774 460T792 369T786 280Q773 215 750 178T699 127T645 112Q610 112 592
124T566 154T554 189Q549 215 543 230T518 256H546Q531 242 516 217T481 166T435 121T371 103Q323 103 294 137T277 231Q285 270 310 303T370 359T445 396T522 409Q546 409 554 397T560 371Q558 362 553 356T539 346T516 341Q466 338 429 319T370 274T342 219Q339
208 339 193T345 148L315 191Q339 175 351 171T372 167Q394 167 410 180T447 228Q477 281 498 295T540 309Q561 309 579 297T608 243Q615 214 620 201T631 184T647 180Q666 180 680 197T705 240T720 290Q728 331 724 376T697 462T630 527T511 552Q451 552 391 527T277
458T188 362T140 251Q125 179 140 126T192 37T280 -16T392 -34Q459 -34 500 -24T564 0T602 23T629 34Q646 34 650 25T653 -1Q650 -13 643 -24T620 -46Q597 -60 567 -73T494 -94T389 -102Z" />
<glyph unicode="A" glyph-name="A" horiz-adv-x="713" d="M554 -9Q535 -9 529 11T516 77Q512 114 510 167T507 279T512 392Q518 458 522 506T525 584T514 630T485 645Q456 645 412 601T315 474T210 278T109 25Q104 10 96 1T75 -8Q60 -8 53 2T52 39Q63 95 87 153T140
273T195 396T239 522Q243 538 251 547T271 557Q283 557 292 550T306 528L276 521Q343 619 392 663T489 708Q542 708 562 675T583 574T573 397Q565 310 567 247T574 141T582 68T583 19Q580 6 572 -1T554 -9ZM60 194Q47 194 42 201T39 218Q40 228 47 234T73 248Q190
291 334 310T640 330Q667 330 675 323T680 300Q677 286 660 276T611 265Q483 265 398 258T259 241T171 219T112 201T60 194Z" />
<glyph unicode="B" glyph-name="B" horiz-adv-x="579" d="M208 -10Q170 -10 144 17T103 93T87 202T99 331Q107 371 116 405T136 475T163 551T199 645Q205 661 211 666T234 672Q243 672 249 662T256 636T248 597Q225 540 210 497T185 414T165 329Q154 275 152 227T156
140T177 79T212 57Q245 57 281 70T349 103T403 148T430 196Q433 211 415 229T361 263T280 289T181 299Q153 298 137 305T125 336Q129 353 148 361T217 379Q258 387 300 399T380 427T449 458T499 492T522 526Q527 554 508 575T452 612T371 636T279 644Q243 644 209
644T159 644Q147 644 140 652T135 670Q139 690 167 701T245 712Q324 712 391 700T507 663T577 601T590 515Q584 485 549 453T440 390T249 331L253 353Q334 345 384 327T461 284T495 234T498 183Q491 146 462 112T390 50T300 6T208 -10Z" />
<glyph unicode="C" glyph-name="C" horiz-adv-x="605" d="M294 -10Q196 -10 143 31T74 141T76 295Q92 376 130 451T222 584T343 677T485 711Q534 711 563 697T603 656T607 595Q604 579 596 564T576 540T549 530Q534 530 532 538T532 560T538 590Q541 604 539 617T524
638T480 646Q421 646 366 616T266 536T188 421T142 288Q120 176 161 116T293 55Q346 55 381 66T440 95T478 129T503 157T523 169Q535 169 540 160T542 136Q538 118 521 93T473 45T398 6T294 -10Z" />
<glyph unicode="D" glyph-name="D" horiz-adv-x="654" d="M155 -9Q124 -9 105 9T79 61T81 141Q104 254 133 361T197 578Q206 607 216 619T241 631Q252 631 257 617T258 583Q248 535 231 478T192 345T149 160Q140 114 141 86T156 38L117 51Q195 48 268 77T403 159T508
283T567 436Q580 497 568 544T518 618T409 645Q349 645 308 637T237 618T184 599T136 591Q126 591 119 594T109 603T107 618Q109 630 117 640T140 654Q168 665 201 674T270 692T343 704T418 709Q505 709 558 674T631 576T635 428Q620 354 585 288T501 167T394 74T275
13T155 -9Z" />
<glyph unicode="E" glyph-name="E" horiz-adv-x="613" d="M321 -7Q248 -7 196 16T114 82T76 181T80 303Q90 353 110 401T158 491T214 569Q239 599 263 622T311 646Q324 646 330 640T333 621T315 592Q275 547 241 499T182 399T146 295Q131 224 148 171T209 88T320
58Q375 58 410 65T466 83T501 101T523 109Q537 109 540 101T541 81Q538 63 512 43T438 8T321 -7ZM162 281Q139 276 128 280T113 293T111 312Q114 326 133 336T186 352Q223 358 266 364T350 374T427 382T484 386Q511 386 519 379T525 360Q520 338 496 330T444 320Q411
318 373 314T296 304T222 293T162 281ZM202 616Q182 616 173 624T167 645Q168 653 176 663T200 676Q266 687 344 694T499 704T634 708Q648 708 654 701T658 683Q654 666 642 655T605 643Q510 643 445 639T336 630T261 620T202 616Z" />
<glyph unicode="F" glyph-name="F" horiz-adv-x="559" d="M151 -10Q132 -10 122 6T101 63Q94 90 91 123T92 200T108 304Q116 345 130 390T162 481T198 572Q217 617 234 634T274 652Q288 652 288 639T280 604Q267 570 251 527T218 438T188 349T169 270Q160 218
160 181T163 119T173 76T182 47T183 22Q181 9 173 0T151 -10ZM202 303Q170 297 156 301T138 313T135 326Q138 339 144 347T162 360T197 368Q236 374 280 378T367 386T448 389Q478 389 488 383T495 362Q491 341 469 334T397 322Q348 319 315 317T255 311T202 303ZM159
614Q147 614 138 617T126 627T123 642Q126 654 134 662T158 675Q209 685 277 693T418 706T549 711Q569 711 581 706T599 692T602 671Q600 658 589 652T553 646Q447 646 367 638T234 622T159 614Z" />
<glyph unicode="G" glyph-name="G" horiz-adv-x="735" d="M586 -97Q567 -97 558 -84T541 -43Q536 -22 531 20T529 130T548 292L577 290Q510 170 452 105T340 15T235 -10Q190 -10 153 6T92 54T60 135T65 248Q79 321 117 389T209 515T325 616T453 684T577 708Q616
708 635 693T660 656T662 614Q657 590 648 574T629 551T606 543Q588 543 586 553T588 578T595 607T591 632T557 642Q510 642 457 619T351 556T252 463T174 353T130 237Q112 146 143 101T235 55Q286 55 331 80T421 159T519 302Q534 328 550 338T591 348Q607 348
613 335T614 297Q602 234 598 179T597 79T608 -4Q613 -23 615 -35T617 -56T616 -73Q614 -84 606 -90T586 -97ZM358 273Q340 273 334 281T329 302Q332 314 347 325T401 345Q475 362 545 372T680 382Q705 382 717 377T732 364T733 344Q731 334 719 325T685 315Q618
315 565 309T472 294T404 280T358 273Z" />
<glyph unicode="H" glyph-name="H" horiz-adv-x="736" d="M555 -10Q527 -10 518 19T516 119T550 311Q564 381 578 446T606 568T629 668Q632 687 642 695T664 704Q679 704 686 681T685 614Q672 551 657 482T627 348T603 233Q597 205 593 174T586 108T582 33Q582
12 573 1T555 -10ZM113 -12Q98 -12 88 7T88 75Q99 130 109 179T130 278T153 385T179 512T213 674Q216 692 224 700T248 709Q264 709 270 685T267 610Q250 526 233 444T199 286T169 141T143 16Q140 5 133 -3T113 -12ZM120 309Q100 309 90 313T77 325T75 342Q77 350
85 359T113 371Q209 383 298 390T475 401T653 405Q675 405 687 399T704 386T707 371Q704 358 691 350T659 342Q532 342 442 337T291 326T188 314T120 309Z" />
<glyph unicode="I" glyph-name="I" horiz-adv-x="547" d="M142 615Q128 615 120 622T114 643Q115 652 125 662T159 677Q205 685 272 691T416 701T564 705Q589 705 595 697T600 676Q596 655 570 647T497 639Q426 639 377 637T294 631T235 624T189 618T142 615ZM238
40Q218 40 211 61T210 117Q229 211 251 301T294 474T329 624Q333 644 340 654T362 665Q379 665 387 645T390 595Q380 546 360 468T316 288T268 69Q262 40 238 40ZM26 -11Q3 -11 -5 -3T-11 20Q-9 32 -1 40T24 49Q58 53 95 55T172 60T254 63T341 65T433 66Q451 66
460 63T472 54T474 40Q471 24 452 12T395 0Q311 0 239 -2T111 -8T26 -11Z" />
<glyph unicode="J" glyph-name="J" horiz-adv-x="584" d="M234 -12Q169 -12 128 13T70 83T64 181Q69 204 78 222T101 255T129 277T158 285Q172 285 177 277T180 258Q177 245 167 234T146 209T131 173Q119 119 145 86T242 53Q334 53 375 87T432 192Q440 231 442
284T444 397T438 514T427 619Q424 641 424 658T445 676Q470 676 481 664T497 622Q505 575 509 517T514 397T511 280T498 181Q478 79 409 34T234 -12ZM224 634Q210 634 196 637T169 646T151 663T147 687Q150 699 158 706T181 713Q194 713 202 710T220 704T252 700Q304
700 351 703T452 709T579 712Q590 712 600 709T615 699T618 676Q611 646 562 646Q497 646 435 643T318 637T224 634Z" />
<glyph unicode="K" glyph-name="K" horiz-adv-x="634" d="M528 -11Q491 -11 448 2T361 38T278 93T210 162T168 238T162 317Q170 360 200 404T280 492T392 579T529 662Q566 682 588 693T625 705Q639 705 645 699T648 680Q645 663 629 648T578 615Q498 573 435 531T328
449T258 376T227 316Q221 283 236 246T287 173T377 106T501 55Q545 42 556 33T564 9Q562 -1 554 -6T528 -11ZM85 -11Q66 -11 59 8T54 70T72 187Q88 267 108 337T146 462T169 552Q176 585 177 605T178 641T182 676Q186 694 195 702T216 710Q234 710 241 695T248
656T245 604T236 552Q228 509 211 454T175 339T146 225Q135 167 130 135T124 84T122 53T117 19Q114 5 106 -3T85 -11Z" />
<glyph unicode="L" glyph-name="L" horiz-adv-x="556" d="M250 -9Q177 -9 133 21T75 109T77 251Q93 330 119 397T171 527T210 658Q216 684 223 697T250 711Q265 711 272 704T280 682T276 642Q266 592 249 545T212 451T174 353T144 244Q127 159 150 108T251 56Q305
56 342 63T403 78T444 94T471 101Q484 101 489 94T493 75Q491 60 482 49T454 30Q406 10 355 1T250 -9Z" />
<glyph unicode="M" glyph-name="M" horiz-adv-x="936" d="M82 -12Q75 -12 68 -9T56 4T51 30T56 74Q71 150 84 203T109 298T129 379Q142 443 144 483T144 549T139 589T139 619Q142 633 150 640T173 648Q190 648 201 629T215 571T214 478L190 481Q222 559 253 609T312
684T362 709Q389 709 402 680T418 597T418 475T408 325Q405 279 405 233T412 146T428 69L397 54Q435 114 472 184T546 326T614 461T673 568Q703 617 726 646T769 689T809 703Q825 703 836 693T853 654T858 574T846 437Q837 367 834 301T833 172T850 49Q855 29 852
16T839 -3T818 -9Q802 -9 791 6T770 65Q764 95 762 137T759 229T763 329T774 429Q781 481 784 515T788 577T782 634L793 629Q753 580 716 514T639 368T556 204T460 32Q446 10 436 1T408 -9Q392 -9 383 0T364 29Q341 82 337 176T342 387Q349 470 349 531T335 640H357Q277
546 220 392T119 24Q115 5 105 -3T82 -12Z" />
<glyph unicode="N" glyph-name="N" horiz-adv-x="754" d="M69 -8Q56 -8 47 3T43 43Q47 63 57 84T82 136T111 217T142 342Q151 385 158 431T170 520T180 594T186 638Q192 668 208 689T249 710Q288 710 315 683T360 610T392 506T417 386T438 266T462 160T494 83T540
51L511 44Q532 73 545 99T566 158T584 237Q596 296 605 352T625 461T648 564T680 660Q690 684 701 694T728 705Q741 705 747 695T754 670T747 635Q728 587 716 540T694 446T677 349T657 242Q643 169 625 112T581 23T516 -10Q477 -10 451 18T408 93T380 200T358
323T333 447T299 557T245 637L257 641Q251 578 245 525T231 427T215 342Q196 248 172 171T114 29Q107 13 95 3T69 -8Z" />
<glyph unicode="O" glyph-name="O" horiz-adv-x="716" d="M312 -10Q237 -10 186 15T107 85T71 184T76 300Q90 369 119 424T184 520T255 589T318 631T355 645Q361 645 367 643T378 630Q387 611 373 596T336 567Q308 550 269 514T196 423T145 290Q133 230 145 177T201
90T325 56Q384 56 439 86T536 171T593 300Q605 365 604 426T584 537T530 616T437 646Q411 646 397 627T378 580Q374 558 361 547T334 535Q325 535 318 540T307 555T306 580Q313 615 332 644T382 692T453 711Q520 711 567 677T640 584T672 450T661 290Q648 224 616
169T538 74T434 12T312 -10Z" />
<glyph unicode="P" glyph-name="P" horiz-adv-x="570" d="M70 -10Q56 -10 50 4T48 47Q61 113 70 169T86 277T100 377T117 476Q131 545 165 597T253 679T382 708Q432 708 471 690T537 638T571 558T569 455Q560 406 535 367T472 300T385 258T279 243Q232 243 201
252T156 276T145 308Q147 319 153 325T168 331Q182 331 194 326T226 314T289 308Q343 308 388 327T463 382T502 465Q513 520 499 559T452 621T378 643Q299 643 250 601T184 476Q174 428 168 381T154 282T137 168T111 25Q108 9 97 0T70 -10Z" />
<glyph unicode="Q" glyph-name="Q" horiz-adv-x="716" d="M311 -9Q230 -9 180 18T105 93T77 200T86 323Q99 390 122 443T174 536T229 602T280 641T315 654Q327 654 332 650T340 639T340 626Q338 613 324 605T284 575Q253 549 227 506T181 412T151 313Q138 242
147 184T195 91T308 56Q366 56 414 77T498 135T559 219T593 321Q605 382 604 440T588 544T542 617T464 644Q424 644 373 611T278 519Q262 496 248 487T216 478Q212 478 210 481T207 488T207 499Q214 535 240 572T304 640T388 690T477 709Q533 709 574 679T639 595T669
470T658 317Q645 245 614 186T537 83T434 15T311 -9ZM551 -111Q537 -111 525 -104T494 -73Q473 -43 456 2T423 97T394 193T366 268Q357 286 357 301T363 325T384 335Q402 335 412 323T437 275Q445 257 455 221T480 138T516 41T569 -54Q581 -70 581 -83T572 -103T551
-111Z" />
<glyph unicode="R" glyph-name="R" horiz-adv-x="670" d="M54 -13Q31 -13 29 18T37 106Q48 162 74 232T146 395Q149 423 150 448T150 502T140 570Q134 602 140 616T169 631Q190 631 204 593T211 462L186 453Q243 545 302 601T421 684T534 710Q583 710 614 696T662
656T682 599T679 533Q672 496 650 459T581 383T459 305T265 227Q302 184 374 137T547 55Q578 44 586 35T593 14Q589 -2 579 -7T544 -12Q522 -12 486 1T406 36T321 86T245 146T193 208Q185 224 186 237T199 262T234 281Q337 314 406 348T519 416T583 483T611 547Q619
587 603 616T533 645Q482 645 434 622T343 557T261 460T192 340T137 206T100 68Q92 31 86 14T72 -8T54 -13Z" />
<glyph unicode="S" glyph-name="S" horiz-adv-x="549" d="M212 -9Q97 -9 48 13T4 64Q6 76 14 82T38 89Q52 89 64 85T95 74T143 64T218 59Q262 59 298 66T360 86T402 116Q404 147 381 170T320 213T242 253T167 297T114 353T104 430Q114 480 151 522T242 600T353
659T464 697T555 710Q569 710 578 706T590 695T591 677Q588 663 577 654T539 640Q430 620 351 585T227 507T172 418Q166 391 187 369T246 327T325 286T402 239T458 182T469 108Q463 78 440 56T381 19T302 -2T212 -9Z" />
<glyph unicode="T" glyph-name="T" horiz-adv-x="615" d="M272 -13Q254 -13 244 8T240 89Q242 119 248 166T266 277T298 426T348 616Q353 636 363 648T386 660Q409 660 410 635T396 544Q366 431 349 348T323 207T311 110T307 49T304 13Q301 -1 292 -7T272 -13ZM546
634Q489 634 444 634T360 635T280 637T192 639Q153 640 135 647T111 664T108 685Q109 694 119 700T151 706Q213 706 260 705T347 703T429 701T522 700Q568 700 592 703T629 708T658 711Q674 711 680 704T685 685Q681 668 660 657T609 640T546 634Z" />
<glyph unicode="U" glyph-name="U" horiz-adv-x="663" d="M298 -13Q210 -13 159 30T92 152T98 336Q106 377 119 419T139 489Q149 537 153 567T160 617T164 650T169 682Q173 697 180 704T199 712Q217 712 225 694T230 633T213 518Q207 492 198 461T180 399T165
338Q144 232 158 170T210 80T300 53Q391 53 444 111T523 295Q536 359 544 408T559 506T579 615Q588 661 606 686T651 712Q663 712 670 704T674 679Q670 661 664 643T648 595T628 511Q617 456 609 401T589 288Q571 191 532 124T435 22T298 -13Z" />
<glyph unicode="V" glyph-name="V" horiz-adv-x="665" d="M291 -11Q279 -11 270 -7T252 12T229 58Q209 107 200 166T187 289T183 411T177 517T160 592Q145 630 139 649T136 684Q138 694 144 700T161 706Q183 706 195 688T221 628Q236 583 240 530T246 417T251
298T264 178T299 65L275 58Q352 228 439 373T636 649Q659 676 672 689T693 705T710 709Q722 709 725 700T726 680Q724 669 719 659T707 638T690 615Q627 534 578 467T490 335T414 202T339 49Q322 11 311 0T291 -11Z" />
<glyph unicode="W" glyph-name="W" horiz-adv-x="948" d="M651 -12Q637 -12 625 -8T599 12T573 60Q561 90 559 133T559 229T566 335T571 440T568 531T546 596L566 593Q521 555 481 493T406 355T340 198T284 42Q276 19 260 6T225 -8Q212 -8 202 -4T183 13T167 49Q155
85 147 139T135 260T130 397T132 536T144 663Q146 682 156 697T184 712Q207 712 209 694T207 637Q201 588 199 518T200 368T211 209T235 62L221 64Q258 176 298 276T380 455T462 581Q488 611 514 631T566 652Q600 652 617 616T641 489Q644 441 638 383T628 265T627
151T654 55L645 58Q674 100 699 158T749 283T797 418T846 547T899 656Q919 689 932 700T961 711Q970 711 976 707T983 692T979 667T961 628Q936 585 912 526T863 401T815 269T765 145T713 42Q694 11 680 0T651 -12Z" />
<glyph unicode="X" glyph-name="X" horiz-adv-x="637" d="M13 -13Q3 -13 -3 -8T-10 9T-4 37T19 75Q46 109 87 157T180 262T286 378T398 493T506 598T601 679Q627 699 638 704T657 709Q665 709 671 702T676 683T665 654T631 618Q590 586 540 541T434 439T318 316T196
178T72 28Q51 2 38 -5T13 -13ZM507 -6Q498 -6 489 2T466 46Q449 97 416 153T342 266T264 381T198 494T160 598Q152 641 153 665T164 699T185 709Q200 709 206 698T217 649Q223 588 251 527T320 407T401 292T475 186T521 95Q535 52 535 31T526 2T507 -6Z" />
<glyph unicode="Y" glyph-name="Y" horiz-adv-x="598" d="M167 -14Q154 -14 147 -6T142 20T157 69Q187 142 230 222T327 383T446 540T582 680Q606 701 620 707T645 713Q652 713 657 710T666 700T668 683Q666 671 662 663T646 644T613 614Q552 560 496 496T390
359T299 209T226 48Q212 11 199 -1T167 -14ZM290 309Q277 309 269 317T256 338Q234 392 216 430T182 497T152 555T123 620Q113 649 111 660T110 684Q112 697 119 704T140 712Q154 712 162 704T177 679Q191 637 205 607T232 551T260 499T288 440T317 362Q319 355
319 346T318 329T309 315T290 309Z" />
<glyph unicode="Z" glyph-name="Z" horiz-adv-x="616" d="M136 -7Q90 -7 66 5T33 39T30 87Q35 111 51 138T101 199T188 277T322 379Q390 428 436 466T509 534T548 589T558 637L567 610Q557 620 542 627T504 638T442 642Q382 642 338 638T262 628T206 623Q193 623
184 626T171 637T168 657Q171 669 182 677T218 690Q283 699 344 704T464 710Q525 710 561 696T612 655T619 596Q613 567 600 542T559 488T479 417T345 316Q269 260 221 220T145 150T106 95T94 44L83 92Q91 76 105 68T146 60Q200 60 256 64T375 68Q439 68 477 64T531
48T544 19Q541 6 529 0T492 -7Q469 -7 451 -5T410 -2T345 0Q288 0 235 -3T136 -7Z" />
<glyph unicode="[" glyph-name="bracketleft" horiz-adv-x="492" d="M92 -264Q81 -264 75 -259T66 -245Q54 -208 54 -159T61 -54T81 56T105 159T126 242Q135 276 144 327T165 439T188 560T213 677T240 774Q245 788 258 796T286 804Q310 804 350 807T433 814T512
817Q541 817 558 812T571 786Q569 775 562 766T544 752T523 746Q513 746 506 747T489 748Q455 748 412 744T328 737T262 734L308 764Q294 723 281 669T256 553T234 433T214 323T196 238Q186 199 173 143T147 23T131 -102T135 -211L96 -196Q127 -186 172 -188T264
-191Q287 -191 312 -188T349 -185Q362 -185 366 -193T369 -213Q364 -238 338 -248T267 -259Q242 -259 216 -258T165 -256Q143 -256 125 -260T92 -264Z" />
<glyph unicode="\" glyph-name="backslash" horiz-adv-x="330" d="M230 -169Q219 -169 211 -161T198 -137Q170 -32 147 76T111 296T95 528T105 774Q111 846 152 846Q165 846 174 832T181 789Q162 611 171 458T209 166T272 -104Q278 -125 273 -139T257 -161T230 -169Z" />
<glyph unicode="]" glyph-name="bracketright" horiz-adv-x="453" d="M-20 -264Q-33 -264 -43 -259T-59 -244T-62 -219Q-60 -209 -53 -202T-28 -194Q-6 -194 29 -191T104 -183T179 -171T238 -156L209 -183Q245 -85 262 26T292 258T321 509T375 774L409 739Q373
732 334 734T255 742T181 747Q167 747 157 752T143 768T141 793Q142 803 149 810T175 817Q215 817 263 810T357 803Q373 803 388 805T418 808Q434 808 441 798T444 770Q407 634 389 504T359 250T330 16T277 -195Q274 -204 267 -211T249 -222Q225 -230 190 -237T115
-251T39 -260T-20 -264Z" />
<glyph unicode="^" glyph-name="asciicircum" horiz-adv-x="610" d="M561 449Q539 449 522 458T488 488T447 548T388 646L405 647Q330 581 285 542T216 484T179 460T155 454Q142 454 133 458T119 469T115 483Q117 491 122 500T144 525T194 567T284 634Q320 661
339 677T371 701T403 709Q425 709 439 699T469 657Q499 604 523 574T563 528T586 502T591 478Q588 466 581 458T561 449Z" />
<glyph unicode="_" glyph-name="underscore" horiz-adv-x="700" d="M37 -164Q17 -164 4 -160T-15 -148T-20 -134Q-17 -126 -9 -116T18 -105Q144 -97 260 -94T495 -91Q526 -91 543 -97T567 -110T572 -125Q570 -138 555 -146T515 -154Q402 -154 323 -155T189 -159T98
-162T37 -164Z" />
<glyph unicode="`" glyph-name="grave" horiz-adv-x="360" d="M330 477Q321 477 311 482T290 495Q262 517 235 552T185 631T149 715Q137 754 140 774T157 801T185 809Q209 809 222 792T245 736Q257 688 275 656T312 601T349 556Q371 529 371 512T360 486T330 477Z" />
<glyph unicode="a" glyph-name="a" horiz-adv-x="601" d="M150 -10Q107 -10 80 11T44 72T45 163Q54 210 77 257T135 347T213 423T304 475T403 494Q421 494 431 486T438 460Q436 449 428 441T402 431Q330 421 270 381T169 284T116 163Q109 131 109 105T121 36L87
93Q104 69 117 62T159 54Q227 54 296 142T425 397Q432 414 441 424T466 434Q486 434 495 416T501 368Q493 300 492 247T500 147T536 51Q541 42 541 32T535 13T523 -1T506 -7Q493 -7 486 -2T473 14Q458 41 447 71T431 142T428 238T444 372L473 371Q441 266 401 194T317
76T231 11T150 -10Z" />
<glyph unicode="b" glyph-name="b" horiz-adv-x="579" d="M140 -10Q120 -10 100 -7T65 2T41 17T36 41Q39 54 46 60T65 67Q77 67 95 61T131 55Q190 55 244 70T343 116T418 191T461 294Q467 328 465 358T446 408T390 427Q341 427 296 383T210 259T131 78Q123 61
115 55T99 49Q88 49 85 65T81 110Q82 165 86 220T97 323T111 404Q123 466 134 511T156 590T174 655T190 718Q193 734 202 746T226 759Q236 759 243 752T254 729T253 693Q246 660 238 631T220 570T199 494T176 388Q167 348 161 298T145 186L130 217Q168 319 215
379T309 466T394 493Q445 493 479 472T527 404T526 285Q512 215 474 161T383 68T266 10T140 -10Z" />
<glyph unicode="c" glyph-name="c" horiz-adv-x="498" d="M241 -9Q171 -9 125 19T61 99T57 220Q69 278 99 328T174 415T272 474T381 495Q405 495 423 489T449 471T454 444Q451 431 443 423T422 414Q412 414 407 417T395 424T373 427Q313 427 260 396T171 316T123
211Q114 163 125 129T165 75T234 56Q280 56 307 66T349 90T374 113T395 124Q412 124 417 118T420 94Q414 64 388 41T324 4T241 -9Z" />
<glyph unicode="d" glyph-name="d" horiz-adv-x="619" d="M213 -9Q168 -9 136 14T84 77T61 169T68 279Q82 350 117 398T203 470T313 495Q358 495 393 482T446 446T459 396Q458 387 451 382T435 376Q421 376 414 384T397 403T368 422T311 430Q239 430 194 390T134
279Q122 216 128 166T157 86T220 56Q274 56 331 131T441 352T535 707Q542 738 554 749T580 760Q597 760 602 741T599 687Q584 610 569 550T539 433T511 308Q498 243 498 199T503 127T519 81T533 50T536 21Q535 15 531 8T518 -3T497 -8Q475 -8 460 18T437 91T434
196T454 319L494 323Q452 208 408 135T317 26T213 -9Z" />
<glyph unicode="e" glyph-name="e" horiz-adv-x="552" d="M235 -10Q176 -10 137 7T77 55T52 128T57 220Q67 268 94 316T161 405T250 470T353 495Q405 495 437 480T482 433T486 354Q478 314 454 282T394 227T312 192T216 180Q149 180 128 194T110 227Q112 238 119
243T140 249Q151 249 167 245T216 241Q271 241 314 256T385 299T420 363Q427 396 413 412T354 429Q313 429 275 411T205 360T151 287T120 201Q112 161 118 128T150 75T225 55Q276 55 313 69T376 102T420 135T450 149Q464 149 471 139T474 111Q470 93 448 73T392
33T317 2T235 -10Z" />
<glyph unicode="f" glyph-name="f" horiz-adv-x="349" d="M81 -13Q65 -13 55 2T50 46Q60 99 66 140T77 216T86 284T95 355T111 439Q126 517 158 576T235 677T330 739T435 760Q447 760 458 754T468 733Q465 722 455 713T427 700Q361 687 317 660T245 594T201 505T172
396Q164 360 160 323T150 242T138 147T117 29Q111 4 103 -4T81 -13ZM166 419Q156 419 150 424T146 440Q148 453 159 465T191 481Q224 487 258 490T332 494Q347 494 355 489T367 475T369 458Q366 447 356 441T327 434Q288 434 262 432T218 427T188 422T166 419Z"
/>
<glyph unicode="g" glyph-name="g" horiz-adv-x="599" d="M278 -260Q207 -260 161 -242T89 -195T55 -133T53 -71Q56 -50 71 -35T103 -19Q116 -19 121 -27T123 -51Q114 -94 132 -127T190 -178T283 -196Q346 -196 377 -158T423 -48Q435 12 437 61T437 155T432 241T435
328L469 313Q450 256 424 215T365 146T294 105T214 91Q157 91 119 111T66 170T63 267Q72 312 98 352T162 425T244 475T332 494Q381 494 407 480T441 443T444 397Q442 387 433 375T414 363Q399 363 394 373T384 396T369 420T330 430Q295 430 262 416T202 379T155
325T129 262Q118 210 139 182T217 154Q263 154 305 180T382 265T437 424Q440 444 449 453T478 463Q493 463 501 453T512 426T512 390Q504 325 504 273T506 172T505 65T486 -71Q467 -163 417 -211T278 -260Z" />
<glyph unicode="h" glyph-name="h" horiz-adv-x="613" d="M73 -10Q60 -10 51 0T40 34T46 95Q67 203 98 289T159 445T209 575Q218 603 223 629T234 679T247 723Q251 737 261 748T286 760Q301 760 307 740T309 679T281 570Q259 503 226 427T163 269T118 106L97 112Q180
257 241 340T350 459T440 494Q478 494 493 467T509 390T502 268Q494 200 493 159T493 95T503 53Q505 46 506 38T506 20Q504 8 493 -1T470 -10Q450 -10 438 21T422 102T427 210Q435 275 438 316T440 384T434 428Q408 429 359 381T249 244T127 28Q116 6 103 -2T73
-10Z" />
<glyph unicode="i" glyph-name="i" horiz-adv-x="276" d="M93 -11Q81 -11 74 -2T64 22T65 53Q81 137 92 195T112 296T127 376T142 456Q144 468 149 477T162 491T181 496Q199 496 209 483T216 445Q211 422 202 380T182 285T158 181T137 86T122 17Q120 4 113 -3T93
-11ZM215 588Q183 588 165 608T152 657Q157 680 177 696T221 712Q244 712 258 701T278 673T279 636Q276 620 261 604T215 588Z" />
<glyph unicode="j" glyph-name="j" horiz-adv-x="241" d="M-40 -260Q-74 -260 -95 -252T-126 -229T-133 -200Q-130 -186 -121 -179T-97 -172Q-88 -172 -81 -175T-67 -183T-52 -191T-32 -195Q-1 -195 23 -164T60 -72Q84 53 95 142T108 293T111 393T117 457Q121
478 133 487T156 496Q170 496 179 487T187 444Q184 355 176 269T156 96T124 -83Q105 -182 62 -221T-40 -260ZM190 588Q158 588 140 608T127 657Q132 680 152 696T196 712Q219 712 233 701T253 673T254 636Q251 620 236 604T190 588Z" />
<glyph unicode="k" glyph-name="k" horiz-adv-x="548" d="M422 -7Q393 -7 357 7T286 45T222 101T180 166T172 233Q178 263 206 298T274 368T359 432T441 478T502 495Q519 495 526 489T531 468Q528 452 516 442T481 424Q442 409 401 383T323 327T264 270T237 225Q234
208 250 179T304 120T404 68Q441 55 450 44T457 19Q455 7 446 0T422 -7ZM74 -10Q62 -10 53 0T42 38T50 117Q59 158 80 225T129 375T187 541Q206 593 215 623T230 670T238 701T247 731Q253 745 262 752T286 759Q301 759 304 741T297 677T256 544Q230 470 211 418T179
327T155 258T138 197T122 129Q116 98 114 74T106 25Q103 7 95 -1T74 -10Z" />
<glyph unicode="l" glyph-name="l" horiz-adv-x="304" d="M165 -11Q142 -11 122 -4T87 22T66 77T64 172T86 317Q104 404 120 468T154 586T189 691Q204 730 215 745T240 760Q254 760 260 747T259 701Q254 674 244 642T219 564T187 455T150 297Q137 228 133 182T131
108T143 68T166 56Q187 56 199 60T219 69T238 74Q252 74 255 66T256 45Q253 30 240 18T207 -3T165 -11Z" />
<glyph unicode="m" glyph-name="m" horiz-adv-x="848" d="M71 -9Q58 -9 53 4T47 42T54 97Q62 135 72 172T92 248T109 324Q116 356 116 377T118 419Q120 432 128 437T147 443Q162 443 169 429T177 389T170 324L154 306Q185 375 212 416T266 475T319 494Q354 494
372 460T394 365T394 220Q389 150 392 119T402 69L376 73Q426 195 480 290T587 439T682 494Q738 494 752 436T753 254Q746 184 746 145T749 85T755 51T754 18Q751 2 740 -3T713 -9Q694 -9 685 15T675 90T682 220Q688 285 690 323T690 383T682 417T664 440H689Q633
401 590 341T509 203T427 31Q418 11 406 1T376 -9Q353 -9 341 16T325 88T325 198Q328 248 329 287T327 355T316 405T293 439L319 436Q283 414 253 370T196 268T149 150T112 34Q105 8 96 0T71 -9Z" />
<glyph unicode="n" glyph-name="n" horiz-adv-x="596" d="M478 -9Q448 -9 431 17T413 103T433 265Q444 321 448 354T452 406T445 436T429 459Q448 461 459 455T475 434T476 396Q469 416 461 422T439 429Q419 429 386 402T314 325T234 210T159 65Q140 20 128 6T97
-9Q63 -9 55 36T59 151Q70 202 82 240T106 312T130 382T151 465Q153 478 162 486T184 495Q197 495 208 481T211 429Q204 395 192 362T165 289T137 199T113 81L99 74Q160 212 223 306T345 448T452 496Q483 496 500 478T522 425T516 342Q500 262 489 204T479 107T499
50Q507 43 510 34T511 14Q509 4 501 -2T478 -9Z" />
<glyph unicode="o" glyph-name="o" horiz-adv-x="591" d="M260 -12Q182 -12 133 22T67 117T64 256Q76 314 102 356T161 425T225 466T278 479Q286 479 291 477T298 471T299 458Q295 442 287 430T256 405Q216 385 191 363T150 313T128 243Q110 154 146 101T259 48Q334
48 390 103T464 252Q481 337 455 385T363 434Q329 434 307 422T259 390Q240 374 230 362T213 342T192 334Q179 334 174 341T172 363Q176 383 194 406T241 449T301 481T367 494Q433 494 474 461T530 370T529 236Q515 162 477 106T383 19T260 -12Z" />
<glyph unicode="p" glyph-name="p" horiz-adv-x="553" d="M248 -4Q203 -4 169 6T117 33T101 67Q103 78 108 85T126 92Q135 92 141 88T158 77T190 67T252 62Q312 62 356 92T415 197Q426 249 418 291T385 365T322 412T234 429Q208 429 182 424T140 418Q131 418 125
422T118 433T117 447Q122 467 150 480T240 494Q305 494 355 472T438 408T482 310T480 184Q471 137 450 102T398 44T329 8T248 -4ZM13 -261Q3 -261 -2 -257T-9 -246T-9 -228Q-6 -216 1 -205T19 -176T40 -129T61 -50Q72 4 74 59T77 172T79 288T94 406Q98 424 103
435T117 451T137 456Q149 456 155 446T163 420T160 384Q148 324 146 270T144 164T143 61T130 -46Q120 -98 107 -138T78 -206T46 -247T13 -261Z" />
<glyph unicode="q" glyph-name="q" horiz-adv-x="573" d="M365 -260Q356 -260 349 -256T340 -241T341 -214Q353 -153 360 -112T372 -40T382 20T394 85T414 175L430 155Q397 103 353 66T262 10T170 -10Q118 -10 87 13T47 79T48 178Q59 234 91 289T168 392T267 467T375
495Q419 495 448 476T491 430T499 376Q497 365 487 356T465 347Q455 347 448 353T436 370Q421 402 407 415T362 429Q326 429 287 406T211 343T148 256T111 159Q101 108 119 82T183 55Q234 55 284 89T380 185T460 335Q466 351 477 359T505 368Q518 368 523 355T524
324Q519 300 511 279T489 228Q473 158 464 108T448 16T434 -73T413 -183L398 -181Q454 -148 485 -127T535 -96T569 -86Q580 -86 586 -93T590 -114Q587 -127 578 -139T546 -167Q514 -189 487 -206T436 -235T395 -253T365 -260Z" />
<glyph unicode="r" glyph-name="r" horiz-adv-x="453" d="M102 -12Q92 -12 85 -4T75 17T75 47Q88 111 99 177T117 299T122 389Q121 412 121 425T124 451Q128 468 138 479T164 490Q179 490 187 472T194 410T180 286T137 84L122 126Q148 233 185 305T264 419T348
479T427 497Q447 497 453 489T456 469Q454 459 445 449T418 436Q366 427 326 397T256 317T202 204T157 64Q149 34 142 18T126 -5T102 -12Z" />
<glyph unicode="s" glyph-name="s" horiz-adv-x="485" d="M171 -10Q107 -10 72 4T24 37T14 70Q16 82 25 90T46 99Q60 99 66 93T81 77T112 62T180 55Q236 55 277 72T339 133Q339 156 319 171T268 197T204 219T143 245T100 284T93 344Q99 375 125 403T191 452T275
486T364 497Q388 497 401 491T421 475T425 455Q423 444 414 437T390 430Q387 430 382 430T370 431T353 432Q289 432 236 410T148 338Q149 317 169 303T220 278T285 255T347 227T391 185T398 123Q391 91 370 66T318 24T250 -1T171 -10Z" />
<glyph unicode="t" glyph-name="t" horiz-adv-x="420" d="M222 -13Q149 -13 113 24T70 127T81 282Q92 337 107 381T138 465T167 544Q183 593 192 623T209 679Q213 690 220 698T243 706Q269 706 266 668T238 557Q224 513 212 481T188 421T168 361T149 286Q132 199
136 148T165 75T233 53Q258 53 271 58T293 67T316 72Q327 72 331 65T334 47Q330 25 300 6T222 -13ZM177 387Q154 377 144 384T136 405Q140 423 153 436T208 464Q233 473 261 480T318 491T370 495Q383 495 393 490T407 478T410 460Q407 446 398 440T369 432Q327
429 295 423T234 407T177 387Z" />
<glyph unicode="u" glyph-name="u" horiz-adv-x="559" d="M246 -10Q186 -10 147 15T88 84T65 181T73 291Q82 338 98 379T140 465Q145 476 154 481T174 486Q190 486 196 476T199 448Q196 432 190 419T174 388T156 346T138 281Q128 232 130 190T147 117T186 69T245
52Q289 52 328 84T397 183T449 354Q454 382 455 399T458 430T463 461Q466 474 472 481T492 489Q507 489 515 474T524 426T514 340Q490 218 448 141T354 27T246 -10Z" />
<glyph unicode="v" glyph-name="v" horiz-adv-x="538" d="M221 -10Q207 -10 198 -1T179 27Q167 52 159 94T144 188T128 286Q117 345 107 377T90 425T79 450T77 472Q78 480 86 486T109 492Q137 492 151 474T172 427T185 366Q194 319 201 264T219 158T247 67L215
64Q254 123 284 179T343 287T402 385T476 471Q489 482 498 488T521 494Q530 494 537 489T548 477T551 462Q549 453 544 446T532 431Q484 386 453 341T395 247T341 144T270 25Q257 6 247 -2T221 -10Z" />
<glyph unicode="w" glyph-name="w" horiz-adv-x="857" d="M171 -15Q150 -15 137 9T121 97Q120 148 120 209T116 330T90 435Q81 455 81 468T90 488T112 495Q130 495 143 483T166 432Q179 391 182 341T185 238T187 137T199 53L178 50Q197 73 218 113T262 202T307
297T349 377Q386 440 410 466T459 492Q484 492 500 475T528 422T551 327Q556 299 561 262T572 187T588 116T612 60L599 56Q623 92 640 135T672 223T702 312T737 397Q752 426 769 447T805 481T844 494Q853 494 858 492T865 484T867 470Q865 456 856 444T829 417Q813
404 798 375T770 309T744 233T719 161Q693 89 675 52T639 1T600 -13Q575 -13 561 3T527 66Q512 104 504 154T490 256T475 353T448 422L463 428Q439 404 416 363T368 271T317 164T260 58Q243 29 230 13T204 -9T171 -15Z" />
<glyph unicode="x" glyph-name="x" horiz-adv-x="504" d="M20 -13Q12 -13 5 -9T-6 4T-4 28Q2 47 24 80T82 156T164 246T263 340T375 428Q417 458 441 473T480 492T505 497Q517 497 525 490T531 470Q529 458 520 448T490 426Q406 382 329 316T184 173T60 16Q50
1 39 -6T20 -13ZM384 -11Q372 -11 364 -3T345 29Q322 77 294 130T234 235T172 331T111 405Q91 425 82 441T75 473Q76 479 78 484T85 493T99 496Q119 496 132 486T169 447Q186 428 208 397T254 327T303 249T347 174T381 112Q402 70 407 50T410 15Q408 3 402 -4T384
-11Z" />
<glyph unicode="y" glyph-name="y" horiz-adv-x="563" d="M182 -261Q130 -261 92 -252T36 -227T21 -191Q23 -179 31 -172T56 -164Q67 -164 76 -168T97 -179T132 -189T193 -194Q245 -194 279 -171T335 -104T368 -5Q373 22 375 49T381 109T390 189T408 299L432 271Q399
195 366 147T303 73T245 38T197 28Q143 28 111 61T73 163T88 343Q100 408 112 441T137 485T163 497Q173 497 179 491T185 469T175 421Q156 348 148 288T143 184T161 117T202 93Q246 93 288 140T367 268T436 452Q445 480 452 488T474 496Q482 496 489 492T500 477T503
448T493 400Q478 349 471 309T460 233T455 159T448 78T432 -25Q419 -93 395 -138T338 -211T266 -249T182 -261Z" />
<glyph unicode="z" glyph-name="z" horiz-adv-x="603" d="M162 -10Q110 -10 83 5T48 44T44 92Q47 107 59 120T97 144Q214 191 300 237T434 330T486 419L493 372Q483 394 467 406T427 424T368 430Q311 430 267 422T191 405T138 396Q132 396 127 401T120 414T118
432Q121 445 127 451T149 462Q197 476 256 486T365 496Q422 496 458 486T515 460T540 423T542 380Q536 350 509 317T429 245T292 165T89 74L103 94Q110 69 129 63T185 56Q220 56 260 59T342 65T421 68Q461 68 477 58T491 30Q489 17 478 9T449 0Q411 0 362 -2T260
-7T162 -10Z" />
<glyph unicode="{" glyph-name="braceleft" horiz-adv-x="512" d="M374 -264Q352 -264 320 -249T257 -207T209 -143T201 -60Q207 -31 220 -12T247 27T266 74Q273 108 251 132T183 172T74 197Q60 199 55 210T52 237Q54 248 62 254T83 265Q132 279 179 301T258 350T297
406Q302 430 302 454T301 504T299 554T304 604Q312 646 338 679T400 736T471 776T535 799T577 807Q598 807 607 794T613 762Q612 752 602 747T571 736Q520 725 477 703T406 651T371 587Q367 564 367 543T370 499T372 453T366 400Q359 369 334 338T267 278T165 229L171
253Q226 240 261 220T314 177T336 126T335 70Q329 38 316 18T289 -22T268 -74Q264 -97 280 -121T329 -165T400 -198Q420 -205 425 -212T428 -230Q425 -245 410 -254T374 -264Z" />
<glyph unicode="|" glyph-name="bar" horiz-adv-x="273" d="M72 -160Q60 -160 53 -151T46 -123Q52 -34 63 39T88 180T116 321Q131 396 146 461T175 583T200 688T219 775Q222 789 231 800T254 812Q269 812 278 797T283 753Q272 698 256 634T221 490T181 307Q162
213 152 151T135 48T126 -19T121 -67T112 -115Q107 -141 95 -150T72 -160Z" />
<glyph unicode="}" glyph-name="braceright" horiz-adv-x="513" d="M-1 -262Q-21 -262 -34 -257T-52 -242T-55 -220Q-53 -207 -43 -200T-21 -192Q11 -192 46 -185T113 -164T167 -127T196 -76Q201 -52 198 -29T189 18T180 66T183 121Q190 157 219 189T296 248T410
294V268Q333 284 294 313T244 377T239 446Q247 483 262 508T292 555T313 605Q320 640 304 668T253 715T168 743Q145 748 134 756T128 785Q130 796 139 804T165 813Q212 813 254 796T329 749T376 680T382 597Q375 562 360 538T329 493T309 444Q302 412 324 388T391
347T500 321Q515 319 518 309T520 286Q518 276 512 267T492 253Q437 238 384 217T294 168T250 106Q245 82 249 62T259 19T267 -31T262 -97Q254 -137 227 -168T160 -220T79 -251T-1 -262Z" />
<glyph unicode="~" glyph-name="asciitilde" horiz-adv-x="700" d="M472 124Q428 124 400 144T354 195T320 256T284 307T232 328Q207 328 193 314T170 278T155 236T138 200T107 185Q95 185 87 191T77 209T77 236Q85 279 104 316T154 376T230 400Q273 400 301 385T348
347T379 298T404 248T431 210T472 195Q501 195 517 211T542 250T558 296T575 335T604 351Q621 351 630 341T634 302Q617 218 576 171T472 124Z" />
<glyph unicode="&#xa0;" glyph-name="uni00A0" horiz-adv-x="340" />
<glyph unicode="&#xa1;" glyph-name="exclamdown" horiz-adv-x="265" d="M46 -220Q31 -220 22 -205T18 -161Q23 -137 28 -117T41 -73T56 -20T73 55Q81 94 84 118T89 160T92 192T97 227Q102 253 114 262T137 272Q148 272 155 263T161 236Q160 178 154 133T138 41Q127
-17 116 -55T97 -123T81 -183Q79 -197 70 -208T46 -220ZM173 379Q133 379 120 401T112 451Q116 470 130 486T172 502Q203 502 221 484T233 431Q229 409 211 394T173 379Z" />
<glyph unicode="&#xa2;" glyph-name="cent" horiz-adv-x="555" d="M238 -9Q168 -9 121 19T56 99T50 217Q62 277 94 327T172 416T272 474T382 495Q424 495 453 485T495 457T504 416Q501 403 493 393T471 383Q457 383 453 389T442 405T420 420T368 427Q323 427 281
409T205 358T148 285T116 201Q107 156 120 124T164 74T241 56Q284 56 312 63T358 82T387 104T408 123T428 131Q456 131 450 99Q444 70 414 45T339 6T238 -9ZM92 -148Q72 -148 67 -136T71 -95Q104 -6 145 81T237 253H308Q254 163 213 75T138 -105Q129 -127 117 -137T92
-148ZM237 253Q284 336 340 418T463 585Q498 630 522 630Q532 630 538 621T542 597T522 559Q457 480 404 404T308 253H237Z" />
<glyph unicode="&#xa3;" glyph-name="sterling" horiz-adv-x="700" d="M412 -14Q370 -14 337 1T278 38T227 82T180 119T129 134Q102 134 89 125T72 101Q69 88 81 75T112 61Q142 61 174 85T232 146T265 222Q274 270 264 308T235 379T197 442T167 505T163 574Q170
612 197 641T272 688T392 706Q439 706 472 696T525 667T551 626T553 577Q546 543 528 521T489 498Q471 498 465 507T461 529Q464 544 473 554T487 587Q491 610 458 624T379 638Q345 638 314 632T260 609T233 565Q227 540 239 513T270 454T308 386T334 306T332 209Q324
167 301 129T246 60T177 12T107 -6Q72 -6 47 12T11 57T4 111Q12 148 45 173T133 198Q168 198 197 184T252 148T306 106T362 71T426 56Q458 56 479 67T514 93T541 119T567 131Q581 131 588 117T593 87Q589 68 564 44T499 3T412 -14ZM162 270Q147 270 136 281T129
311Q131 322 141 328T169 339Q202 346 249 352T348 364T448 372T533 375Q584 375 600 367T613 345Q610 329 592 316T547 303Q532 303 518 304T473 305Q424 305 374 300T280 288T204 276T162 270Z" />
<glyph unicode="&#xa4;" glyph-name="currency" horiz-adv-x="700" d="M336 146Q283 146 245 165T190 221T184 314Q193 361 216 396T269 457T325 494T370 507Q387 507 394 501T398 479Q397 471 390 463T368 446Q324 422 294 387T254 304Q246 264 265 238T338 211Q377
211 416 231T485 291T527 388Q536 431 522 460T455 489Q412 489 387 479T345 455T315 432T277 421Q263 421 255 428T249 448Q253 467 282 491T358 535T458 554Q519 554 553 532T597 470T597 378Q581 296 539 245T443 170T336 146ZM127 57Q119 57 113 61T106 74T110
98Q118 121 148 161T224 250L260 205Q235 176 212 146T167 86Q158 71 147 64T127 57ZM538 59Q526 59 518 67T499 99Q487 126 472 154T440 211L494 262Q508 239 519 219T539 182Q560 140 565 120T568 85Q564 59 538 59ZM291 446Q276 466 262 483T233 515Q213 535
204 551T197 583Q199 592 205 599T225 606Q245 606 258 596T295 557Q307 544 320 527T349 488L291 446ZM553 466L520 510Q526 515 532 519T545 528Q587 558 611 573T650 592T675 597Q687 597 692 590T694 570Q692 558 683 548T653 526Q629 513 604 498T553 466Z"
/>
<glyph unicode="&#xa5;" glyph-name="yen" horiz-adv-x="700" d="M310 -14Q291 -14 276 14T259 98T273 237Q284 292 310 348T381 462T494 577T656 693Q670 702 678 705T695 708Q715 708 723 698T729 673Q727 665 722 657T708 644Q590 573 515 502T398 363T343
227Q331 167 331 131T335 75T344 43T346 17Q343 2 333 -6T310 -14ZM103 89Q84 89 76 101T70 129Q72 140 81 148T111 159Q179 168 239 179T354 199T460 208Q519 208 547 204T582 192T588 171Q584 150 567 142T537 133Q518 133 500 135T446 138Q408 138 359 131T259
114T167 97T103 89ZM102 236Q84 236 76 247T70 274Q72 286 81 293T108 306Q166 325 232 338T366 360T493 368Q539 368 576 364T633 348T650 319Q648 308 637 296T608 284Q595 284 585 286T559 291T518 296T448 298Q386 298 329 289T225 267T146 246T102 236ZM374
380Q366 380 358 385T342 408Q325 442 300 470T247 524T196 576T161 633Q151 654 150 664T150 682Q153 696 163 705T185 715Q194 715 202 708T220 678Q235 644 259 616T311 560T365 501T411 432Q414 425 413 416T405 399T391 385T374 380Z" />
<glyph unicode="&#xa6;" glyph-name="brokenbar" horiz-adv-x="296" d="M78 -159Q58 -159 51 -145T50 -100Q55 -75 59 -54T70 -3T86 72Q94 111 97 135T101 177T105 209T111 244Q116 270 126 279T151 289Q163 289 169 280T175 253Q172 179 161 109T136 -20T114
-121Q111 -136 101 -147T78 -159ZM179 364Q165 364 159 374T152 400Q155 478 169 547T198 673T222 770Q225 789 235 800T260 811Q277 811 284 796T286 752Q281 728 274 707T259 659T241 586Q233 546 230 521T225 479T222 446T216 409Q210 383 200 374T179 364Z"
/>
<glyph unicode="&#xa7;" glyph-name="section" horiz-adv-x="561" d="M256 12L182 59Q260 60 319 80T411 136Q412 165 389 187T328 227T250 264T174 305T120 356T109 425Q119 478 155 522T243 601T352 660T465 697T564 710Q583 710 591 702T596 677Q593 663 582
654T544 641Q437 624 358 589T233 509T177 418Q171 393 193 372T252 333T332 295T410 254T467 203T480 137Q470 82 409 52T256 12ZM92 -259Q37 -259 6 -252T-37 -233T-46 -206Q-44 -194 -36 -188T-12 -181Q2 -181 12 -183T41 -188T98 -191Q151 -191 199 -184T287
-162T351 -129Q352 -98 329 -75T269 -33T192 6T117 49T64 102T54 175Q65 227 108 259T224 314L279 280Q202 258 166 232T122 168Q116 139 137 117T196 74T275 34T353 -10T409 -63T421 -133Q414 -167 382 -191T302 -230T199 -252T92 -259Z" />
<glyph unicode="&#xa8;" glyph-name="dieresis" horiz-adv-x="562" d="M468 588Q441 588 426 608T415 654Q420 677 439 694T483 712Q505 712 520 703T541 678T543 646Q540 630 521 609T468 588ZM235 578Q215 578 202 587T184 612T183 649Q188 672 206 690T248
708Q274 708 289 699T309 674T311 639Q306 615 287 597T235 578Z" />
<glyph unicode="&#xa9;" glyph-name="copyright" horiz-adv-x="929" d="M400 -39Q322 -39 260 -14T156 61T102 184T107 353Q120 417 149 469T218 560T298 625T374 665T432 678Q443 678 447 674T450 659Q447 644 433 631T383 599Q322 566 278 525T208 435T170 334Q157
272 165 216T203 117T283 49T403 24Q514 24 600 65T743 184T822 374Q841 467 823 535T745 640T578 676Q499 677 445 659T349 613T265 556Q255 549 246 545T228 541Q216 541 213 547T212 567Q216 588 245 617T324 674T438 720T579 739Q678 739 744 711T848 633T894
515T888 367Q867 261 819 185T705 59T561 -15T400 -39ZM444 134Q380 134 344 161T296 233T295 331Q304 378 331 419T398 493T486 543T586 562Q625 562 647 547T677 506T678 451Q675 437 669 427T652 411T628 406Q617 406 615 414T618 444Q622 467 614 483T564 499Q515
499 472 473T399 405T360 318Q348 260 375 229T458 198Q495 198 519 209T558 235T586 261T611 273Q624 273 630 266T634 247Q629 224 606 198T542 153T444 134Z" />
<glyph unicode="&#xaa;" glyph-name="ordfeminine" horiz-adv-x="547" d="M210 292Q170 292 145 310T111 362T112 441Q120 479 140 517T189 589T254 650T330 692T411 708Q428 708 437 699T443 671Q441 661 434 655T413 647Q355 639 306 606T223 527T179 429Q173
405 173 386T182 334L151 387Q165 368 176 362T211 356Q264 356 320 425T425 624Q431 639 440 647T463 656Q481 656 491 641T498 601Q493 549 493 507T500 429T530 353Q534 345 533 335T527 316T513 300T496 294Q484 294 478 298T467 312Q451 340 442 374T432 460T444
590H471Q434 481 389 416T297 321T210 292Z" />
<glyph unicode="&#xab;" glyph-name="guillemotleft" horiz-adv-x="618" d="M500 27Q493 27 488 28T468 35Q431 50 393 78T326 141T292 211Q289 235 291 249T309 280Q330 304 359 331T421 384T484 432T537 465Q553 474 560 476T571 478Q586 478 592 467T595 442Q594
431 587 421T563 402Q532 385 492 357T412 292T336 214L353 259Q359 224 384 190T446 129T522 91Q535 87 539 80T541 58Q538 41 525 34T500 27ZM219 20Q212 20 206 21T189 29Q163 45 131 74T74 138T42 211Q39 235 41 249T59 280Q84 309 122 341T198 402T263 445Q279
454 286 456T297 458Q312 458 318 447T321 422Q320 411 313 401T289 382Q261 367 226 342T154 284T86 214L100 257Q107 221 130 187T184 125T245 83Q254 79 258 71T259 47Q256 30 243 25T219 20Z" />
<glyph unicode="&#xac;" glyph-name="logicalnot" horiz-adv-x="700" d="M194 353Q151 345 136 353T124 383Q127 399 143 409T201 425Q266 436 332 441T458 447T560 449Q608 449 623 439T636 414Q633 401 623 394T595 386Q525 386 471 384T370 378T282 368T194
353ZM552 172Q541 172 536 185T534 232Q539 268 549 306T570 380T585 438Q587 452 597 463T620 475Q635 475 644 460T648 416Q643 389 634 352T616 279T601 217Q596 191 580 182T552 172Z" />
<glyph unicode="&#xad;" glyph-name="uni00AD" horiz-adv-x="471" d="M113 212Q93 212 80 216T61 228T56 242Q59 250 67 259T94 271Q162 279 222 287T344 295Q375 295 392 289T416 276T421 261Q419 248 404 240T364 232Q287 232 238 227T160 217T113 212Z" />
<glyph unicode="&#xae;" glyph-name="registered" horiz-adv-x="799" d="M367 167Q273 167 206 202T110 307T101 478Q114 542 142 593T208 681T283 744T353 781T406 793Q416 793 419 790T421 777Q419 764 406 753T363 725Q307 695 267 653T201 562T165 461Q153
399 170 347T236 263T366 231Q463 231 539 269T667 376T736 540Q751 615 737 672T673 761T532 793Q465 793 418 777T335 738T262 688Q252 682 244 679T229 675Q219 675 213 683T209 703Q213 722 238 748T307 799T407 840T532 857Q619 857 677 832T768 761T808 657T802
529Q783 436 741 368T639 256T510 189T367 167ZM287 302Q268 302 257 320T254 375Q259 402 273 436T312 513Q316 539 316 560T313 610Q311 629 318 640T343 651Q363 651 374 638T383 590L369 587Q397 630 428 658T492 701T559 715Q597 715 617 700T644 660T644
607Q635 559 584 518T425 442Q443 427 471 414T531 389Q553 383 560 376T567 359Q565 349 558 341T538 329T511 324Q498 324 474 333T423 357T373 391T340 427Q335 436 337 447T347 468T368 481Q441 501 486 525T552 572T578 614Q581 628 575 638T550 648Q524 648
491 628T423 569T360 473T317 341Q312 316 306 309T287 302Z" />
<glyph unicode="&#xaf;" glyph-name="overscore" horiz-adv-x="480" d="M190 631Q164 631 153 643T145 668Q146 676 154 685T182 697Q230 703 274 706T361 710T449 711Q472 711 485 705T502 692T506 677Q503 661 488 651T448 641Q367 641 317 639T237 634T190 631Z" />
<glyph unicode="&#xb0;" glyph-name="degree" horiz-adv-x="553" d="M299 290Q235 290 191 319T129 397T123 506Q133 552 157 587T211 647T269 684T313 697Q324 697 330 693T335 675Q332 659 324 648T293 625Q263 608 242 589T208 549T189 501Q175 433 204 392T299
351Q361 351 408 394T469 507Q483 571 458 608T376 645Q350 645 332 636T294 609Q271 590 262 578T236 566Q229 566 224 569T218 578T218 595Q222 613 237 632T275 668T324 695T376 706Q471 706 512 647T533 493Q520 433 486 387T403 316T299 290Z" />
<glyph unicode="&#xb1;" glyph-name="plusminus" horiz-adv-x="700" d="M133 65Q90 52 76 61T65 88Q67 102 80 115T134 139Q228 162 324 174T510 187Q538 187 551 177T562 152Q560 138 551 131T522 124Q469 124 424 121T339 113T265 101T198 85T133 65ZM149 314Q126
308 116 317T109 341Q113 359 126 370T180 388Q245 399 316 408T457 424T587 430Q606 430 618 420T627 395Q624 381 615 375T586 367Q513 364 454 359T343 348T244 333T149 314ZM335 212Q324 212 318 225T317 272Q323 316 335 364T359 456T378 528Q380 542 389
553T413 565Q430 565 440 550T445 506Q439 472 426 427T399 336T379 257Q374 231 360 222T335 212Z" />
<glyph unicode="&#xb2;" glyph-name="uni00B2" horiz-adv-x="440" d="M173 400Q146 400 135 413T128 451Q131 463 137 470T150 482Q216 519 261 549T336 606T381 656T401 702Q411 751 358 751Q322 751 294 739T247 715T215 703Q200 703 192 713T187 738Q189 748
194 754T212 769Q248 792 286 805T360 818Q431 818 454 783T466 692Q460 661 437 626T359 548T209 454L197 474Q206 470 215 469T233 468Q262 468 305 473T398 478Q431 478 441 467T449 439Q446 427 436 419T406 411Q316 411 263 406T173 400Z" />
<glyph unicode="&#xb3;" glyph-name="uni00B3" horiz-adv-x="440" d="M270 434Q230 434 204 442T167 465T160 497Q162 506 170 513T191 521Q202 521 207 514T225 499T270 491Q299 491 325 499T370 523T392 558Q396 579 384 590T349 605T294 610Q273 610 263 616T256
638Q260 655 268 664T294 676Q326 682 354 700T389 751Q393 773 381 779T353 785Q318 785 298 775T265 755T237 745Q222 745 214 755T208 776Q212 792 234 807T288 831T356 841Q417 841 440 813T455 747Q451 724 436 702T390 663T303 637L310 658Q366 659 399 645T444
606T450 548Q443 512 419 487T356 448T270 434Z" />
<glyph unicode="&#xb4;" glyph-name="acute" horiz-adv-x="272" d="M186 567Q167 567 159 574T153 592Q156 606 167 615T202 640Q234 660 247 676T274 721Q286 748 296 757T319 766Q342 766 349 750T353 715Q345 676 317 642T254 588T186 567Z" />
<glyph unicode="&#xb5;" glyph-name="uni00B5" horiz-adv-x="700" d="M21 -261Q13 -261 7 -256T-1 -232T4 -179Q21 -93 40 -6T77 160Q70 193 70 230T82 323Q100 415 126 455T178 496Q196 496 204 481T206 437Q194 374 179 306T149 169Q162 121 190 88T254 55Q302
55 341 81T411 161T458 299Q466 343 470 369T478 417T488 466Q491 479 497 486T517 494Q538 494 549 475T554 423Q534 324 532 257T543 142T581 51Q586 42 586 32T582 13T569 -1T551 -7Q539 -7 532 -1T518 15Q501 41 489 70T471 139Q435 69 376 30T253 -10Q210
-10 178 8T122 57Q102 -29 86 -101T61 -216Q55 -242 43 -251T21 -261Z" />
<glyph unicode="&#xb6;" glyph-name="paragraph" horiz-adv-x="759" d="M298 -267Q287 -267 279 -260T269 -243Q261 -189 276 -125T320 19T380 195T437 413Q452 491 456 536T457 602T441 630T410 637Q372 637 330 616T249 561T183 487T149 408Q142 377 169 346T256
288T402 244Q411 242 416 236T423 222T422 204Q417 191 404 184T378 179Q268 200 199 236T100 318T80 413Q90 465 122 516T202 610T304 678T415 704Q455 704 480 692T518 648T527 558T506 409Q483 295 452 202T392 33T348 -105T340 -221Q341 -232 336 -242T321
-260T298 -267ZM498 -253Q477 -253 470 -242T466 -203Q472 -137 492 -74T540 61T596 218T647 416T681 672Q682 688 686 697T697 711T715 716Q734 716 743 705T753 676Q741 531 718 421T666 223T610 65T563 -70T537 -203Q535 -218 531 -229T519 -246T498 -253Z"
/>
<glyph unicode="&#xb7;" glyph-name="middot" horiz-adv-x="259" d="M135 200Q104 200 86 225T73 281Q78 302 95 315T131 329Q155 329 170 317T190 287T192 251Q189 232 175 216T135 200Z" />
<glyph unicode="&#xb8;" glyph-name="cedilla" horiz-adv-x="562" d="M136 -214Q102 -214 87 -204T76 -176Q79 -160 90 -153T130 -145Q200 -141 229 -122T265 -69Q269 -46 263 -34T248 -16T231 -3T226 13Q227 24 237 30T264 37Q303 37 323 5T334 -78Q322 -138
270 -176T136 -214Z" />
<glyph unicode="&#xb9;" glyph-name="uni00B9" horiz-adv-x="440" d="M297 436Q278 436 269 449T264 481Q276 545 298 614T344 743L357 731Q324 711 287 700T216 689Q196 689 188 699T183 725Q184 736 192 743T216 751Q249 753 283 764T352 796Q361 801 369 804T388
808Q408 808 417 793T418 758Q409 735 397 702T372 630T347 549T327 464Q324 453 316 445T297 436ZM209 392Q176 392 156 396T126 410T120 430Q122 444 134 449T172 455Q192 455 217 456T270 459T323 462T374 464Q403 464 427 456T447 427Q444 417 433 409T407
401Q379 401 343 399T272 395T209 392Z" />
<glyph unicode="&#xba;" glyph-name="ordmasculine" horiz-adv-x="538" d="M293 290Q232 290 190 318T130 396T124 509Q133 553 156 589T209 650T264 688T307 702Q318 702 324 698T329 680Q327 670 323 662T310 646T287 630Q243 604 220 573T188 501Q174 433 202
392T288 351Q350 351 394 389T451 494Q465 564 445 604T375 645Q349 645 331 636T293 609Q270 590 261 578T235 566Q222 566 217 573T214 598Q217 615 232 634T271 669T322 696T376 706Q433 706 468 680T517 604T516 484Q506 427 473 383T394 315T293 290Z" />
<glyph unicode="&#xbb;" glyph-name="guillemotright" horiz-adv-x="618" d="M50 20Q35 20 29 31T25 56Q27 67 33 78T55 97Q87 114 126 142T207 207T283 285L266 240Q260 276 235 309T173 369T96 408Q86 412 80 418T74 439Q77 456 89 463T120 471Q127 471 133
470T153 463Q190 448 228 420T294 358T328 287Q332 263 329 249T312 218Q291 194 262 167T200 114T137 66T84 33Q67 24 61 22T50 20ZM324 40Q309 40 303 51T299 76Q301 87 307 98T329 117Q357 132 393 157T465 215T533 285L518 242Q511 279 488 313T435 374T374
416Q366 421 361 427T356 449Q360 466 371 472T402 478Q409 478 415 477T432 469Q458 453 490 424T547 360T578 287Q582 263 579 249T562 218Q537 190 499 157T423 96T358 53Q341 44 335 42T324 40Z" />
<glyph unicode="&#xbc;" glyph-name="onequarter" horiz-adv-x="1100" d="M278 341Q259 341 250 354T245 386Q257 450 279 519T325 648L338 636Q305 616 268 605T197 594Q177 594 169 604T164 630Q165 641 173 648T197 656Q230 658 264 669T333 701Q342 706 350
709T369 713Q389 713 398 698T399 663Q390 640 378 607T353 535T328 454T308 369Q305 358 297 350T278 341ZM190 297Q157 297 137 301T107 315T101 335Q103 349 115 354T153 360Q173 360 198 361T251 364T304 367T355 369Q384 369 408 361T428 332Q425 322 414
314T388 306Q360 306 324 304T253 299T190 297ZM237 -45Q225 -45 218 -34T212 -8T225 21Q293 97 364 171T511 317T666 456T834 589T1016 713Q1036 726 1051 731T1084 737Q1091 737 1098 733T1108 719T1100 695T1061 661Q895 552 759 441T508 215T284 -18Q271 -32
259 -38T237 -45ZM909 -6Q887 -6 883 16T888 90Q900 148 918 205T948 315Q951 330 951 341T950 364L972 348Q894 320 837 263T741 137L724 168Q737 162 743 160T759 158Q798 158 836 165T916 179T1012 186Q1033 186 1043 174T1051 145Q1049 134 1040 127T1015 119Q955
119 908 112T817 98T726 91Q700 91 688 106T679 141Q682 157 689 174T717 217Q748 261 785 296T859 357T929 395T982 409Q1010 409 1017 385T1017 321Q1008 278 997 241T975 167T955 85Q951 62 951 50T948 24Q945 10 935 2T909 -6Z" />
<glyph unicode="&#xbd;" glyph-name="onehalf" horiz-adv-x="1100" d="M278 341Q259 341 250 354T245 386Q257 450 279 519T325 648L338 636Q305 616 268 605T197 594Q177 594 169 604T164 630Q165 641 173 648T197 656Q230 658 264 669T333 701Q342 706 350 709T369
713Q389 713 398 698T399 663Q390 640 378 607T353 535T328 454T308 369Q305 358 297 350T278 341ZM190 297Q157 297 137 301T107 315T101 335Q103 349 115 354T153 360Q173 360 198 361T251 364T304 367T355 369Q384 369 408 361T428 332Q425 322 414 314T388
306Q360 306 324 304T253 299T190 297ZM237 -45Q225 -45 218 -34T212 -8T225 21Q293 97 364 171T511 317T666 456T834 589T1016 713Q1036 726 1051 731T1084 737Q1091 737 1098 733T1108 719T1100 695T1061 661Q895 552 759 441T508 215T284 -18Q271 -32 259 -38T237
-45ZM731 -11Q704 -11 693 2T686 40Q689 52 695 59T708 71Q774 108 819 138T894 195T939 245T959 291Q969 340 916 340Q880 340 852 328T805 304T773 292Q758 292 750 302T745 327Q747 337 752 343T770 358Q806 381 844 394T918 407Q989 407 1012 372T1024 281Q1018
250 995 215T917 137T767 43L755 63Q764 59 773 58T791 57Q820 57 863 62T956 67Q989 67 999 56T1007 28Q1004 16 994 8T964 0Q874 0 821 -5T731 -11Z" />
<glyph unicode="&#xbe;" glyph-name="threequarters" horiz-adv-x="1100" d="M244 301Q204 301 178 309T141 331T134 364Q136 373 144 380T165 388Q176 388 181 381T199 366T244 358Q273 358 299 366T344 390T366 425Q370 446 358 457T323 472T268 477Q247 477
237 483T230 505Q234 522 242 531T268 543Q300 549 328 567T363 618Q367 640 355 646T327 652Q292 652 272 642T239 622T211 612Q196 612 188 622T182 643Q186 659 208 674T262 698T330 708Q391 708 414 680T429 614Q425 591 410 569T364 530T277 504L284 525Q340
526 373 512T418 473T424 415Q417 379 393 354T330 315T244 301ZM237 -45Q225 -45 218 -34T212 -8T225 21Q293 97 364 171T511 317T666 456T834 589T1016 713Q1036 726 1051 731T1084 737Q1091 737 1098 733T1108 719T1100 695T1061 661Q895 552 759 441T508 215T284
-18Q271 -32 259 -38T237 -45ZM909 -6Q887 -6 883 16T888 90Q900 148 918 205T948 315Q951 330 951 341T950 364L972 348Q894 320 837 263T741 137L724 168Q737 162 743 160T759 158Q798 158 836 165T916 179T1012 186Q1033 186 1043 174T1051 145Q1049 134 1040
127T1015 119Q955 119 908 112T817 98T726 91Q700 91 688 106T679 141Q682 157 689 174T717 217Q748 261 785 296T859 357T929 395T982 409Q1010 409 1017 385T1017 321Q1008 278 997 241T975 167T955 85Q951 62 951 50T948 24Q945 10 935 2T909 -6Z" />
<glyph unicode="&#xbf;" glyph-name="questiondown" horiz-adv-x="302" d="M90 -236Q20 -236 -19 -214T-71 -157T-78 -83Q-73 -58 -62 -37T-24 8T55 64Q97 90 118 106T146 134T157 159Q160 176 154 185T140 202T125 218T121 242Q123 253 132 260T154 268Q177 268
195 251T223 208T226 153Q223 140 218 127T198 97T156 60T80 8Q45 -14 27 -30T0 -61T-12 -93Q-19 -129 7 -148T103 -168Q146 -168 176 -160T228 -143T267 -134Q282 -134 289 -144T294 -168Q292 -177 286 -185T270 -198Q246 -209 215 -217T150 -231T90 -236ZM205
371Q178 371 164 381T145 408T145 443Q148 462 163 478T205 494Q235 494 253 476T266 423Q261 401 243 386T205 371Z" />
<glyph unicode="&#xc0;" glyph-name="Agrave" horiz-adv-x="713" d="M554 -9Q535 -9 529 11T516 77Q512 114 510 167T507 279T512 392Q518 458 522 506T525 584T514 630T485 645Q456 645 412 601T315 474T210 278T109 25Q104 10 96 1T75 -8Q60 -8 53 2T52 39Q63
95 87 153T140 273T195 396T239 522Q243 538 251 547T271 557Q283 557 292 550T306 528L276 521Q343 619 392 663T489 708Q542 708 562 675T583 574T573 397Q565 310 567 247T574 141T582 68T583 19Q580 6 572 -1T554 -9ZM60 194Q47 194 42 201T39 218Q40 228 47
234T73 248Q190 291 334 310T640 330Q667 330 675 323T680 300Q677 286 660 276T611 265Q483 265 398 258T259 241T171 219T112 201T60 194ZM517 779Q495 779 473 794T433 833T407 886T403 939Q407 957 415 968T440 979Q459 979 466 969T480 921Q485 889 497 871T522
842T543 824T549 804Q546 791 539 785T517 779Z" />
<glyph unicode="&#xc1;" glyph-name="Aacute" horiz-adv-x="713" d="M554 -9Q535 -9 529 11T516 77Q512 114 510 167T507 279T512 392Q518 458 522 506T525 584T514 630T485 645Q456 645 412 601T315 474T210 278T109 25Q104 10 96 1T75 -8Q60 -8 53 2T52 39Q63
95 87 153T140 273T195 396T239 522Q243 538 251 547T271 557Q283 557 292 550T306 528L276 521Q343 619 392 663T489 708Q542 708 562 675T583 574T573 397Q565 310 567 247T574 141T582 68T583 19Q580 6 572 -1T554 -9ZM60 194Q47 194 42 201T39 218Q40 228 47
234T73 248Q190 291 334 310T640 330Q667 330 675 323T680 300Q677 286 660 276T611 265Q483 265 398 258T259 241T171 219T112 201T60 194ZM492 782Q473 782 465 789T459 807Q462 821 473 830T508 855Q540 875 553 891T580 936Q592 963 602 972T625 981Q648 981
655 965T659 930Q651 891 623 857T560 803T492 782Z" />
<glyph unicode="&#xc2;" glyph-name="Acircumflex" horiz-adv-x="713" d="M554 -9Q535 -9 529 11T516 77Q512 114 510 167T507 279T512 392Q518 458 522 506T525 584T514 630T485 645Q456 645 412 601T315 474T210 278T109 25Q104 10 96 1T75 -8Q60 -8 53 2T52
39Q63 95 87 153T140 273T195 396T239 522Q243 538 251 547T271 557Q283 557 292 550T306 528L276 521Q343 619 392 663T489 708Q542 708 562 675T583 574T573 397Q565 310 567 247T574 141T582 68T583 19Q580 6 572 -1T554 -9ZM60 194Q47 194 42 201T39 218Q40
228 47 234T73 248Q190 291 334 310T640 330Q667 330 675 323T680 300Q677 286 660 276T611 265Q483 265 398 258T259 241T171 219T112 201T60 194ZM362 782Q351 782 344 786T334 796T333 810Q334 817 340 824T367 848T429 897Q466 925 484 942T516 968T549 976Q570
976 583 966T612 925Q628 891 643 871T671 839T689 820T694 801Q692 793 683 788T661 782Q638 782 620 791T582 827T534 910L551 911Q498 864 465 838T412 800T381 785T362 782Z" />
<glyph unicode="&#xc3;" glyph-name="Atilde" horiz-adv-x="713" d="M554 -9Q535 -9 529 11T516 77Q512 114 510 167T507 279T512 392Q518 458 522 506T525 584T514 630T485 645Q456 645 412 601T315 474T210 278T109 25Q104 10 96 1T75 -8Q60 -8 53 2T52 39Q63
95 87 153T140 273T195 396T239 522Q243 538 251 547T271 557Q283 557 292 550T306 528L276 521Q343 619 392 663T489 708Q542 708 562 675T583 574T573 397Q565 310 567 247T574 141T582 68T583 19Q580 6 572 -1T554 -9ZM60 194Q47 194 42 201T39 218Q40 228 47
234T73 248Q190 291 334 310T640 330Q667 330 675 323T680 300Q677 286 660 276T611 265Q483 265 398 258T259 241T171 219T112 201T60 194ZM354 815Q338 815 331 833T327 874Q332 900 346 924T385 964T448 980Q489 980 512 964T551 928T580 891T613 875Q629 875
639 885T655 912T667 944T683 970T712 981Q726 981 734 966T737 923Q725 866 692 835T609 804Q574 804 553 819T515 856T483 892T442 908Q421 908 412 894T396 862T382 829T354 815Z" />
<glyph unicode="&#xc4;" glyph-name="Adieresis" horiz-adv-x="713" d="M554 -9Q535 -9 529 11T516 77Q512 114 510 167T507 279T512 392Q518 458 522 506T525 584T514 630T485 645Q456 645 412 601T315 474T210 278T109 25Q104 10 96 1T75 -8Q60 -8 53 2T52 39Q63
95 87 153T140 273T195 396T239 522Q243 538 251 547T271 557Q283 557 292 550T306 528L276 521Q343 619 392 663T489 708Q542 708 562 675T583 574T573 397Q565 310 567 247T574 141T582 68T583 19Q580 6 572 -1T554 -9ZM60 194Q47 194 42 201T39 218Q40 228 47
234T73 248Q190 291 334 310T640 330Q667 330 675 323T680 300Q677 286 660 276T611 265Q483 265 398 258T259 241T171 219T112 201T60 194ZM630 803Q603 803 588 823T577 869Q582 892 601 909T645 927Q667 927 682 918T703 893T705 861Q702 845 683 824T630 803ZM397
793Q377 793 364 802T346 827T345 864Q350 887 368 905T410 923Q436 923 451 914T471 889T473 854Q468 830 449 812T397 793Z" />
<glyph unicode="&#xc5;" glyph-name="Aring" horiz-adv-x="713" d="M554 -9Q535 -9 529 11T516 77Q512 114 510 167T507 279T512 392Q518 458 522 506T525 584T514 630T485 645Q456 645 412 601T315 474T210 278T109 25Q104 10 96 1T75 -8Q60 -8 53 2T52 39Q63
95 87 153T140 273T195 396T239 522Q243 538 251 547T271 557Q283 557 292 550T306 528L276 521Q343 619 392 663T489 708Q542 708 562 675T583 574T573 397Q565 310 567 247T574 141T582 68T583 19Q580 6 572 -1T554 -9ZM60 194Q47 194 42 201T39 218Q40 228 47
234T73 248Q190 291 334 310T640 330Q667 330 675 323T680 300Q677 286 660 276T611 265Q483 265 398 258T259 241T171 219T112 201T60 194ZM486 651Q429 651 393 674T344 738T341 830Q347 859 363 883T402 927T453 956T509 967Q532 967 539 960T543 937Q541 927
532 920T502 906Q456 891 436 869T408 811Q399 767 423 741T490 714Q539 714 569 737T609 805Q617 845 598 871T535 897Q500 897 481 886T449 863T424 851Q411 851 406 855T403 873Q411 909 447 934T541 960Q594 960 628 938T674 877T678 793Q669 749 642 718T575
669T486 651Z" />
<glyph unicode="&#xc6;" glyph-name="AE" horiz-adv-x="1032" d="M76 -8Q66 -8 60 -4T51 11T53 39Q64 95 90 156T147 279T204 403T242 520Q245 536 253 545T274 555Q286 555 294 548T309 526L279 519Q345 616 392 663T487 710Q533 710 555 691T583 633T585 532T573
386Q562 272 572 200T623 93T740 58Q791 58 825 65T881 83T917 101T944 109Q955 109 958 101T959 81Q955 64 930 43T858 8T741 -7Q654 -7 603 21T528 100T502 218T507 363Q515 440 519 493T523 580T513 629T484 645Q454 645 410 601T314 474T209 278T108 25Q102
10 95 1T76 -8ZM80 189Q63 189 54 191T41 200T39 216Q41 227 48 234T77 246Q130 258 202 273T357 303T524 333T687 358T830 376T935 383Q962 383 970 376T975 357Q970 335 946 327T885 317Q785 310 682 295T483 262T305 228T165 200T80 189ZM573 616Q547 616 536
625T528 650Q530 662 538 669T571 679Q626 686 688 691T813 700T932 706T1031 708Q1057 708 1064 702T1069 683Q1065 666 1052 655T1011 643Q907 643 834 639T711 630T628 620T573 616Z" />
<glyph unicode="&#xc7;" glyph-name="Ccedilla" horiz-adv-x="605" d="M294 -10Q196 -10 143 31T74 141T76 295Q92 376 130 451T222 584T343 677T485 711Q534 711 563 697T603 656T607 595Q604 579 596 564T576 540T549 530Q534 530 532 538T532 560T538 590Q541
604 539 617T524 638T480 646Q421 646 366 616T266 536T188 421T142 288Q120 176 161 116T293 55Q346 55 381 66T440 95T478 129T503 157T523 169Q535 169 540 160T542 136Q538 118 521 93T473 45T398 6T294 -10ZM167 -214Q133 -214 118 -204T107 -176Q110 -160
121 -153T161 -145Q231 -141 260 -122T296 -69Q300 -46 294 -34T279 -16T262 -3T257 13Q258 24 268 30T295 37Q334 37 354 5T365 -78Q353 -138 301 -176T167 -214Z" />
<glyph unicode="&#xc8;" glyph-name="Egrave" horiz-adv-x="613" d="M321 -7Q248 -7 196 16T114 82T76 181T80 303Q90 353 110 401T158 491T214 569Q239 599 263 622T311 646Q324 646 330 640T333 621T315 592Q275 547 241 499T182 399T146 295Q131 224 148 171T209
88T320 58Q375 58 410 65T466 83T501 101T523 109Q537 109 540 101T541 81Q538 63 512 43T438 8T321 -7ZM162 281Q139 276 128 280T113 293T111 312Q114 326 133 336T186 352Q223 358 266 364T350 374T427 382T484 386Q511 386 519 379T525 360Q520 338 496 330T444
320Q411 318 373 314T296 304T222 293T162 281ZM202 616Q182 616 173 624T167 645Q168 653 176 663T200 676Q266 687 344 694T499 704T634 708Q648 708 654 701T658 683Q654 666 642 655T605 643Q510 643 445 639T336 630T261 620T202 616ZM481 779Q459 779 437
794T397 833T371 886T367 939Q371 957 379 968T404 979Q423 979 430 969T444 921Q449 889 461 871T486 842T507 824T513 804Q510 791 503 785T481 779Z" />
<glyph unicode="&#xc9;" glyph-name="Eacute" horiz-adv-x="613" d="M321 -7Q248 -7 196 16T114 82T76 181T80 303Q90 353 110 401T158 491T214 569Q239 599 263 622T311 646Q324 646 330 640T333 621T315 592Q275 547 241 499T182 399T146 295Q131 224 148 171T209
88T320 58Q375 58 410 65T466 83T501 101T523 109Q537 109 540 101T541 81Q538 63 512 43T438 8T321 -7ZM162 281Q139 276 128 280T113 293T111 312Q114 326 133 336T186 352Q223 358 266 364T350 374T427 382T484 386Q511 386 519 379T525 360Q520 338 496 330T444
320Q411 318 373 314T296 304T222 293T162 281ZM202 616Q182 616 173 624T167 645Q168 653 176 663T200 676Q266 687 344 694T499 704T634 708Q648 708 654 701T658 683Q654 666 642 655T605 643Q510 643 445 639T336 630T261 620T202 616ZM456 782Q437 782 429
789T423 807Q426 821 437 830T472 855Q504 875 517 891T544 936Q556 963 566 972T589 981Q612 981 619 965T623 930Q615 891 587 857T524 803T456 782Z" />
<glyph unicode="&#xca;" glyph-name="Ecircumflex" horiz-adv-x="613" d="M321 -7Q248 -7 196 16T114 82T76 181T80 303Q90 353 110 401T158 491T214 569Q239 599 263 622T311 646Q324 646 330 640T333 621T315 592Q275 547 241 499T182 399T146 295Q131 224 148
171T209 88T320 58Q375 58 410 65T466 83T501 101T523 109Q537 109 540 101T541 81Q538 63 512 43T438 8T321 -7ZM162 281Q139 276 128 280T113 293T111 312Q114 326 133 336T186 352Q223 358 266 364T350 374T427 382T484 386Q511 386 519 379T525 360Q520 338
496 330T444 320Q411 318 373 314T296 304T222 293T162 281ZM202 616Q182 616 173 624T167 645Q168 653 176 663T200 676Q266 687 344 694T499 704T634 708Q648 708 654 701T658 683Q654 666 642 655T605 643Q510 643 445 639T336 630T261 620T202 616ZM326 782Q315
782 308 786T298 796T297 810Q298 817 304 824T331 848T393 897Q430 925 448 942T480 968T513 976Q534 976 547 966T576 925Q592 891 607 871T635 839T653 820T658 801Q656 793 647 788T625 782Q602 782 584 791T546 827T498 910L515 911Q462 864 429 838T376 800T345
785T326 782Z" />
<glyph unicode="&#xcb;" glyph-name="Edieresis" horiz-adv-x="613" d="M321 -7Q248 -7 196 16T114 82T76 181T80 303Q90 353 110 401T158 491T214 569Q239 599 263 622T311 646Q324 646 330 640T333 621T315 592Q275 547 241 499T182 399T146 295Q131 224 148
171T209 88T320 58Q375 58 410 65T466 83T501 101T523 109Q537 109 540 101T541 81Q538 63 512 43T438 8T321 -7ZM162 281Q139 276 128 280T113 293T111 312Q114 326 133 336T186 352Q223 358 266 364T350 374T427 382T484 386Q511 386 519 379T525 360Q520 338
496 330T444 320Q411 318 373 314T296 304T222 293T162 281ZM202 616Q182 616 173 624T167 645Q168 653 176 663T200 676Q266 687 344 694T499 704T634 708Q648 708 654 701T658 683Q654 666 642 655T605 643Q510 643 445 639T336 630T261 620T202 616ZM594 803Q567
803 552 823T541 869Q546 892 565 909T609 927Q631 927 646 918T667 893T669 861Q666 845 647 824T594 803ZM361 793Q341 793 328 802T310 827T309 864Q314 887 332 905T374 923Q400 923 415 914T435 889T437 854Q432 830 413 812T361 793Z" />
<glyph unicode="&#xcc;" glyph-name="Igrave" horiz-adv-x="547" d="M142 615Q128 615 120 622T114 643Q115 652 125 662T159 677Q205 685 272 691T416 701T564 705Q589 705 595 697T600 676Q596 655 570 647T497 639Q426 639 377 637T294 631T235 624T189 618T142
615ZM238 40Q218 40 211 61T210 117Q229 211 251 301T294 474T329 624Q333 644 340 654T362 665Q379 665 387 645T390 595Q380 546 360 468T316 288T268 69Q262 40 238 40ZM26 -11Q3 -11 -5 -3T-11 20Q-9 32 -1 40T24 49Q58 53 95 55T172 60T254 63T341 65T433
66Q451 66 460 63T472 54T474 40Q471 24 452 12T395 0Q311 0 239 -2T111 -8T26 -11ZM394 779Q372 779 350 794T310 833T284 886T280 939Q284 957 292 968T317 979Q336 979 343 969T357 921Q362 889 374 871T399 842T420 824T426 804Q423 791 416 785T394 779Z"
/>
<glyph unicode="&#xcd;" glyph-name="Iacute" horiz-adv-x="547" d="M142 615Q128 615 120 622T114 643Q115 652 125 662T159 677Q205 685 272 691T416 701T564 705Q589 705 595 697T600 676Q596 655 570 647T497 639Q426 639 377 637T294 631T235 624T189 618T142
615ZM238 40Q218 40 211 61T210 117Q229 211 251 301T294 474T329 624Q333 644 340 654T362 665Q379 665 387 645T390 595Q380 546 360 468T316 288T268 69Q262 40 238 40ZM26 -11Q3 -11 -5 -3T-11 20Q-9 32 -1 40T24 49Q58 53 95 55T172 60T254 63T341 65T433
66Q451 66 460 63T472 54T474 40Q471 24 452 12T395 0Q311 0 239 -2T111 -8T26 -11ZM369 782Q350 782 342 789T336 807Q339 821 350 830T385 855Q417 875 430 891T457 936Q469 963 479 972T502 981Q525 981 532 965T536 930Q528 891 500 857T437 803T369 782Z"
/>
<glyph unicode="&#xce;" glyph-name="Icircumflex" horiz-adv-x="547" d="M142 615Q128 615 120 622T114 643Q115 652 125 662T159 677Q205 685 272 691T416 701T564 705Q589 705 595 697T600 676Q596 655 570 647T497 639Q426 639 377 637T294 631T235 624T189
618T142 615ZM238 40Q218 40 211 61T210 117Q229 211 251 301T294 474T329 624Q333 644 340 654T362 665Q379 665 387 645T390 595Q380 546 360 468T316 288T268 69Q262 40 238 40ZM26 -11Q3 -11 -5 -3T-11 20Q-9 32 -1 40T24 49Q58 53 95 55T172 60T254 63T341
65T433 66Q451 66 460 63T472 54T474 40Q471 24 452 12T395 0Q311 0 239 -2T111 -8T26 -11ZM239 782Q228 782 221 786T211 796T210 810Q211 817 217 824T244 848T306 897Q343 925 361 942T393 968T426 976Q447 976 460 966T489 925Q505 891 520 871T548 839T566
820T571 801Q569 793 560 788T538 782Q515 782 497 791T459 827T411 910L428 911Q375 864 342 838T289 800T258 785T239 782Z" />
<glyph unicode="&#xcf;" glyph-name="Idieresis" horiz-adv-x="547" d="M142 615Q128 615 120 622T114 643Q115 652 125 662T159 677Q205 685 272 691T416 701T564 705Q589 705 595 697T600 676Q596 655 570 647T497 639Q426 639 377 637T294 631T235 624T189
618T142 615ZM238 40Q218 40 211 61T210 117Q229 211 251 301T294 474T329 624Q333 644 340 654T362 665Q379 665 387 645T390 595Q380 546 360 468T316 288T268 69Q262 40 238 40ZM26 -11Q3 -11 -5 -3T-11 20Q-9 32 -1 40T24 49Q58 53 95 55T172 60T254 63T341
65T433 66Q451 66 460 63T472 54T474 40Q471 24 452 12T395 0Q311 0 239 -2T111 -8T26 -11ZM507 803Q480 803 465 823T454 869Q459 892 478 909T522 927Q544 927 559 918T580 893T582 861Q579 845 560 824T507 803ZM274 793Q254 793 241 802T223 827T222 864Q227
887 245 905T287 923Q313 923 328 914T348 889T350 854Q345 830 326 812T274 793Z" />
<glyph unicode="&#xd0;" glyph-name="Eth" horiz-adv-x="642" d="M92 312Q62 312 48 321T35 342Q38 350 46 359T73 371Q142 379 201 382T324 386Q355 386 372 380T396 367T401 352Q399 339 384 331T345 323Q266 323 217 321T139 315T92 312ZM166 -9Q135 -9 116
9T90 61T92 141Q114 254 143 361T208 578Q217 607 227 619T252 631Q262 631 267 617T269 583Q259 535 242 478T203 345T160 160Q151 114 152 86T167 38L128 51Q205 48 278 77T413 159T518 283T578 436Q590 497 579 544T528 618T420 645Q360 645 319 637T248 618T195
599T147 591Q136 591 129 594T119 603T118 618Q119 630 127 640T151 654Q179 665 212 674T281 692T354 704T429 709Q516 709 569 674T642 576T646 428Q631 354 596 288T511 167T404 74T285 13T166 -9Z" />
<glyph unicode="&#xd1;" glyph-name="Ntilde" horiz-adv-x="754" d="M69 -8Q56 -8 47 3T43 43Q47 63 57 84T82 136T111 217T142 342Q151 385 158 431T170 520T180 594T186 638Q192 668 208 689T249 710Q288 710 315 683T360 610T392 506T417 386T438 266T462 160T494
83T540 51L511 44Q532 73 545 99T566 158T584 237Q596 296 605 352T625 461T648 564T680 660Q690 684 701 694T728 705Q741 705 747 695T754 670T747 635Q728 587 716 540T694 446T677 349T657 242Q643 169 625 112T581 23T516 -10Q477 -10 451 18T408 93T380 200T358
323T333 447T299 557T245 637L257 641Q251 578 245 525T231 427T215 342Q196 248 172 171T114 29Q107 13 95 3T69 -8ZM338 815Q322 815 315 833T311 874Q316 900 330 924T369 964T432 980Q473 980 496 964T535 928T564 891T597 875Q613 875 623 885T639 912T651
944T667 970T696 981Q710 981 718 966T721 923Q709 866 676 835T593 804Q558 804 537 819T499 856T467 892T426 908Q405 908 396 894T380 862T366 829T338 815Z" />
<glyph unicode="&#xd2;" glyph-name="Ograve" horiz-adv-x="716" d="M312 -10Q237 -10 186 15T107 85T71 184T76 300Q90 369 119 424T184 520T255 589T318 631T355 645Q361 645 367 643T378 630Q387 611 373 596T336 567Q308 550 269 514T196 423T145 290Q133
230 145 177T201 90T325 56Q384 56 439 86T536 171T593 300Q605 365 604 426T584 537T530 616T437 646Q411 646 397 627T378 580Q374 558 361 547T334 535Q325 535 318 540T307 555T306 580Q313 615 332 644T382 692T453 711Q520 711 567 677T640 584T672 450T661
290Q648 224 616 169T538 74T434 12T312 -10ZM471 779Q449 779 427 794T387 833T361 886T357 939Q361 957 369 968T394 979Q413 979 420 969T434 921Q439 889 451 871T476 842T497 824T503 804Q500 791 493 785T471 779Z" />
<glyph unicode="&#xd3;" glyph-name="Oacute" horiz-adv-x="716" d="M312 -10Q237 -10 186 15T107 85T71 184T76 300Q90 369 119 424T184 520T255 589T318 631T355 645Q361 645 367 643T378 630Q387 611 373 596T336 567Q308 550 269 514T196 423T145 290Q133
230 145 177T201 90T325 56Q384 56 439 86T536 171T593 300Q605 365 604 426T584 537T530 616T437 646Q411 646 397 627T378 580Q374 558 361 547T334 535Q325 535 318 540T307 555T306 580Q313 615 332 644T382 692T453 711Q520 711 567 677T640 584T672 450T661
290Q648 224 616 169T538 74T434 12T312 -10ZM446 782Q427 782 419 789T413 807Q416 821 427 830T462 855Q494 875 507 891T534 936Q546 963 556 972T579 981Q602 981 609 965T613 930Q605 891 577 857T514 803T446 782Z" />
<glyph unicode="&#xd4;" glyph-name="Ocircumflex" horiz-adv-x="716" d="M312 -10Q237 -10 186 15T107 85T71 184T76 300Q90 369 119 424T184 520T255 589T318 631T355 645Q361 645 367 643T378 630Q387 611 373 596T336 567Q308 550 269 514T196 423T145 290Q133
230 145 177T201 90T325 56Q384 56 439 86T536 171T593 300Q605 365 604 426T584 537T530 616T437 646Q411 646 397 627T378 580Q374 558 361 547T334 535Q325 535 318 540T307 555T306 580Q313 615 332 644T382 692T453 711Q520 711 567 677T640 584T672 450T661
290Q648 224 616 169T538 74T434 12T312 -10ZM316 782Q305 782 298 786T288 796T287 810Q288 817 294 824T321 848T383 897Q420 925 438 942T470 968T503 976Q524 976 537 966T566 925Q582 891 597 871T625 839T643 820T648 801Q646 793 637 788T615 782Q592 782
574 791T536 827T488 910L505 911Q452 864 419 838T366 800T335 785T316 782Z" />
<glyph unicode="&#xd5;" glyph-name="Otilde" horiz-adv-x="716" d="M312 -10Q237 -10 186 15T107 85T71 184T76 300Q90 369 119 424T184 520T255 589T318 631T355 645Q361 645 367 643T378 630Q387 611 373 596T336 567Q308 550 269 514T196 423T145 290Q133
230 145 177T201 90T325 56Q384 56 439 86T536 171T593 300Q605 365 604 426T584 537T530 616T437 646Q411 646 397 627T378 580Q374 558 361 547T334 535Q325 535 318 540T307 555T306 580Q313 615 332 644T382 692T453 711Q520 711 567 677T640 584T672 450T661
290Q648 224 616 169T538 74T434 12T312 -10ZM308 815Q292 815 285 833T281 874Q286 900 300 924T339 964T402 980Q443 980 466 964T505 928T534 891T567 875Q583 875 593 885T609 912T621 944T637 970T666 981Q680 981 688 966T691 923Q679 866 646 835T563 804Q528
804 507 819T469 856T437 892T396 908Q375 908 366 894T350 862T336 829T308 815Z" />
<glyph unicode="&#xd6;" glyph-name="Odieresis" horiz-adv-x="716" d="M312 -10Q237 -10 186 15T107 85T71 184T76 300Q90 369 119 424T184 520T255 589T318 631T355 645Q361 645 367 643T378 630Q387 611 373 596T336 567Q308 550 269 514T196 423T145 290Q133
230 145 177T201 90T325 56Q384 56 439 86T536 171T593 300Q605 365 604 426T584 537T530 616T437 646Q411 646 397 627T378 580Q374 558 361 547T334 535Q325 535 318 540T307 555T306 580Q313 615 332 644T382 692T453 711Q520 711 567 677T640 584T672 450T661
290Q648 224 616 169T538 74T434 12T312 -10ZM584 803Q557 803 542 823T531 869Q536 892 555 909T599 927Q621 927 636 918T657 893T659 861Q656 845 637 824T584 803ZM351 793Q331 793 318 802T300 827T299 864Q304 887 322 905T364 923Q390 923 405 914T425 889T427
854Q422 830 403 812T351 793Z" />
<glyph unicode="&#xd7;" glyph-name="multiply" horiz-adv-x="700" d="M119 67Q105 67 99 76T100 108Q108 132 140 175T225 273T344 386T491 498Q537 529 562 543T603 562T629 567Q641 567 646 560T648 540Q646 528 638 518T611 496Q523 449 442 386T289 249T163
96Q153 80 141 74T119 67ZM520 69Q510 69 502 77T484 109Q462 156 433 206T371 304T307 394T246 465Q225 486 215 501T207 533Q209 542 217 549T239 556Q256 556 268 546T305 507Q321 489 344 459T392 393T442 320T488 250T521 192Q542 150 547 130T550 95Q548
83 540 76T520 69Z" />
<glyph unicode="&#xd8;" glyph-name="Oslash" horiz-adv-x="726" d="M14 -61Q-3 -61 -11 -52T-17 -29T-2 0Q78 94 159 182T327 354T509 519T712 682Q731 697 743 702T771 708Q784 708 790 700T795 680T786 655T763 630Q612 518 489 409T260 191T54 -35Q31 -61
14 -61ZM310 -10Q239 -10 190 15T112 83T77 182T82 300Q96 370 125 427T191 528T262 602T322 647T356 662Q373 662 380 654T387 633T376 607T348 584Q325 570 296 545T238 484T186 399T150 290Q138 230 149 177T200 90T310 56Q378 56 438 86T540 171T598 300Q610
360 608 421T588 532T534 613T440 644Q409 644 389 639T354 627T327 621Q313 621 308 628T305 650Q309 670 343 690T439 711Q501 711 546 690T621 631T665 540T680 424T666 290Q653 227 622 173T543 77T437 13T310 -10Z" />
<glyph unicode="&#xd9;" glyph-name="Ugrave" horiz-adv-x="663" d="M298 -13Q210 -13 159 30T92 152T98 336Q106 377 119 419T139 489Q149 537 153 567T160 617T164 650T169 682Q173 697 180 704T199 712Q217 712 225 694T230 633T213 518Q207 492 198 461T180
399T165 338Q144 232 158 170T210 80T300 53Q391 53 444 111T523 295Q536 359 544 408T559 506T579 615Q588 661 606 686T651 712Q663 712 670 704T674 679Q670 661 664 643T648 595T628 511Q617 456 609 401T589 288Q571 191 532 124T435 22T298 -13ZM454 779Q432
779 410 794T370 833T344 886T340 939Q344 957 352 968T377 979Q396 979 403 969T417 921Q422 889 434 871T459 842T480 824T486 804Q483 791 476 785T454 779Z" />
<glyph unicode="&#xda;" glyph-name="Uacute" horiz-adv-x="663" d="M298 -13Q210 -13 159 30T92 152T98 336Q106 377 119 419T139 489Q149 537 153 567T160 617T164 650T169 682Q173 697 180 704T199 712Q217 712 225 694T230 633T213 518Q207 492 198 461T180
399T165 338Q144 232 158 170T210 80T300 53Q391 53 444 111T523 295Q536 359 544 408T559 506T579 615Q588 661 606 686T651 712Q663 712 670 704T674 679Q670 661 664 643T648 595T628 511Q617 456 609 401T589 288Q571 191 532 124T435 22T298 -13ZM429 782Q410
782 402 789T396 807Q399 821 410 830T445 855Q477 875 490 891T517 936Q529 963 539 972T562 981Q585 981 592 965T596 930Q588 891 560 857T497 803T429 782Z" />
<glyph unicode="&#xdb;" glyph-name="Ucircumflex" horiz-adv-x="663" d="M298 -13Q210 -13 159 30T92 152T98 336Q106 377 119 419T139 489Q149 537 153 567T160 617T164 650T169 682Q173 697 180 704T199 712Q217 712 225 694T230 633T213 518Q207 492 198 461T180
399T165 338Q144 232 158 170T210 80T300 53Q391 53 444 111T523 295Q536 359 544 408T559 506T579 615Q588 661 606 686T651 712Q663 712 670 704T674 679Q670 661 664 643T648 595T628 511Q617 456 609 401T589 288Q571 191 532 124T435 22T298 -13ZM299 782Q288
782 281 786T271 796T270 810Q271 817 277 824T304 848T366 897Q403 925 421 942T453 968T486 976Q507 976 520 966T549 925Q565 891 580 871T608 839T626 820T631 801Q629 793 620 788T598 782Q575 782 557 791T519 827T471 910L488 911Q435 864 402 838T349 800T318
785T299 782Z" />
<glyph unicode="&#xdc;" glyph-name="Udieresis" horiz-adv-x="663" d="M298 -13Q210 -13 159 30T92 152T98 336Q106 377 119 419T139 489Q149 537 153 567T160 617T164 650T169 682Q173 697 180 704T199 712Q217 712 225 694T230 633T213 518Q207 492 198 461T180
399T165 338Q144 232 158 170T210 80T300 53Q391 53 444 111T523 295Q536 359 544 408T559 506T579 615Q588 661 606 686T651 712Q663 712 670 704T674 679Q670 661 664 643T648 595T628 511Q617 456 609 401T589 288Q571 191 532 124T435 22T298 -13ZM567 803Q540
803 525 823T514 869Q519 892 538 909T582 927Q604 927 619 918T640 893T642 861Q639 845 620 824T567 803ZM334 793Q314 793 301 802T283 827T282 864Q287 887 305 905T347 923Q373 923 388 914T408 889T410 854Q405 830 386 812T334 793Z" />
<glyph unicode="&#xdd;" glyph-name="Yacute" horiz-adv-x="598" d="M167 -14Q154 -14 147 -6T142 20T157 69Q187 142 230 222T327 383T446 540T582 680Q606 701 620 707T645 713Q652 713 657 710T666 700T668 683Q666 671 662 663T646 644T613 614Q552 560 496
496T390 359T299 209T226 48Q212 11 199 -1T167 -14ZM290 309Q277 309 269 317T256 338Q234 392 216 430T182 497T152 555T123 620Q113 649 111 660T110 684Q112 697 119 704T140 712Q154 712 162 704T177 679Q191 637 205 607T232 551T260 499T288 440T317 362Q319
355 319 346T318 329T309 315T290 309ZM388 782Q369 782 361 789T355 807Q358 821 369 830T404 855Q436 875 449 891T476 936Q488 963 498 972T521 981Q544 981 551 965T555 930Q547 891 519 857T456 803T388 782Z" />
<glyph unicode="&#xde;" glyph-name="Thorn" horiz-adv-x="575" d="M248 143Q207 143 178 153T135 179T124 213Q127 224 133 230T147 236Q162 236 173 229T201 215T250 208Q311 208 361 232T444 295T486 380Q496 428 481 459T435 507T365 523Q322 523 288 510T232
469Q226 461 217 457T196 453Q186 453 181 460T177 479T186 501Q218 542 263 565T369 588Q430 588 476 561T542 483T549 360Q541 319 515 280T447 210T356 161T248 143ZM85 -11Q66 -11 59 8T54 70T72 187Q89 271 109 345T145 477T168 570Q174 598 175 615T178 646T182
676Q186 694 195 702T216 710Q232 710 239 697T246 662T244 616T235 570Q226 525 210 466T176 345T146 225Q135 167 130 135T124 84T122 53T117 19Q114 5 106 -3T85 -11Z" />
<glyph unicode="&#xdf;" glyph-name="germandbls" horiz-adv-x="645" d="M321 -20Q249 -20 219 1T194 50Q196 62 205 70T229 79Q238 79 242 74T252 62T274 50T320 45Q382 45 435 64T516 127Q514 154 494 171T444 201T382 224T323 252T281 292T275 354Q281 385
305 404T363 438T429 467T486 501T518 552Q532 622 499 656T403 691Q310 691 245 620T156 425Q143 364 136 307T121 183T95 29Q89 4 81 -4T59 -13Q43 -13 33 2T28 46Q41 114 48 163T61 255T72 343T91 449Q111 549 159 618T271 724T403 760Q465 760 512 736T580
664T588 549Q579 504 555 475T499 428T435 398T375 375T335 348Q335 324 355 309T405 283T469 259T530 231T572 189T579 126Q569 72 530 40T436 -6T321 -20Z" />
<glyph unicode="&#xe0;" glyph-name="agrave" horiz-adv-x="601" d="M150 -10Q107 -10 80 11T44 72T45 163Q54 210 77 257T135 347T213 423T304 475T403 494Q421 494 431 486T438 460Q436 449 428 441T402 431Q330 421 270 381T169 284T116 163Q109 131 109 105T121
36L87 93Q104 69 117 62T159 54Q227 54 296 142T425 397Q432 414 441 424T466 434Q486 434 495 416T501 368Q493 300 492 247T500 147T536 51Q541 42 541 32T535 13T523 -1T506 -7Q493 -7 486 -2T473 14Q458 41 447 71T431 142T428 238T444 372L473 371Q441 266
401 194T317 76T231 11T150 -10ZM388 564Q366 564 344 579T304 618T278 671T274 724Q278 742 286 753T311 764Q330 764 337 754T351 706Q356 674 368 656T393 627T414 609T420 589Q417 576 410 570T388 564Z" />
<glyph unicode="&#xe1;" glyph-name="aacute" horiz-adv-x="601" d="M150 -10Q107 -10 80 11T44 72T45 163Q54 210 77 257T135 347T213 423T304 475T403 494Q421 494 431 486T438 460Q436 449 428 441T402 431Q330 421 270 381T169 284T116 163Q109 131 109 105T121
36L87 93Q104 69 117 62T159 54Q227 54 296 142T425 397Q432 414 441 424T466 434Q486 434 495 416T501 368Q493 300 492 247T500 147T536 51Q541 42 541 32T535 13T523 -1T506 -7Q493 -7 486 -2T473 14Q458 41 447 71T431 142T428 238T444 372L473 371Q441 266
401 194T317 76T231 11T150 -10ZM363 567Q344 567 336 574T330 592Q333 606 344 615T379 640Q411 660 424 676T451 721Q463 748 473 757T496 766Q519 766 526 750T530 715Q522 676 494 642T431 588T363 567Z" />
<glyph unicode="&#xe2;" glyph-name="acircumflex" horiz-adv-x="601" d="M150 -10Q107 -10 80 11T44 72T45 163Q54 210 77 257T135 347T213 423T304 475T403 494Q421 494 431 486T438 460Q436 449 428 441T402 431Q330 421 270 381T169 284T116 163Q109 131 109
105T121 36L87 93Q104 69 117 62T159 54Q227 54 296 142T425 397Q432 414 441 424T466 434Q486 434 495 416T501 368Q493 300 492 247T500 147T536 51Q541 42 541 32T535 13T523 -1T506 -7Q493 -7 486 -2T473 14Q458 41 447 71T431 142T428 238T444 372L473 371Q441
266 401 194T317 76T231 11T150 -10ZM233 567Q222 567 215 571T205 581T204 595Q205 602 211 609T238 633T300 682Q337 710 355 727T387 753T420 761Q441 761 454 751T483 710Q499 676 514 656T542 624T560 605T565 586Q563 578 554 573T532 567Q509 567 491 576T453
612T405 695L422 696Q369 649 336 623T283 585T252 570T233 567Z" />
<glyph unicode="&#xe3;" glyph-name="atilde" horiz-adv-x="601" d="M150 -10Q107 -10 80 11T44 72T45 163Q54 210 77 257T135 347T213 423T304 475T403 494Q421 494 431 486T438 460Q436 449 428 441T402 431Q330 421 270 381T169 284T116 163Q109 131 109 105T121
36L87 93Q104 69 117 62T159 54Q227 54 296 142T425 397Q432 414 441 424T466 434Q486 434 495 416T501 368Q493 300 492 247T500 147T536 51Q541 42 541 32T535 13T523 -1T506 -7Q493 -7 486 -2T473 14Q458 41 447 71T431 142T428 238T444 372L473 371Q441 266
401 194T317 76T231 11T150 -10ZM225 600Q209 600 202 618T198 659Q203 685 217 709T256 749T319 765Q360 765 383 749T422 713T451 676T484 660Q500 660 510 670T526 697T538 729T554 755T583 766Q597 766 605 751T608 708Q596 651 563 620T480 589Q445 589 424
604T386 641T354 677T313 693Q292 693 283 679T267 647T253 614T225 600Z" />
<glyph unicode="&#xe4;" glyph-name="adieresis" horiz-adv-x="601" d="M150 -10Q107 -10 80 11T44 72T45 163Q54 210 77 257T135 347T213 423T304 475T403 494Q421 494 431 486T438 460Q436 449 428 441T402 431Q330 421 270 381T169 284T116 163Q109 131 109
105T121 36L87 93Q104 69 117 62T159 54Q227 54 296 142T425 397Q432 414 441 424T466 434Q486 434 495 416T501 368Q493 300 492 247T500 147T536 51Q541 42 541 32T535 13T523 -1T506 -7Q493 -7 486 -2T473 14Q458 41 447 71T431 142T428 238T444 372L473 371Q441
266 401 194T317 76T231 11T150 -10ZM501 588Q474 588 459 608T448 654Q453 677 472 694T516 712Q538 712 553 703T574 678T576 646Q573 630 554 609T501 588ZM268 578Q248 578 235 587T217 612T216 649Q221 672 239 690T281 708Q307 708 322 699T342 674T344 639Q339
615 320 597T268 578Z" />
<glyph unicode="&#xe5;" glyph-name="aring" horiz-adv-x="601" d="M150 -10Q107 -10 80 11T44 72T45 163Q54 210 77 257T135 347T213 423T304 475T403 494Q421 494 431 486T438 460Q436 449 428 441T402 431Q330 421 270 381T169 284T116 163Q109 131 109 105T121
36L87 93Q104 69 117 62T159 54Q227 54 296 142T425 397Q432 414 441 424T466 434Q486 434 495 416T501 368Q493 300 492 247T500 147T536 51Q541 42 541 32T535 13T523 -1T506 -7Q493 -7 486 -2T473 14Q458 41 447 71T431 142T428 238T444 372L473 371Q441 266
401 194T317 76T231 11T150 -10ZM382 553Q325 553 289 576T240 640T237 732Q243 761 259 785T298 829T349 858T405 869Q428 869 435 862T439 839Q437 829 428 822T398 808Q352 793 332 771T304 713Q295 669 319 643T386 616Q435 616 465 639T505 707Q513 747 494
773T431 799Q396 799 377 788T345 765T320 753Q307 753 302 757T299 775Q307 811 343 836T437 862Q490 862 524 840T570 779T574 695Q565 651 538 620T471 571T382 553Z" />
<glyph unicode="&#xe6;" glyph-name="ae" horiz-adv-x="876" d="M543 -10Q471 -10 430 19T377 101T379 220Q389 268 416 316T483 405T572 470T678 495Q749 495 783 457T802 342Q792 291 753 255T654 199T526 179Q462 179 436 196T414 230Q416 241 422 246T443
252Q457 252 476 247T534 241Q589 241 632 255T703 294T738 353Q746 391 731 410T672 429Q618 429 569 397T485 313T438 201Q430 161 436 128T468 75T543 55Q593 55 629 70T691 105T734 140T764 155Q782 155 788 146T790 121Q786 100 763 78T705 35T627 3T543 -10ZM141
-10Q97 -10 67 7T24 57T22 142Q32 193 72 230T173 286T303 306Q366 306 391 288T414 254Q412 243 405 238T384 232Q371 232 353 238T295 244Q210 244 154 213T87 132Q80 95 95 76T157 56Q212 56 260 88T344 172T391 284Q399 324 395 357T369 410T306 430Q266 430
237 421T188 399T155 378T132 368Q113 368 107 377T104 403Q107 422 138 443T214 480T306 495Q371 495 407 466T453 385T450 268Q440 219 413 170T344 80T251 15T141 -10Z" />
<glyph unicode="&#xe7;" glyph-name="ccedilla" horiz-adv-x="498" d="M241 -9Q171 -9 125 19T61 99T57 220Q69 278 99 328T174 415T272 474T381 495Q405 495 423 489T449 471T454 444Q451 431 443 423T422 414Q412 414 407 417T395 424T373 427Q313 427 260 396T171
316T123 211Q114 163 125 129T165 75T234 56Q280 56 307 66T349 90T374 113T395 124Q412 124 417 118T420 94Q414 64 388 41T324 4T241 -9ZM115 -214Q81 -214 66 -204T55 -176Q58 -160 69 -153T109 -145Q179 -141 208 -122T244 -69Q248 -46 242 -34T227 -16T210
-3T205 13Q206 24 216 30T243 37Q282 37 302 5T313 -78Q301 -138 249 -176T115 -214Z" />
<glyph unicode="&#xe8;" glyph-name="egrave" horiz-adv-x="552" d="M235 -10Q176 -10 137 7T77 55T52 128T57 220Q67 268 94 316T161 405T250 470T353 495Q405 495 437 480T482 433T486 354Q478 314 454 282T394 227T312 192T216 180Q149 180 128 194T110 227Q112
238 119 243T140 249Q151 249 167 245T216 241Q271 241 314 256T385 299T420 363Q427 396 413 412T354 429Q313 429 275 411T205 360T151 287T120 201Q112 161 118 128T150 75T225 55Q276 55 313 69T376 102T420 135T450 149Q464 149 471 139T474 111Q470 93 448
73T392 33T317 2T235 -10ZM369 564Q347 564 325 579T285 618T259 671T255 724Q259 742 267 753T292 764Q311 764 318 754T332 706Q337 674 349 656T374 627T395 609T401 589Q398 576 391 570T369 564Z" />
<glyph unicode="&#xe9;" glyph-name="eacute" horiz-adv-x="552" d="M235 -10Q176 -10 137 7T77 55T52 128T57 220Q67 268 94 316T161 405T250 470T353 495Q405 495 437 480T482 433T486 354Q478 314 454 282T394 227T312 192T216 180Q149 180 128 194T110 227Q112
238 119 243T140 249Q151 249 167 245T216 241Q271 241 314 256T385 299T420 363Q427 396 413 412T354 429Q313 429 275 411T205 360T151 287T120 201Q112 161 118 128T150 75T225 55Q276 55 313 69T376 102T420 135T450 149Q464 149 471 139T474 111Q470 93 448
73T392 33T317 2T235 -10ZM344 567Q325 567 317 574T311 592Q314 606 325 615T360 640Q392 660 405 676T432 721Q444 748 454 757T477 766Q500 766 507 750T511 715Q503 676 475 642T412 588T344 567Z" />
<glyph unicode="&#xea;" glyph-name="ecircumflex" horiz-adv-x="552" d="M235 -10Q176 -10 137 7T77 55T52 128T57 220Q67 268 94 316T161 405T250 470T353 495Q405 495 437 480T482 433T486 354Q478 314 454 282T394 227T312 192T216 180Q149 180 128 194T110
227Q112 238 119 243T140 249Q151 249 167 245T216 241Q271 241 314 256T385 299T420 363Q427 396 413 412T354 429Q313 429 275 411T205 360T151 287T120 201Q112 161 118 128T150 75T225 55Q276 55 313 69T376 102T420 135T450 149Q464 149 471 139T474 111Q470
93 448 73T392 33T317 2T235 -10ZM214 567Q203 567 196 571T186 581T185 595Q186 602 192 609T219 633T281 682Q318 710 336 727T368 753T401 761Q422 761 435 751T464 710Q480 676 495 656T523 624T541 605T546 586Q544 578 535 573T513 567Q490 567 472 576T434
612T386 695L403 696Q350 649 317 623T264 585T233 570T214 567Z" />
<glyph unicode="&#xeb;" glyph-name="edieresis" horiz-adv-x="552" d="M235 -10Q176 -10 137 7T77 55T52 128T57 220Q67 268 94 316T161 405T250 470T353 495Q405 495 437 480T482 433T486 354Q478 314 454 282T394 227T312 192T216 180Q149 180 128 194T110
227Q112 238 119 243T140 249Q151 249 167 245T216 241Q271 241 314 256T385 299T420 363Q427 396 413 412T354 429Q313 429 275 411T205 360T151 287T120 201Q112 161 118 128T150 75T225 55Q276 55 313 69T376 102T420 135T450 149Q464 149 471 139T474 111Q470
93 448 73T392 33T317 2T235 -10ZM482 588Q455 588 440 608T429 654Q434 677 453 694T497 712Q519 712 534 703T555 678T557 646Q554 630 535 609T482 588ZM249 578Q229 578 216 587T198 612T197 649Q202 672 220 690T262 708Q288 708 303 699T323 674T325 639Q320
615 301 597T249 578Z" />
<glyph unicode="&#xec;" glyph-name="igrave" horiz-adv-x="276" d="M93 -11Q81 -11 74 -2T64 22T65 53Q81 137 92 195T112 296T127 376T142 456Q144 468 149 477T162 491T181 496Q199 496 209 483T216 445Q211 422 202 380T182 285T158 181T137 86T122 17Q120
4 113 -3T93 -11ZM210 564Q188 564 166 579T126 618T100 671T96 724Q100 742 108 753T133 764Q152 764 159 754T173 706Q178 674 190 656T215 627T236 609T242 589Q239 576 232 570T210 564Z" />
<glyph unicode="&#xed;" glyph-name="iacute" horiz-adv-x="276" d="M93 -11Q81 -11 74 -2T64 22T65 53Q81 137 92 195T112 296T127 376T142 456Q144 468 149 477T162 491T181 496Q199 496 209 483T216 445Q211 422 202 380T182 285T158 181T137 86T122 17Q120
4 113 -3T93 -11ZM185 567Q166 567 158 574T152 592Q155 606 166 615T201 640Q233 660 246 676T273 721Q285 748 295 757T318 766Q341 766 348 750T352 715Q344 676 316 642T253 588T185 567Z" />
<glyph unicode="&#xee;" glyph-name="icircumflex" horiz-adv-x="276" d="M93 -11Q81 -11 74 -2T64 22T65 53Q81 137 92 195T112 296T127 376T142 456Q144 468 149 477T162 491T181 496Q199 496 209 483T216 445Q211 422 202 380T182 285T158 181T137 86T122 17Q120
4 113 -3T93 -11ZM55 567Q44 567 37 571T27 581T26 595Q27 602 33 609T60 633T122 682Q159 710 177 727T209 753T242 761Q263 761 276 751T305 710Q321 676 336 656T364 624T382 605T387 586Q385 578 376 573T354 567Q331 567 313 576T275 612T227 695L244 696Q191
649 158 623T105 585T74 570T55 567Z" />
<glyph unicode="&#xef;" glyph-name="idieresis" horiz-adv-x="276" d="M93 -11Q81 -11 74 -2T64 22T65 53Q81 137 92 195T112 296T127 376T142 456Q144 468 149 477T162 491T181 496Q199 496 209 483T216 445Q211 422 202 380T182 285T158 181T137 86T122 17Q120
4 113 -3T93 -11ZM323 588Q296 588 281 608T270 654Q275 677 294 694T338 712Q360 712 375 703T396 678T398 646Q395 630 376 609T323 588ZM90 578Q70 578 57 587T39 612T38 649Q43 672 61 690T103 708Q129 708 144 699T164 674T166 639Q161 615 142 597T90 578Z"
/>
<glyph unicode="&#xf0;" glyph-name="eth" horiz-adv-x="590" d="M248 -10Q191 -10 152 10T89 65T60 142T62 230Q73 284 104 327T185 395T301 420Q366 420 408 404T470 364T484 315Q481 302 476 296T457 289Q444 289 434 299T408 322T366 345T292 355Q241 355
207 335T154 284T128 221Q116 161 131 125T179 72T251 55Q300 55 341 72T413 130T457 239Q471 307 452 383T385 537T264 683Q240 705 236 714T232 736Q234 749 243 755T264 761Q271 761 278 758T294 748T316 729Q397 651 448 564T518 391T522 229Q507 154 473 101T383
19T248 -10ZM185 521Q163 513 150 518T140 539Q143 555 156 567T212 593Q301 622 385 640T541 658Q560 658 571 649T580 625Q577 611 568 605T539 597Q460 590 402 581T292 557T185 521Z" />
<glyph unicode="&#xf1;" glyph-name="ntilde" horiz-adv-x="596" d="M478 -9Q448 -9 431 17T413 103T433 265Q444 321 448 354T452 406T445 436T429 459Q448 461 459 455T475 434T476 396Q469 416 461 422T439 429Q419 429 386 402T314 325T234 210T159 65Q140
20 128 6T97 -9Q63 -9 55 36T59 151Q70 202 82 240T106 312T130 382T151 465Q153 478 162 486T184 495Q197 495 208 481T211 429Q204 395 192 362T165 289T137 199T113 81L99 74Q160 212 223 306T345 448T452 496Q483 496 500 478T522 425T516 342Q500 262 489
204T479 107T499 50Q507 43 510 34T511 14Q509 4 501 -2T478 -9ZM213 600Q197 600 190 618T186 659Q191 685 205 709T244 749T307 765Q348 765 371 749T410 713T439 676T472 660Q488 660 498 670T514 697T526 729T542 755T571 766Q585 766 593 751T596 708Q584
651 551 620T468 589Q433 589 412 604T374 641T342 677T301 693Q280 693 271 679T255 647T241 614T213 600Z" />
<glyph unicode="&#xf2;" glyph-name="ograve" horiz-adv-x="591" d="M260 -12Q182 -12 133 22T67 117T64 256Q76 314 102 356T161 425T225 466T278 479Q286 479 291 477T298 471T299 458Q295 442 287 430T256 405Q216 385 191 363T150 313T128 243Q110 154 146
101T259 48Q334 48 390 103T464 252Q481 337 455 385T363 434Q329 434 307 422T259 390Q240 374 230 362T213 342T192 334Q179 334 174 341T172 363Q176 383 194 406T241 449T301 481T367 494Q433 494 474 461T530 370T529 236Q515 162 477 106T383 19T260 -12ZM390
564Q368 564 346 579T306 618T280 671T276 724Q280 742 288 753T313 764Q332 764 339 754T353 706Q358 674 370 656T395 627T416 609T422 589Q419 576 412 570T390 564Z" />
<glyph unicode="&#xf3;" glyph-name="oacute" horiz-adv-x="591" d="M260 -12Q182 -12 133 22T67 117T64 256Q76 314 102 356T161 425T225 466T278 479Q286 479 291 477T298 471T299 458Q295 442 287 430T256 405Q216 385 191 363T150 313T128 243Q110 154 146
101T259 48Q334 48 390 103T464 252Q481 337 455 385T363 434Q329 434 307 422T259 390Q240 374 230 362T213 342T192 334Q179 334 174 341T172 363Q176 383 194 406T241 449T301 481T367 494Q433 494 474 461T530 370T529 236Q515 162 477 106T383 19T260 -12ZM365
567Q346 567 338 574T332 592Q335 606 346 615T381 640Q413 660 426 676T453 721Q465 748 475 757T498 766Q521 766 528 750T532 715Q524 676 496 642T433 588T365 567Z" />
<glyph unicode="&#xf4;" glyph-name="ocircumflex" horiz-adv-x="591" d="M260 -12Q182 -12 133 22T67 117T64 256Q76 314 102 356T161 425T225 466T278 479Q286 479 291 477T298 471T299 458Q295 442 287 430T256 405Q216 385 191 363T150 313T128 243Q110 154
146 101T259 48Q334 48 390 103T464 252Q481 337 455 385T363 434Q329 434 307 422T259 390Q240 374 230 362T213 342T192 334Q179 334 174 341T172 363Q176 383 194 406T241 449T301 481T367 494Q433 494 474 461T530 370T529 236Q515 162 477 106T383 19T260
-12ZM235 567Q224 567 217 571T207 581T206 595Q207 602 213 609T240 633T302 682Q339 710 357 727T389 753T422 761Q443 761 456 751T485 710Q501 676 516 656T544 624T562 605T567 586Q565 578 556 573T534 567Q511 567 493 576T455 612T407 695L424 696Q371
649 338 623T285 585T254 570T235 567Z" />
<glyph unicode="&#xf5;" glyph-name="otilde" horiz-adv-x="591" d="M260 -12Q182 -12 133 22T67 117T64 256Q76 314 102 356T161 425T225 466T278 479Q286 479 291 477T298 471T299 458Q295 442 287 430T256 405Q216 385 191 363T150 313T128 243Q110 154 146
101T259 48Q334 48 390 103T464 252Q481 337 455 385T363 434Q329 434 307 422T259 390Q240 374 230 362T213 342T192 334Q179 334 174 341T172 363Q176 383 194 406T241 449T301 481T367 494Q433 494 474 461T530 370T529 236Q515 162 477 106T383 19T260 -12ZM227
600Q211 600 204 618T200 659Q205 685 219 709T258 749T321 765Q362 765 385 749T424 713T453 676T486 660Q502 660 512 670T528 697T540 729T556 755T585 766Q599 766 607 751T610 708Q598 651 565 620T482 589Q447 589 426 604T388 641T356 677T315 693Q294 693
285 679T269 647T255 614T227 600Z" />
<glyph unicode="&#xf6;" glyph-name="odieresis" horiz-adv-x="591" d="M260 -12Q182 -12 133 22T67 117T64 256Q76 314 102 356T161 425T225 466T278 479Q286 479 291 477T298 471T299 458Q295 442 287 430T256 405Q216 385 191 363T150 313T128 243Q110 154
146 101T259 48Q334 48 390 103T464 252Q481 337 455 385T363 434Q329 434 307 422T259 390Q240 374 230 362T213 342T192 334Q179 334 174 341T172 363Q176 383 194 406T241 449T301 481T367 494Q433 494 474 461T530 370T529 236Q515 162 477 106T383 19T260
-12ZM503 588Q476 588 461 608T450 654Q455 677 474 694T518 712Q540 712 555 703T576 678T578 646Q575 630 556 609T503 588ZM270 578Q250 578 237 587T219 612T218 649Q223 672 241 690T283 708Q309 708 324 699T344 674T346 639Q341 615 322 597T270 578Z" />
<glyph unicode="&#xf7;" glyph-name="divide" horiz-adv-x="700" d="M139 264Q115 258 106 267T99 291Q103 309 116 320T170 338Q235 349 306 358T447 374T577 380Q596 380 608 370T617 345Q614 331 605 325T576 317Q503 314 444 309T333 298T234 283T139 264ZM315
45Q283 45 265 70T253 126Q257 147 274 160T311 174Q335 174 349 162T369 132T372 96Q368 77 354 61T315 45ZM415 462Q383 462 365 487T354 543Q357 564 374 577T411 591Q435 591 450 579T470 549T473 513Q469 494 455 478T415 462Z" />
<glyph unicode="&#xf8;" glyph-name="oslash" horiz-adv-x="600" d="M273 -12Q199 -12 147 22T74 117T68 256Q79 309 106 350T167 420T230 464T275 479Q283 479 288 477T295 471T296 458Q292 442 284 430T253 405Q216 384 193 361T155 311T135 253Q116 159 154
104T274 48Q344 48 397 100T467 242Q485 331 458 382T368 434Q332 434 307 423T256 390Q237 374 227 362T210 342T189 334Q176 334 171 341T169 363Q173 383 192 406T240 449T303 481T372 494Q436 494 477 461T534 368T532 226Q519 159 482 105T391 20T273 -12ZM125
45Q114 45 108 52T104 70Q106 82 115 97T150 140T223 214T352 333T552 514Q577 536 592 544T627 553Q641 553 645 542T642 514T608 474Q485 371 405 298T274 175T197 98T154 57T125 45ZM4 -94Q-12 -94 -18 -85T-22 -62T-7 -33Q34 15 58 41T97 78T122 89Q138 89
146 82T151 58Q149 51 137 37T102 -3T44 -68Q33 -81 23 -87T4 -94Z" />
<glyph unicode="&#xf9;" glyph-name="ugrave" horiz-adv-x="559" d="M246 -10Q186 -10 147 15T88 84T65 181T73 291Q82 338 98 379T140 465Q145 476 154 481T174 486Q190 486 196 476T199 448Q196 432 190 419T174 388T156 346T138 281Q128 232 130 190T147 117T186
69T245 52Q289 52 328 84T397 183T449 354Q454 382 455 399T458 430T463 461Q466 474 472 481T492 489Q507 489 515 474T524 426T514 340Q490 218 448 141T354 27T246 -10ZM361 564Q339 564 317 579T277 618T251 671T247 724Q251 742 259 753T284 764Q303 764 310
754T324 706Q329 674 341 656T366 627T387 609T393 589Q390 576 383 570T361 564Z" />
<glyph unicode="&#xfa;" glyph-name="uacute" horiz-adv-x="559" d="M246 -10Q186 -10 147 15T88 84T65 181T73 291Q82 338 98 379T140 465Q145 476 154 481T174 486Q190 486 196 476T199 448Q196 432 190 419T174 388T156 346T138 281Q128 232 130 190T147 117T186
69T245 52Q289 52 328 84T397 183T449 354Q454 382 455 399T458 430T463 461Q466 474 472 481T492 489Q507 489 515 474T524 426T514 340Q490 218 448 141T354 27T246 -10ZM336 567Q317 567 309 574T303 592Q306 606 317 615T352 640Q384 660 397 676T424 721Q436
748 446 757T469 766Q492 766 499 750T503 715Q495 676 467 642T404 588T336 567Z" />
<glyph unicode="&#xfb;" glyph-name="ucircumflex" horiz-adv-x="559" d="M246 -10Q186 -10 147 15T88 84T65 181T73 291Q82 338 98 379T140 465Q145 476 154 481T174 486Q190 486 196 476T199 448Q196 432 190 419T174 388T156 346T138 281Q128 232 130 190T147
117T186 69T245 52Q289 52 328 84T397 183T449 354Q454 382 455 399T458 430T463 461Q466 474 472 481T492 489Q507 489 515 474T524 426T514 340Q490 218 448 141T354 27T246 -10ZM206 567Q195 567 188 571T178 581T177 595Q178 602 184 609T211 633T273 682Q310
710 328 727T360 753T393 761Q414 761 427 751T456 710Q472 676 487 656T515 624T533 605T538 586Q536 578 527 573T505 567Q482 567 464 576T426 612T378 695L395 696Q342 649 309 623T256 585T225 570T206 567Z" />
<glyph unicode="&#xfc;" glyph-name="udieresis" horiz-adv-x="559" d="M246 -10Q186 -10 147 15T88 84T65 181T73 291Q82 338 98 379T140 465Q145 476 154 481T174 486Q190 486 196 476T199 448Q196 432 190 419T174 388T156 346T138 281Q128 232 130 190T147
117T186 69T245 52Q289 52 328 84T397 183T449 354Q454 382 455 399T458 430T463 461Q466 474 472 481T492 489Q507 489 515 474T524 426T514 340Q490 218 448 141T354 27T246 -10ZM474 588Q447 588 432 608T421 654Q426 677 445 694T489 712Q511 712 526 703T547
678T549 646Q546 630 527 609T474 588ZM241 578Q221 578 208 587T190 612T189 649Q194 672 212 690T254 708Q280 708 295 699T315 674T317 639Q312 615 293 597T241 578Z" />
<glyph unicode="&#xfd;" glyph-name="yacute" horiz-adv-x="563" d="M182 -261Q130 -261 92 -252T36 -227T21 -191Q23 -179 31 -172T56 -164Q67 -164 76 -168T97 -179T132 -189T193 -194Q245 -194 279 -171T335 -104T368 -5Q373 22 375 49T381 109T390 189T408
299L432 271Q399 195 366 147T303 73T245 38T197 28Q143 28 111 61T73 163T88 343Q100 408 112 441T137 485T163 497Q173 497 179 491T185 469T175 421Q156 348 148 288T143 184T161 117T202 93Q246 93 288 140T367 268T436 452Q445 480 452 488T474 496Q482 496
489 492T500 477T503 448T493 400Q478 349 471 309T460 233T455 159T448 78T432 -25Q419 -93 395 -138T338 -211T266 -249T182 -261ZM318 567Q299 567 291 574T285 592Q288 606 299 615T334 640Q366 660 379 676T406 721Q418 748 428 757T451 766Q474 766 481 750T485
715Q477 676 449 642T386 588T318 567Z" />
<glyph unicode="&#xfe;" glyph-name="thorn" horiz-adv-x="593" d="M269 -10Q209 -10 167 6T103 45T85 88Q88 100 94 108T116 117Q129 117 137 108T158 87T196 65T267 56Q338 56 388 87T454 197Q468 266 449 318T385 400T273 429Q234 429 214 424T179 418Q171
418 166 421T159 430T158 441Q163 463 191 478T279 494Q344 494 395 472T480 409T524 311T522 181Q510 120 474 77T384 12T269 -10ZM38 -260Q23 -260 12 -248T-4 -210T-7 -142T8 -42Q34 90 62 195T114 385T153 545Q161 583 164 610T168 657T170 692T174 723Q177
741 186 750T206 760Q223 760 232 741T241 680T225 564Q208 478 182 380T129 178T80 -31Q69 -88 67 -122T66 -174T71 -205T71 -231Q68 -244 60 -252T38 -260Z" />
<glyph unicode="&#xff;" glyph-name="ydieresis" horiz-adv-x="563" d="M182 -261Q130 -261 92 -252T36 -227T21 -191Q23 -179 31 -172T56 -164Q67 -164 76 -168T97 -179T132 -189T193 -194Q245 -194 279 -171T335 -104T368 -5Q373 22 375 49T381 109T390 189T408
299L432 271Q399 195 366 147T303 73T245 38T197 28Q143 28 111 61T73 163T88 343Q100 408 112 441T137 485T163 497Q173 497 179 491T185 469T175 421Q156 348 148 288T143 184T161 117T202 93Q246 93 288 140T367 268T436 452Q445 480 452 488T474 496Q482 496
489 492T500 477T503 448T493 400Q478 349 471 309T460 233T455 159T448 78T432 -25Q419 -93 395 -138T338 -211T266 -249T182 -261ZM456 588Q429 588 414 608T403 654Q408 677 427 694T471 712Q493 712 508 703T529 678T531 646Q528 630 509 609T456 588ZM223
578Q203 578 190 587T172 612T171 649Q176 672 194 690T236 708Q262 708 277 699T297 674T299 639Q294 615 275 597T223 578Z" />
<glyph unicode="&#x2013;" glyph-name="endash" horiz-adv-x="700" d="M112 212Q92 212 79 216T60 228T55 242Q58 250 66 260T93 271Q219 279 335 282T570 285Q601 285 618 279T642 266T647 251Q645 238 630 230T590 222Q477 222 398 221T264 217T173 214T112 212Z" />
<glyph unicode="&#x2014;" glyph-name="emdash" horiz-adv-x="1000" d="M112 212Q92 212 79 216T60 228T55 242Q58 250 66 260T93 271Q297 279 486 282T870 285Q901 285 918 279T942 266T947 251Q945 238 930 230T890 222Q707 222 577 221T359 217T212 214T112 212Z" />
<glyph unicode="&#x2018;" glyph-name="quoteleft" horiz-adv-x="212" d="M145 479Q131 479 123 486T113 504T112 527Q130 583 167 646T252 762Q280 792 296 800T328 809Q339 809 344 804T352 790T352 772Q351 765 345 757T319 730Q267 679 237 629T191 534Q179
501 169 490T145 479Z" />
<glyph unicode="&#x2019;" glyph-name="quoteright" horiz-adv-x="212" d="M97 440Q78 440 72 457T85 494Q119 531 145 572T193 660T228 764Q236 789 246 800T276 812Q290 812 299 806T311 788T311 758Q305 726 290 686T254 604T208 529T160 473Q136 453 122 447T97 440Z" />
<glyph unicode="&#x201a;" glyph-name="quotesinglbase" horiz-adv-x="259" d="M-72 -205Q-91 -205 -97 -188T-84 -151Q-50 -114 -24 -73T24 15T59 119Q67 144 77 155T107 167Q121 167 130 161T142 143T142 113Q136 81 121 41T85 -41T39 -116T-9 -172Q-33 -192
-47 -198T-72 -205Z" />
<glyph unicode="&#x201c;" glyph-name="quotedblleft" horiz-adv-x="471" d="M155 455Q142 455 134 465T124 493T125 529Q136 585 175 649T266 768Q294 796 309 802T337 809Q351 809 359 801T369 780T369 755Q368 748 363 740T337 713Q285 663 256 615T210 524Q193
483 181 469T155 455ZM366 408Q353 408 345 418T334 446T336 482Q345 528 372 582T438 678Q464 706 479 712T507 719Q522 719 530 712T542 693T542 670Q541 663 535 653T509 621Q472 583 453 546T420 477Q403 436 392 422T366 408Z" />
<glyph unicode="&#x201d;" glyph-name="quotedblright" horiz-adv-x="480" d="M152 439Q136 439 129 448T125 474Q128 491 143 514T180 567T224 638T262 732Q276 778 291 795T325 812Q348 812 358 794T364 751Q360 729 346 694T312 620T267 544T218 480Q196 456
181 448T152 439ZM398 437Q385 437 378 445T372 469Q375 486 386 503T414 542T448 599T480 684Q492 725 507 736T535 748Q556 748 566 734T572 691Q564 645 534 588T457 474Q441 452 426 445T398 437Z" />
<glyph unicode="&#x201e;" glyph-name="quotedblbase" horiz-adv-x="459" d="M-57 -207Q-73 -207 -80 -198T-84 -172Q-81 -155 -66 -132T-29 -79T15 -8T53 86Q67 132 82 149T116 166Q139 166 149 148T155 105Q151 83 137 48T103 -26T58 -102T9 -166Q-13 -190 -28
-198T-57 -207ZM189 -209Q176 -209 169 -201T163 -177Q166 -160 177 -143T205 -104T239 -47T271 38Q283 79 298 90T326 102Q347 102 357 88T363 45Q355 -1 325 -58T248 -172Q232 -194 217 -201T189 -209Z" />
<glyph unicode="&#x2022;" glyph-name="bullet" horiz-adv-x="500" d="M241 140Q202 140 176 158T138 207T134 272Q141 303 155 324T186 355T218 366Q231 366 234 361Q245 371 255 373T290 376Q344 376 364 340T372 247Q361 194 325 167T241 140Z" />
<glyph unicode="&#x2039;" glyph-name="guilsinglleft" horiz-adv-x="338" d="M219 20Q212 20 206 21T189 29Q163 45 131 74T74 138T42 211Q39 235 41 249T59 280Q84 309 122 341T198 402T263 445Q279 454 286 456T297 458Q312 458 318 447T321 422Q320 412 313
403T288 384Q260 369 225 344T153 286T85 216L99 259Q106 223 129 189T183 127T244 85Q254 81 258 75T260 57Q257 37 244 29T219 20Z" />
<glyph unicode="&#x203a;" glyph-name="guilsinglright" horiz-adv-x="368" d="M50 20Q35 20 29 31T25 56Q27 67 34 77T57 96Q89 113 128 141T207 206T283 284L268 239Q262 275 237 308T175 368T98 407Q86 411 81 417T78 431Q82 451 95 461T120 471Q127 471 133
470T153 463Q190 448 228 420T294 358T328 287Q332 263 329 249T312 218Q291 194 262 167T200 114T137 66T84 33Q67 24 61 22T50 20Z" />
</font>
</defs>
</svg>
