<?xml version="1.0" standalone="no"?>
<!DOCTYPE svg PUBLIC "-//W3C//DTD SVG 1.1//EN" "http://www.w3.org/Graphics/SVG/1.1/DTD/svg11.dtd">
<svg xmlns="http://www.w3.org/2000/svg">
<defs >
<font id="ShantellSans" horiz-adv-x="950" ><font-face
    font-family="Shantell Sans Medium"
    units-per-em="1000"
    panose-1="0 0 0 0 0 0 0 0 0 0"
    ascent="1020"
    descent="-320"
    alphabetic="0" />
<glyph unicode=" " glyph-name="space" horiz-adv-x="342" />
<glyph unicode="!" glyph-name="exclam" horiz-adv-x="283" d="M143 226Q122 226 111 238T98 274Q100 327 105 367T119 455Q128 501 137 535T155 599T170 661Q173 683 186 698T223 714Q251 714 265 694T272 632Q266 607 259 584T244 531T227 457Q220 424 217 400T212
358T207 323T202 288Q195 255 178 241T143 226ZM104 -11Q63 -11 41 9T26 67Q32 99 54 116T105 134Q154 134 170 108T181 47Q176 23 157 6T104 -11Z" />
<glyph unicode="&quot;" glyph-name="quotedbl" horiz-adv-x="471" d="M366 394Q340 394 326 411T325 461Q343 505 359 555T381 655Q385 681 400 698T443 716Q467 716 480 705T494 674Q492 616 473 552T426 433Q416 415 401 405T366 394ZM135 394Q118 394 106
405T91 434T98 472Q117 510 133 559T150 655Q151 672 159 686T180 708T212 716Q237 716 250 704T264 673Q265 636 256 594T230 511T194 433Q173 394 135 394Z" />
<glyph unicode="#" glyph-name="numbersign" horiz-adv-x="954" d="M188 -112Q162 -111 147 -93T135 -38Q139 10 160 76T212 218T277 372T343 523T395 656T420 756Q424 785 438 800T475 815Q507 816 522 799T532 746Q529 706 508 645T456 510T390 357T324 201T272
57T247 -60Q243 -84 227 -98T188 -112ZM120 137Q87 137 68 147T42 175T34 209Q35 231 51 244T91 257Q210 257 336 259T588 264T828 267Q854 267 867 256T881 221Q881 206 872 191T845 167T797 156Q719 155 631 152T452 146T276 140T120 137ZM527 -164Q498 -163
483 -146T471 -95Q477 -27 499 46T552 195T617 342T681 481T732 605T757 706Q760 732 774 747T814 763Q844 764 859 747T868 684Q864 644 844 589T794 469T730 332T665 185T613 35T585 -112Q582 -136 565 -150T527 -164ZM880 433Q704 433 548 432T239 437Q205 438
186 447T160 471T153 500Q153 522 167 535T209 548Q229 548 251 548T304 546T383 543T500 540T668 538T901 537Q951 537 953 495Q954 470 935 452T880 433Z" />
<glyph unicode="$" glyph-name="dollar" horiz-adv-x="700" d="M214 -9Q150 -9 110 4T52 40T38 86Q41 103 51 113T86 124Q104 124 117 118T153 105T220 99Q291 99 344 106T437 127T507 165Q507 192 484 211T423 244T342 272T256 301T180 338T129 388T120 459Q129
502 160 537T239 600T343 648T455 683T563 703T651 710Q676 710 690 702T708 682T709 652Q705 632 688 618T639 601Q518 590 429 566T290 511T233 447Q230 430 251 417T308 391T389 365T477 334T554 292T606 235T614 158Q603 103 550 66T410 10T214 -9ZM272 -147Q242
-147 229 -133T217 -102Q218 -45 225 6T245 105T275 201T311 301Q319 321 331 331T361 342Q380 342 390 324T393 271Q377 220 362 161T337 39T325 -88Q321 -116 310 -131T272 -147ZM370 289Q344 288 335 307T335 363Q354 422 371 486T399 617T410 753Q411 769 418
783T440 806T476 815Q496 815 509 804T522 774Q523 692 507 616T466 467T413 327Q405 309 396 299T370 289Z" />
<glyph unicode="%" glyph-name="percent" horiz-adv-x="942" d="M172 -21Q150 -21 139 -7T128 29T148 72Q219 158 294 239T448 396T609 544T777 681Q802 701 820 708T855 716Q874 716 883 704T892 674T878 634T841 593Q718 501 615 410T419 222T237 18Q221 -2
204 -11T172 -21ZM280 381Q217 381 177 404T122 469T116 562Q124 605 153 640T222 697T307 718Q329 718 339 704T346 669Q343 655 332 643T300 622Q264 608 248 590T227 548Q221 519 236 500T288 481Q323 481 344 498T371 544Q376 571 363 591T324 612Q300 612
285 623T274 659Q279 685 297 697T336 710Q392 710 427 687T476 622T479 530Q471 485 442 452T371 400T280 381ZM642 -12Q578 -12 538 13T484 80T479 174Q487 213 514 244T580 293T663 311Q687 311 697 301T704 270Q701 252 692 239T664 224Q627 218 610 199T586
155Q580 125 598 107T650 89Q685 89 709 109T742 163Q748 197 731 221T677 245Q652 245 641 257T634 295Q639 321 656 332T697 344Q755 344 792 317T845 245T849 146Q839 99 810 64T737 8T642 -12Z" />
<glyph unicode="&amp;" glyph-name="ampersand" horiz-adv-x="645" d="M487 -137Q463 -137 452 -124T445 -91Q448 -77 453 -68T466 -52T479 -35T488 -12Q491 6 485 25T454 70T384 135T262 233Q201 279 165 318T111 393T92 460T95 527Q105 576 139 617T232 685T378
711Q448 711 493 698T575 662Q595 650 601 635T604 603Q600 582 585 569T546 555Q531 555 518 562T486 579T440 596T370 604Q300 604 256 578T204 509Q199 487 202 467T222 423T270 372T353 305Q438 242 488 195T564 109T594 38T593 -25Q590 -43 581 -62T559 -99T527
-126T487 -137ZM193 -17Q141 -17 101 9T43 82T35 185Q46 241 79 280T156 349Q177 362 195 362T226 348Q234 339 230 322T215 294Q181 265 166 240T142 180Q138 155 145 134T167 99T204 86Q255 86 307 119T424 223T570 402Q585 421 597 430T624 439Q648 439 660
421T668 376Q667 368 661 356T639 324Q561 225 499 159T384 54T286 -1T193 -17Z" />
<glyph unicode="&apos;" glyph-name="quotesingle" horiz-adv-x="268" d="M151 394Q134 394 122 405T107 434T114 472Q133 511 150 560T166 656Q167 674 175 687T198 708T229 716Q253 716 266 704T280 674Q281 637 272 595T246 511T209 433Q189 394 151 394Z" />
<glyph unicode="(" glyph-name="parenleft" horiz-adv-x="452" d="M269 -262Q256 -262 244 -259T210 -246Q148 -218 107 -158T53 -7T65 209Q88 321 138 423T255 615T398 781Q417 800 434 805T465 811Q483 811 495 803T513 781T515 754Q513 744 507 733T484 706Q418
640 355 559T244 383T174 184Q147 46 180 -40T296 -161Q319 -170 327 -183T331 -212Q329 -227 320 -238T298 -255T269 -262Z" />
<glyph unicode=")" glyph-name="parenright" horiz-adv-x="430" d="M-6 -260Q-21 -260 -34 -254T-55 -236T-60 -207Q-57 -194 -49 -183T-22 -159Q53 -109 111 -46T208 95T265 259Q287 367 279 452T239 600T162 698Q140 716 133 731T129 762Q133 783 150 797T187
811Q203 811 215 806T247 786Q289 754 321 701T371 578T391 422T374 238Q354 137 312 49T208 -111T70 -232Q46 -249 28 -254T-6 -260Z" />
<glyph unicode="*" glyph-name="asterisk" horiz-adv-x="494" d="M126 334Q106 334 94 348T85 380Q87 387 91 395T104 413Q136 444 183 475T282 538T376 599T443 657Q455 670 466 676T492 683Q511 683 522 671T530 640Q528 631 523 620T506 596Q484 571 442 543T349
484T250 420T169 351Q159 342 149 338T126 334ZM265 241Q246 241 237 251T228 279Q228 325 236 375T256 475T275 560Q283 603 283 628T280 669T274 696T274 723Q277 738 287 747T317 757Q341 757 356 734T374 667T365 562Q358 526 347 481T328 387T319 295Q319
269 303 255T265 241ZM441 371Q432 371 424 375T397 393Q366 416 330 439T257 484T187 525T129 561Q110 573 106 588T105 617Q108 633 118 642T144 652Q157 652 165 649T189 636Q222 615 270 588T372 527T476 454Q494 442 489 416Q485 397 472 384T441 371Z" />
<glyph unicode="+" glyph-name="plus" horiz-adv-x="700" d="M129 245Q100 241 88 257T81 295Q86 318 101 334T164 358Q228 371 298 379T436 393T563 398Q598 398 616 382T630 340Q626 321 614 311T573 300Q485 298 420 292T303 277T211 260T129 245ZM300 35Q279
35 268 51T262 108Q270 170 283 230T310 347T338 455T360 552Q363 574 375 589T411 604Q441 604 455 583T461 514Q452 468 439 411T410 296T383 185T362 96Q356 63 338 49T300 35Z" />
<glyph unicode="," glyph-name="comma" horiz-adv-x="269" d="M-20 -173Q-38 -173 -47 -164T-53 -138Q-51 -127 -44 -113T-22 -76Q-1 -44 12 -14T33 46T47 103Q53 135 69 152T112 170Q151 170 169 150T179 89Q173 57 157 20T119 -55T71 -123Q53 -145 29 -159T-20 -173Z" />
<glyph unicode="-" glyph-name="hyphen" horiz-adv-x="495" d="M143 198Q110 198 89 206T58 229T52 257Q55 268 63 278T92 292Q159 305 220 311T343 317Q386 317 409 306T440 280T445 253Q442 235 427 225T387 214Q312 214 264 210T188 202T143 198Z" />
<glyph unicode="." glyph-name="period" horiz-adv-x="287" d="M109 -12Q63 -12 40 14T24 83Q31 113 53 131T104 150Q140 150 160 135T187 97T189 51Q184 25 164 7T109 -12Z" />
<glyph unicode="/" glyph-name="slash" horiz-adv-x="380" d="M-10 -190Q-42 -190 -53 -167T-54 -108Q-11 7 40 124T150 356T275 576T414 776Q437 808 457 822T499 836Q520 835 532 820T544 780T518 722Q409 581 327 442T182 161T64 -130Q53 -160 34 -175T-10 -190Z" />
<glyph unicode="0" glyph-name="zero" horiz-adv-x="703" d="M287 -11Q213 -11 158 25T80 133T78 316Q93 390 127 449T203 549T283 612T345 635Q368 635 376 625T379 588Q376 574 367 561T341 537Q303 513 272 478T218 398T185 302Q173 244 180 198T215 124T293
97Q345 97 398 130T493 227T553 385Q566 447 562 496T534 574T466 603Q428 603 394 592T330 559T270 507Q260 498 248 491T219 483Q194 483 181 499T173 540Q178 562 203 591T269 647T363 693T478 711Q559 711 606 669T667 550T660 371Q641 272 601 200T509 81T400
12T287 -11Z" />
<glyph unicode="1" glyph-name="one" horiz-adv-x="411" d="M269 47Q264 19 249 4T210 -12Q181 -12 168 5T162 56Q180 144 200 239T244 428T297 605L323 580Q285 554 255 540T202 519T161 513Q128 513 115 531T105 577Q109 594 122 605T159 620Q197 626 232 644T308
689Q325 700 339 705T370 711Q392 711 405 700T422 670T418 628Q402 587 383 524T344 383T304 220T269 47Z" />
<glyph unicode="2" glyph-name="two" horiz-adv-x="700" d="M129 -20Q81 -20 62 3T50 69Q54 90 64 102T88 123Q202 187 283 240T416 340T496 426T532 505Q541 551 521 577T448 604Q400 604 361 592T291 564T238 536T201 523Q178 523 166 540T159 580Q162 595 170
606T198 630Q259 670 328 691T464 713Q543 713 585 685T640 608T640 497Q632 453 606 405T528 305T390 194T175 68L159 102Q174 96 189 94T221 91Q256 91 302 95T403 104T518 109Q574 109 590 90T602 45Q598 26 580 13T532 0Q453 0 393 -3T285 -10T200 -17T129
-20Z" />
<glyph unicode="3" glyph-name="three" horiz-adv-x="700" d="M519 -12Q440 -12 393 5T327 48T313 100Q317 120 330 132T364 145Q379 145 388 138T411 121T448 104T519 97Q590 97 643 112T730 153T770 213Q777 249 756 269T686 298T565 307Q532 307 519 326T511
370Q514 385 525 396T558 411Q615 424 661 442T738 485T775 546Q780 572 771 585T744 602T703 607Q642 607 600 597T529 574T481 551T442 541Q427 541 418 547T404 564T403 590Q406 610 432 631T500 671T595 700T705 712Q778 712 821 691T881 633T887 544Q881 516
867 488T824 435T750 391T638 361L641 387Q714 387 763 373T839 332T875 271T876 195Q866 146 837 108T761 43T653 2T519 -12Z" />
<glyph unicode="4" glyph-name="four" horiz-adv-x="700" d="M418 -11Q383 -11 374 29T381 157Q395 225 419 291T468 421T506 549Q512 578 512 599T510 641L545 615Q463 578 391 520T258 388T155 234L129 285Q152 274 162 272T189 269Q237 269 284 276T381 294T486
313T607 321Q632 321 648 312T671 287T673 253Q670 235 655 223T611 210Q539 210 478 203T363 186T255 169T144 161Q111 161 90 172T60 204T55 246Q61 272 74 300T118 372Q171 447 233 510T359 619T476 690T564 715Q595 715 610 696T628 642T620 559Q609 504 592
455T556 357T520 258T490 148Q482 108 482 86T479 41Q474 16 459 3T418 -11Z" />
<glyph unicode="5" glyph-name="five" horiz-adv-x="617" d="M189 -12Q123 -12 84 3T30 42T21 98Q25 118 38 129T72 140Q89 140 97 134T113 118T140 102T195 95Q239 95 281 104T358 133T416 179T447 241Q452 266 438 283T393 312T315 333Q240 349 197 363T134
395T112 437T116 496Q121 523 134 559T173 643Q188 673 205 686T247 700Q300 700 339 702T411 708T476 713T549 716Q598 716 617 696T629 648Q625 629 609 619T570 608Q520 608 480 606T402 600T319 594T216 593L289 631Q258 584 244 552T226 496Q223 486 225 478T239
463T280 448T362 430Q431 416 473 397T535 352T560 296T557 229Q543 159 493 105T365 19T189 -12Z" />
<glyph unicode="6" glyph-name="six" horiz-adv-x="700" d="M572 -10Q496 -10 442 9T356 64T315 148T316 254Q331 328 380 398T511 539T703 678Q735 698 750 704T780 711Q795 711 805 703T821 683T822 657Q819 639 809 628T770 598Q677 538 604 480T485 362T426
241Q415 187 432 156T488 111T579 97Q626 97 668 108T738 145T774 208Q779 231 770 253T734 289T653 304Q609 304 579 298T529 284T492 269T459 262Q439 262 433 271T431 296Q435 316 467 340T556 383T687 401Q762 401 809 374T874 300T880 194Q869 136 831 90T727
17T572 -10Z" />
<glyph unicode="7" glyph-name="seven" horiz-adv-x="687" d="M549 -10Q531 -10 518 -2T501 22T501 63Q511 117 541 173T610 282T687 383T753 471T786 540Q792 571 774 587T694 604Q638 604 595 596T520 577T464 558T424 550Q409 550 398 557T381 578T379 608Q381
622 391 633T418 651Q463 670 513 683T614 703T711 710Q792 710 835 686T893 621T897 531Q889 487 860 443T793 352T717 259T649 161T609 57Q601 19 587 5T549 -10ZM483 249Q450 249 433 268T420 312Q423 332 435 343T466 354Q519 354 573 361T689 375T832 382Q874
382 893 363T908 313Q904 297 891 287T854 277Q777 277 722 273T626 263T550 253T483 249Z" />
<glyph unicode="8" glyph-name="eight" horiz-adv-x="700" d="M518 -12Q437 -12 392 11T332 71T324 149Q331 176 343 201T385 254T467 319T609 402Q676 439 719 468T789 528T834 594Q845 618 857 630T887 643Q915 643 925 622T930 569Q924 536 898 498T822 417T691
332Q614 291 566 262T490 211T452 171T436 134Q432 114 431 93T440 48L396 127Q425 110 456 103T529 95Q583 95 631 107T713 143T754 205Q759 228 751 247T711 286T612 329Q535 355 487 381T415 434T384 489T384 549Q402 631 483 671T725 711Q757 711 776 701T802
676T806 643Q802 626 788 615T753 605Q664 608 609 600T525 576T492 535Q489 521 497 508T526 481T584 451T678 413Q747 386 787 358T846 302T867 244T865 186Q854 131 815 86T704 15T518 -12Z" />
<glyph unicode="9" glyph-name="nine" horiz-adv-x="700" d="M773 -9Q743 -9 728 9T713 56Q715 121 735 212T779 420L839 439Q801 381 755 342T655 284T544 264Q476 264 432 290T371 362T365 464Q375 511 403 555T475 634T576 689T702 710Q778 710 816 685T845
613Q842 595 831 583T802 571Q790 571 783 575T767 586T742 598T695 603Q635 603 589 582T513 528T476 454Q467 412 486 390T555 367Q611 367 664 390T759 465T818 602Q824 631 837 646T869 661Q901 661 916 646T931 597T907 507Q891 432 880 374T862 281Q846 207
840 162T832 90T824 39Q819 15 806 3T773 -9Z" />
<glyph unicode=":" glyph-name="colon" horiz-adv-x="290" d="M169 346Q130 346 110 370T98 439Q105 471 128 489T186 508Q219 508 238 494T263 459T264 413Q259 387 235 367T169 346ZM102 -12Q60 -12 39 13T26 78Q33 112 59 131T116 151Q148 151 166 137T191
101T192 56Q187 30 165 9T102 -12Z" />
<glyph unicode=";" glyph-name="semicolon" horiz-adv-x="289" d="M167 354Q129 354 110 376T98 432Q104 468 134 488T201 509Q243 509 258 481T267 422Q261 396 236 375T167 354ZM4 -173Q-14 -173 -23 -164T-30 -138Q-27 -127 -20 -113T1 -76Q22 -44 35 -14T56
46T70 103Q77 135 93 152T135 170Q174 170 192 150T203 89Q196 57 181 20T143 -55T95 -123Q76 -145 52 -159T4 -173Z" />
<glyph unicode="&lt;" glyph-name="less" horiz-adv-x="700" d="M534 79Q518 79 503 81T460 87Q400 97 344 115T241 155T159 204T103 256Q82 284 88 314Q91 326 99 339T128 365Q162 390 210 414T312 461T419 502T515 531Q544 539 558 540T585 542Q617 542 630
526T640 485Q637 472 630 462T610 446T575 433Q512 418 443 395T309 343T188 280L202 330Q233 295 286 266T409 216T556 182Q585 178 596 167T604 133Q598 107 577 93T534 79Z" />
<glyph unicode="=" glyph-name="equal" horiz-adv-x="700" d="M135 141Q91 134 73 148T61 188Q64 207 81 224T147 252Q243 274 338 286T521 298Q563 298 583 284T598 244Q594 225 579 214T531 202Q468 202 418 198T329 187T257 172T195 156T135 141ZM187 391Q144
386 128 401T117 443Q121 464 141 478T210 500Q270 510 328 515T440 521T536 523Q610 523 638 508T662 466Q658 446 642 434T591 422Q509 422 450 419T345 411T262 401T187 391Z" />
<glyph unicode="&gt;" glyph-name="greater" horiz-adv-x="700" d="M136 78Q105 78 92 96T84 139Q88 158 102 170T149 191Q212 207 281 230T416 283T535 345L521 295Q500 321 465 343T382 385T281 418T167 442Q139 446 127 458T119 493Q123 517 144 530T190 543Q206
543 220 542T262 535Q322 525 379 507T484 466T569 417T622 363Q633 347 635 334T635 308Q633 296 625 285T597 258Q563 234 514 210T411 162T303 121T207 91Q179 83 164 81T136 78Z" />
<glyph unicode="?" glyph-name="question" horiz-adv-x="494" d="M255 222Q226 222 205 239T175 282T172 339Q175 354 181 367T203 397T244 431T314 473Q349 492 367 505T393 530T402 555Q408 582 387 596T308 611Q262 611 232 603T180 586T139 577Q116 577 104
591T95 631Q99 647 110 660T138 680Q177 699 230 709T326 720Q402 720 446 697T506 636T512 549Q506 518 492 495T450 450T377 404Q337 382 317 368T289 345T279 326Q277 315 281 308T292 293T302 279T304 258Q301 245 288 234T255 222ZM200 -11Q161 -11 140 10T126
70Q132 100 154 117T205 134Q254 134 271 109T281 51Q276 25 256 7T200 -11Z" />
<glyph unicode="@" glyph-name="at" horiz-adv-x="878" d="M414 -131Q326 -131 253 -104T130 -25T61 99T59 264Q71 324 104 382T186 490T293 577T416 636T543 657Q620 657 674 632T762 564T813 469T832 365T827 269Q814 206 789 169T731 117T666 101Q638 101 619
110T589 134T568 168Q557 194 547 207T513 230L564 234Q547 215 530 192T491 148T444 113T382 99Q331 99 301 133T284 230Q292 270 317 306T379 368T453 410T526 426Q559 426 574 410T585 371Q582 358 575 348T556 332T532 323Q490 318 458 301T407 260T382 214Q380
202 380 188T389 153L330 218Q351 205 363 201T386 197Q404 197 418 209T454 250Q483 293 508 308T561 323Q584 323 603 312T633 266Q642 239 648 227T660 213T673 210Q685 210 694 221T710 249T721 281Q729 321 724 367T698 455T638 522T535 548Q475 548 415 523T301
456T212 360T165 250Q151 181 166 130T219 45T308 -5T420 -22Q482 -22 522 -14T588 6T632 25T667 34Q689 34 698 21T703 -17Q699 -37 684 -54T644 -83Q617 -96 586 -107T513 -124T414 -131Z" />
<glyph unicode="A" glyph-name="A" horiz-adv-x="740" d="M579 -10Q555 -10 542 8T517 67Q508 102 504 155T499 268T503 380Q509 445 512 488T514 556T505 591T483 602Q458 602 419 562T335 448T243 271T154 41Q146 16 133 4T101 -8Q69 -8 57 13T55 87Q67 147
88 203T135 316T182 427T218 537Q223 559 233 570T261 581Q277 581 291 572T314 543L268 530Q328 618 384 663T497 709Q559 709 587 675T619 569T613 381Q606 302 609 245T618 148T629 81T630 32Q626 12 613 1T579 -10ZM82 180Q51 180 39 193T31 227Q34 242 45
252T81 271Q196 308 338 327T646 347Q689 347 702 334T711 298Q706 273 679 256T611 238Q509 238 435 233T306 219T212 201T142 186T82 180Z" />
<glyph unicode="B" glyph-name="B" horiz-adv-x="601" d="M224 -13Q176 -13 144 15T94 91T75 201T87 331Q95 371 103 404T121 468T145 536T179 619Q187 639 200 647T230 655Q246 655 257 643T270 612T264 569Q247 520 235 484T214 414T197 336Q185 281 183 237T185
161T202 112T232 95Q259 95 289 104T347 129T393 163T415 201Q418 217 403 232T358 259T284 278T190 285Q161 284 146 296T137 336Q140 352 157 362T211 381Q243 387 280 398T355 423T423 452T474 484T498 514Q501 534 488 549T445 575T371 592T271 598Q235 598
202 597T153 596Q136 596 126 609T119 641Q125 674 164 693T275 712Q356 712 423 700T537 664T604 601T614 508Q609 479 577 447T480 385T311 328V362Q381 354 425 336T492 294T522 243T524 191Q515 144 483 107T407 43T314 2T224 -13Z" />
<glyph unicode="C" glyph-name="C" horiz-adv-x="611" d="M301 -10Q202 -10 145 32T70 145T69 307Q85 387 125 460T222 589T348 678T493 711Q546 711 577 696T619 652T622 585Q618 564 607 545T578 514T539 502Q524 502 519 509T513 528T516 554Q519 566 517 576T505
591T471 597Q420 597 372 572T285 503T218 406T178 294Q160 199 195 149T310 98Q354 98 384 107T435 129T470 156T496 179T519 188Q539 188 546 175T548 139Q544 116 526 90T477 41T402 4T301 -10Z" />
<glyph unicode="D" glyph-name="D" horiz-adv-x="681" d="M181 -9Q140 -9 115 14T81 78T81 168Q102 270 126 365T178 560Q187 590 201 602T243 615Q264 615 276 598T284 557Q276 509 261 454T228 334T194 187Q187 148 188 121T201 70L132 89Q213 92 283 120T410
195T503 301T553 427Q564 478 553 517T508 578T411 600Q357 600 319 593T253 576T203 559T157 552Q135 552 121 560T101 583T98 614Q101 628 112 641T142 660Q170 670 203 678T273 694T348 705T424 709Q519 709 578 671T659 568T665 418Q650 344 614 279T528 160T419
70T299 12T181 -9Z" />
<glyph unicode="E" glyph-name="E" horiz-adv-x="639" d="M325 -7Q249 -7 196 16T113 82T75 180T79 299Q87 341 103 384T141 470T188 551Q211 585 238 607T295 630Q308 630 317 623T328 604T319 572Q294 537 268 493T221 398T188 293Q177 236 190 193T238 125T326
100Q375 100 409 106T467 122T506 137T533 144Q555 144 563 131T568 97Q563 69 533 46T451 8T325 -7ZM176 267Q153 262 142 268T129 287T129 316Q134 337 155 353T207 375Q240 381 277 386T352 396T429 404T501 409Q536 409 547 397T555 363Q548 334 521 321T459
305Q419 302 380 298T304 289T235 279T176 267ZM213 570Q176 570 160 586T147 626Q150 638 159 649T188 666Q258 682 336 691T487 705T613 710Q648 710 665 692T677 649Q673 630 659 617T617 604Q533 604 469 599T356 587T273 575T213 570Z" />
<glyph unicode="F" glyph-name="F" horiz-adv-x="573" d="M169 -11Q148 -11 130 4T97 60Q88 85 84 118T83 195T99 300Q107 342 119 382T145 462T175 540Q195 586 217 606T270 627Q293 627 297 611T295 572Q287 547 275 514T249 441T223 358T203 270Q194 221 194
187T198 130T209 90T218 60T218 32Q215 14 203 2T169 -11ZM195 254Q162 247 146 253T126 271T123 296Q127 312 137 325T163 349T200 362Q240 370 285 375T378 384T470 388Q505 388 516 377T523 341Q517 311 489 298T415 280Q368 277 329 274T256 265T195 254ZM173
564Q147 564 131 572T110 594T107 623Q111 639 122 651T155 668Q207 679 272 688T404 704T532 710Q559 710 578 702T607 678T612 643Q608 623 593 613T546 602Q445 602 369 593T244 574T173 564Z" />
<glyph unicode="G" glyph-name="G" horiz-adv-x="765" d="M606 -105Q579 -105 565 -90T540 -45Q534 -24 529 10T525 97T537 225L572 214Q512 128 458 79T351 10T245 -10Q193 -10 153 7T86 59T51 142T56 256Q70 328 108 395T200 519T318 618T450 684T581 708Q624
708 647 694T677 656T679 608Q674 580 661 560T630 528T591 517Q575 517 571 524T568 542T569 565T564 583T537 591Q494 591 448 571T356 515T271 435T205 341T168 244Q153 171 178 135T255 98Q305 98 351 118T443 181T535 292Q554 318 574 328T623 338Q644 338
652 327T655 294Q642 228 638 177T636 85T648 9Q654 -12 656 -25T658 -47T656 -65Q653 -84 639 -94T606 -105ZM384 262Q359 262 347 276T338 314Q342 332 357 344T413 367Q482 384 553 394T697 405Q731 405 747 398T768 377T769 348Q765 329 747 314T695 298Q631
298 581 293T494 280T431 268T384 262Z" />
<glyph unicode="H" glyph-name="H" horiz-adv-x="728" d="M544 -10Q510 -10 495 19T484 112T510 282Q525 360 540 426T568 549T590 646Q595 675 610 689T649 704Q675 704 688 676T690 590Q678 531 664 466T635 341T613 233Q605 199 602 169T598 109T593 43Q591
18 578 4T544 -10ZM123 -12Q94 -12 78 12T74 93Q85 142 95 194T117 301T139 413T161 529T185 649Q191 681 206 695T248 709Q276 709 288 682T291 598Q274 518 259 441T228 290T200 153T176 34Q172 14 158 1T123 -12ZM148 280Q111 280 92 288T67 309T64 339Q67 351
75 361T105 376Q192 392 276 400T444 411T611 415Q645 415 666 406T695 382T700 352Q696 334 682 323T647 312Q530 312 447 307T307 296T212 285T148 280Z" />
<glyph unicode="I" glyph-name="I" horiz-adv-x="554" d="M160 577Q128 577 116 592T108 629Q111 648 127 662T174 681Q226 689 289 694T418 703T541 707Q582 707 595 694T605 656Q598 624 565 610T480 596Q420 596 376 594T301 589T245 583T201 579T160 577ZM252
72Q220 72 206 93T198 149Q214 228 233 304T270 449T300 576Q305 604 317 618T353 633Q381 633 396 611T406 555Q397 514 380 449T342 299T301 117Q292 72 252 72ZM66 -11Q20 -11 3 5T-9 47Q-6 65 6 76T42 90Q82 95 118 97T190 101T260 104T334 105T417 105Q449
105 464 98T484 81T486 56Q481 32 455 16T378 0Q307 0 246 -2T139 -8T66 -11Z" />
<glyph unicode="J" glyph-name="J" horiz-adv-x="610" d="M240 -12Q169 -12 122 15T56 88T48 189Q53 212 63 233T88 271T124 297T167 307Q187 307 195 295T201 266Q198 253 188 242T168 218T154 185Q146 147 168 122T255 96Q336 96 372 127T423 224Q430 260 432
309T433 412T426 519T414 614Q410 639 418 657T449 676Q487 676 505 662T530 610Q537 568 541 514T546 404T544 295T532 203Q510 91 435 40T240 -12ZM243 591Q225 591 206 595T170 610T146 636T143 675Q147 693 158 703T188 713Q206 713 219 710T246 704T281 700Q327
700 368 703T456 709T567 712Q590 712 610 707T642 688T649 647Q640 605 582 605Q517 605 455 602T338 595T243 591Z" />
<glyph unicode="K" glyph-name="K" horiz-adv-x="654" d="M541 -11Q507 -11 466 2T382 38T301 93T233 159T190 233T184 307Q192 353 221 399T297 492T402 583T529 668Q563 688 586 698T626 708Q648 708 660 694T667 652Q663 629 645 611T588 572Q526 539 474 503T384
431T322 365T295 312Q290 287 306 257T355 197T436 140T543 96Q581 85 592 70T599 32Q595 11 582 0T541 -11ZM99 -11Q69 -11 56 8T44 70T60 187Q75 265 95 334T131 457T155 546Q161 578 162 597T164 632T168 666Q172 688 185 699T221 710Q247 710 259 695T274 656T274
604T266 552Q258 509 241 453T205 335T174 212Q166 168 162 141T157 97T155 66T150 34Q146 13 133 1T99 -11Z" />
<glyph unicode="L" glyph-name="L" horiz-adv-x="548" d="M250 -9Q171 -9 124 21T61 110T62 255Q77 331 103 397T154 525T192 646Q198 676 211 693T254 711Q277 711 288 699T303 666T300 618Q290 569 272 521T234 425T197 332T170 241Q157 175 176 137T258 99Q305
99 337 107T391 124T429 141T462 149Q482 149 491 136T496 101Q492 81 478 64T440 32Q398 12 350 2T250 -9Z" />
<glyph unicode="M" glyph-name="M" horiz-adv-x="982" d="M90 -12Q75 -12 64 -5T48 19T43 66T54 142Q66 201 77 247T99 331T117 405Q126 450 128 481T129 534T127 571T129 600Q133 621 145 633T181 646Q204 646 218 627T238 575T238 498L210 495Q243 564 277 612T343
684T404 709Q430 709 444 688T465 625T471 527T467 397Q466 341 465 294T468 206T482 127L440 134Q470 182 500 240T560 357T618 471T673 567Q702 612 728 643T781 691T837 708Q859 708 876 697T902 657T912 580T905 457Q897 385 893 317T891 187T906 71Q911 47
906 29T886 1T850 -9Q824 -9 808 8T781 66Q773 96 771 139T771 230T777 327T787 420Q793 463 795 493T796 550T788 602L816 589Q779 547 745 489T675 359T599 207T506 41Q490 14 475 3T437 -9Q416 -9 404 0T382 32Q361 83 357 164T359 352Q364 426 364 480T352
579L371 578Q293 485 243 352T153 45Q146 14 130 1T90 -12Z" />
<glyph unicode="N" glyph-name="N" horiz-adv-x="773" d="M76 -13Q52 -13 39 4T31 51Q35 71 44 91T66 141T93 219T122 342Q131 385 138 431T150 520T160 594T166 638Q172 668 191 689T241 710Q282 710 312 686T363 620T401 526T430 417T455 306T481 206T513 130T556
91L495 69Q513 88 527 108T552 158T572 233Q584 293 592 347T609 454T630 556T664 653Q677 683 692 696T728 709Q752 709 764 695T777 661T770 620Q751 572 740 528T720 439T705 346T685 242Q671 168 652 111T601 20T520 -13Q482 -13 456 10T412 73T381 163T357
270T331 382T298 488T250 575L270 580Q266 528 261 487T251 411T238 342Q217 249 195 173T144 36Q134 14 118 1T76 -13Z" />
<glyph unicode="O" glyph-name="O" horiz-adv-x="729" d="M318 -10Q244 -10 191 15T105 84T64 186T66 306Q79 371 107 423T172 514T244 580T310 621T354 635Q368 635 377 631T393 612Q405 588 391 569T352 535Q314 511 278 478T216 398T176 290Q165 236 177 192T228
122T331 96Q384 96 434 121T522 192T571 300Q582 356 580 409T561 506T514 576T439 602Q420 602 410 588T394 553Q390 531 377 520T348 509Q332 509 319 518T299 545T298 590Q305 623 325 650T379 694T455 711Q525 711 575 676T654 579T690 442T681 285Q668 219
635 165T552 71T444 11T318 -10Z" />
<glyph unicode="P" glyph-name="P" horiz-adv-x="603" d="M87 -10Q62 -10 48 11T43 82Q56 148 64 200T79 297T92 384T107 472Q122 543 157 596T251 678T396 708Q453 708 496 689T568 635T605 552T604 449Q594 395 566 352T495 280T401 235T290 219Q240 219 207
231T157 263T146 306Q149 325 161 335T190 345Q203 345 214 340T243 330T299 324Q347 324 389 341T459 390T496 463Q504 503 492 533T451 581T384 599Q314 599 272 565T217 468Q208 424 202 381T189 291T174 186T149 54Q144 25 130 8T87 -10Z" />
<glyph unicode="Q" glyph-name="Q" horiz-adv-x="740" d="M334 -9Q245 -9 189 20T103 98T67 207T74 331Q87 394 110 446T163 538T223 607T281 650T326 665Q348 665 361 656T379 633T382 605Q379 589 367 579T323 549Q288 527 259 488T210 404T180 313Q169 255
178 206T225 128T332 98Q382 98 425 116T500 165T554 235T585 319Q595 370 593 419T576 508T534 572T466 596Q428 596 388 569T312 493Q296 470 282 461T250 452Q237 452 228 459T215 479T214 507Q220 543 247 578T312 643T394 691T478 709Q541 709 588 678T665
590T701 462T692 307Q679 238 648 181T569 81T462 15T334 -9ZM540 -110Q521 -110 507 -102T473 -67Q454 -40 438 0T408 85T380 171T352 241Q339 266 339 286T353 318T389 331Q414 331 428 317T459 267Q467 252 476 222T498 154T528 74T569 -4Q586 -31 586 -55T574
-95T540 -110Z" />
<glyph unicode="R" glyph-name="R" horiz-adv-x="704" d="M77 -13Q45 -13 32 20T31 114Q40 162 65 223T132 362Q138 401 140 433T139 500T130 577Q125 613 137 631T182 650Q214 650 233 613T249 487L222 483Q274 560 330 610T444 685T556 710Q607 710 640 694T690
651T711 589T707 519Q699 478 674 439T603 362T489 291T326 227Q366 191 430 155T576 93Q614 81 626 67T635 35Q629 9 610 -1T553 -12Q529 -12 490 1T405 36T315 86T236 145T183 207Q175 223 178 241T194 276T230 298Q328 325 396 356T507 418T571 480T598 534Q604
563 593 583T545 603Q511 603 473 586T395 537T316 458T243 352T181 221T138 67Q131 35 123 18T104 -6T77 -13Z" />
<glyph unicode="S" glyph-name="S" horiz-adv-x="562" d="M216 -9Q103 -9 54 21T13 90Q16 108 27 117T57 127Q72 127 84 123T113 113T154 103T218 99Q257 99 287 103T340 117T381 138Q380 163 357 183T297 222T222 260T151 306T102 365T95 446Q104 495 141 536T230
609T340 664T450 698T540 710Q564 710 576 702T593 681T594 652Q590 634 576 621T533 602Q438 585 367 558T255 498T206 431Q201 409 222 389T279 351T355 311T430 263T483 203T492 124Q485 88 462 62T402 21T318 -2T216 -9Z" />
<glyph unicode="T" glyph-name="T" horiz-adv-x="619" d="M272 -13Q248 -13 233 8T218 87Q218 122 223 166T239 271T270 411T321 597Q327 622 342 637T378 652Q417 652 424 625T416 532Q387 423 371 346T346 215T336 127T332 70T328 32Q322 7 308 -3T272 -13ZM539
593Q485 593 440 593T354 594T273 596T188 601Q147 603 128 612T103 637T101 671Q104 686 116 697T153 708Q207 708 250 707T331 704T408 701T491 700Q530 700 556 703T602 708T648 711Q672 711 681 699T687 668Q681 642 659 625T604 601T539 593Z" />
<glyph unicode="U" glyph-name="U" horiz-adv-x="673" d="M311 -13Q214 -13 158 30T85 152T90 338Q98 379 110 419T128 488Q137 531 140 558T145 603T148 635T153 667Q158 691 172 702T209 714Q234 714 248 697T264 639T252 528Q246 501 237 468T218 400T203 336Q184
244 194 193T237 120T316 98Q391 98 436 145T503 299Q516 359 523 405T537 497T556 599Q566 651 590 681T652 712Q674 712 685 700T692 663Q688 645 683 628T669 585T652 515Q641 460 633 403T613 285Q595 190 556 124T456 22T311 -13Z" />
<glyph unicode="V" glyph-name="V" horiz-adv-x="685" d="M300 -11Q281 -11 268 -5T244 19T219 70Q198 127 188 184T174 297T168 402T160 494T140 565Q127 597 120 618T116 662Q120 681 133 694T170 708Q192 708 207 694T237 644Q255 605 262 556T274 451T282
341T294 235T323 142L285 114Q355 266 436 396T615 643Q641 674 657 689T685 707T708 711Q732 711 740 693T744 650Q741 634 736 621T721 596T697 564Q643 496 599 437T518 319T445 198T372 57Q354 19 338 4T300 -11Z" />
<glyph unicode="W" glyph-name="W" horiz-adv-x="971" d="M678 -12Q659 -12 644 -7T615 14T588 60Q575 89 569 128T562 214T561 309T560 401T552 482T530 542L564 532Q523 496 486 443T414 324T350 189T291 49Q280 21 262 7T219 -8Q206 -8 194 -3T170 17T152 63Q141
105 133 159T121 275T116 402T118 530T130 650Q133 675 148 693T195 712Q230 712 239 688T243 622Q237 574 235 517T233 398T240 274T256 155L232 150Q266 243 304 325T384 473T467 585Q496 615 524 633T583 652Q616 652 634 623T663 522Q669 481 667 430T664 325T668
220T695 131L664 132Q689 172 711 225T755 336T797 453T838 563T882 652Q902 685 920 698T961 711Q980 711 991 704T1005 681T1003 646T985 600Q962 557 939 502T894 384T848 261T799 143T747 42Q728 11 711 0T678 -12Z" />
<glyph unicode="X" glyph-name="X" horiz-adv-x="651" d="M43 -10Q25 -10 14 -1T-1 27T3 68T35 118Q72 162 117 212T210 316T308 420T406 519T497 605T575 673Q602 694 617 701T646 708Q663 708 675 698T690 669T684 630T647 585Q604 550 553 505T447 405T335
290T222 166T115 38Q93 10 77 0T43 -10ZM510 -8Q492 -8 478 3T448 54Q432 100 399 151T324 257T244 366T176 474T137 577Q128 624 132 653T151 696T188 710Q212 711 224 697T243 643Q253 578 282 519T349 408T427 307T498 214T546 129Q565 81 563 51T546 6T510
-8Z" />
<glyph unicode="Y" glyph-name="Y" horiz-adv-x="609" d="M168 -15Q145 -15 133 -3T122 34T139 95Q166 163 209 241T309 398T432 550T570 681Q595 701 610 707T638 713Q652 713 661 707T675 689T676 660Q674 645 668 634T650 610T615 578Q553 526 497 465T393
336T306 196T238 50Q223 12 208 -1T168 -15ZM291 282Q276 282 266 290T250 312Q228 368 210 405T176 469T145 523T114 585Q104 610 101 628T101 665Q106 688 118 699T149 711Q167 711 179 703T201 672Q215 631 228 603T255 551T282 502T309 446T338 369Q341 357
340 342T333 314T317 291T291 282Z" />
<glyph unicode="Z" glyph-name="Z" horiz-adv-x="630" d="M138 -9Q87 -9 61 7T27 50T25 106Q31 134 46 162T93 222T180 296T320 393Q383 435 423 466T487 521T519 565T530 607L545 574Q537 582 526 588T495 597T443 600Q385 600 341 595T262 584T201 578Q182 578
168 585T147 604T144 637Q148 655 163 668T204 686Q274 697 340 703T478 710Q541 710 579 692T631 643T637 573Q630 541 616 514T574 457T498 392T373 304Q301 256 256 223T185 164T150 117T136 70L114 126Q125 114 140 108T184 101Q232 101 286 105T399 110Q460
110 497 103T550 79T561 37Q556 16 540 5T498 -7Q476 -7 459 -5T419 -2T359 0Q298 0 243 -4T138 -9Z" />
<glyph unicode="[" glyph-name="bracketleft" horiz-adv-x="500" d="M98 -266Q82 -266 71 -259T55 -239Q42 -202 41 -153T47 -50T65 59T89 162T110 244Q118 277 127 326T147 434T169 551T193 664T221 758Q229 779 248 791T289 804Q320 804 360 807T442 814T518
818Q551 818 567 807T579 772Q575 756 565 741T540 715T506 705Q497 705 490 706T472 707Q441 707 401 703T323 695T261 692L328 739Q314 700 302 648T278 538T257 423T239 318T222 238Q212 202 198 149T172 36T156 -80T163 -180L104 -160Q138 -151 176 -151T257
-151Q281 -151 306 -149T347 -146Q367 -146 376 -158T382 -190Q375 -224 346 -241T267 -259Q243 -259 220 -259T175 -258Q151 -259 133 -262T98 -266Z" />
<glyph unicode="\" glyph-name="backslash" horiz-adv-x="380" d="M245 -207Q227 -207 214 -195T195 -161Q168 -54 149 59T119 286T109 514T121 736Q133 833 194 833Q218 833 232 812T241 750Q221 588 225 443T251 160T310 -114Q317 -143 309 -163T283 -195T245 -207Z" />
<glyph unicode="]" glyph-name="bracketright" horiz-adv-x="477" d="M6 -266Q-16 -266 -33 -258T-58 -235T-64 -201Q-60 -182 -45 -168T-6 -154Q15 -154 47 -151T116 -143T186 -132T240 -118L193 -164Q227 -70 244 36T274 260T303 502T355 756L401 687Q371 687
337 691T266 698T189 702Q169 702 155 711T134 738T132 775Q135 793 149 804T189 814Q226 814 271 809T359 804Q374 804 389 806T419 809Q446 809 459 792T466 748Q429 617 412 491T382 246T352 19T301 -184Q295 -199 283 -210T254 -227Q232 -234 199 -241T130
-253T60 -262T6 -266Z" />
<glyph unicode="^" glyph-name="asciicircum" horiz-adv-x="610" d="M544 436Q521 436 502 444T464 474T421 531T366 621H405Q333 557 290 520T224 465T187 442T161 437Q144 437 131 444T111 462T107 486Q109 495 115 506T137 533T187 575T277 641Q311 667 331
681T368 702T405 709Q428 709 444 699T476 657Q504 604 528 575T568 529T592 501T597 474Q593 456 580 446T544 436Z" />
<glyph unicode="_" glyph-name="underscore" horiz-adv-x="700" d="M65 -186Q32 -186 10 -178T-21 -156T-27 -128Q-24 -116 -16 -105T14 -92Q134 -82 244 -78T469 -74Q511 -74 534 -85T566 -110T571 -137Q568 -155 553 -165T513 -176Q407 -176 333 -177T207 -181T123
-184T65 -186Z" />
<glyph unicode="`" glyph-name="grave" horiz-adv-x="356" d="M322 477Q307 477 291 483T260 501Q235 521 210 552T166 621T135 696Q124 736 130 760T153 797T194 809Q222 809 239 794T266 741Q275 700 290 671T322 620T357 576Q380 549 380 527T364 491T322 477Z" />
<glyph unicode="a" glyph-name="a" horiz-adv-x="641" d="M151 -10Q104 -10 74 12T32 74T29 163Q39 212 64 261T126 355T207 433T300 487T398 507Q425 507 441 491T450 444Q448 431 439 422T413 411Q344 401 286 361T188 266T136 149Q131 124 131 104T138 51L97
131Q116 109 131 103T173 96Q233 96 296 172T410 395Q418 416 433 427T467 439Q495 439 510 418T525 366Q525 308 527 261T541 172T579 85Q587 74 587 58T578 27T556 3T523 -7Q508 -7 498 -1T482 17Q467 43 456 70T439 132T431 213T435 323L477 325Q444 230 404
166T320 63T233 7T151 -10Z" />
<glyph unicode="b" glyph-name="b" horiz-adv-x="601" d="M159 -10Q133 -10 107 -6T61 7T30 30T23 67Q28 88 43 98T79 109Q94 109 114 104T155 98Q202 98 250 111T339 149T409 212T449 302Q454 328 452 349T437 384T395 397Q347 397 304 361T222 259T152 110Q144
91 133 82T108 73Q90 73 80 91T70 142Q71 195 75 249T85 349T99 428Q109 483 119 523T139 594T157 651T170 707Q173 728 185 744T221 760Q242 760 256 751T275 722T275 673Q270 648 263 624T246 571T228 508T209 425Q201 385 194 344T181 250L159 285Q190 359 233
408T323 482T412 507Q466 507 504 483T557 409T557 285Q543 215 504 161T410 68T289 10T159 -10Z" />
<glyph unicode="c" glyph-name="c" horiz-adv-x="514" d="M244 -9Q165 -9 116 21T48 105T43 228Q55 288 87 339T168 427T273 486T390 507Q418 507 440 498T473 472T479 429Q474 404 460 391T428 378Q416 378 410 383T397 392T376 397Q322 397 274 371T194 302T152
213Q145 177 153 151T185 109T247 94Q290 94 315 104T356 128T382 151T407 162Q428 162 437 151T441 112Q434 76 406 49T335 6T244 -9Z" />
<glyph unicode="d" glyph-name="d" horiz-adv-x="655" d="M228 -9Q176 -9 139 15T79 81T50 176T56 287Q70 360 107 409T199 483T318 508Q369 508 405 494T460 454T471 393Q468 378 459 369T438 359Q425 359 418 365T401 379T374 393T325 399Q261 399 220 367T168
279Q159 231 164 191T188 125T240 100Q291 100 344 169T447 373T535 701Q542 735 557 747T589 760Q628 760 641 732T642 649Q626 578 609 524T577 420T549 307Q537 244 537 203T542 135T556 93T570 64T573 35Q571 21 564 10T543 -7T511 -13Q487 -13 469 9T440 69T429
155T442 257L503 271Q462 172 417 110T324 20T228 -9Z" />
<glyph unicode="e" glyph-name="e" horiz-adv-x="576" d="M247 -10Q182 -10 139 8T72 58T42 132T46 224Q56 275 84 325T156 416T252 482T366 507Q421 507 457 489T508 435T512 348Q504 307 479 276T418 224T337 193T244 182Q176 182 152 199T131 239Q134 251 141
257T164 264Q174 264 189 261T234 257Q278 257 316 269T378 303T409 353Q415 380 403 393T356 407Q320 407 286 391T224 347T176 281T148 203Q142 172 148 145T177 102T243 86Q296 86 334 98T397 127T442 156T476 169Q497 169 505 154T508 117Q504 95 481 73T422
32T341 2T247 -10Z" />
<glyph unicode="f" glyph-name="f" horiz-adv-x="376" d="M99 -12Q74 -12 58 13T52 86Q61 133 66 170T74 239T81 301T88 366T101 441Q116 518 149 577T225 677T319 739T422 760Q445 760 463 748T477 709Q473 692 461 680T428 662Q369 648 330 626T267 570T229
494T202 394Q195 360 192 326T185 252T176 166T158 59Q149 17 135 3T99 -12ZM171 381Q152 381 140 391T131 419Q136 441 153 458T197 484Q235 493 269 498T338 503Q356 503 369 496T388 477T392 448Q388 433 376 423T343 411Q301 409 273 404T226 394T194 385T171
381Z" />
<glyph unicode="g" glyph-name="g" horiz-adv-x="623" d="M286 -258Q205 -258 156 -241T81 -196T48 -138T47 -81Q52 -50 73 -31T120 -11Q142 -11 149 -22T153 -51Q146 -81 159 -105T205 -142T289 -155Q346 -155 375 -124T417 -35Q427 14 428 54T428 130T425 203T427
282L473 270Q453 217 424 180T361 120T290 85T216 73Q153 73 111 96T53 163T48 265Q58 316 87 360T157 438T247 489T344 508Q396 508 423 492T458 450T460 396Q457 379 445 365T422 351Q408 351 402 359T390 377T374 396T340 404Q310 404 280 392T224 360T180 313T157
260Q148 221 164 200T224 179Q273 179 316 203T393 279T444 416Q449 441 459 453T492 465Q515 465 529 454T549 425T552 388Q545 326 545 275T544 176T541 71T522 -60Q501 -158 443 -208T286 -258Z" />
<glyph unicode="h" glyph-name="h" horiz-adv-x="645" d="M88 -8Q66 -8 53 5T36 45T40 111Q60 214 87 295T139 444T180 567Q189 599 192 624T199 672T209 714Q213 732 227 746T266 760Q286 760 300 740T314 678T296 566Q280 512 255 450T204 315T162 153L141 186Q211
305 267 375T369 477T457 509Q504 509 524 481T547 398T542 268Q535 205 535 168T538 108T549 69Q551 60 552 50T552 30Q548 12 532 1T494 -11Q463 -11 446 15T423 86T423 183Q430 244 432 282T435 344T432 385Q408 383 365 341T266 221T152 33Q138 9 123 1T88
-8Z" />
<glyph unicode="i" glyph-name="i" horiz-adv-x="291" d="M107 -11Q87 -11 73 0T54 31T53 71Q67 145 76 196T92 286T105 357T118 428Q122 449 134 466T164 494T199 504Q223 504 237 486T246 433Q241 412 233 373T213 285T191 188T170 99T156 35Q152 14 140 2T107
-11ZM223 583Q181 583 159 607T144 667Q150 697 175 715T232 733Q261 733 279 720T304 687T307 647Q303 624 283 604T223 583Z" />
<glyph unicode="j" glyph-name="j" horiz-adv-x="265" d="M-24 -260Q-62 -260 -86 -249T-120 -220T-126 -180Q-122 -159 -109 -148T-79 -137Q-72 -137 -66 -139T-54 -145T-41 -150T-24 -152Q1 -152 20 -127T50 -55Q71 52 79 129T88 261T89 358T97 435Q105 474
126 490T167 507Q189 507 200 495T211 443Q208 354 202 267T184 95T156 -74Q135 -176 88 -218T-24 -260ZM197 583Q155 583 133 607T118 667Q124 697 149 715T206 733Q235 733 253 720T278 687T281 647Q277 624 257 604T197 583Z" />
<glyph unicode="k" glyph-name="k" horiz-adv-x="600" d="M454 -7Q420 -7 380 8T300 48T229 106T181 171T171 235Q178 271 208 309T283 382T375 446T466 491T536 508Q563 508 576 494T584 452Q580 431 565 418T515 394Q473 381 434 360T362 315T310 270T287 235Q285
221 300 199T351 154T450 111Q491 99 502 79T510 37Q506 17 492 5T454 -7ZM89 -10Q71 -10 57 1T37 41T42 125Q51 165 71 231T118 377T168 542Q182 585 189 612T199 656T205 686T212 715Q219 737 232 748T268 759Q293 759 304 740T310 675T281 545Q262 486 247 440T218
358T194 289T175 227T159 161Q152 123 150 97T140 40Q136 16 122 3T89 -10Z" />
<glyph unicode="l" glyph-name="l" horiz-adv-x="332" d="M181 -11Q158 -11 135 -5T94 21T66 76T58 171T77 317Q94 398 110 462T144 583T182 693Q196 730 211 745T247 760Q273 760 284 739T285 671Q280 642 270 609T246 533T217 433T185 297Q173 236 170 198T168
138T179 108T198 99Q215 99 225 102T243 108T260 112Q281 112 285 99T286 65Q282 42 267 26T229 -1T181 -11Z" />
<glyph unicode="m" glyph-name="m" horiz-adv-x="894" d="M90 -9Q64 -9 53 10T41 63T48 134Q55 169 64 203T83 272T99 341Q105 369 105 389T108 429Q111 445 123 454T153 464Q176 464 188 449T204 409T200 355L178 343Q204 398 232 434T290 488T354 507Q390 507
409 481T435 407T440 293Q438 235 438 202T442 149L412 156Q456 262 507 340T609 463T704 507Q776 507 797 447T805 262Q798 196 799 159T804 100T811 65T810 33Q807 14 791 3T749 -9Q722 -9 706 11T686 76T687 194Q692 253 693 289T694 348T687 383T674 410L702
404Q653 368 614 315T539 191T465 39Q455 15 438 3T399 -9Q369 -9 353 13T332 77T331 180Q334 228 335 265T334 329T326 377T307 411L334 395Q300 369 272 329T221 239T180 139T147 37Q140 12 127 2T90 -9Z" />
<glyph unicode="n" glyph-name="n" horiz-adv-x="632" d="M502 -9Q464 -9 442 22T419 119T437 287Q444 327 447 351T450 391T443 415T427 435Q449 436 463 429T482 406T482 364Q472 386 463 393T439 400Q420 400 388 375T319 304T243 197T171 63Q151 20 136 6T97
-9Q55 -9 45 36T47 151Q58 202 70 240T94 311T117 378T137 458Q142 480 155 491T191 503Q211 503 226 484T231 422Q226 391 217 363T194 303T168 228T144 123L123 141Q181 262 242 343T362 466T470 507Q508 507 530 489T558 436T554 353Q539 277 531 223T524 134T544
81Q553 71 557 59T558 30Q554 13 539 2T502 -9Z" />
<glyph unicode="o" glyph-name="o" horiz-adv-x="620" d="M282 -12Q196 -12 140 25T62 125T56 268Q67 322 95 365T159 438T234 485T303 501Q316 501 326 497T343 485T346 463Q340 437 326 417T277 384Q245 370 222 351T183 307T162 249Q147 176 180 132T284 88Q348
88 397 133T461 254Q474 322 450 361T369 401Q340 401 320 389T275 357Q257 342 246 331T226 314T202 308Q186 308 176 320T172 360Q176 384 196 409T246 456T308 490T373 503Q451 503 499 469T565 376T567 240Q553 164 512 107T411 19T282 -12Z" />
<glyph unicode="p" glyph-name="p" horiz-adv-x="576" d="M264 -6Q213 -6 175 9T118 50T103 105Q106 119 116 129T142 140Q154 140 163 134T184 121T215 107T269 101Q321 101 358 125T407 209Q416 251 408 286T378 346T322 385T247 399Q226 399 205 395T163 390Q148
390 137 397T121 416T118 443Q126 477 158 492T255 508Q325 508 379 485T469 420T518 320T517 190Q508 144 485 108T429 47T353 8T264 -6ZM29 -261Q15 -261 4 -254T-12 -233T-13 -197Q-9 -180 -3 -167T12 -136T29 -94T46 -29Q58 26 61 79T64 186T67 295T78 406Q82
423 88 434T106 450T130 456Q150 456 165 445T186 415T189 374Q177 315 174 262T171 159T170 58T157 -46Q148 -92 136 -131T108 -200T73 -245T29 -261Z" />
<glyph unicode="q" glyph-name="q" horiz-adv-x="599" d="M383 -260Q367 -260 356 -251T341 -228T339 -196Q347 -151 352 -118T362 -56T372 -1T383 59T400 133L420 116Q386 76 347 48T265 5T178 -10Q118 -10 83 17T36 91T36 198Q47 254 81 308T163 408T267 480T378
507Q427 507 459 487T505 437T513 376Q509 358 492 344T456 330Q445 330 437 336T424 355Q414 379 402 389T364 399Q331 399 296 379T228 325T173 253T143 175Q135 137 150 117T200 97Q251 97 300 126T392 209T468 336Q474 351 485 359T513 368Q541 368 553 351T561
308Q554 274 542 248T517 197Q506 146 498 107T485 31T472 -46T455 -141L440 -134Q481 -111 507 -96T550 -73T583 -65Q601 -65 610 -78T615 -112Q611 -130 601 -146T570 -177Q541 -197 515 -212T464 -238T420 -254T383 -260Z" />
<glyph unicode="r" glyph-name="r" horiz-adv-x="495" d="M113 -12Q96 -12 84 -1T67 31T66 74Q79 141 88 201T101 311T101 395Q97 419 97 431T100 458Q104 476 117 487T150 498Q172 498 186 483T205 432T204 332T180 172L139 182Q168 269 206 331T286 431T372
488T451 507Q486 507 495 489T498 444Q496 429 483 416T444 396Q386 383 345 355T274 285T223 191T183 77Q172 42 163 23T142 -4T113 -12Z" />
<glyph unicode="s" glyph-name="s" horiz-adv-x="506" d="M183 -10Q109 -10 70 6T16 45T6 91Q10 108 22 119T54 130Q68 130 77 124T98 111T131 97T190 91Q242 91 278 105T334 151Q330 168 308 179T254 200T189 221T129 248T87 289T81 352Q89 391 117 420T187 470T275
499T368 508Q402 508 421 498T449 473T453 439Q449 422 437 412T406 401Q398 401 391 402T374 404T350 405Q295 405 251 389T177 338Q180 321 201 310T255 290T320 270T382 243T425 200T432 135Q424 98 402 71T346 25T271 -1T183 -10Z" />
<glyph unicode="t" glyph-name="t" horiz-adv-x="453" d="M242 -13Q161 -13 118 24T64 129T72 286Q82 339 96 380T124 460T149 538Q163 585 167 614T179 669Q184 687 196 698T233 710Q270 710 278 673T265 557Q254 521 243 491T222 431T201 368T183 291Q168 218
172 176T198 115T257 96Q282 96 296 101T321 111T346 116Q365 116 373 101T377 67Q370 31 335 9T242 -13ZM192 363Q158 349 144 362T134 399Q138 423 152 441T212 475Q239 485 269 492T330 503T386 507Q408 507 424 498T447 476T452 445Q449 429 438 420T407 409Q361
406 326 400T258 385T192 363Z" />
<glyph unicode="u" glyph-name="u" horiz-adv-x="597" d="M269 -10Q205 -10 161 16T93 88T64 188T69 301Q78 347 94 387T135 471Q142 484 153 491T182 499Q210 499 223 481T230 435Q228 421 222 408T207 380T191 343T176 291Q168 249 169 213T183 151T217 110T272
95Q311 95 345 122T405 206T448 345Q453 372 455 389T458 421T464 452Q469 475 480 487T515 500Q537 500 550 484T566 431T557 335Q534 218 491 142T392 28T269 -10Z" />
<glyph unicode="v" glyph-name="v" horiz-adv-x="576" d="M237 -10Q213 -10 198 3T170 43Q159 66 151 105T134 188T119 272Q109 326 99 358T82 410T72 442T71 473Q73 487 85 496T118 505Q149 505 168 488T197 441T213 376Q220 335 227 289T243 198T265 116L227
118Q262 173 292 221T352 315T413 400T485 480Q499 494 511 500T540 507Q556 507 567 498T584 473T586 442Q584 432 579 423T565 404Q520 358 487 317T425 233T365 141T295 31Q280 8 268 -1T237 -10Z" />
<glyph unicode="w" glyph-name="w" horiz-adv-x="881" d="M182 -15Q145 -15 125 18T100 131Q98 185 97 238T91 339T71 423Q61 450 65 469T84 498T119 509Q142 509 157 496T184 447Q195 408 197 361T200 266T204 173T222 97L184 95Q203 119 221 151T258 221T296
298T337 373Q376 441 406 473T472 506Q502 506 521 489T553 437T575 349Q582 313 586 277T595 209T609 149T635 105L604 98Q627 128 644 168T677 251T708 337T743 415Q757 440 774 460T813 494T857 508Q872 508 882 501T898 482T901 455Q899 440 889 427T864 399Q845
383 830 356T801 295T776 227T750 159Q721 89 698 52T654 1T611 -13Q581 -13 562 5T522 72Q506 111 498 157T485 248T473 331T450 390L470 391Q447 367 426 331T383 251T337 159T284 64Q267 35 251 18T219 -7T182 -15Z" />
<glyph unicode="x" glyph-name="x" horiz-adv-x="538" d="M32 -15Q16 -15 6 -6T-6 22T7 67Q19 92 45 127T107 204T189 288T286 374T394 453Q427 476 449 487T486 503T514 507Q533 507 546 495T555 458Q552 440 540 427T506 402Q428 360 357 301T221 171T101 29Q83
5 67 -5T32 -15ZM408 -13Q390 -13 376 -3T349 36Q328 79 300 128T239 224T174 313T111 384Q91 404 81 423T75 464Q77 477 83 487T100 502T124 508Q144 508 159 499T198 463Q215 445 239 414T290 344T343 265T392 188T428 126Q449 83 454 62T456 26Q452 7 440 -3T408
-13Z" />
<glyph unicode="y" glyph-name="y" horiz-adv-x="587" d="M207 -261Q138 -261 93 -247T27 -209T13 -159Q17 -139 29 -128T64 -116Q78 -116 88 -121T113 -134T151 -146T215 -152Q259 -152 288 -134T336 -82T363 -5Q369 27 371 55T377 114T384 184T399 275L436 245Q405
183 374 145T313 85T258 56T210 48Q149 48 112 79T65 175T75 343Q88 412 103 447T134 495T171 507Q191 507 202 499T216 472T211 427Q198 373 188 325T177 238T185 179T221 157Q262 157 300 197T372 304T431 455Q441 485 452 495T485 506Q499 506 510 501T529 483T536
450T528 400Q512 349 505 309T495 232T490 158T483 76T467 -27Q454 -93 429 -138T370 -211T295 -249T207 -261Z" />
<glyph unicode="z" glyph-name="z" horiz-adv-x="612" d="M165 -10Q105 -10 75 8T37 53T34 111Q40 139 57 155T99 180Q206 219 279 256T394 331T446 406L463 358Q451 374 438 383T403 396T350 400Q295 400 256 393T188 378T136 370Q125 370 116 379T103 404T102
435Q105 453 114 463T146 479Q197 491 254 498T363 506Q422 506 460 494T518 462T543 418T544 370Q539 343 514 312T441 246T315 176T126 104L158 128Q159 109 170 103T204 96Q240 96 278 99T357 106T439 110Q482 110 500 91T513 42Q509 23 495 12T457 0Q418 0
368 -2T265 -7T165 -10Z" />
<glyph unicode="{" glyph-name="braceleft" horiz-adv-x="528" d="M351 -264Q319 -264 284 -248T218 -204T172 -138T165 -58Q172 -25 186 -4T213 36T232 79Q238 106 222 125T167 157T68 179Q46 182 38 199T34 243Q37 257 48 268T81 287Q132 302 173 321T240 362T270
404Q275 430 274 454T269 504T265 556T270 612Q276 647 299 677T354 732T422 774T493 800T554 809Q587 809 603 790T613 745Q610 724 595 713T552 697Q501 687 464 671T404 632T376 582Q372 560 374 540T380 497T385 449T379 387Q373 355 346 324T270 265T148 220L158
263Q222 253 262 235T322 194T346 143T345 84Q339 53 326 31T298 -12T278 -60Q275 -79 289 -98T332 -132T402 -156Q425 -161 433 -172T437 -206Q433 -231 409 -247T351 -264Z" />
<glyph unicode="|" glyph-name="bar" horiz-adv-x="303" d="M88 -162Q68 -162 57 -148T46 -103Q50 -22 58 44T78 174T104 310Q119 384 134 446T162 562T187 665T208 762Q212 784 224 799T260 814Q289 814 303 793T308 724Q298 670 282 609T248 475T212 311Q195
226 186 168T171 69T163 2T158 -49T149 -100Q143 -133 126 -147T88 -162Z" />
<glyph unicode="}" glyph-name="braceright" horiz-adv-x="529" d="M32 -262Q4 -262 -15 -253T-43 -228T-48 -193Q-44 -171 -29 -161T13 -150Q44 -150 73 -145T126 -128T167 -100T189 -60Q193 -37 189 -16T178 27T168 73T170 129Q178 167 208 202T291 265T422
308L416 263Q334 275 290 304T232 370T224 443Q231 478 247 502T278 548T299 595Q304 622 292 643T250 679T171 704Q143 710 131 725T125 768Q130 790 147 801T194 813Q245 813 288 797T363 751T409 683T414 599Q407 564 391 539T358 491T336 439Q330 414 346 396T401
364T499 341Q521 338 527 320T529 282Q526 268 517 253T489 234Q431 220 386 204T314 166T280 115Q275 92 279 71T290 26T299 -26T295 -91Q287 -131 262 -163T201 -217T121 -250T32 -262Z" />
<glyph unicode="~" glyph-name="asciitilde" horiz-adv-x="700" d="M466 120Q426 120 399 136T353 175T318 222T284 261T239 277Q217 277 203 265T180 236T163 201T144 171T114 159Q93 159 81 170T66 199T66 238Q74 279 94 315T149 373T232 396Q270 396 296 385T342
355T375 317T402 279T431 249T467 237Q491 237 506 250T531 281T551 318T573 350T604 363Q629 363 640 347T644 293Q627 212 581 166T466 120Z" />
<glyph unicode="&#xa0;" glyph-name="uni00A0" horiz-adv-x="342" />
<glyph unicode="&#xa1;" glyph-name="exclamdown" horiz-adv-x="283" d="M56 -236Q29 -236 15 -216T9 -153Q13 -133 18 -114T29 -73T41 -26T55 35Q62 68 65 92T71 134T75 169T81 204Q87 237 103 251T139 266Q160 266 172 254T184 218Q183 166 178 125T163 37Q154
-10 144 -46T126 -115T110 -182Q107 -204 94 -220T56 -236ZM177 358Q129 358 112 384T102 445Q106 469 125 486T178 503Q219 503 241 483T256 425Q250 394 228 376T177 358Z" />
<glyph unicode="&#xa2;" glyph-name="cent" horiz-adv-x="574" d="M244 -9Q165 -9 115 21T45 104T39 226Q51 286 84 337T167 426T273 486T391 507Q438 507 472 495T523 460T534 405Q529 382 515 366T479 349Q464 349 458 357T444 377T423 397T376 406Q334 406
295 390T224 345T170 281T141 207Q135 173 144 148T180 109T252 95Q297 95 326 102T374 121T406 144T430 163T455 171Q494 171 485 123Q477 85 443 55T357 8T244 -9ZM92 -164Q65 -164 57 -146T62 -95Q98 -7 142 81T238 256H341Q286 167 241 77T156 -110Q145 -137
128 -150T92 -164ZM238 256Q291 346 349 430T468 589Q512 643 546 642Q562 642 570 630T575 596T549 546Q488 473 436 401T341 256H238Z" />
<glyph unicode="&#xa3;" glyph-name="sterling" horiz-adv-x="700" d="M411 -16Q368 -16 335 -3T276 29T226 67T181 98T133 111Q116 111 109 108T100 99Q99 94 107 90T126 86Q151 86 178 107T227 160T255 227Q263 270 253 305T224 373T185 436T156 499T152 569Q160
608 190 639T272 690T398 710Q456 710 494 698T552 666T579 623T581 575Q572 535 548 510T490 484Q467 484 458 495T452 520Q455 532 461 540T471 564Q474 582 450 593T382 604Q352 604 327 599T284 581T263 547Q258 528 270 505T301 454T337 391T362 311T359 211Q350
168 326 129T266 58T191 10T112 -8Q74 -8 48 9T10 55T4 111Q12 150 46 176T137 202Q176 202 207 191T265 164T317 132T369 105T425 94Q454 94 475 103T512 124T542 145T571 154Q593 154 603 137T609 95Q604 71 578 45T509 2T411 -16ZM152 263Q129 263 112 279T101
324Q104 340 118 350T157 364Q192 370 238 374T335 382T435 388T524 391Q581 391 602 379T620 345Q616 321 593 304T537 287Q524 287 508 288T462 289Q424 289 378 285T288 276T207 267T152 263Z" />
<glyph unicode="&#xa4;" glyph-name="currency" horiz-adv-x="700" d="M336 140Q278 140 236 162T174 226T166 330Q175 379 199 414T253 473T311 508T358 520Q380 520 388 510T392 474Q391 463 383 452T360 433Q325 412 303 385T273 322Q266 286 282 266T342 245Q373
245 404 261T458 307T491 382Q498 417 485 441T430 465Q393 465 371 458T336 442T310 425T280 417Q260 417 249 427T243 458Q247 482 272 508T340 553T440 572Q506 572 545 546T597 475T600 373Q585 292 545 241T449 165T336 140ZM106 47Q91 47 81 57T71 84T85
127Q100 156 135 199T220 289L282 210Q253 182 226 152T175 91Q157 67 140 57T106 47ZM531 57Q517 57 503 66T474 106Q461 134 443 164T405 223L492 298Q513 269 530 242T557 195Q578 152 583 131T585 95Q578 57 531 57ZM281 425Q262 448 244 469T210 507Q189 527
179 543T173 583Q177 601 189 614T223 628Q243 628 257 619T296 583Q311 569 330 546T370 495L281 425ZM535 436L476 514Q492 528 511 541T549 566Q582 588 604 600T642 616T669 621Q692 621 700 607T704 568Q701 550 691 538T659 513Q628 497 597 478T535 436Z"
/>
<glyph unicode="&#xa5;" glyph-name="yen" horiz-adv-x="700" d="M314 -16Q282 -16 264 15T243 107T258 252Q269 306 293 362T360 474T473 585T642 694Q661 704 671 707T691 710Q719 710 732 694T742 654Q739 639 729 625T703 604Q593 544 524 486T419 368T370
246Q358 185 358 151T363 97T372 64T373 35Q368 11 352 -2T314 -16ZM106 82Q78 82 65 98T55 136Q58 154 72 166T113 180Q186 187 248 196T368 211T487 218Q542 218 569 212T605 194T611 164Q606 140 586 128T543 116Q522 116 504 118T450 120Q412 120 366 115T273
102T183 88T106 82ZM109 244Q83 244 69 260T58 299Q62 315 74 326T112 342Q171 355 238 365T378 382T522 388Q571 388 605 381T654 361T667 327Q663 309 647 295T604 280Q590 280 578 282T550 286T511 290T452 292Q389 292 335 285T237 268T161 252T109 244ZM375
369Q363 369 352 375T332 397Q313 429 287 454T234 503T182 550T144 605Q133 625 131 637T132 663Q137 685 153 701T192 717Q206 717 216 709T237 679Q253 647 277 621T330 570T386 519T432 458Q440 446 438 431T426 402T404 378T375 369Z" />
<glyph unicode="&#xa6;" glyph-name="brokenbar" horiz-adv-x="319" d="M92 -161Q61 -161 48 -142T44 -78Q48 -57 52 -37T63 8T76 70Q83 101 86 123T90 163T94 195T100 227Q106 260 121 274T159 289Q180 289 191 277T203 241Q201 178 191 119T169 3T146 -107Q142
-129 129 -145T92 -161ZM192 365Q169 365 158 377T146 413Q147 478 159 537T185 651T208 758Q212 783 225 798T264 814Q291 814 305 793T310 731Q306 710 300 691T287 647T272 586Q266 555 263 533T258 493T254 460T249 426Q242 393 227 379T192 365Z" />
<glyph unicode="&#xa7;" glyph-name="section" horiz-adv-x="578" d="M285 24L202 89Q273 91 323 107T402 154Q401 177 377 195T315 231T238 266T165 309T114 365T105 441Q114 492 150 534T238 608T347 664T458 698T554 710Q587 710 598 694T604 652Q600 634 586
621T545 603Q449 586 377 558T263 496T213 428Q208 407 230 389T288 354T365 319T441 277T496 223T507 152Q496 93 436 62T285 24ZM122 -259Q62 -259 26 -247T-25 -215T-34 -172Q-31 -155 -20 -146T12 -137Q28 -137 39 -140T70 -148T127 -152Q171 -152 209 -147T278
-132T333 -109Q332 -84 309 -65T250 -27T176 11T105 56T56 114T48 193Q59 249 108 282T238 332L301 278Q228 262 193 238T151 184Q146 158 167 138T226 99T304 60T380 14T435 -43T445 -118Q438 -157 409 -184T336 -227T237 -251T122 -259Z" />
<glyph unicode="&#xa8;" glyph-name="dieresis" horiz-adv-x="584" d="M483 578Q449 578 430 604T417 668Q423 695 446 714T498 734Q526 734 543 721T568 687T571 645Q566 623 545 601T483 578ZM243 571Q218 571 201 583T177 616T174 660Q180 690 201 710T252
730Q283 730 301 716T326 681T329 638Q323 612 302 592T243 571Z" />
<glyph unicode="&#xa9;" glyph-name="copyright" horiz-adv-x="943" d="M417 -48Q330 -48 263 -21T151 59T93 185T97 355Q110 423 141 475T212 565T294 627T374 663T435 674Q450 674 456 668T459 649Q456 632 440 618T391 587Q330 554 288 516T222 432T187 334Q175
276 183 223T220 129T299 64T422 40Q524 40 604 78T737 188T810 360Q828 451 812 518T741 623T586 659Q511 660 459 643T367 599T287 546Q273 537 260 532T233 526Q214 526 208 539T205 571Q209 594 239 624T321 682T441 729T589 748Q689 748 757 718T862 633T910
507T903 352Q882 248 835 173T722 48T578 -24T417 -48ZM454 136Q391 136 353 162T302 234T298 335Q307 382 335 422T403 494T492 542T592 560Q631 560 653 545T683 506T684 455Q681 437 671 422T646 399T611 391Q601 391 598 398T597 421Q599 438 593 449T558 461Q517
461 483 441T425 390T395 323Q386 280 407 256T474 232Q504 232 524 241T558 262T584 283T609 292Q626 292 634 280T639 250Q633 221 610 195T547 153T454 136Z" />
<glyph unicode="&#xaa;" glyph-name="ordfeminine" horiz-adv-x="599" d="M216 272Q170 272 140 292T98 347T94 424Q102 465 124 506T177 583T246 648T324 692T404 709Q431 709 446 692T455 643Q453 631 445 624T424 615Q367 605 319 573T239 495T197 398Q193
380 193 366T198 329L159 405Q176 388 189 383T225 378Q274 378 324 436T415 608Q421 627 435 637T465 648Q493 648 510 631T528 589Q530 544 533 508T548 440T582 371Q589 360 587 344T576 312T553 285T522 274Q508 274 500 279T486 295Q469 323 458 353T442 426T440
530L479 531Q440 435 396 378T305 297T216 272Z" />
<glyph unicode="&#xab;" glyph-name="guillemotleft" horiz-adv-x="649" d="M512 21Q500 21 490 24T464 34Q429 50 396 78T339 142T308 217Q305 241 308 259T327 295Q347 319 374 344T431 393T488 436T536 467Q556 478 568 482T589 486Q613 486 624 471T630 430Q628
416 620 404T592 382Q559 363 523 336T452 277T390 213L405 267Q412 233 434 202T487 148T553 113Q568 108 574 98T577 68Q572 43 552 32T512 21ZM221 17Q209 17 199 20T174 31Q146 47 117 76T65 141T36 217Q32 241 36 259T54 295Q80 325 116 356T188 414T249 455Q269
466 281 470T302 474Q326 474 337 459T343 418Q341 404 333 392T305 370Q274 352 240 327T175 272T118 213L131 265Q138 231 158 200T207 145T264 108Q277 103 283 93T285 62Q281 37 261 27T221 17Z" />
<glyph unicode="&#xac;" glyph-name="logicalnot" horiz-adv-x="700" d="M178 341Q135 336 119 351T107 393Q111 414 131 428T201 450Q261 460 319 465T430 471T526 473Q591 473 615 458T635 416Q631 396 615 384T564 372Q486 372 429 369T329 361T250 351T178
341ZM540 161Q520 161 509 177T502 234Q507 273 517 309T536 379T552 441Q555 463 568 478T604 493Q632 493 646 472T652 403Q647 377 638 342T620 275T606 222Q600 189 581 175T540 161Z" />
<glyph unicode="&#xad;" glyph-name="uni00AD" horiz-adv-x="495" d="M143 198Q110 198 89 206T58 229T52 257Q55 268 63 278T92 292Q159 305 220 311T343 317Q386 317 409 306T440 280T445 253Q442 235 427 225T387 214Q312 214 264 210T188 202T143 198Z" />
<glyph unicode="&#xae;" glyph-name="registered" horiz-adv-x="838" d="M391 147Q285 147 212 188T107 305T96 488Q110 557 140 609T209 698T288 758T363 792T421 803Q435 803 440 798T443 781Q440 766 426 753T381 724Q323 693 283 654T220 569T185 469Q173
407 190 354T257 267T393 234Q487 234 561 269T684 370T751 525Q767 604 754 663T692 757T554 790Q488 790 441 775T358 736T284 687Q272 679 259 674T235 669Q217 669 209 683T205 714Q209 735 236 762T311 816T420 860T556 877Q648 877 710 849T806 770T849 655T842
515Q823 419 780 350T675 236T541 169T391 147ZM308 302Q279 302 265 323T256 382Q261 406 274 436T310 503Q317 533 317 555T315 607Q314 628 324 642T358 657Q381 657 394 644T408 601L386 603Q413 640 445 666T513 707T585 721Q628 721 651 703T682 657T683
598Q673 543 624 505T487 441Q503 430 525 421T575 405Q596 401 604 392T610 368Q607 353 596 341T566 322T527 314Q513 314 492 321T446 343T399 375T361 416Q354 427 356 441T366 468T388 484Q455 504 497 526T559 568T583 602Q585 612 581 618T564 625Q541 625
511 609T450 558T392 472T352 349Q347 321 337 312T308 302Z" />
<glyph unicode="&#xaf;" glyph-name="overscore" horiz-adv-x="483" d="M194 613Q156 613 140 632T129 674Q131 686 142 699T185 716Q230 722 269 725T347 729T428 730Q465 730 485 719T513 694T518 666Q514 647 499 635T459 623Q376 623 324 621T242 616T194 613Z" />
<glyph unicode="&#xb0;" glyph-name="degree" horiz-adv-x="578" d="M313 270Q241 270 191 301T119 386T110 506Q118 550 143 586T201 649T270 690T336 705Q354 705 366 697T376 666Q371 641 357 622T308 589Q285 579 266 564T233 531T215 491Q205 438 232 406T319
373Q371 373 411 406T461 493Q471 542 448 570T377 599Q356 599 341 590T306 563Q283 545 271 536T240 526Q229 526 220 531T208 548T208 582Q212 603 229 624T271 663T325 692T381 703Q489 703 537 642T567 481Q554 420 517 372T427 297T313 270Z" />
<glyph unicode="&#xb1;" glyph-name="plusminus" horiz-adv-x="700" d="M115 34Q70 26 53 41T40 81Q43 100 60 116T127 145Q223 167 318 179T501 191Q542 191 562 177T577 137Q574 118 559 106T510 94Q447 94 398 90T309 79T236 65T174 49T115 34ZM141 303Q112
299 100 315T93 353Q97 376 113 392T176 416Q239 429 309 437T447 451T575 456Q610 456 628 440T641 398Q638 379 625 369T585 358Q497 356 431 350T315 335T223 318T141 303ZM339 213Q320 213 308 229T301 286Q307 331 317 375T338 458T355 530Q358 552 371 567T407
582Q437 582 452 561T457 492Q451 460 440 419T419 339T403 274Q396 241 378 227T339 213Z" />
<glyph unicode="&#xb2;" glyph-name="uni00B2" horiz-adv-x="480" d="M178 395Q147 395 134 412T126 457Q130 476 139 487T157 503Q225 541 270 570T344 623T386 667T403 706Q410 739 374 739Q339 739 310 726T260 699T223 685Q203 685 192 700T184 736Q187 750
194 760T216 779Q259 806 300 821T381 836Q458 836 483 797T498 698Q492 668 470 635T397 563T257 476L242 501Q253 498 264 497T286 496Q311 496 348 500T431 504Q474 504 488 488T499 448Q495 432 481 420T442 407Q340 407 277 401T178 395Z" />
<glyph unicode="&#xb3;" glyph-name="uni00B3" horiz-adv-x="480" d="M282 416Q230 416 200 427T158 456T151 498Q154 509 165 521T198 534Q210 534 216 528T236 516T284 510Q316 510 345 516T393 534T414 561Q417 577 407 585T372 596T308 600Q286 600 276 609T268
635Q271 650 280 660T306 673Q351 680 379 695T412 736Q415 752 406 756T381 761Q341 761 316 753T274 737T241 729Q221 729 212 742T205 772Q210 792 233 810T297 839T389 850Q458 850 485 818T503 738Q499 714 483 691T434 651T348 624L357 664Q417 665 450 649T494
604T497 539Q489 498 459 471T384 430T282 416Z" />
<glyph unicode="&#xb4;" glyph-name="acute" horiz-adv-x="280" d="M177 570Q151 570 141 580T133 608Q136 623 147 634T179 661Q208 681 222 698T250 744Q265 775 281 785T318 796Q349 796 361 778T367 730Q358 688 328 651T257 592T177 570Z" />
<glyph unicode="&#xb5;" glyph-name="uni00B5" horiz-adv-x="700" d="M40 -220Q26 -220 15 -213T0 -184T4 -120Q18 -47 35 26T68 167Q60 201 59 238T68 321Q87 417 116 461T178 505Q209 505 223 483T227 414Q217 362 205 307T181 195Q193 155 218 127T274 99Q315
99 349 125T409 200T448 316Q455 351 458 373T465 414T473 455Q477 478 488 490T524 503Q553 503 568 482T577 423Q560 334 559 274T568 170T603 89Q611 77 611 61T601 29T577 3T543 -7Q528 -7 519 0T502 18Q488 40 478 64T463 122Q431 58 378 24T264 -10Q226 -10
197 3T145 39Q131 -22 119 -74T101 -158Q94 -191 77 -205T40 -220Z" />
<glyph unicode="&#xb6;" glyph-name="paragraph" horiz-adv-x="815" d="M325 -266Q304 -266 289 -255T270 -225Q262 -172 277 -108T322 37T383 220T441 449Q451 499 453 529T453 573T439 592T415 597Q383 597 347 579T276 530T217 464T185 392Q179 366 202 339T281
290T426 254Q440 252 449 243T461 219T458 191Q450 169 429 158T387 150Q274 170 201 205T95 290T75 403Q85 457 120 510T206 609T318 681T439 708Q483 708 511 695T554 651T567 566T550 431Q526 311 495 217T436 49T393 -85T385 -193Q387 -210 381 -226T361 -254T325
-266ZM547 -255Q520 -255 506 -240T495 -194Q501 -129 519 -67T563 65T615 217T665 407T702 654Q704 673 710 687T730 709T763 717Q789 717 803 699T814 646Q801 511 778 408T728 223T676 73T633 -57T609 -186Q607 -204 600 -219T580 -245T547 -255Z" />
<glyph unicode="&#xb7;" glyph-name="middot" horiz-adv-x="303" d="M156 186Q110 186 87 212T71 281Q78 311 100 329T151 348Q187 348 207 333T234 295T236 249Q231 223 211 205T156 186Z" />
<glyph unicode="&#xb8;" glyph-name="cedilla" horiz-adv-x="584" d="M155 -228Q113 -228 93 -213T78 -167Q82 -146 95 -135T140 -120Q195 -114 219 -98T249 -53Q252 -33 248 -23T238 -7T226 5T223 21Q224 32 235 40T268 48Q316 48 339 10T350 -91Q338 -153 286
-190T155 -228Z" />
<glyph unicode="&#xb9;" glyph-name="uni00B9" horiz-adv-x="480" d="M340 453Q312 453 300 472T292 520Q302 573 319 628T356 733L375 725Q344 701 306 689T237 676Q210 676 200 692T194 728Q196 742 207 752T240 765Q274 768 309 781T375 815Q386 822 397 827T422
832Q452 832 462 809T461 757Q448 722 437 689T416 623T398 558T382 491Q379 473 368 463T340 453ZM218 391Q181 391 161 399T134 420T131 449Q134 468 151 478T200 488Q219 488 247 489T305 492T366 494T422 496Q460 496 481 482T497 442Q494 424 478 412T434
400Q388 400 347 398T274 394T218 391Z" />
<glyph unicode="&#xba;" glyph-name="ordmasculine" horiz-adv-x="541" d="M296 270Q229 270 183 301T117 386T110 508Q119 551 142 588T197 652T262 693T325 708Q343 708 356 700T365 669Q362 652 355 637T335 610T300 592Q266 576 244 550T214 491Q204 437 226
405T296 373Q343 373 377 403T422 486Q432 538 415 568T360 599Q339 599 324 590T289 564Q267 546 256 537T226 528Q210 528 200 539T194 574Q198 596 215 619T257 661T310 691T366 703Q430 703 470 675T526 595T528 476Q517 413 483 367T401 296T296 270Z" />
<glyph unicode="&#xbb;" glyph-name="guillemotright" horiz-adv-x="649" d="M53 17Q32 17 22 33T17 76Q19 90 27 102T54 125Q88 144 124 171T194 229T256 293L241 240Q236 273 214 302T161 355T94 392Q80 398 72 408T67 437Q71 460 89 471T133 482Q146 482 156
479T183 469Q218 454 251 426T309 362T339 288Q343 265 339 248T320 214Q299 188 272 162T216 112T159 67T109 35Q89 24 77 21T53 17ZM341 29Q320 29 310 45T305 88Q308 102 316 114T342 137Q374 155 408 180T473 234T530 293L516 241Q510 275 490 304T442 358T384
397Q372 403 365 413T360 443Q365 466 382 476T426 486Q439 486 450 483T474 473Q503 457 532 428T584 363T613 288Q617 265 613 248T594 214Q568 183 533 150T461 90T398 47Q377 36 365 33T341 29Z" />
<glyph unicode="&#xbc;" glyph-name="onequarter" horiz-adv-x="1244" d="M307 337Q279 337 267 356T260 403Q269 456 286 511T323 616L343 608Q311 584 274 572T205 560Q177 560 168 576T162 611Q163 625 174 635T208 648Q242 652 277 665T342 698Q353 706 364
710T390 715Q419 715 429 692T428 640Q416 605 405 572T384 506T366 441T350 374Q346 356 335 347T307 337ZM186 275Q149 275 129 282T102 303T99 332Q102 351 118 361T168 371Q187 371 214 372T273 375T334 377T390 379Q427 379 448 365T465 325Q461 308 446 296T402
283Q356 283 315 281T242 277T186 275ZM324 -34Q306 -34 296 -19T286 17T303 58Q367 130 437 201T581 341T731 474T885 595T1039 700Q1061 714 1079 720T1114 727Q1127 727 1137 718T1149 693T1139 658T1094 617Q952 525 828 426T594 221T381 -1Q366 -18 352 -26T324
-34ZM1024 -6Q995 -6 987 17T988 95Q1002 164 1022 222T1052 325Q1055 339 1055 350T1053 372L1080 343Q1010 320 957 271T868 159L847 198Q861 192 867 190T885 188Q925 188 967 195T1055 208T1157 215Q1179 215 1191 198T1198 155Q1195 140 1185 129T1155 118Q1090
118 1036 112T932 98T831 91Q800 91 785 109T774 151Q778 172 788 196T826 255Q860 298 899 331T976 386T1048 420T1101 431Q1137 431 1150 408T1155 347Q1146 300 1133 260T1107 179T1085 89Q1081 67 1081 55T1080 28Q1076 12 1061 3T1024 -6Z" />
<glyph unicode="&#xbd;" glyph-name="onehalf" horiz-adv-x="1244" d="M307 337Q279 337 267 356T260 403Q269 456 286 511T323 616L343 608Q311 584 274 572T205 560Q177 560 168 576T162 611Q163 625 174 635T208 648Q242 652 277 665T342 698Q353 706 364 710T390
715Q419 715 429 692T428 640Q416 605 405 572T384 506T366 441T350 374Q346 356 335 347T307 337ZM186 275Q149 275 129 282T102 303T99 332Q102 351 118 361T168 371Q187 371 214 372T273 375T334 377T390 379Q427 379 448 365T465 325Q461 308 446 296T402 283Q356
283 315 281T242 277T186 275ZM324 -34Q306 -34 296 -19T286 17T303 58Q367 130 437 201T581 341T731 474T885 595T1039 700Q1061 714 1079 720T1114 727Q1127 727 1137 718T1149 693T1139 658T1094 617Q952 525 828 426T594 221T381 -1Q366 -18 352 -26T324 -34ZM833
-12Q802 -12 789 5T781 50Q785 69 794 80T812 96Q880 134 925 163T999 216T1041 260T1058 299Q1065 332 1029 332Q994 332 965 319T915 292T878 278Q858 278 847 293T839 329Q842 343 849 353T871 372Q914 399 955 414T1036 429Q1113 429 1138 390T1153 291Q1147
261 1125 228T1052 156T912 69L897 94Q908 91 919 90T941 89Q966 89 1003 93T1086 97Q1129 97 1143 81T1154 41Q1150 25 1136 13T1097 0Q995 0 932 -6T833 -12Z" />
<glyph unicode="&#xbe;" glyph-name="threequarters" horiz-adv-x="1244" d="M247 276Q195 276 165 286T123 315T116 358Q118 369 130 381T163 394Q174 394 180 388T201 376T249 370Q281 370 309 376T357 394T379 421Q382 437 371 445T336 456T273 460Q251 460
241 469T233 495Q236 510 245 520T271 533Q316 540 344 555T377 596Q380 612 371 616T346 621Q306 621 281 613T239 597T206 589Q186 589 177 601T170 631Q174 652 198 670T261 699T354 710Q423 710 450 678T468 598Q463 574 447 551T399 511T313 484L322 524Q382
525 415 509T458 464T462 399Q454 358 424 331T348 290T247 276ZM324 -34Q306 -34 296 -19T286 17T303 58Q367 130 437 201T581 341T731 474T885 595T1039 700Q1061 714 1079 720T1114 727Q1127 727 1137 718T1149 693T1139 658T1094 617Q952 525 828 426T594 221T381
-1Q366 -18 352 -26T324 -34ZM1024 -6Q995 -6 987 17T988 95Q1002 164 1022 222T1052 325Q1055 339 1055 350T1053 372L1080 343Q1010 320 957 271T868 159L847 198Q861 192 867 190T885 188Q925 188 967 195T1055 208T1157 215Q1179 215 1191 198T1198 155Q1195
140 1185 129T1155 118Q1090 118 1036 112T932 98T831 91Q800 91 785 109T774 151Q778 172 788 196T826 255Q860 298 899 331T976 386T1048 420T1101 431Q1137 431 1150 408T1155 347Q1146 300 1133 260T1107 179T1085 89Q1081 67 1081 55T1080 28Q1076 12 1061
3T1024 -6Z" />
<glyph unicode="&#xbf;" glyph-name="questiondown" horiz-adv-x="362" d="M130 -246Q50 -246 4 -221T-60 -153T-67 -61Q-61 -30 -47 -5T-6 43T69 91Q110 114 131 127T159 151T168 170Q170 182 166 189T156 203T146 218T144 239Q147 255 160 264T193 274Q222 274
242 257T272 212T275 153Q272 140 266 127T246 98T206 65T136 22Q99 2 80 -13T53 -41T42 -69Q36 -101 57 -119T136 -137Q182 -137 212 -128T263 -111T305 -102Q327 -102 339 -115T346 -154Q342 -173 329 -187T298 -211Q275 -222 246 -230T186 -242T130 -246ZM243
362Q211 362 193 374T170 406T168 448Q173 472 193 489T247 507Q285 507 306 486T321 425Q315 396 293 379T243 362Z" />
<glyph unicode="&#xc0;" glyph-name="Agrave" horiz-adv-x="740" d="M579 -10Q555 -10 542 8T517 67Q508 102 504 155T499 268T503 380Q509 445 512 488T514 556T505 591T483 602Q458 602 419 562T335 448T243 271T154 41Q146 16 133 4T101 -8Q69 -8 57 13T55
87Q67 147 88 203T135 316T182 427T218 537Q223 559 233 570T261 581Q277 581 291 572T314 543L268 530Q328 618 384 663T497 709Q559 709 587 675T619 569T613 381Q606 302 609 245T618 148T629 81T630 32Q626 12 613 1T579 -10ZM82 180Q51 180 39 193T31 227Q34
242 45 252T81 271Q196 308 338 327T646 347Q689 347 702 334T711 298Q706 273 679 256T611 238Q509 238 435 233T306 219T212 201T142 186T82 180ZM518 775Q493 775 469 789T428 828T401 880T395 935Q399 963 412 978T452 993Q477 993 488 980T506 932Q510 903
521 886T545 857T564 835T568 810Q564 791 552 783T518 775Z" />
<glyph unicode="&#xc1;" glyph-name="Aacute" horiz-adv-x="740" d="M579 -10Q555 -10 542 8T517 67Q508 102 504 155T499 268T503 380Q509 445 512 488T514 556T505 591T483 602Q458 602 419 562T335 448T243 271T154 41Q146 16 133 4T101 -8Q69 -8 57 13T55
87Q67 147 88 203T135 316T182 427T218 537Q223 559 233 570T261 581Q277 581 291 572T314 543L268 530Q328 618 384 663T497 709Q559 709 587 675T619 569T613 381Q606 302 609 245T618 148T629 81T630 32Q626 12 613 1T579 -10ZM82 180Q51 180 39 193T31 227Q34
242 45 252T81 271Q196 308 338 327T646 347Q689 347 702 334T711 298Q706 273 679 256T611 238Q509 238 435 233T306 219T212 201T142 186T82 180ZM502 773Q476 773 466 783T458 811Q461 826 472 837T504 864Q533 884 547 901T575 947Q590 978 606 988T643 999Q674
999 686 981T692 933Q683 891 653 854T582 795T502 773Z" />
<glyph unicode="&#xc2;" glyph-name="Acircumflex" horiz-adv-x="740" d="M579 -10Q555 -10 542 8T517 67Q508 102 504 155T499 268T503 380Q509 445 512 488T514 556T505 591T483 602Q458 602 419 562T335 448T243 271T154 41Q146 16 133 4T101 -8Q69 -8 57 13T55
87Q67 147 88 203T135 316T182 427T218 537Q223 559 233 570T261 581Q277 581 291 572T314 543L268 530Q328 618 384 663T497 709Q559 709 587 675T619 569T613 381Q606 302 609 245T618 148T629 81T630 32Q626 12 613 1T579 -10ZM82 180Q51 180 39 193T31 227Q34
242 45 252T81 271Q196 308 338 327T646 347Q689 347 702 334T711 298Q706 273 679 256T611 238Q509 238 435 233T306 219T212 201T142 186T82 180ZM378 769Q363 769 353 775T337 791T334 814Q335 823 341 832T369 859T434 909Q469 934 489 949T524 971T559 978Q585
978 601 967T631 928Q647 897 663 879T692 849T710 828T715 803Q711 789 697 780T663 771Q637 771 617 780T575 816T527 892L566 891Q514 846 482 821T430 785T400 772T378 769Z" />
<glyph unicode="&#xc3;" glyph-name="Atilde" horiz-adv-x="740" d="M579 -10Q555 -10 542 8T517 67Q508 102 504 155T499 268T503 380Q509 445 512 488T514 556T505 591T483 602Q458 602 419 562T335 448T243 271T154 41Q146 16 133 4T101 -8Q69 -8 57 13T55
87Q67 147 88 203T135 316T182 427T218 537Q223 559 233 570T261 581Q277 581 291 572T314 543L268 530Q328 618 384 663T497 709Q559 709 587 675T619 569T613 381Q606 302 609 245T618 148T629 81T630 32Q626 12 613 1T579 -10ZM82 180Q51 180 39 193T31 227Q34
242 45 252T81 271Q196 308 338 327T646 347Q689 347 702 334T711 298Q706 273 679 256T611 238Q509 238 435 233T306 219T212 201T142 186T82 180ZM367 792Q343 792 332 814T326 865Q331 892 346 917T389 959T457 975Q493 975 515 963T553 934T581 905T612 892Q627
892 637 900T654 920T668 944T685 964T713 972Q734 972 744 955T748 905Q737 850 700 819T611 787Q581 787 562 798T527 825T498 852T463 864Q443 864 433 853T415 828T397 803T367 792Z" />
<glyph unicode="&#xc4;" glyph-name="Adieresis" horiz-adv-x="740" d="M579 -10Q555 -10 542 8T517 67Q508 102 504 155T499 268T503 380Q509 445 512 488T514 556T505 591T483 602Q458 602 419 562T335 448T243 271T154 41Q146 16 133 4T101 -8Q69 -8 57 13T55
87Q67 147 88 203T135 316T182 427T218 537Q223 559 233 570T261 581Q277 581 291 572T314 543L268 530Q328 618 384 663T497 709Q559 709 587 675T619 569T613 381Q606 302 609 245T618 148T629 81T630 32Q626 12 613 1T579 -10ZM82 180Q51 180 39 193T31 227Q34
242 45 252T81 271Q196 308 338 327T646 347Q689 347 702 334T711 298Q706 273 679 256T611 238Q509 238 435 233T306 219T212 201T142 186T82 180ZM642 781Q608 781 589 807T576 871Q582 898 605 917T657 937Q685 937 702 924T727 890T730 848Q725 826 704 804T642
781ZM402 774Q377 774 360 786T336 819T333 863Q339 893 360 913T411 933Q442 933 460 919T485 884T488 841Q482 815 461 795T402 774Z" />
<glyph unicode="&#xc5;" glyph-name="Aring" horiz-adv-x="740" d="M579 -10Q555 -10 542 8T517 67Q508 102 504 155T499 268T503 380Q509 445 512 488T514 556T505 591T483 602Q458 602 419 562T335 448T243 271T154 41Q146 16 133 4T101 -8Q69 -8 57 13T55 87Q67
147 88 203T135 316T182 427T218 537Q223 559 233 570T261 581Q277 581 291 572T314 543L268 530Q328 618 384 663T497 709Q559 709 587 675T619 569T613 381Q606 302 609 245T618 148T629 81T630 32Q626 12 613 1T579 -10ZM82 180Q51 180 39 193T31 227Q34 242
45 252T81 271Q196 308 338 327T646 347Q689 347 702 334T711 298Q706 273 679 256T611 238Q509 238 435 233T306 219T212 201T142 186T82 180ZM495 639Q435 639 396 664T341 733T336 830Q342 860 358 886T399 933T453 964T513 976Q542 976 554 962T562 927Q559
913 548 902T516 882Q480 868 464 850T444 807Q437 776 454 757T504 738Q538 738 560 756T589 806Q595 834 581 852T537 871Q513 871 499 863T476 846T455 837Q429 837 420 845T415 877Q423 915 457 941T544 968Q604 968 641 945T692 881T696 791Q687 743 658 710T587
658T495 639Z" />
<glyph unicode="&#xc6;" glyph-name="AE" horiz-adv-x="1066" d="M98 -8Q82 -8 70 2T54 34T55 87Q67 145 90 202T141 314T190 424T224 530Q227 547 238 557T266 567Q282 567 294 558T319 530L267 518Q328 614 383 662T493 710Q546 710 574 691T613 631T623 527T613
374Q604 285 612 224T654 133T751 102Q798 102 833 109T892 126T933 143T963 150Q984 150 992 138T997 104Q991 75 962 50T879 9T749 -7Q661 -7 607 20T527 97T496 214T500 363Q508 434 511 480T514 553T505 591T483 602Q456 602 417 562T332 448T239 270T148 38Q140
15 129 4T98 -8ZM94 177Q72 177 56 183T33 200T29 229Q31 242 42 250T87 268Q144 282 218 297T375 329T540 359T699 384T836 401T937 407Q974 407 986 396T994 361Q987 329 957 316T889 301Q780 294 678 279T485 247T318 214T185 188T94 177ZM605 570Q563 570 546
587T533 629Q536 644 545 653T579 668Q635 679 695 686T815 699T926 707T1016 710Q1065 710 1085 693T1100 649Q1097 630 1084 617T1045 604Q954 604 883 599T757 587T665 575T605 570Z" />
<glyph unicode="&#xc7;" glyph-name="Ccedilla" horiz-adv-x="611" d="M301 -10Q202 -10 145 32T70 145T69 307Q85 387 125 460T222 589T348 678T493 711Q546 711 577 696T619 652T622 585Q618 564 607 545T578 514T539 502Q524 502 519 509T513 528T516 554Q519
566 517 576T505 591T471 597Q420 597 372 572T285 503T218 406T178 294Q160 199 195 149T310 98Q354 98 384 107T435 129T470 156T496 179T519 188Q539 188 546 175T548 139Q544 116 526 90T477 41T402 4T301 -10ZM179 -228Q137 -228 117 -213T102 -167Q106 -146
119 -135T164 -120Q219 -114 243 -98T273 -53Q276 -33 272 -23T262 -7T250 5T247 21Q248 32 259 40T292 48Q340 48 363 10T374 -91Q362 -153 310 -190T179 -228Z" />
<glyph unicode="&#xc8;" glyph-name="Egrave" horiz-adv-x="639" d="M325 -7Q249 -7 196 16T113 82T75 180T79 299Q87 341 103 384T141 470T188 551Q211 585 238 607T295 630Q308 630 317 623T328 604T319 572Q294 537 268 493T221 398T188 293Q177 236 190 193T238
125T326 100Q375 100 409 106T467 122T506 137T533 144Q555 144 563 131T568 97Q563 69 533 46T451 8T325 -7ZM176 267Q153 262 142 268T129 287T129 316Q134 337 155 353T207 375Q240 381 277 386T352 396T429 404T501 409Q536 409 547 397T555 363Q548 334 521
321T459 305Q419 302 380 298T304 289T235 279T176 267ZM213 570Q176 570 160 586T147 626Q150 638 159 649T188 666Q258 682 336 691T487 705T613 710Q648 710 665 692T677 649Q673 630 659 617T617 604Q533 604 469 599T356 587T273 575T213 570ZM482 775Q457
775 433 789T392 828T365 880T359 935Q363 963 376 978T416 993Q441 993 452 980T470 932Q474 903 485 886T509 857T528 835T532 810Q528 791 516 783T482 775Z" />
<glyph unicode="&#xc9;" glyph-name="Eacute" horiz-adv-x="639" d="M325 -7Q249 -7 196 16T113 82T75 180T79 299Q87 341 103 384T141 470T188 551Q211 585 238 607T295 630Q308 630 317 623T328 604T319 572Q294 537 268 493T221 398T188 293Q177 236 190 193T238
125T326 100Q375 100 409 106T467 122T506 137T533 144Q555 144 563 131T568 97Q563 69 533 46T451 8T325 -7ZM176 267Q153 262 142 268T129 287T129 316Q134 337 155 353T207 375Q240 381 277 386T352 396T429 404T501 409Q536 409 547 397T555 363Q548 334 521
321T459 305Q419 302 380 298T304 289T235 279T176 267ZM213 570Q176 570 160 586T147 626Q150 638 159 649T188 666Q258 682 336 691T487 705T613 710Q648 710 665 692T677 649Q673 630 659 617T617 604Q533 604 469 599T356 587T273 575T213 570ZM465 773Q439
773 429 783T421 811Q424 826 435 837T467 864Q496 884 510 901T538 947Q553 978 569 988T606 999Q637 999 649 981T655 933Q646 891 616 854T545 795T465 773Z" />
<glyph unicode="&#xca;" glyph-name="Ecircumflex" horiz-adv-x="639" d="M325 -7Q249 -7 196 16T113 82T75 180T79 299Q87 341 103 384T141 470T188 551Q211 585 238 607T295 630Q308 630 317 623T328 604T319 572Q294 537 268 493T221 398T188 293Q177 236 190
193T238 125T326 100Q375 100 409 106T467 122T506 137T533 144Q555 144 563 131T568 97Q563 69 533 46T451 8T325 -7ZM176 267Q153 262 142 268T129 287T129 316Q134 337 155 353T207 375Q240 381 277 386T352 396T429 404T501 409Q536 409 547 397T555 363Q548
334 521 321T459 305Q419 302 380 298T304 289T235 279T176 267ZM213 570Q176 570 160 586T147 626Q150 638 159 649T188 666Q258 682 336 691T487 705T613 710Q648 710 665 692T677 649Q673 630 659 617T617 604Q533 604 469 599T356 587T273 575T213 570ZM342
769Q327 769 317 775T301 791T298 814Q299 823 305 832T333 859T398 909Q433 934 453 949T488 971T523 978Q549 978 565 967T595 928Q611 897 627 879T656 849T674 828T679 803Q675 789 661 780T627 771Q601 771 581 780T539 816T491 892L530 891Q478 846 446 821T394
785T364 772T342 769Z" />
<glyph unicode="&#xcb;" glyph-name="Edieresis" horiz-adv-x="639" d="M325 -7Q249 -7 196 16T113 82T75 180T79 299Q87 341 103 384T141 470T188 551Q211 585 238 607T295 630Q308 630 317 623T328 604T319 572Q294 537 268 493T221 398T188 293Q177 236 190
193T238 125T326 100Q375 100 409 106T467 122T506 137T533 144Q555 144 563 131T568 97Q563 69 533 46T451 8T325 -7ZM176 267Q153 262 142 268T129 287T129 316Q134 337 155 353T207 375Q240 381 277 386T352 396T429 404T501 409Q536 409 547 397T555 363Q548
334 521 321T459 305Q419 302 380 298T304 289T235 279T176 267ZM213 570Q176 570 160 586T147 626Q150 638 159 649T188 666Q258 682 336 691T487 705T613 710Q648 710 665 692T677 649Q673 630 659 617T617 604Q533 604 469 599T356 587T273 575T213 570ZM605
781Q571 781 552 807T539 871Q545 898 568 917T620 937Q648 937 665 924T690 890T693 848Q688 826 667 804T605 781ZM365 774Q340 774 323 786T299 819T296 863Q302 893 323 913T374 933Q405 933 423 919T448 884T451 841Q445 815 424 795T365 774Z" />
<glyph unicode="&#xcc;" glyph-name="Igrave" horiz-adv-x="554" d="M160 577Q128 577 116 592T108 629Q111 648 127 662T174 681Q226 689 289 694T418 703T541 707Q582 707 595 694T605 656Q598 624 565 610T480 596Q420 596 376 594T301 589T245 583T201 579T160
577ZM252 72Q220 72 206 93T198 149Q214 228 233 304T270 449T300 576Q305 604 317 618T353 633Q381 633 396 611T406 555Q397 514 380 449T342 299T301 117Q292 72 252 72ZM66 -11Q20 -11 3 5T-9 47Q-6 65 6 76T42 90Q82 95 118 97T190 101T260 104T334 105T417
105Q449 105 464 98T484 81T486 56Q481 32 455 16T378 0Q307 0 246 -2T139 -8T66 -11ZM392 775Q367 775 343 789T302 828T275 880T269 935Q273 963 286 978T326 993Q351 993 362 980T380 932Q384 903 395 886T419 857T438 835T442 810Q438 791 426 783T392 775Z"
/>
<glyph unicode="&#xcd;" glyph-name="Iacute" horiz-adv-x="554" d="M160 577Q128 577 116 592T108 629Q111 648 127 662T174 681Q226 689 289 694T418 703T541 707Q582 707 595 694T605 656Q598 624 565 610T480 596Q420 596 376 594T301 589T245 583T201 579T160
577ZM252 72Q220 72 206 93T198 149Q214 228 233 304T270 449T300 576Q305 604 317 618T353 633Q381 633 396 611T406 555Q397 514 380 449T342 299T301 117Q292 72 252 72ZM66 -11Q20 -11 3 5T-9 47Q-6 65 6 76T42 90Q82 95 118 97T190 101T260 104T334 105T417
105Q449 105 464 98T484 81T486 56Q481 32 455 16T378 0Q307 0 246 -2T139 -8T66 -11ZM375 773Q349 773 339 783T331 811Q334 826 345 837T377 864Q406 884 420 901T448 947Q463 978 479 988T516 999Q547 999 559 981T565 933Q556 891 526 854T455 795T375 773Z"
/>
<glyph unicode="&#xce;" glyph-name="Icircumflex" horiz-adv-x="554" d="M160 577Q128 577 116 592T108 629Q111 648 127 662T174 681Q226 689 289 694T418 703T541 707Q582 707 595 694T605 656Q598 624 565 610T480 596Q420 596 376 594T301 589T245 583T201
579T160 577ZM252 72Q220 72 206 93T198 149Q214 228 233 304T270 449T300 576Q305 604 317 618T353 633Q381 633 396 611T406 555Q397 514 380 449T342 299T301 117Q292 72 252 72ZM66 -11Q20 -11 3 5T-9 47Q-6 65 6 76T42 90Q82 95 118 97T190 101T260 104T334
105T417 105Q449 105 464 98T484 81T486 56Q481 32 455 16T378 0Q307 0 246 -2T139 -8T66 -11ZM252 769Q237 769 227 775T211 791T208 814Q209 823 215 832T243 859T308 909Q343 934 363 949T398 971T433 978Q459 978 475 967T505 928Q521 897 537 879T566 849T584
828T589 803Q585 789 571 780T537 771Q511 771 491 780T449 816T401 892L440 891Q388 846 356 821T304 785T274 772T252 769Z" />
<glyph unicode="&#xcf;" glyph-name="Idieresis" horiz-adv-x="554" d="M160 577Q128 577 116 592T108 629Q111 648 127 662T174 681Q226 689 289 694T418 703T541 707Q582 707 595 694T605 656Q598 624 565 610T480 596Q420 596 376 594T301 589T245 583T201
579T160 577ZM252 72Q220 72 206 93T198 149Q214 228 233 304T270 449T300 576Q305 604 317 618T353 633Q381 633 396 611T406 555Q397 514 380 449T342 299T301 117Q292 72 252 72ZM66 -11Q20 -11 3 5T-9 47Q-6 65 6 76T42 90Q82 95 118 97T190 101T260 104T334
105T417 105Q449 105 464 98T484 81T486 56Q481 32 455 16T378 0Q307 0 246 -2T139 -8T66 -11ZM515 781Q481 781 462 807T449 871Q455 898 478 917T530 937Q558 937 575 924T600 890T603 848Q598 826 577 804T515 781ZM275 774Q250 774 233 786T209 819T206 863Q212
893 233 913T284 933Q315 933 333 919T358 884T361 841Q355 815 334 795T275 774Z" />
<glyph unicode="&#xd0;" glyph-name="Eth" horiz-adv-x="684" d="M116 294Q77 294 60 312T47 350Q50 362 58 371T87 385Q151 397 205 400T316 404Q357 404 379 394T410 371T415 347Q412 331 397 321T357 310Q282 310 236 306T161 298T116 294ZM202 -9Q162 -9 137
14T102 78T103 168Q123 270 147 365T200 560Q209 590 223 602T265 615Q286 615 297 598T306 557Q298 509 283 454T249 334T216 187Q209 148 210 121T223 70L154 89Q234 92 305 120T431 195T524 301T575 427Q585 478 575 517T530 578T432 600Q379 600 341 593T275
576T224 559T179 552Q156 552 142 560T123 583T120 614Q122 628 133 641T164 660Q191 670 224 678T295 694T370 705T445 709Q541 709 600 671T681 568T687 418Q672 344 636 279T550 160T441 70T321 12T202 -9Z" />
<glyph unicode="&#xd1;" glyph-name="Ntilde" horiz-adv-x="773" d="M76 -13Q52 -13 39 4T31 51Q35 71 44 91T66 141T93 219T122 342Q131 385 138 431T150 520T160 594T166 638Q172 668 191 689T241 710Q282 710 312 686T363 620T401 526T430 417T455 306T481
206T513 130T556 91L495 69Q513 88 527 108T552 158T572 233Q584 293 592 347T609 454T630 556T664 653Q677 683 692 696T728 709Q752 709 764 695T777 661T770 620Q751 572 740 528T720 439T705 346T685 242Q671 168 652 111T601 20T520 -13Q482 -13 456 10T412
73T381 163T357 270T331 382T298 488T250 575L270 580Q266 528 261 487T251 411T238 342Q217 249 195 173T144 36Q134 14 118 1T76 -13ZM343 792Q319 792 308 814T302 865Q307 892 322 917T365 959T433 975Q469 975 491 963T529 934T557 905T588 892Q603 892 613
900T630 920T644 944T661 964T689 972Q710 972 720 955T724 905Q713 850 676 819T587 787Q557 787 538 798T503 825T474 852T439 864Q419 864 409 853T391 828T373 803T343 792Z" />
<glyph unicode="&#xd2;" glyph-name="Ograve" horiz-adv-x="729" d="M318 -10Q244 -10 191 15T105 84T64 186T66 306Q79 371 107 423T172 514T244 580T310 621T354 635Q368 635 377 631T393 612Q405 588 391 569T352 535Q314 511 278 478T216 398T176 290Q165
236 177 192T228 122T331 96Q384 96 434 121T522 192T571 300Q582 356 580 409T561 506T514 576T439 602Q420 602 410 588T394 553Q390 531 377 520T348 509Q332 509 319 518T299 545T298 590Q305 623 325 650T379 694T455 711Q525 711 575 676T654 579T690 442T681
285Q668 219 635 165T552 71T444 11T318 -10ZM467 775Q442 775 418 789T377 828T350 880T344 935Q348 963 361 978T401 993Q426 993 437 980T455 932Q459 903 470 886T494 857T513 835T517 810Q513 791 501 783T467 775Z" />
<glyph unicode="&#xd3;" glyph-name="Oacute" horiz-adv-x="729" d="M318 -10Q244 -10 191 15T105 84T64 186T66 306Q79 371 107 423T172 514T244 580T310 621T354 635Q368 635 377 631T393 612Q405 588 391 569T352 535Q314 511 278 478T216 398T176 290Q165
236 177 192T228 122T331 96Q384 96 434 121T522 192T571 300Q582 356 580 409T561 506T514 576T439 602Q420 602 410 588T394 553Q390 531 377 520T348 509Q332 509 319 518T299 545T298 590Q305 623 325 650T379 694T455 711Q525 711 575 676T654 579T690 442T681
285Q668 219 635 165T552 71T444 11T318 -10ZM451 773Q425 773 415 783T407 811Q410 826 421 837T453 864Q482 884 496 901T524 947Q539 978 555 988T592 999Q623 999 635 981T641 933Q632 891 602 854T531 795T451 773Z" />
<glyph unicode="&#xd4;" glyph-name="Ocircumflex" horiz-adv-x="729" d="M318 -10Q244 -10 191 15T105 84T64 186T66 306Q79 371 107 423T172 514T244 580T310 621T354 635Q368 635 377 631T393 612Q405 588 391 569T352 535Q314 511 278 478T216 398T176 290Q165
236 177 192T228 122T331 96Q384 96 434 121T522 192T571 300Q582 356 580 409T561 506T514 576T439 602Q420 602 410 588T394 553Q390 531 377 520T348 509Q332 509 319 518T299 545T298 590Q305 623 325 650T379 694T455 711Q525 711 575 676T654 579T690 442T681
285Q668 219 635 165T552 71T444 11T318 -10ZM327 769Q312 769 302 775T286 791T283 814Q284 823 290 832T318 859T383 909Q418 934 438 949T473 971T508 978Q534 978 550 967T580 928Q596 897 612 879T641 849T659 828T664 803Q660 789 646 780T612 771Q586 771
566 780T524 816T476 892L515 891Q463 846 431 821T379 785T349 772T327 769Z" />
<glyph unicode="&#xd5;" glyph-name="Otilde" horiz-adv-x="729" d="M318 -10Q244 -10 191 15T105 84T64 186T66 306Q79 371 107 423T172 514T244 580T310 621T354 635Q368 635 377 631T393 612Q405 588 391 569T352 535Q314 511 278 478T216 398T176 290Q165
236 177 192T228 122T331 96Q384 96 434 121T522 192T571 300Q582 356 580 409T561 506T514 576T439 602Q420 602 410 588T394 553Q390 531 377 520T348 509Q332 509 319 518T299 545T298 590Q305 623 325 650T379 694T455 711Q525 711 575 676T654 579T690 442T681
285Q668 219 635 165T552 71T444 11T318 -10ZM316 792Q292 792 281 814T275 865Q280 892 295 917T338 959T406 975Q442 975 464 963T502 934T530 905T561 892Q576 892 586 900T603 920T617 944T634 964T662 972Q683 972 693 955T697 905Q686 850 649 819T560 787Q530
787 511 798T476 825T447 852T412 864Q392 864 382 853T364 828T346 803T316 792Z" />
<glyph unicode="&#xd6;" glyph-name="Odieresis" horiz-adv-x="729" d="M318 -10Q244 -10 191 15T105 84T64 186T66 306Q79 371 107 423T172 514T244 580T310 621T354 635Q368 635 377 631T393 612Q405 588 391 569T352 535Q314 511 278 478T216 398T176 290Q165
236 177 192T228 122T331 96Q384 96 434 121T522 192T571 300Q582 356 580 409T561 506T514 576T439 602Q420 602 410 588T394 553Q390 531 377 520T348 509Q332 509 319 518T299 545T298 590Q305 623 325 650T379 694T455 711Q525 711 575 676T654 579T690 442T681
285Q668 219 635 165T552 71T444 11T318 -10ZM591 781Q557 781 538 807T525 871Q531 898 554 917T606 937Q634 937 651 924T676 890T679 848Q674 826 653 804T591 781ZM351 774Q326 774 309 786T285 819T282 863Q288 893 309 913T360 933Q391 933 409 919T434 884T437
841Q431 815 410 795T351 774Z" />
<glyph unicode="&#xd7;" glyph-name="multiply" horiz-adv-x="700" d="M131 71Q106 71 98 88T108 144Q122 173 156 215T240 308T354 410T488 507Q524 530 547 541T586 557T614 561Q636 561 644 548T647 511Q644 493 635 481T604 456Q526 415 454 361T318 245T202
114Q183 90 166 81T131 71ZM500 74Q486 74 472 83T443 124Q424 164 398 207T341 292T282 371T226 435Q205 455 194 471T187 511Q191 528 204 541T237 554Q255 554 269 545T308 509Q324 493 346 466T395 404T445 335T491 268T523 213Q545 171 549 149T551 113Q548
95 534 85T500 74Z" />
<glyph unicode="&#xd8;" glyph-name="Oslash" horiz-adv-x="742" d="M41 -75Q19 -75 7 -61T-5 -25T14 18Q90 110 170 197T335 367T506 526T685 672Q710 691 728 699T764 707Q782 707 791 695T799 664T785 624T747 583Q616 485 506 387T297 184T102 -36Q70 -75
41 -75ZM324 -10Q253 -10 200 16T115 87T71 191T73 315Q86 380 113 432T175 525T244 593T306 634T345 648Q371 648 383 637T395 608T386 574T357 545Q328 526 301 503T251 449T210 382T182 298Q171 241 183 195T232 122T328 95Q388 95 440 119T530 190T581 300Q591
351 588 404T567 502T518 574T439 602Q412 602 395 597T365 586T335 580Q315 580 306 592T301 629Q306 660 343 685T441 710Q503 710 550 687T629 624T678 529T697 413T686 286Q673 220 640 166T558 72T450 11T324 -10Z" />
<glyph unicode="&#xd9;" glyph-name="Ugrave" horiz-adv-x="673" d="M311 -13Q214 -13 158 30T85 152T90 338Q98 379 110 419T128 488Q137 531 140 558T145 603T148 635T153 667Q158 691 172 702T209 714Q234 714 248 697T264 639T252 528Q246 501 237 468T218
400T203 336Q184 244 194 193T237 120T316 98Q391 98 436 145T503 299Q516 359 523 405T537 497T556 599Q566 651 590 681T652 712Q674 712 685 700T692 663Q688 645 683 628T669 585T652 515Q641 460 633 403T613 285Q595 190 556 124T456 22T311 -13ZM453 775Q428
775 404 789T363 828T336 880T330 935Q334 963 347 978T387 993Q412 993 423 980T441 932Q445 903 456 886T480 857T499 835T503 810Q499 791 487 783T453 775Z" />
<glyph unicode="&#xda;" glyph-name="Uacute" horiz-adv-x="673" d="M311 -13Q214 -13 158 30T85 152T90 338Q98 379 110 419T128 488Q137 531 140 558T145 603T148 635T153 667Q158 691 172 702T209 714Q234 714 248 697T264 639T252 528Q246 501 237 468T218
400T203 336Q184 244 194 193T237 120T316 98Q391 98 436 145T503 299Q516 359 523 405T537 497T556 599Q566 651 590 681T652 712Q674 712 685 700T692 663Q688 645 683 628T669 585T652 515Q641 460 633 403T613 285Q595 190 556 124T456 22T311 -13ZM437 773Q411
773 401 783T393 811Q396 826 407 837T439 864Q468 884 482 901T510 947Q525 978 541 988T578 999Q609 999 621 981T627 933Q618 891 588 854T517 795T437 773Z" />
<glyph unicode="&#xdb;" glyph-name="Ucircumflex" horiz-adv-x="673" d="M311 -13Q214 -13 158 30T85 152T90 338Q98 379 110 419T128 488Q137 531 140 558T145 603T148 635T153 667Q158 691 172 702T209 714Q234 714 248 697T264 639T252 528Q246 501 237 468T218
400T203 336Q184 244 194 193T237 120T316 98Q391 98 436 145T503 299Q516 359 523 405T537 497T556 599Q566 651 590 681T652 712Q674 712 685 700T692 663Q688 645 683 628T669 585T652 515Q641 460 633 403T613 285Q595 190 556 124T456 22T311 -13ZM313 769Q298
769 288 775T272 791T269 814Q270 823 276 832T304 859T369 909Q404 934 424 949T459 971T494 978Q520 978 536 967T566 928Q582 897 598 879T627 849T645 828T650 803Q646 789 632 780T598 771Q572 771 552 780T510 816T462 892L501 891Q449 846 417 821T365 785T335
772T313 769Z" />
<glyph unicode="&#xdc;" glyph-name="Udieresis" horiz-adv-x="673" d="M311 -13Q214 -13 158 30T85 152T90 338Q98 379 110 419T128 488Q137 531 140 558T145 603T148 635T153 667Q158 691 172 702T209 714Q234 714 248 697T264 639T252 528Q246 501 237 468T218
400T203 336Q184 244 194 193T237 120T316 98Q391 98 436 145T503 299Q516 359 523 405T537 497T556 599Q566 651 590 681T652 712Q674 712 685 700T692 663Q688 645 683 628T669 585T652 515Q641 460 633 403T613 285Q595 190 556 124T456 22T311 -13ZM577 781Q543
781 524 807T511 871Q517 898 540 917T592 937Q620 937 637 924T662 890T665 848Q660 826 639 804T577 781ZM337 774Q312 774 295 786T271 819T268 863Q274 893 295 913T346 933Q377 933 395 919T420 884T423 841Q417 815 396 795T337 774Z" />
<glyph unicode="&#xdd;" glyph-name="Yacute" horiz-adv-x="609" d="M168 -15Q145 -15 133 -3T122 34T139 95Q166 163 209 241T309 398T432 550T570 681Q595 701 610 707T638 713Q652 713 661 707T675 689T676 660Q674 645 668 634T650 610T615 578Q553 526 497
465T393 336T306 196T238 50Q223 12 208 -1T168 -15ZM291 282Q276 282 266 290T250 312Q228 368 210 405T176 469T145 523T114 585Q104 610 101 628T101 665Q106 688 118 699T149 711Q167 711 179 703T201 672Q215 631 228 603T255 551T282 502T309 446T338 369Q341
357 340 342T333 314T317 291T291 282ZM390 773Q364 773 354 783T346 811Q349 826 360 837T392 864Q421 884 435 901T463 947Q478 978 494 988T531 999Q562 999 574 981T580 933Q571 891 541 854T470 795T390 773Z" />
<glyph unicode="&#xde;" glyph-name="Thorn" horiz-adv-x="605" d="M272 138Q224 138 191 151T141 185T129 229Q133 248 145 258T173 268Q187 268 197 262T224 250T271 244Q323 244 368 264T443 318T482 388Q489 423 476 446T436 480T377 492Q341 492 313 482T263
447Q255 438 245 434T219 429Q203 429 194 441T186 471T203 510Q235 551 279 573T385 595Q453 595 503 568T577 489T587 368Q578 324 550 283T479 209T382 157T272 138ZM95 -11Q67 -11 55 8T43 70T60 187Q76 267 95 337T131 463T153 553Q159 583 161 601T163 634T167
664Q172 687 185 698T221 710Q246 710 258 696T273 660T273 612T265 563Q256 519 240 461T205 338T174 212Q166 168 162 141T157 97T155 66T150 34Q146 13 131 1T95 -11Z" />
<glyph unicode="&#xdf;" glyph-name="germandbls" horiz-adv-x="666" d="M343 -18Q272 -18 241 7T217 70Q220 88 234 101T270 114Q280 114 286 111T300 102T322 93T361 89Q407 89 446 102T506 144Q503 166 484 180T437 204T379 226T324 253T287 294T282 357Q288
387 310 407T361 442T421 470T476 500T510 542Q516 596 488 623T407 650Q321 650 265 590T186 419Q175 365 169 313T155 201T131 59Q123 17 109 3T72 -12Q47 -12 31 13T25 86Q37 147 43 192T55 276T66 356T83 451Q103 549 152 618T270 723T411 760Q487 760 538
732T611 655T619 538Q611 496 589 468T537 422T477 393T423 372T388 349Q390 332 409 320T456 298T514 275T568 245T605 201T610 136Q599 78 559 44T461 -4T343 -18Z" />
<glyph unicode="&#xe0;" glyph-name="agrave" horiz-adv-x="641" d="M151 -10Q104 -10 74 12T32 74T29 163Q39 212 64 261T126 355T207 433T300 487T398 507Q425 507 441 491T450 444Q448 431 439 422T413 411Q344 401 286 361T188 266T136 149Q131 124 131 104T138
51L97 131Q116 109 131 103T173 96Q233 96 296 172T410 395Q418 416 433 427T467 439Q495 439 510 418T525 366Q525 308 527 261T541 172T579 85Q587 74 587 58T578 27T556 3T523 -7Q508 -7 498 -1T482 17Q467 43 456 70T439 132T431 213T435 323L477 325Q444 230
404 166T320 63T233 7T151 -10ZM392 572Q367 572 343 586T302 625T275 677T269 732Q273 760 286 775T326 790Q351 790 362 777T380 729Q384 700 395 683T419 654T438 632T442 607Q438 588 426 580T392 572Z" />
<glyph unicode="&#xe1;" glyph-name="aacute" horiz-adv-x="641" d="M151 -10Q104 -10 74 12T32 74T29 163Q39 212 64 261T126 355T207 433T300 487T398 507Q425 507 441 491T450 444Q448 431 439 422T413 411Q344 401 286 361T188 266T136 149Q131 124 131 104T138
51L97 131Q116 109 131 103T173 96Q233 96 296 172T410 395Q418 416 433 427T467 439Q495 439 510 418T525 366Q525 308 527 261T541 172T579 85Q587 74 587 58T578 27T556 3T523 -7Q508 -7 498 -1T482 17Q467 43 456 70T439 132T431 213T435 323L477 325Q444 230
404 166T320 63T233 7T151 -10ZM375 570Q349 570 339 580T331 608Q334 623 345 634T377 661Q406 681 420 698T448 744Q463 775 479 785T516 796Q547 796 559 778T565 730Q556 688 526 651T455 592T375 570Z" />
<glyph unicode="&#xe2;" glyph-name="acircumflex" horiz-adv-x="641" d="M151 -10Q104 -10 74 12T32 74T29 163Q39 212 64 261T126 355T207 433T300 487T398 507Q425 507 441 491T450 444Q448 431 439 422T413 411Q344 401 286 361T188 266T136 149Q131 124 131
104T138 51L97 131Q116 109 131 103T173 96Q233 96 296 172T410 395Q418 416 433 427T467 439Q495 439 510 418T525 366Q525 308 527 261T541 172T579 85Q587 74 587 58T578 27T556 3T523 -7Q508 -7 498 -1T482 17Q467 43 456 70T439 132T431 213T435 323L477 325Q444
230 404 166T320 63T233 7T151 -10ZM252 566Q237 566 227 572T211 588T208 611Q209 620 215 629T243 656T308 706Q343 731 363 746T398 768T433 775Q459 775 475 764T505 725Q521 694 537 676T566 646T584 625T589 600Q585 586 571 577T537 568Q511 568 491 577T449
613T401 689L440 688Q388 643 356 618T304 582T274 569T252 566Z" />
<glyph unicode="&#xe3;" glyph-name="atilde" horiz-adv-x="641" d="M151 -10Q104 -10 74 12T32 74T29 163Q39 212 64 261T126 355T207 433T300 487T398 507Q425 507 441 491T450 444Q448 431 439 422T413 411Q344 401 286 361T188 266T136 149Q131 124 131 104T138
51L97 131Q116 109 131 103T173 96Q233 96 296 172T410 395Q418 416 433 427T467 439Q495 439 510 418T525 366Q525 308 527 261T541 172T579 85Q587 74 587 58T578 27T556 3T523 -7Q508 -7 498 -1T482 17Q467 43 456 70T439 132T431 213T435 323L477 325Q444 230
404 166T320 63T233 7T151 -10ZM241 589Q217 589 206 611T200 662Q205 689 220 714T263 756T331 772Q367 772 389 760T427 731T455 702T486 689Q501 689 511 697T528 717T542 741T559 761T587 769Q608 769 618 752T622 702Q611 647 574 616T485 584Q455 584 436
595T401 622T372 649T337 661Q317 661 307 650T289 625T271 600T241 589Z" />
<glyph unicode="&#xe4;" glyph-name="adieresis" horiz-adv-x="641" d="M151 -10Q104 -10 74 12T32 74T29 163Q39 212 64 261T126 355T207 433T300 487T398 507Q425 507 441 491T450 444Q448 431 439 422T413 411Q344 401 286 361T188 266T136 149Q131 124 131
104T138 51L97 131Q116 109 131 103T173 96Q233 96 296 172T410 395Q418 416 433 427T467 439Q495 439 510 418T525 366Q525 308 527 261T541 172T579 85Q587 74 587 58T578 27T556 3T523 -7Q508 -7 498 -1T482 17Q467 43 456 70T439 132T431 213T435 323L477 325Q444
230 404 166T320 63T233 7T151 -10ZM516 578Q482 578 463 604T450 668Q456 695 479 714T531 734Q559 734 576 721T601 687T604 645Q599 623 578 601T516 578ZM276 571Q251 571 234 583T210 616T207 660Q213 690 234 710T285 730Q316 730 334 716T359 681T362 638Q356
612 335 592T276 571Z" />
<glyph unicode="&#xe5;" glyph-name="aring" horiz-adv-x="641" d="M151 -10Q104 -10 74 12T32 74T29 163Q39 212 64 261T126 355T207 433T300 487T398 507Q425 507 441 491T450 444Q448 431 439 422T413 411Q344 401 286 361T188 266T136 149Q131 124 131 104T138
51L97 131Q116 109 131 103T173 96Q233 96 296 172T410 395Q418 416 433 427T467 439Q495 439 510 418T525 366Q525 308 527 261T541 172T579 85Q587 74 587 58T578 27T556 3T523 -7Q508 -7 498 -1T482 17Q467 43 456 70T439 132T431 213T435 323L477 325Q444 230
404 166T320 63T233 7T151 -10ZM394 555Q334 555 295 580T240 649T235 746Q241 776 257 802T298 849T352 880T412 892Q441 892 453 878T461 843Q458 829 447 818T415 798Q379 784 363 766T343 723Q336 692 353 673T403 654Q437 654 459 672T488 722Q494 750 480
768T436 787Q412 787 398 779T375 762T354 753Q328 753 319 761T314 793Q322 831 356 857T443 884Q503 884 540 861T591 797T595 707Q586 659 557 626T486 574T394 555Z" />
<glyph unicode="&#xe6;" glyph-name="ae" horiz-adv-x="896" d="M553 -10Q477 -10 433 19T374 99T372 212Q383 265 411 317T482 412T577 481T689 507Q767 507 806 465T830 345Q819 290 778 254T677 200T548 182Q488 182 462 200T441 240Q444 253 451 259T473 266Q485
266 502 262T553 257Q599 257 636 268T698 300T728 347Q733 375 722 389T678 403Q630 403 585 374T509 297T466 195Q460 164 465 140T493 102T556 87Q610 87 649 100T715 130T762 160T797 173Q818 173 825 161T829 127Q824 104 801 80T740 36T654 3T553 -10ZM159
-10Q108 -10 74 9T25 65T20 152Q32 207 73 242T174 295T305 312Q364 312 389 294T412 256Q409 242 402 235T379 228Q367 228 351 233T301 238Q226 238 179 213T123 148Q118 120 129 106T175 91Q225 91 269 121T344 199T387 299Q393 330 389 354T366 393T314 407Q272
407 244 399T195 381T159 364T130 356Q107 356 99 369T94 404Q98 428 129 451T210 491T318 507Q388 507 428 478T481 399T482 287Q471 233 442 181T370 85T274 16T159 -10Z" />
<glyph unicode="&#xe7;" glyph-name="ccedilla" horiz-adv-x="514" d="M244 -9Q165 -9 116 21T48 105T43 228Q55 288 87 339T168 427T273 486T390 507Q418 507 440 498T473 472T479 429Q474 404 460 391T428 378Q416 378 410 383T397 392T376 397Q322 397 274
371T194 302T152 213Q145 177 153 151T185 109T247 94Q290 94 315 104T356 128T382 151T407 162Q428 162 437 151T441 112Q434 76 406 49T335 6T244 -9ZM133 -228Q91 -228 71 -213T56 -167Q60 -146 73 -135T118 -120Q173 -114 197 -98T227 -53Q230 -33 226 -23T216
-7T204 5T201 21Q202 32 213 40T246 48Q294 48 317 10T328 -91Q316 -153 264 -190T133 -228Z" />
<glyph unicode="&#xe8;" glyph-name="egrave" horiz-adv-x="576" d="M247 -10Q182 -10 139 8T72 58T42 132T46 224Q56 275 84 325T156 416T252 482T366 507Q421 507 457 489T508 435T512 348Q504 307 479 276T418 224T337 193T244 182Q176 182 152 199T131 239Q134
251 141 257T164 264Q174 264 189 261T234 257Q278 257 316 269T378 303T409 353Q415 380 403 393T356 407Q320 407 286 391T224 347T176 281T148 203Q142 172 148 145T177 102T243 86Q296 86 334 98T397 127T442 156T476 169Q497 169 505 154T508 117Q504 95 481
73T422 32T341 2T247 -10ZM369 572Q344 572 320 586T279 625T252 677T246 732Q250 760 263 775T303 790Q328 790 339 777T357 729Q361 700 372 683T396 654T415 632T419 607Q415 588 403 580T369 572Z" />
<glyph unicode="&#xe9;" glyph-name="eacute" horiz-adv-x="576" d="M247 -10Q182 -10 139 8T72 58T42 132T46 224Q56 275 84 325T156 416T252 482T366 507Q421 507 457 489T508 435T512 348Q504 307 479 276T418 224T337 193T244 182Q176 182 152 199T131 239Q134
251 141 257T164 264Q174 264 189 261T234 257Q278 257 316 269T378 303T409 353Q415 380 403 393T356 407Q320 407 286 391T224 347T176 281T148 203Q142 172 148 145T177 102T243 86Q296 86 334 98T397 127T442 156T476 169Q497 169 505 154T508 117Q504 95 481
73T422 32T341 2T247 -10ZM353 570Q327 570 317 580T309 608Q312 623 323 634T355 661Q384 681 398 698T426 744Q441 775 457 785T494 796Q525 796 537 778T543 730Q534 688 504 651T433 592T353 570Z" />
<glyph unicode="&#xea;" glyph-name="ecircumflex" horiz-adv-x="576" d="M247 -10Q182 -10 139 8T72 58T42 132T46 224Q56 275 84 325T156 416T252 482T366 507Q421 507 457 489T508 435T512 348Q504 307 479 276T418 224T337 193T244 182Q176 182 152 199T131
239Q134 251 141 257T164 264Q174 264 189 261T234 257Q278 257 316 269T378 303T409 353Q415 380 403 393T356 407Q320 407 286 391T224 347T176 281T148 203Q142 172 148 145T177 102T243 86Q296 86 334 98T397 127T442 156T476 169Q497 169 505 154T508 117Q504
95 481 73T422 32T341 2T247 -10ZM229 566Q214 566 204 572T188 588T185 611Q186 620 192 629T220 656T285 706Q320 731 340 746T375 768T410 775Q436 775 452 764T482 725Q498 694 514 676T543 646T561 625T566 600Q562 586 548 577T514 568Q488 568 468 577T426
613T378 689L417 688Q365 643 333 618T281 582T251 569T229 566Z" />
<glyph unicode="&#xeb;" glyph-name="edieresis" horiz-adv-x="576" d="M247 -10Q182 -10 139 8T72 58T42 132T46 224Q56 275 84 325T156 416T252 482T366 507Q421 507 457 489T508 435T512 348Q504 307 479 276T418 224T337 193T244 182Q176 182 152 199T131
239Q134 251 141 257T164 264Q174 264 189 261T234 257Q278 257 316 269T378 303T409 353Q415 380 403 393T356 407Q320 407 286 391T224 347T176 281T148 203Q142 172 148 145T177 102T243 86Q296 86 334 98T397 127T442 156T476 169Q497 169 505 154T508 117Q504
95 481 73T422 32T341 2T247 -10ZM493 578Q459 578 440 604T427 668Q433 695 456 714T508 734Q536 734 553 721T578 687T581 645Q576 623 555 601T493 578ZM253 571Q228 571 211 583T187 616T184 660Q190 690 211 710T262 730Q293 730 311 716T336 681T339 638Q333
612 312 592T253 571Z" />
<glyph unicode="&#xec;" glyph-name="igrave" horiz-adv-x="291" d="M107 -11Q87 -11 73 0T54 31T53 71Q67 145 76 196T92 286T105 357T118 428Q122 449 134 466T164 494T199 504Q223 504 237 486T246 433Q241 412 233 373T213 285T191 188T170 99T156 35Q152
14 140 2T107 -11ZM215 572Q190 572 166 586T125 625T98 677T92 732Q96 760 109 775T149 790Q174 790 185 777T203 729Q207 700 218 683T242 654T261 632T265 607Q261 588 249 580T215 572Z" />
<glyph unicode="&#xed;" glyph-name="iacute" horiz-adv-x="291" d="M107 -11Q87 -11 73 0T54 31T53 71Q67 145 76 196T92 286T105 357T118 428Q122 449 134 466T164 494T199 504Q223 504 237 486T246 433Q241 412 233 373T213 285T191 188T170 99T156 35Q152
14 140 2T107 -11ZM198 570Q172 570 162 580T154 608Q157 623 168 634T200 661Q229 681 243 698T271 744Q286 775 302 785T339 796Q370 796 382 778T388 730Q379 688 349 651T278 592T198 570Z" />
<glyph unicode="&#xee;" glyph-name="icircumflex" horiz-adv-x="291" d="M107 -11Q87 -11 73 0T54 31T53 71Q67 145 76 196T92 286T105 357T118 428Q122 449 134 466T164 494T199 504Q223 504 237 486T246 433Q241 412 233 373T213 285T191 188T170 99T156 35Q152
14 140 2T107 -11ZM75 566Q60 566 50 572T34 588T31 611Q32 620 38 629T66 656T131 706Q166 731 186 746T221 768T256 775Q282 775 298 764T328 725Q344 694 360 676T389 646T407 625T412 600Q408 586 394 577T360 568Q334 568 314 577T272 613T224 689L263 688Q211
643 179 618T127 582T97 569T75 566Z" />
<glyph unicode="&#xef;" glyph-name="idieresis" horiz-adv-x="291" d="M107 -11Q87 -11 73 0T54 31T53 71Q67 145 76 196T92 286T105 357T118 428Q122 449 134 466T164 494T199 504Q223 504 237 486T246 433Q241 412 233 373T213 285T191 188T170 99T156 35Q152
14 140 2T107 -11ZM338 578Q304 578 285 604T272 668Q278 695 301 714T353 734Q381 734 398 721T423 687T426 645Q421 623 400 601T338 578ZM98 571Q73 571 56 583T32 616T29 660Q35 690 56 710T107 730Q138 730 156 716T181 681T184 638Q178 612 157 592T98 571Z"
/>
<glyph unicode="&#xf0;" glyph-name="eth" horiz-adv-x="608" d="M261 -10Q199 -10 155 10T85 65T50 144T51 236Q62 292 93 334T174 401T286 426Q348 426 388 408T446 363T459 313Q455 298 446 289T417 279Q405 279 396 286T375 303T343 320T287 327Q247 327 221
312T180 273T159 225Q150 181 163 152T203 109T267 95Q307 95 341 108T399 154T435 243Q447 302 429 371T368 511T260 648Q233 676 228 689T224 718Q228 738 243 749T278 760Q289 760 299 757T323 743T354 713Q430 633 476 548T540 380T542 226Q527 152 491 99T398
18T261 -10ZM197 504Q163 492 146 501T133 533Q137 557 156 574T225 609Q307 635 388 651T542 668Q574 668 590 654T602 617Q599 599 588 591T556 581Q479 576 421 567T310 542T197 504Z" />
<glyph unicode="&#xf1;" glyph-name="ntilde" horiz-adv-x="632" d="M502 -9Q464 -9 442 22T419 119T437 287Q444 327 447 351T450 391T443 415T427 435Q449 436 463 429T482 406T482 364Q472 386 463 393T439 400Q420 400 388 375T319 304T243 197T171 63Q151
20 136 6T97 -9Q55 -9 45 36T47 151Q58 202 70 240T94 311T117 378T137 458Q142 480 155 491T191 503Q211 503 226 484T231 422Q226 391 217 363T194 303T168 228T144 123L123 141Q181 262 242 343T362 466T470 507Q508 507 530 489T558 436T554 353Q539 277 531
223T524 134T544 81Q553 71 557 59T558 30Q554 13 539 2T502 -9ZM235 589Q211 589 200 611T194 662Q199 689 214 714T257 756T325 772Q361 772 383 760T421 731T449 702T480 689Q495 689 505 697T522 717T536 741T553 761T581 769Q602 769 612 752T616 702Q605
647 568 616T479 584Q449 584 430 595T395 622T366 649T331 661Q311 661 301 650T283 625T265 600T235 589Z" />
<glyph unicode="&#xf2;" glyph-name="ograve" horiz-adv-x="620" d="M282 -12Q196 -12 140 25T62 125T56 268Q67 322 95 365T159 438T234 485T303 501Q316 501 326 497T343 485T346 463Q340 437 326 417T277 384Q245 370 222 351T183 307T162 249Q147 176 180
132T284 88Q348 88 397 133T461 254Q474 322 450 361T369 401Q340 401 320 389T275 357Q257 342 246 331T226 314T202 308Q186 308 176 320T172 360Q176 384 196 409T246 456T308 490T373 503Q451 503 499 469T565 376T567 240Q553 164 512 107T411 19T282 -12ZM397
572Q372 572 348 586T307 625T280 677T274 732Q278 760 291 775T331 790Q356 790 367 777T385 729Q389 700 400 683T424 654T443 632T447 607Q443 588 431 580T397 572Z" />
<glyph unicode="&#xf3;" glyph-name="oacute" horiz-adv-x="620" d="M282 -12Q196 -12 140 25T62 125T56 268Q67 322 95 365T159 438T234 485T303 501Q316 501 326 497T343 485T346 463Q340 437 326 417T277 384Q245 370 222 351T183 307T162 249Q147 176 180
132T284 88Q348 88 397 133T461 254Q474 322 450 361T369 401Q340 401 320 389T275 357Q257 342 246 331T226 314T202 308Q186 308 176 320T172 360Q176 384 196 409T246 456T308 490T373 503Q451 503 499 469T565 376T567 240Q553 164 512 107T411 19T282 -12ZM380
570Q354 570 344 580T336 608Q339 623 350 634T382 661Q411 681 425 698T453 744Q468 775 484 785T521 796Q552 796 564 778T570 730Q561 688 531 651T460 592T380 570Z" />
<glyph unicode="&#xf4;" glyph-name="ocircumflex" horiz-adv-x="620" d="M282 -12Q196 -12 140 25T62 125T56 268Q67 322 95 365T159 438T234 485T303 501Q316 501 326 497T343 485T346 463Q340 437 326 417T277 384Q245 370 222 351T183 307T162 249Q147 176
180 132T284 88Q348 88 397 133T461 254Q474 322 450 361T369 401Q340 401 320 389T275 357Q257 342 246 331T226 314T202 308Q186 308 176 320T172 360Q176 384 196 409T246 456T308 490T373 503Q451 503 499 469T565 376T567 240Q553 164 512 107T411 19T282
-12ZM256 566Q241 566 231 572T215 588T212 611Q213 620 219 629T247 656T312 706Q347 731 367 746T402 768T437 775Q463 775 479 764T509 725Q525 694 541 676T570 646T588 625T593 600Q589 586 575 577T541 568Q515 568 495 577T453 613T405 689L444 688Q392
643 360 618T308 582T278 569T256 566Z" />
<glyph unicode="&#xf5;" glyph-name="otilde" horiz-adv-x="620" d="M282 -12Q196 -12 140 25T62 125T56 268Q67 322 95 365T159 438T234 485T303 501Q316 501 326 497T343 485T346 463Q340 437 326 417T277 384Q245 370 222 351T183 307T162 249Q147 176 180
132T284 88Q348 88 397 133T461 254Q474 322 450 361T369 401Q340 401 320 389T275 357Q257 342 246 331T226 314T202 308Q186 308 176 320T172 360Q176 384 196 409T246 456T308 490T373 503Q451 503 499 469T565 376T567 240Q553 164 512 107T411 19T282 -12ZM245
589Q221 589 210 611T204 662Q209 689 224 714T267 756T335 772Q371 772 393 760T431 731T459 702T490 689Q505 689 515 697T532 717T546 741T563 761T591 769Q612 769 622 752T626 702Q615 647 578 616T489 584Q459 584 440 595T405 622T376 649T341 661Q321 661
311 650T293 625T275 600T245 589Z" />
<glyph unicode="&#xf6;" glyph-name="odieresis" horiz-adv-x="620" d="M282 -12Q196 -12 140 25T62 125T56 268Q67 322 95 365T159 438T234 485T303 501Q316 501 326 497T343 485T346 463Q340 437 326 417T277 384Q245 370 222 351T183 307T162 249Q147 176 180
132T284 88Q348 88 397 133T461 254Q474 322 450 361T369 401Q340 401 320 389T275 357Q257 342 246 331T226 314T202 308Q186 308 176 320T172 360Q176 384 196 409T246 456T308 490T373 503Q451 503 499 469T565 376T567 240Q553 164 512 107T411 19T282 -12ZM520
578Q486 578 467 604T454 668Q460 695 483 714T535 734Q563 734 580 721T605 687T608 645Q603 623 582 601T520 578ZM280 571Q255 571 238 583T214 616T211 660Q217 690 238 710T289 730Q320 730 338 716T363 681T366 638Q360 612 339 592T280 571Z" />
<glyph unicode="&#xf7;" glyph-name="divide" horiz-adv-x="700" d="M134 250Q105 246 93 262T86 300Q91 323 106 339T169 363Q233 375 302 384T440 398T568 403Q603 403 621 387T635 345Q631 326 618 316T578 305Q490 303 424 297T308 282T216 265T134 250ZM334
31Q287 31 264 58T250 127Q255 157 277 175T330 194Q365 194 384 179T411 141T414 94Q408 69 388 50T334 31ZM416 468Q368 468 346 494T332 563Q337 593 359 611T411 630Q447 630 467 615T493 577T496 531Q491 505 471 487T416 468Z" />
<glyph unicode="&#xf8;" glyph-name="oslash" horiz-adv-x="631" d="M289 -12Q207 -12 149 25T67 125T58 268Q69 319 97 362T163 436T237 484T301 501Q314 501 324 497T341 485T344 463Q338 437 325 420T275 385Q245 370 223 350T186 306T166 255Q151 179 185
134T293 88Q354 88 401 131T463 248Q477 321 451 364T367 407Q337 407 315 396T268 363Q251 348 240 337T219 320T195 314Q181 314 173 325T170 360Q175 384 195 409T245 456T309 490T376 503Q452 503 500 469T567 375T569 234Q555 162 515 107T416 20T289 -12ZM204
112Q192 112 185 119T181 139Q184 155 195 173T229 218T293 284T397 380T550 520Q579 545 598 554T638 564Q664 564 672 547T667 502T618 443Q519 361 453 303T343 208T274 150T233 121T204 112ZM23 -104Q2 -104 -9 -90T-20 -54T-1 -11Q35 32 61 60T108 101T145
115Q169 115 181 103T189 62Q187 53 173 36T137 -5T84 -65Q69 -84 54 -94T23 -104Z" />
<glyph unicode="&#xf9;" glyph-name="ugrave" horiz-adv-x="597" d="M269 -10Q205 -10 161 16T93 88T64 188T69 301Q78 347 94 387T135 471Q142 484 153 491T182 499Q210 499 223 481T230 435Q228 421 222 408T207 380T191 343T176 291Q168 249 169 213T183 151T217
110T272 95Q311 95 345 122T405 206T448 345Q453 372 455 389T458 421T464 452Q469 475 480 487T515 500Q537 500 550 484T566 431T557 335Q534 218 491 142T392 28T269 -10ZM378 572Q353 572 329 586T288 625T261 677T255 732Q259 760 272 775T312 790Q337 790
348 777T366 729Q370 700 381 683T405 654T424 632T428 607Q424 588 412 580T378 572Z" />
<glyph unicode="&#xfa;" glyph-name="uacute" horiz-adv-x="597" d="M269 -10Q205 -10 161 16T93 88T64 188T69 301Q78 347 94 387T135 471Q142 484 153 491T182 499Q210 499 223 481T230 435Q228 421 222 408T207 380T191 343T176 291Q168 249 169 213T183 151T217
110T272 95Q311 95 345 122T405 206T448 345Q453 372 455 389T458 421T464 452Q469 475 480 487T515 500Q537 500 550 484T566 431T557 335Q534 218 491 142T392 28T269 -10ZM361 570Q335 570 325 580T317 608Q320 623 331 634T363 661Q392 681 406 698T434 744Q449
775 465 785T502 796Q533 796 545 778T551 730Q542 688 512 651T441 592T361 570Z" />
<glyph unicode="&#xfb;" glyph-name="ucircumflex" horiz-adv-x="597" d="M269 -10Q205 -10 161 16T93 88T64 188T69 301Q78 347 94 387T135 471Q142 484 153 491T182 499Q210 499 223 481T230 435Q228 421 222 408T207 380T191 343T176 291Q168 249 169 213T183
151T217 110T272 95Q311 95 345 122T405 206T448 345Q453 372 455 389T458 421T464 452Q469 475 480 487T515 500Q537 500 550 484T566 431T557 335Q534 218 491 142T392 28T269 -10ZM237 566Q222 566 212 572T196 588T193 611Q194 620 200 629T228 656T293 706Q328
731 348 746T383 768T418 775Q444 775 460 764T490 725Q506 694 522 676T551 646T569 625T574 600Q570 586 556 577T522 568Q496 568 476 577T434 613T386 689L425 688Q373 643 341 618T289 582T259 569T237 566Z" />
<glyph unicode="&#xfc;" glyph-name="udieresis" horiz-adv-x="597" d="M269 -10Q205 -10 161 16T93 88T64 188T69 301Q78 347 94 387T135 471Q142 484 153 491T182 499Q210 499 223 481T230 435Q228 421 222 408T207 380T191 343T176 291Q168 249 169 213T183
151T217 110T272 95Q311 95 345 122T405 206T448 345Q453 372 455 389T458 421T464 452Q469 475 480 487T515 500Q537 500 550 484T566 431T557 335Q534 218 491 142T392 28T269 -10ZM501 578Q467 578 448 604T435 668Q441 695 464 714T516 734Q544 734 561 721T586
687T589 645Q584 623 563 601T501 578ZM261 571Q236 571 219 583T195 616T192 660Q198 690 219 710T270 730Q301 730 319 716T344 681T347 638Q341 612 320 592T261 571Z" />
<glyph unicode="&#xfd;" glyph-name="yacute" horiz-adv-x="587" d="M207 -261Q138 -261 93 -247T27 -209T13 -159Q17 -139 29 -128T64 -116Q78 -116 88 -121T113 -134T151 -146T215 -152Q259 -152 288 -134T336 -82T363 -5Q369 27 371 55T377 114T384 184T399
275L436 245Q405 183 374 145T313 85T258 56T210 48Q149 48 112 79T65 175T75 343Q88 412 103 447T134 495T171 507Q191 507 202 499T216 472T211 427Q198 373 188 325T177 238T185 179T221 157Q262 157 300 197T372 304T431 455Q441 485 452 495T485 506Q499 506
510 501T529 483T536 450T528 400Q512 349 505 309T495 232T490 158T483 76T467 -27Q454 -93 429 -138T370 -211T295 -249T207 -261ZM333 570Q307 570 297 580T289 608Q292 623 303 634T335 661Q364 681 378 698T406 744Q421 775 437 785T474 796Q505 796 517 778T523
730Q514 688 484 651T413 592T333 570Z" />
<glyph unicode="&#xfe;" glyph-name="thorn" horiz-adv-x="612" d="M289 -10Q231 -10 189 8T127 53T112 109Q116 127 125 137T154 147Q167 147 177 140T199 122T233 105T290 97Q348 97 389 122T443 209Q454 265 437 307T382 373T288 397Q256 397 240 393T206 389Q193
389 184 396T170 416T168 442Q175 475 207 490T306 506Q370 506 422 485T509 422T556 322T554 189Q543 130 506 85T413 15T289 -10ZM53 -260Q36 -260 22 -249T0 -211T-9 -140T5 -31Q30 94 56 194T105 376T142 528Q150 569 153 596T158 643T160 677T164 710Q169
733 182 746T216 760Q238 760 253 741T271 675T258 548Q244 477 222 395T175 215T126 2Q115 -53 112 -86T110 -140T113 -177T109 -214Q104 -238 89 -249T53 -260Z" />
<glyph unicode="&#xff;" glyph-name="ydieresis" horiz-adv-x="587" d="M207 -261Q138 -261 93 -247T27 -209T13 -159Q17 -139 29 -128T64 -116Q78 -116 88 -121T113 -134T151 -146T215 -152Q259 -152 288 -134T336 -82T363 -5Q369 27 371 55T377 114T384 184T399
275L436 245Q405 183 374 145T313 85T258 56T210 48Q149 48 112 79T65 175T75 343Q88 412 103 447T134 495T171 507Q191 507 202 499T216 472T211 427Q198 373 188 325T177 238T185 179T221 157Q262 157 300 197T372 304T431 455Q441 485 452 495T485 506Q499 506
510 501T529 483T536 450T528 400Q512 349 505 309T495 232T490 158T483 76T467 -27Q454 -93 429 -138T370 -211T295 -249T207 -261ZM473 578Q439 578 420 604T407 668Q413 695 436 714T488 734Q516 734 533 721T558 687T561 645Q556 623 535 601T473 578ZM233
571Q208 571 191 583T167 616T164 660Q170 690 191 710T242 730Q273 730 291 716T316 681T319 638Q313 612 292 592T233 571Z" />
<glyph unicode="&#x2013;" glyph-name="endash" horiz-adv-x="700" d="M143 198Q110 198 88 206T57 228T51 256Q54 268 62 279T92 292Q212 302 322 306T547 310Q589 310 612 299T644 274T649 247Q646 229 631 219T591 208Q485 208 411 207T285 203T201 200T143 198Z" />
<glyph unicode="&#x2014;" glyph-name="emdash" horiz-adv-x="1000" d="M143 198Q110 198 88 206T57 228T51 256Q54 268 62 279T92 292Q289 302 474 306T848 310Q890 310 913 299T945 274T950 247Q947 229 932 219T892 208Q716 208 591 207T381 203T239 200T143 198Z" />
<glyph unicode="&#x2018;" glyph-name="quoteleft" horiz-adv-x="236" d="M141 453Q122 453 112 465T98 498T98 541Q113 592 146 653T224 762Q250 792 269 801T309 811Q327 811 337 801T351 775T352 744Q350 735 344 725T320 698Q273 652 246 606T203 518Q189
483 175 468T141 453Z" />
<glyph unicode="&#x2019;" glyph-name="quoteright" horiz-adv-x="241" d="M115 430Q90 430 82 449T87 492Q109 526 131 563T174 647T209 752Q218 783 232 797T272 812Q292 812 308 803T333 777T336 734Q330 703 315 665T279 588T233 518T187 466Q164 445 148
438T115 430Z" />
<glyph unicode="&#x201a;" glyph-name="quotesinglbase" horiz-adv-x="273" d="M-54 -215Q-79 -215 -87 -196T-82 -153Q-60 -119 -38 -82T5 2T40 107Q49 138 63 152T103 167Q123 167 139 158T164 132T167 89Q161 58 146 20T110 -57T64 -127T18 -179Q-5 -200 -21
-207T-54 -215Z" />
<glyph unicode="&#x201c;" glyph-name="quotedblleft" horiz-adv-x="507" d="M151 439Q133 439 122 453T108 492T110 542Q120 593 154 654T236 766Q262 794 280 802T317 811Q338 811 350 800T366 771T367 738Q366 727 360 717T335 688Q288 642 262 598T218 512Q202
472 187 456T151 439ZM389 389Q371 389 360 403T346 441T348 492Q356 533 380 583T439 670Q464 698 482 706T520 715Q542 715 555 705T573 679T575 648Q573 636 565 624T538 591Q504 557 486 525T456 461Q439 422 424 406T389 389Z" />
<glyph unicode="&#x201d;" glyph-name="quotedblright" horiz-adv-x="512" d="M142 429Q121 429 112 442T107 479Q111 500 125 524T159 579T198 646T230 731Q241 774 259 793T305 812Q337 812 354 790T364 733Q359 704 345 669T310 596T265 527T218 470Q195 448
178 439T142 429ZM404 408Q383 408 373 420T367 454Q370 472 381 490T407 532T438 586T466 660Q478 703 495 716T533 730Q565 730 580 711T589 653Q582 610 555 558T481 453Q462 429 443 419T404 408Z" />
<glyph unicode="&#x201e;" glyph-name="quotedblbase" horiz-adv-x="495" d="M-39 -197Q-60 -197 -69 -184T-74 -147Q-70 -126 -56 -102T-22 -47T17 20T49 105Q60 148 78 167T124 186Q156 186 173 164T183 107Q178 78 164 43T129 -30T84 -99T37 -156Q14 -178 -3
-187T-39 -197ZM223 -218Q202 -218 192 -206T186 -172Q189 -154 200 -136T226 -94T257 -40T285 34Q297 77 314 90T352 104Q384 104 399 85T408 27Q401 -16 374 -68T300 -173Q281 -197 262 -207T223 -218Z" />
<glyph unicode="&#x2022;" glyph-name="bullet" horiz-adv-x="500" d="M233 126Q190 126 162 144T121 194T117 266Q124 300 139 324T175 362T211 375Q225 375 230 369Q243 380 258 385T298 390Q356 390 378 352T386 251Q373 190 331 158T233 126Z" />
<glyph unicode="&#x2039;" glyph-name="guilsinglleft" horiz-adv-x="357" d="M221 17Q209 17 199 20T174 31Q146 47 117 76T65 141T36 217Q32 241 36 259T54 295Q80 325 116 356T188 414T249 455Q269 466 281 470T302 474Q326 474 337 459T343 418Q341 405 332
393T304 371Q273 353 239 328T174 273T117 214L131 267Q138 233 158 202T206 146T264 109Q277 105 283 95T286 68Q281 41 261 29T221 17Z" />
<glyph unicode="&#x203a;" glyph-name="guilsinglright" horiz-adv-x="375" d="M55 17Q34 17 24 33T19 76Q21 90 30 102T57 124Q91 143 127 170T197 229T258 293L244 239Q239 272 217 301T164 354T97 391Q82 397 75 407T71 432Q76 457 95 469T135 482Q148 482
158 479T185 469Q220 454 253 426T311 362T341 288Q345 265 341 248T322 214Q301 188 274 162T218 112T161 67T111 35Q91 24 79 21T55 17Z" />
</font>
</defs>
</svg>
