<?xml version="1.0" standalone="no"?>
<!DOCTYPE svg PUBLIC "-//W3C//DTD SVG 20010904//EN"
 "http://www.w3.org/TR/2001/REC-SVG-20010904/DTD/svg10.dtd">
<svg version="1.0" xmlns="http://www.w3.org/2000/svg"
 width="180.000000pt" height="180.000000pt" viewBox="0 0 180.000000 180.000000"
 preserveAspectRatio="xMidYMid meet">

<g transform="translate(0.000000,180.000000) scale(0.100000,-0.100000)"
fill="#000000" stroke="none">
<path d="M0 900 l0 -900 900 0 900 0 0 900 0 900 -411 0 -411 0 6 -22 c3 -13
6 -35 6 -50 0 -18 5 -28 15 -28 20 0 55 -40 55 -64 0 -18 4 -17 26 12 14 17
33 32 43 32 25 0 62 -43 71 -82 l8 -33 1 38 c1 43 26 61 46 34 7 -9 15 -63 19
-119 7 -99 17 -138 36 -138 16 0 12 68 -5 94 -8 12 -18 50 -21 84 -6 53 -4 62
11 68 28 11 45 -22 47 -90 1 -54 2 -56 5 -16 5 50 17 70 44 70 24 0 59 -38 66
-72 6 -29 23 -39 23 -13 0 23 44 18 67 -7 33 -37 40 -58 47 -145 4 -56 3 -84
-5 -88 -24 -16 -40 22 -48 117 -8 95 -14 118 -32 118 -14 0 -11 -53 5 -75 7
-11 16 -44 19 -73 5 -41 3 -54 -9 -59 -32 -12 -44 16 -45 106 -1 84 -1 85 -15
53 -13 -30 -17 -32 -49 -26 -31 6 -35 4 -35 -16 0 -26 17 -60 30 -60 6 0 10 6
10 13 0 6 4 18 9 26 8 12 12 12 25 2 35 -29 8 -89 -33 -76 -26 8 -61 56 -62
87 -1 20 -2 20 -6 3 -15 -69 -36 -114 -63 -133 -35 -26 -46 -27 -54 -6 -9 24
2 35 29 28 18 -4 26 0 35 16 13 23 1 39 -27 40 -25 0 -48 54 -54 124 l-6 71
-1 -81 c-2 -76 -4 -82 -27 -92 -33 -15 -70 -1 -89 35 -14 25 -15 26 -16 7 0
-12 -7 -27 -16 -34 -31 -27 -44 7 -51 133 -6 115 -18 157 -41 143 -19 -11 -14
-66 8 -102 17 -27 20 -46 18 -105 -2 -40 -7 -74 -13 -76 -37 -11 -46 47 -56
350 l-3 77 -463 0 -463 0 0 -900z m899 774 c15 -19 21 -41 21 -78 0 -62 -8
-76 -52 -90 -27 -9 -34 -17 -36 -41 -1 -16 2 -36 7 -44 14 -21 41 -5 41 24 0
29 27 45 41 24 14 -23 10 -55 -9 -79 -23 -29 -64 -22 -88 15 -17 26 -32 194
-20 238 14 59 61 74 95 31z m-109 2 c0 -8 -5 -18 -10 -21 -7 -4 -7 -12 0 -25
25 -46 5 -124 -34 -134 -36 -9 -33 -25 15 -68 39 -36 41 -40 36 -83 -6 -58
-31 -87 -71 -83 -42 4 -62 44 -46 94 9 27 9 38 0 50 -8 9 -11 30 -7 59 4 25 2
47 -3 50 -11 7 -14 104 -4 130 14 35 124 62 124 31z m-154 -52 c13 -19 15 -32
8 -52 -12 -33 -35 -35 -50 -4 -6 13 -16 28 -21 33 -17 17 -35 -17 -31 -58 3
-38 3 -38 46 -38 53 0 72 -21 72 -78 0 -49 -44 -99 -79 -90 -31 8 -55 47 -47
78 9 36 41 33 55 -5 5 -16 17 -30 26 -30 22 0 38 46 24 71 -9 17 -17 19 -48
14 -26 -4 -41 -2 -48 7 -31 38 -27 108 8 152 27 34 63 34 85 0z m-123 -117
c10 -113 4 -160 -24 -188 -21 -21 -64 -25 -75 -7 -4 6 -11 25 -15 42 -7 31 -7
31 -8 -7 -1 -28 -9 -46 -30 -68 -16 -16 -34 -29 -40 -29 -16 0 -51 38 -51 55
0 23 28 85 38 85 22 0 52 43 52 75 0 53 -26 45 -42 -12 -9 -30 -20 -49 -31
-51 -39 -8 -3 109 39 125 28 10 49 -12 55 -58 5 -40 6 -38 7 22 2 46 7 70 17
79 26 22 34 0 41 -107 8 -115 14 -134 38 -114 22 18 20 63 -3 92 -37 48 -32
175 7 167 14 -3 18 -20 25 -101z m-264 -57 c1 -41 5 -110 8 -154 3 -55 1 -76
-6 -72 -6 4 -11 33 -11 65 0 63 -6 77 -27 60 -8 -8 -13 -35 -13 -79 0 -49 -4
-71 -15 -80 -10 -8 -19 -9 -24 -4 -15 16 -20 228 -6 268 17 49 44 78 69 74 19
-3 21 -11 25 -78z m521 -294 c0 -45 -3 -54 -20 -59 -23 -6 -24 -19 -20 -198 1
-66 -2 -124 -8 -135 -6 -10 -13 -27 -16 -37 -5 -16 -15 -17 -108 -11 -57 3
-152 7 -213 8 l-110 1 0 212 c0 116 3 215 8 219 4 4 45 10 92 12 62 3 85 8 85
18 0 13 24 15 243 22 l67 2 0 -54z m436 -60 c-13 -20 -22 -44 -19 -55 3 -13
-11 -34 -49 -70 -59 -57 -75 -64 -54 -23 21 40 45 69 46 55 0 -28 28 -11 33
20 6 42 29 100 47 122 27 32 24 -9 -4 -49z m-1066 11 c0 -20 -25 1 -28 24 -2
23 -2 23 13 5 8 -11 15 -24 15 -29z m844 -309 c-9 -18 -34 -53 -56 -77 -21
-24 -41 -56 -44 -70 -8 -33 -32 -71 -44 -71 -18 0 -10 27 19 63 19 24 27 44
24 60 -5 23 15 48 87 106 33 27 33 26 14 -11z m440 -214 c3 -9 6 -38 6 -65 0
-54 11 -63 29 -23 6 15 14 24 17 22 3 -3 -3 -22 -13 -42 -17 -36 -17 -37 10
-91 30 -61 34 -106 13 -125 -12 -9 -20 -2 -43 42 l-28 53 -3 -72 c-4 -89 -22
-97 -23 -10 0 61 0 61 -12 27 -7 -19 -19 -36 -29 -38 -27 -5 -32 34 -9 79 25
47 26 59 6 85 -14 18 -16 18 -29 1 -11 -14 -13 -42 -9 -121 7 -120 0 -159 -25
-154 -21 4 -31 55 -31 166 -1 95 15 138 55 148 35 9 62 -19 67 -70 3 -22 3 9
1 70 -3 110 3 134 32 134 6 0 15 -7 18 -16z m-1046 -27 c6 -7 21 -49 32 -92
31 -115 42 -117 34 -7 -4 59 -3 92 3 92 10 0 23 -75 23 -140 0 -35 0 -35 13
-10 32 63 107 8 107 -78 0 -62 -10 -75 -51 -70 -38 3 -46 -11 -30 -55 12 -31
41 -36 41 -8 0 28 21 37 37 16 19 -26 16 -63 -5 -74 -26 -14 -61 6 -82 47 -16
28 -18 30 -23 12 -3 -11 -12 -20 -20 -20 -17 0 -31 31 -53 125 -25 105 -37
105 -29 0 5 -69 4 -87 -5 -79 -13 13 -36 315 -26 340 7 17 20 18 34 1z m456
-102 c-3 -7 -14 -11 -26 -7 -14 3 -26 -1 -34 -13 -21 -29 -17 -35 21 -35 44 0
44 -1 4 -146 -17 -62 -29 -120 -25 -129 3 -9 18 -15 41 -15 28 0 35 -4 35 -20
0 -22 -28 -26 -90 -14 -52 11 -56 36 -26 158 25 101 27 134 5 121 -20 -13 -20
27 0 70 25 53 69 83 88 58 6 -8 9 -21 7 -28z m-168 -12 c4 -16 14 -36 22 -46
13 -15 14 -20 3 -26 -10 -7 -11 -36 -6 -138 8 -138 2 -161 -34 -129 -15 14
-20 40 -26 146 -4 72 -11 130 -16 130 -5 0 -9 7 -9 15 0 8 9 15 20 15 16 0 20
7 20 30 0 38 17 39 26 3z m548 -28 c22 -23 30 -78 16 -120 -9 -27 -21 -41 -47
-51 -31 -14 -34 -18 -31 -52 4 -51 33 -57 42 -8 8 40 31 54 46 26 23 -42 -38
-113 -78 -91 -30 16 -42 64 -42 171 0 83 3 99 20 118 24 26 52 28 74 7z m-113
-28 c8 -18 3 -54 -23 -161 -18 -75 -37 -138 -42 -139 -5 -1 -16 17 -23 41 -8
23 -18 42 -23 42 -4 0 -13 -23 -20 -50 -7 -28 -15 -50 -19 -50 -3 0 -28 56
-54 124 -52 135 -59 191 -22 191 15 0 26 -17 50 -82 16 -45 33 -85 38 -89 13
-13 7 45 -9 85 -18 47 -15 85 7 89 12 2 24 -16 45 -68 15 -39 31 -73 35 -76 5
-2 13 5 20 17 9 17 8 31 -1 60 -22 66 14 125 41 66z"/>
<path d="M867 1653 c-13 -13 -8 -103 6 -103 31 0 48 51 31 94 -6 16 -26 21
-37 9z"/>
<path d="M727 1644 c-13 -14 -7 -91 8 -104 12 -10 17 -7 26 14 19 41 -9 114
-34 90z"/>
<path d="M736 1394 c-14 -37 -3 -94 19 -94 15 0 25 22 25 55 0 33 -10 55 -25
55 -7 0 -16 -7 -19 -16z"/>
<path d="M299 1344 c-10 -28 -4 -64 12 -64 14 0 29 45 22 69 -7 29 -21 26 -34
-5z"/>
<path d="M201 1491 c-6 -11 -11 -43 -11 -71 0 -48 1 -50 20 -40 16 9 20 21 20
65 0 58 -13 78 -29 46z"/>
<path d="M536 374 c-10 -26 -7 -69 6 -82 28 -28 51 35 28 79 -13 23 -26 24
-34 3z"/>
<path d="M1187 394 c-4 -4 -7 -29 -7 -56 0 -36 4 -48 15 -48 17 0 28 35 23 76
-3 27 -18 41 -31 28z"/>
<path d="M1130 1596 c-13 -42 -23 -45 -44 -14 -15 21 -16 18 -15 -52 1 -57 3
-68 9 -47 13 43 29 57 67 57 34 0 34 0 31 42 -4 57 -31 64 -48 14z"/>
<path d="M1410 1500 c0 -33 3 -40 20 -40 21 0 27 30 14 64 -13 33 -34 17 -34
-24z"/>
<path d="M1109 1487 c-9 -19 -8 -31 2 -53 20 -41 34 -31 34 23 0 53 -19 68
-36 30z"/>
</g>
</svg>
